<?xml version="1.0" encoding="UTF-8" standalone="no"?>
<!-- Created with Inkscape (http://www.inkscape.org/) -->

<svg
   width="69.379044mm"
   height="65.17746mm"
   viewBox="0 0 69.379044 65.17746"
   version="1.1"
   id="svg1"
   inkscape:version="1.3.2 (091e20e, 2023-11-25)"
   sodipodi:docname="eatMeal.svg"
   xmlns:inkscape="http://www.inkscape.org/namespaces/inkscape"
   xmlns:sodipodi="http://sodipodi.sourceforge.net/DTD/sodipodi-0.dtd"
   xmlns="http://www.w3.org/2000/svg"
   xmlns:svg="http://www.w3.org/2000/svg">
  <sodipodi:namedview
     id="namedview1"
     pagecolor="#ffffff"
     bordercolor="#000000"
     borderopacity="0.25"
     inkscape:showpageshadow="2"
     inkscape:pageopacity="0.0"
     inkscape:pagecheckerboard="0"
     inkscape:deskcolor="#d1d1d1"
     inkscape:document-units="mm"
     inkscape:zoom="0.2102413"
     inkscape:cx="128.42386"
     inkscape:cy="123.66742"
     inkscape:window-width="1312"
     inkscape:window-height="449"
     inkscape:window-x="0"
     inkscape:window-y="25"
     inkscape:window-maximized="0"
     inkscape:current-layer="layer1" />
  <defs
     id="defs1" />
  <g
     inkscape:label="Layer 1"
     inkscape:groupmode="layer"
     id="layer1"
     transform="translate(-69.849998,-115.8875)">
    <ellipse
       class="cls-9"
       cx="104.53952"
       cy="148.47623"
       rx="34.689522"
       ry="32.58873"
       id="ellipse170"
       style="fill:#69bbbe;stroke-width:0px" />
    <path
       class="cls-10"
       d="m 111.0959,153.61443 c -0.28311,-0.0291 -0.61384,-0.17462 -0.93663,-0.3757 -0.63764,-0.39953 -1.05833,-0.93398 -1.45256,-1.57428 -0.6985,-1.13241 -0.94456,-2.19604 -1.05304,-2.65377 -0.42863,-1.78593 -1.016,-4.33916 -0.66675,-7.82902 0.0265,-0.27252 0.10318,-0.96573 0.25929,-1.82298 0.44979,-2.43152 1.66423,-8.99848 6.87917,-13.0175 0,0 2.69875,-2.16164 6.27591,-2.3786 2.01348,-0.12171 2.73844,0.57679 2.69346,2.62996 -0.0635,3.05858 -0.1905,6.11452 -0.24077,9.1731 -0.11906,7.30779 -0.24606,14.61559 -0.29633,21.92338 -0.0212,3.26496 0.14552,6.52991 0.20373,9.79487 0.0132,0.6694 -0.0212,1.35202 -0.12965,2.01348 -0.4789,2.90248 -2.25954,4.75192 -4.64344,4.84452 -2.62996,0.10054 -5.05089,-2.00554 -5.40014,-4.64079 -0.35455,-2.67494 -0.23813,-5.41073 -0.28575,-8.12535 -0.005,-0.27252 0.0397,-0.5424 0.0423,-0.81492 0.008,-0.51858 0.0476,-1.90765 0.0238,-2.41829 -0.008,-0.15081 0.0979,-1.3679 0.10584,-1.51871 0.0582,-1.18269 0.16933,-1.78065 -0.10584,-2.93158"
       id="path170"
       style="fill:#0e3643;stroke-width:0px" />
    <path
       class="cls-8"
       d="m 92.633271,125.24845 v 0 c -1.98702,-0.0291 -2.637895,0 -4.62227,-0.0265 0,0 -1.336146,-0.0582 -1.336146,-0.0556 0,0 0,0 0,0 -4.688417,0.0582 -4.479396,1.35732 -4.611688,2.81517 -0.238125,2.61673 -0.193145,5.49804 -0.219604,8.12006 -0.01852,1.94204 0.04762,3.53219 0.240771,5.56948 0.264583,2.78606 1.418167,5.41867 4.114271,6.51934 1.362604,0.55562 1.452562,1.14829 1.402292,2.20927 -0.02646,0.56885 -0.111125,1.1377 -0.116417,1.70656 -0.04763,5.70177 -0.08996,11.40619 -0.108479,17.10796 0,0.56091 0.06615,0.98954 0.113771,1.50283 0.320145,3.44752 1.812395,3.99785 3.468687,4.20423 2.386542,0.29633 5.074708,-0.56092 5.93725,-2.86015 0.407458,-1.08743 0.619125,-2.31775 0.619125,-3.48191 0,-5.96371 -0.08202,-11.92742 -0.174625,-17.89113 -0.01588,-1.00012 0.174625,-1.67216 1.116542,-2.29923 2.637899,-1.75418 3.907899,-4.37091 4.026959,-7.50887 0.15081,-4.04019 0.26458,-8.08302 0.32014,-12.12586 0.0397,-2.79929 -0.61912,-3.19616 -4.103683,-3.24908 l -5.090583,-0.24606 m 2.135187,0.39952"
       id="path171"
       style="fill:#174353;stroke-width:0px" />
    <path
       class="cls-11"
       d="m 97.401063,128.09537 c 0,0 0.01852,-0.003 0.02117,-0.0106 0.518583,-1.22238 2.759597,-0.82815 2.899827,0.41539 0.0106,0.0926 -0.003,1.19592 -0.003,1.28588 0.0291,3.47133 -0.0741,6.94267 -0.15875,10.414 -0.0688,2.84956 -0.989541,5.23081 -4.421187,6.09864 -1.143,0.2884 -1.042459,1.0795 -1.037167,1.86003 0.04233,6.42672 0.08467,12.85345 0.119063,19.28018 0.0053,0.77523 -0.01058,1.55575 -0.08996,2.32834 -0.137583,1.35731 -1.023937,2.19868 -2.468562,2.42887 -0.981604,0.15611 -2.275417,-1.2356 -2.38125,-2.48179 -0.06879,-0.8255 -0.0291,-1.65629 -0.02117,-2.48708 0.05821,-6.27063 0.09525,-12.54125 0.201083,-18.81188 0.01852,-1.17739 -0.418041,-1.79387 -1.66952,-2.23837 -2.883959,-1.02659 -3.836459,-3.06123 -3.923771,-6.17273 -0.0926,-3.21469 -0.0344,-6.08013 -0.03175,-9.28952 0,-0.59002 -0.02117,-1.09538 -0.04233,-1.5293 -0.105834,-2.16429 1.902354,-2.37595 2.616729,-1.397 0.07408,0.10319 0.124354,1.02394 0.132291,1.13242 0.248709,3.1459 0.367771,6.30238 0.526521,9.45621 0.0344,0.67204 0.04763,1.34673 0.08731,2.01877 0.05821,1.02394 0.531812,1.68275 1.799166,1.6166 1.225021,-0.0635 1.4605,-0.77258 1.444625,-1.7145 -0.05821,-3.57452 -0.08731,-7.14639 -0.124354,-10.72091 -0.01587,-1.52929 0.545042,-1.95527 1.272646,-2.10344 1.029229,-0.20902 1.486958,0.33338 1.733021,1.25942 0.03704,0.14287 0.06085,0.28839 0.06085,0.43127 -0.01588,3.42106 -0.15875,6.84212 -0.1905,10.26319 -0.01058,1.03452 -0.322792,2.48708 1.354667,2.61672 1.780645,0.13759 1.80975,-1.3335 1.865312,-2.45004 0.185208,-3.83116 0.291042,-7.66498 0.428625,-11.49879 z"
       id="path172"
       style="fill:#efecdd;stroke-width:0px" />
    <path
       class="cls-11"
       d="m 120.09702,152.88948 v 0 c 0.13494,-8.61484 0.26194,-17.23232 0.41804,-25.84715 0.0185,-0.95779 0.09,-1.35467 -1.25941,-0.80433 -1.77271,0.72231 -3.47663,1.82562 -4.68048,3.15383 -3.97669,4.38415 -5.715,9.5594 -5.24934,15.26117 0.30427,3.70416 1.85473,6.89504 6.11188,8.1227 0.13758,0.46567 -0.0661,0.60061 0.0714,1.06628 -0.0714,0.47625 -0.045,0.65087 -0.0609,1.28058 -0.045,0.42333 -0.09,0.84931 -0.13229,1.27264 v 0 c -0.13229,2.32834 -0.31221,4.65403 -0.38629,6.98236 -0.0635,1.91294 -0.0794,3.83117 0.0238,5.73881 0.082,1.50019 1.47638,2.95804 2.62467,2.98979 1.29646,0.037 2.69081,-1.39171 2.88131,-2.95275 0.0132,-0.10583 0.0185,-0.21166 0.0159,-0.3175 -0.15875,-4.35504 -0.32015,-8.71008 -0.48155,-13.06512 0.0344,-0.96044 0.0714,-1.92088 0.10584,-2.88396 z"
       id="path173"
       style="fill:#efecdd;stroke-width:0px" />
  </g>
</svg>
