<?xml version="1.0" encoding="UTF-8" standalone="no"?>
<!-- Created with Inkscape (http://www.inkscape.org/) -->

<svg
   width="67.160889mm"
   height="84.102753mm"
   viewBox="0 0 67.160889 84.102753"
   version="1.1"
   id="svg1"
   inkscape:version="1.3.2 (091e20e, 2023-11-25)"
   sodipodi:docname="washingHands.svg"
   xmlns:inkscape="http://www.inkscape.org/namespaces/inkscape"
   xmlns:sodipodi="http://sodipodi.sourceforge.net/DTD/sodipodi-0.dtd"
   xmlns:xlink="http://www.w3.org/1999/xlink"
   xmlns="http://www.w3.org/2000/svg"
   xmlns:svg="http://www.w3.org/2000/svg">
  <sodipodi:namedview
     id="namedview1"
     pagecolor="#ffffff"
     bordercolor="#000000"
     borderopacity="0.25"
     inkscape:showpageshadow="2"
     inkscape:pageopacity="0.0"
     inkscape:pagecheckerboard="0"
     inkscape:deskcolor="#d1d1d1"
     inkscape:document-units="mm"
     inkscape:zoom="0.2102413"
     inkscape:cx="128.42386"
     inkscape:cy="156.9625"
     inkscape:window-width="1312"
     inkscape:window-height="449"
     inkscape:window-x="0"
     inkscape:window-y="25"
     inkscape:window-maximized="0"
     inkscape:current-layer="layer1" />
  <defs
     id="defs1">
    <clipPath
       id="clippath">
      <ellipse
         class="cls-2"
         cx="202"
         cy="141.83"
         rx="125.14"
         ry="117.56"
         id="ellipse1" />
    </clipPath>
    <linearGradient
       id="Gradiente_sem_nome_30"
       data-name="Gradiente sem nome 30"
       x1="3608.3501"
       y1="4626.4102"
       x2="3772.27"
       y2="4626.4102"
       gradientTransform="rotate(85.11,4353.0974,465.06659)"
       gradientUnits="userSpaceOnUse">
      <stop
         offset="0"
         stop-color="#ffeac4"
         id="stop1" />
      <stop
         offset=".76"
         stop-color="#ffdaae"
         id="stop2" />
      <stop
         offset="1"
         stop-color="#ffd5a6"
         id="stop3" />
    </linearGradient>
    <linearGradient
       id="Gradiente_sem_nome_30-2"
       data-name="Gradiente sem nome 30"
       x1="394.82999"
       y1="-948.62"
       x2="561.15002"
       y2="-948.62"
       gradientTransform="rotate(-15.54,4435.381,472.21395)"
       xlink:href="#Gradiente_sem_nome_30" />
    <linearGradient
       inkscape:collect="always"
       xlink:href="#Gradiente_sem_nome_30"
       id="linearGradient7"
       gradientUnits="userSpaceOnUse"
       gradientTransform="rotate(85.11,4353.0974,465.06659)"
       x1="3608.3501"
       y1="4626.4102"
       x2="3772.27"
       y2="4626.4102" />
  </defs>
  <g
     inkscape:label="Layer 1"
     inkscape:groupmode="layer"
     id="layer1"
     transform="translate(-70.908333,-106.3625)">
    <ellipse
       class="cls-7"
       cx="104.22665"
       cy="142.99477"
       rx="33.109959"
       ry="31.104416"
       id="ellipse175"
       style="fill:#69bbbe;stroke-width:0px" />
    <g
       id="g189"
       transform="matrix(0.26458333,0,0,0.26458333,51.055989,105.35514)">
      <path
         class="cls-6"
         d="m 183.29,12.71 c -2.43,0.21 -5.03,-3.49 -5.69,-1.6 -1.73,4.98 7.61,16.75 10.06,23.6 9.69,27.17 -28.34,55.42 -32.18,88.12 -1.16,9.91 2.19,17.52 5.96,30.85 1.49,5.25 5.8,28.69 7.37,37.79 1,5.76 2.88,21.18 3.16,25.3 0.92,13.45 -3.11,29.31 -9.14,36.25 -8.77,10.1 -35.1,15.62 -36.95,25.07 -0.26,1.33 11.14,4.68 12.74,4.79 1.07,0.07 11.96,3.63 11.51,5 -0.92,2.76 -15.33,3.61 -16.05,4.35 -5.79,5.93 -63.68,9.13 -58.75,14.27 7.21,7.52 14.94,9.4 34.15,9.39 21.88,-0.02 23.78,-5.49 62.36,-0.4 55.96,7.38 58.06,9.37 50.67,-0.82 -7.14,-9.83 2.92,-5.4 8.47,-4.19 4.39,0.95 25.06,6.83 31.62,6.96 10.59,0.2 59.96,-6.5 58.54,-17.79 -2.17,-17.17 -69.67,-6.46 -74.46,-13.73 -3.82,-5.8 40.4,-2.14 38.95,-8.27 -0.67,-2.83 -16.47,-6.11 -21.72,-7.58 -4.9,-1.36 -17.67,-6.59 -23.12,-10.45 -8.12,-5.74 -6.67,-23.41 -7.56,-29.91 -1.04,-7.58 -0.03,-36.54 0.09,-37.52 3.49,-27.08 24.55,-98.72 6.84,-118.43 -4.62,-5.14 -8.85,-5.87 -15.1,-13.7 -4.24,-5.3 -13.51,-20.47 -13.05,-29.5 0.41,-8 8.83,-17.19 5.08,-22.82 C 213.63,2.55 201.53,3 195.97,6.18 c -3.95,2.26 -8.75,6.16 -12.66,6.5 z"
         id="path175"
         style="fill:#c6e7f1;stroke-width:0px" />
      <path
         class="cls-1"
         d="m 154.29,275.57 c 0.68,-4.96 7.75,-15.83 8.94,-17.65 3.96,-6.05 8.26,-10.95 9.61,-15.46 2.15,-7.21 -0.24,-12.51 0.03,-18.81 0.11,-2.54 -2.16,-7.4 0.3,-8.49 2.46,-1.1 3.83,-0.65 6.73,2.09 4.62,4.37 1,18.27 -0.17,24.38 -1.17,6.11 -3.24,18.64 -6.07,23.04 -3.75,5.85 -5.51,4.23 -6.19,11.22 -0.36,3.71 -0.25,6.31 3.14,12.47 4.82,8.75 13.32,12.54 11.18,12.54 -5.88,0 -17.36,-7.05 -20.81,-9.52 -5.54,-3.96 -6.35,-8.47 -7.13,-12.05 -0.55,-2.52 0.38,-3.31 0.44,-3.75 z"
         id="path176"
         style="fill:#eefcff;stroke-width:0px" />
      <path
         class="cls-1"
         d="m 177.87,289.43 c -1.03,-1.38 -4.82,-5.8 -4.45,-9.62 0.08,-0.81 1.19,-6.46 2.54,-7.83 0.55,-0.56 1.81,-4.41 3.43,-3.32 1.62,1.1 1.34,7.44 1.27,9.88 -0.11,3.85 2.86,10.31 4.53,12.73 1.85,2.69 10.42,6.11 8.77,7.36 -1.64,1.25 -13.25,-5.35 -16.1,-9.2 z"
         id="path177"
         style="fill:#eefcff;stroke-width:0px" />
      <path
         class="cls-6"
         d="m 285.78,92.51 c -2.71,-1.53 -2.41,-9.91 0.47,-15.34 2.88,-5.43 12.68,-14.33 20.98,-12.71 8.29,1.62 16.8,7.31 16.21,15.35 -0.23,3.18 -2.52,3.68 -4.73,4.18 -5.05,1.15 -8.29,-2.94 -14.29,-3.99 -1.42,-0.25 -7.48,-0.01 -10.24,1.31 -4.38,2.1 -5.7,12.72 -8.41,11.19 z"
         id="path178"
         style="fill:#c6e7f1;stroke-width:0px" />
      <path
         class="cls-1"
         d="m 145.02,62.46 c 2.71,-1.53 2.41,-9.91 -0.47,-15.34 -2.89,-5.43 -12.68,-14.33 -20.98,-12.71 -8.29,1.62 -16.8,7.31 -16.21,15.35 0.23,3.18 2.52,3.68 4.73,4.18 5.05,1.15 8.3,-2.94 14.29,-3.99 1.41,-0.25 7.49,-0.02 10.24,1.31 4.36,2.11 5.7,12.73 8.4,11.19 z"
         id="path179"
         style="fill:#eefcff;stroke-width:0px" />
      <path
         class="cls-1"
         d="m 299,117.79 c -1.46,-1.9 2.55,-6.71 6.15,-8.76 3.6,-2.05 12.93,-3.73 17.16,0.33 4.23,4.06 6.91,10.51 3.47,14.93 -1.36,1.75 -2.91,1.22 -4.38,0.69 -3.36,-1.19 -3.74,-4.76 -6.75,-7.6 -0.71,-0.67 -4.62,-2.76 -6.43,-3.02 -2.88,-0.41 -7.74,5.32 -9.21,3.42 z"
         id="path180"
         style="fill:#eefcff;stroke-width:0px" />
      <path
         class="cls-6"
         d="m 139.04,77.45 c 2.04,-1.26 -0.02,-7.17 -2.67,-10.36 -2.65,-3.19 -10.79,-8.04 -16.18,-5.73 -5.39,2.31 -10.16,7.41 -8.5,12.75 0.66,2.11 2.3,2.16 3.86,2.19 3.56,0.06 5.18,-3.14 8.99,-4.73 0.9,-0.38 5.29,-0.96 7.08,-0.56 2.84,0.63 5.38,7.7 7.41,6.44 z"
         id="path181"
         style="fill:#c6e7f1;stroke-width:0px" />
      <path
         class="cls-1"
         d="m 164.97,32.92 c -0.16,-0.59 -1.94,-5.79 -0.44,-8.27 0.28,-0.46 2.08,-6.15 4.8,-5.6 1.45,0.29 3.68,0.99 3.73,2.85 0.06,2.52 -3.01,3.68 -4.1,5.9 -1.91,3.92 3.93,9.42 2.06,11.72 -1.36,1.67 -5.43,-4.28 -6.06,-6.59 z"
         id="path182"
         style="fill:#eefcff;stroke-width:0px" />
      <path
         class="cls-6"
         d="m 159.04,29.3 c -0.48,-0.39 -4.6,-4.2 -7.51,-3.88 -0.54,0.06 -6.6,-0.75 -7.29,1.96 -0.37,1.44 -0.64,3.74 1.05,4.56 2.3,1.11 4.74,-1.16 7.25,-1.2 4.42,-0.08 7.12,7.51 10.05,6.79 2.14,-0.53 -1.68,-6.73 -3.55,-8.23 z"
         id="path183"
         style="fill:#c6e7f1;stroke-width:0px" />
      <path
         class="cls-6"
         d="m 298.14,185.37 c 0.25,0.56 2.85,5.41 1.77,8.1 -0.2,0.5 -1.05,6.38 -3.84,6.27 -1.48,-0.06 -3.8,-0.42 -4.15,-2.24 -0.47,-2.48 2.38,-4.09 3.09,-6.45 1.25,-4.17 -5.4,-8.69 -3.93,-11.25 1.07,-1.87 6.06,3.4 7.05,5.58 z"
         id="path184"
         style="fill:#c6e7f1;stroke-width:0px" />
      <path
         class="cls-1"
         d="m 313.93,182.31 c 0.53,0.3 5.24,3.41 8.04,2.67 0.52,-0.14 6.6,-0.2 6.86,-2.97 0.14,-1.47 -0.02,-3.73 -1.8,-4.27 -2.42,-0.73 -4.49,1.81 -6.94,2.22 -4.33,0.73 -8.26,-6.27 -11.04,-5.12 -2.02,0.83 2.81,6.32 4.87,7.47 z"
         id="path185"
         style="fill:#eefcff;stroke-width:0px" />
      <path
         class="cls-9"
         d="m 110.09,115.63 c -2.56,0.6 -4.62,1.89 -5.44,4.4 -1.17,3.58 0.74,7.75 4.43,8.59 3.69,0.84 6.21,-0.98 8.09,-4.43 0.62,-1.14 1.23,-3.98 -0.12,-5.85 -1.35,-1.87 -4.39,-3.31 -6.96,-2.71 z"
         id="path186"
         style="fill:#ffffff;stroke-width:0px" />
      <path
         class="cls-9"
         d="m 288.71,145.13 c 0.86,-2.64 3.35,-4.49 6.06,-4.63 5.9,-0.3 11.52,4.47 10.76,10.49 -0.56,4.48 -5.24,7.51 -9.43,6.83 -3.37,-0.55 -4.8,-4.14 -6.13,-6.74 -1,-1.94 -1.91,-3.94 -1.26,-5.94 z"
         id="path187"
         style="fill:#ffffff;stroke-width:0px" />
      <path
         class="cls-9"
         d="m 270.9,48.41 c -3.67,4.4 -2.57,10.83 1.96,14.2 5.01,3.73 12.09,2.46 15.41,-2.64 2.57,-3.96 1.71,-8.82 -1.57,-11.98 -4.43,-4.27 -11.7,-4.5 -15.81,0.42 z"
         id="path188"
         style="fill:#ffffff;stroke-width:0px" />
      <path
         class="cls-9"
         d="m 172.19,46.06 c -3.06,0.58 -6.42,3.35 -6.01,6.74 0.37,3.02 3.77,4.64 6.42,4.35 3.88,-0.42 7.45,-4.43 6.48,-8.14 -0.78,-2.98 -4.28,-3.45 -6.89,-2.96 z"
         id="path189"
         style="fill:#ffffff;stroke-width:0px" />
    </g>
    <g
       class="cls-10"
       clip-path="url(#clippath)"
       id="g220"
       transform="matrix(0.26458333,0,0,0.26458333,51.055989,105.35514)">
      <g
         id="g219">
        <path
           class="cls-6"
           d="m 187.21,4.33 c -3.13,-0.44 -4.51,-2.56 -5.39,-2.02 -2.12,1.3 5.24,13.84 8.42,24.59 6.05,20.47 -1.39,40.03 -3.82,45.69 -9.39,21.82 -27.31,29.48 -29.52,48.28 -0.63,5.36 -0.34,11.02 -0.34,11.02 1.05,12.2 7.24,19.46 10.11,65.44 2.09,33.45 -0.43,41.8 -1.68,45.47 -5.27,15.43 -14.27,24.49 -19.53,47.83 -2.22,9.82 -3.28,14.81 -1.35,18.86 6.34,13.25 31.81,12.58 71.07,11.11 39.35,-1.46 42.42,-6.54 43.11,-8.76 2.66,-8.52 -17.35,-14.77 -25.26,-38.73 -2.75,-8.34 -2.66,-17.01 -2.36,-34.02 0.18,-9.96 0.41,-23.66 3.37,-42.1 9.82,-61.13 36.96,-97.32 23.69,-110.3 -7.59,-7.42 -22.66,-1.66 -33.17,-15.25 -2.11,-2.73 -3.06,-5 -4.96,-9.53 -2.21,-5.28 -8.84,-21.14 -5.1,-38.71 2.94,-13.81 9.96,-18.2 7.07,-22.9 -2.86,-4.67 -13.82,-5.88 -21.22,-2.36 -5.26,2.5 -8.1,7.1 -13.14,6.4 z"
           id="path190"
           style="fill:#c6e7f1;stroke-width:0px" />
        <path
           class="cls-18"
           d="m 47.4,196.09 c 11.66,-11.19 20.9,-7.77 39.44,-18.4 6.23,-3.57 12.86,-7.4 18.94,-14.91 2.14,-2.64 4.23,-5.76 10.36,-19.96 7.1,-16.47 10.65,-24.71 13.38,-33.48 2.52,-8.12 7.05,-15.48 10.13,-23.4 1.85,-4.76 2.92,-7.85 5.13,-8.18 3.83,-0.57 10.19,7.32 11.11,15.83 1.51,13.85 -11.82,25.16 -8.08,29.3 0.54,0.6 1.62,0.84 3.78,1.31 0,0 5.65,1.43 11.52,-0.41 14.72,-4.61 20.67,-11.94 34.56,-21.44 10.22,-6.99 25.94,-17.75 33.58,-12.69 2.51,1.66 4.18,4.82 4.13,7.73 -0.11,6.5 -8.59,10.16 -20.73,18.03 -15.9,10.32 -24.95,19.37 -24.78,19.59 0.29,0.41 36.51,-18.45 53.18,-29.04 1.35,-0.86 6.33,-4.02 12.42,-3.37 1.28,0.14 5.96,0.63 7.85,3.95 2.18,3.82 -0.12,8.98 -2.46,11.76 -2.77,3.28 -6.46,4.32 -8.1,4.83 -7.89,2.42 -5.52,3.82 -24.75,14.1 -15.45,8.26 -26.5,12.43 -26.37,12.74 0.15,0.36 15.67,-3.55 34.88,-12.47 10.32,-4.79 20.68,-10.55 25.39,-6.67 1.72,1.42 2.58,4.03 2.72,4.48 1.25,3.94 0.04,8 -1.45,10.39 -3.07,4.9 -8.1,3.92 -20.07,8.21 -4.49,1.61 -8.53,3.7 -16.67,7.78 -8.36,4.2 -18.14,9.11 -17.57,10.75 0.54,1.55 10.52,0 18.3,-2.14 11.93,-3.28 16.92,-7.45 20.72,-4.81 2.34,1.63 3.24,5.16 2.66,7.76 -0.81,3.65 -4.55,5.63 -6.39,6.57 -16.37,8.38 -37.44,14.76 -37.44,14.76 -14.7,4.38 -10.65,5.65 -25.69,10.29 -16.91,5.21 -23.39,4.02 -49.35,10.58 -9.26,2.34 -13.96,3.55 -17.44,5.54 -12.84,7.33 -13.07,16.54 -24.61,22.9 -1.52,0.84 -11.89,6.37 -23.94,3.78 -16.63,-3.58 -30.61,-21.38 -27.95,-36.31 1.29,-7.22 6.13,-11.87 9.67,-15.27 z"
           id="path191"
           style="fill:url(#linearGradient7);stroke:#000000;stroke-width:0.5px;stroke-miterlimit:10" />
        <path
           class="cls-1"
           d="m 156.86,289.54 c 1.62,-9.73 5.73,-19.32 5.73,-19.32 6.59,-15.35 6.94,-12.87 7.55,-16.6 0.98,-5.96 -0.58,-8.18 -0.6,-20.52 0,-4.98 -1.43,-8.52 0.3,-9.66 1.58,-1.04 4.74,0.31 6.64,2.11 3.03,2.88 3.02,7.13 0.3,27.16 -2.73,20.14 -3.6,22.31 -5.13,24.75 -2.03,3.23 -4.41,5.65 -5.43,10.56 -0.54,2.61 -0.26,3.8 0,11.77 0.36,11.35 -0.11,12.23 -0.6,12.37 -1.36,0.4 -3.86,-4.48 -5.73,-8.15 -3.01,-5.88 -3.32,-9.19 -3.32,-11.17 0,-1.39 0.16,-2.46 0.3,-3.32 z"
           id="path192"
           style="fill:#eefcff;stroke-width:0px" />
        <g
           id="g194">
          <path
             class="cls-9"
             d="m 173.85,146.77 c 0,0 -6.71,2.4 -12.13,0 -6.68,-2.96 -10.49,-12.86 -7.75,-16.84 1.38,-2.01 4.07,-1.98 4.04,-3.03 -0.04,-1.88 -8.64,-0.88 -12.8,-5.73 -4,-4.67 -3.16,-13.92 0.67,-16.17 3.88,-2.27 10.47,2.84 11.79,1.01 0.72,-1 -1.39,-2.51 -1.35,-5.73 0.03,-2.39 1.24,-5.35 3.7,-6.74 2.93,-1.64 6.36,-0.33 8.08,0.34 3.24,1.25 4.5,3.09 5.05,2.69 1.13,-0.81 -5.2,-7.98 -4.72,-16.17 0.08,-1.31 0.28,-7.66 4.72,-10.78 2.61,-1.83 5.43,-1.67 10.1,-1.35 4.17,0.29 10.26,0.72 16.17,4.38 8.67,5.37 9.13,12.87 12.46,12.46 4.57,-0.56 2.55,-14.53 12.8,-23.91 1.64,-1.5 5.93,-5.32 12.13,-5.73 8.61,-0.56 17.88,5.68 18.52,12.13 0.18,1.8 -0.89,4.23 -3.03,9.09 -2.72,6.17 -3.91,6.89 -5.05,10.1 -1.32,3.7 -3.16,12.37 0.67,16.17 5.56,5.5 17.96,-4.23 26.27,2.36 2.51,1.99 3.84,4.84 5.05,7.41 1.67,3.55 4.07,8.69 2.02,12.46 -1.94,3.57 -6.27,3 -7.07,6.06 -0.57,2.17 1.19,4.04 3.37,7.07 1.13,1.57 6.64,9.26 8.08,15.83 1.11,5.06 0.49,12.58 -4.04,16.84 -2.61,2.45 -6.3,3.62 -17.51,3.03 -19.27,-1.02 -22.6,-5.23 -32.33,-4.38 -9.66,0.85 -20.07,6.2 -26.27,14.15 -12.61,16.16 -2.2,35.81 -13.47,42.44 -5.49,3.23 -13.17,1.62 -17.85,-1.01 -0.5,-0.28 -9.1,-5.25 -8.76,-11.79 0.31,-6 8.01,-10.05 6.74,-12.13 -0.58,-0.95 -2.55,-0.69 -2.69,-0.67 -2.64,0.37 -3.02,3.2 -5.39,4.72 -3.63,2.33 -10.46,0.63 -12.8,-3.03 -1.17,-1.84 -0.19,-2.57 -1.68,-7.41 -1.01,-3.26 -1.66,-5.26 -3.37,-6.06 -2.12,-0.99 -3.51,0.96 -6.4,0.67 -3.96,-0.39 -6.9,-4.59 -8.08,-7.41 -2.87,-6.85 1.44,-13.31 2.02,-14.15 1.13,-1.63 2.68,-3.87 5.39,-4.72 6.7,-2.1 14.95,6.01 15.16,5.73 0.22,-0.3 -10.99,-6.21 -10.44,-12.13 0.3,-3.23 4.1,-6.34 7.75,-6.74 6.19,-0.67 11.58,6.5 12.8,5.39 0.72,-0.66 -1.48,-2.91 -0.67,-5.05 1.37,-3.61 10.11,-3.66 10.1,-3.71 z"
             id="path193"
             style="fill:#ffffff;stroke-width:0px" />
          <path
             class="cls-3"
             d="m 173.02,115.62 c 0,0 -5.87,-4.04 -7.1,-9.83 -1.51,-7.15 4.28,-16.03 9.12,-16.14 2.44,-0.06 3.99,2.14 4.82,1.5 1.5,-1.14 -4.35,-7.52 -2.85,-13.73 1.44,-5.98 9.43,-10.71 13.5,-8.92 4.12,1.82 3.82,10.15 6.08,10.15 1.23,0 1.22,-2.6 3.85,-4.44 1.96,-1.37 5.07,-2.13 7.63,-0.94 3.05,1.41 3.99,4.97 4.46,6.75 0.89,3.36 0.13,5.46 0.77,5.67 1.32,0.44 3.42,-8.88 10.35,-13.29 1.11,-0.71 6.38,-4.26 11.5,-2.49 3.01,1.04 4.53,3.42 7.01,7.4 2.21,3.55 5.43,8.74 5.91,15.67 0.72,10.17 -5.09,14.94 -2.81,17.4 3.13,3.38 13.27,-6.44 26.88,-3.62 2.18,0.45 7.79,1.69 11.74,6.48 5.49,6.65 5.87,17.82 1.01,22.12 -1.36,1.2 -3.95,1.76 -9.15,2.87 -6.59,1.41 -7.88,0.87 -11.15,1.82 -3.77,1.1 -11.88,4.68 -12.71,10.01 -1.21,7.73 13.95,12.08 13.47,22.68 -0.14,3.2 -1.67,5.95 -3.05,8.43 -1.91,3.43 -4.66,8.39 -8.92,8.93 -4.03,0.52 -6.1,-3.33 -9.06,-2.19 -2.09,0.81 -2.58,3.33 -3.76,6.87 -0.62,1.84 -3.62,10.8 -8.1,15.82 -3.45,3.87 -9.91,7.76 -16.02,6.58 -3.52,-0.68 -6.63,-2.98 -12.71,-12.42 -10.46,-16.22 -8.99,-21.39 -15.38,-28.78 -6.34,-7.34 -16.77,-12.64 -26.85,-13.02 -20.48,-0.76 -30.32,19.18 -42.29,13.92 -5.83,-2.56 -9.02,-9.72 -9.63,-15.06 -0.06,-0.57 -1.07,-10.45 4.43,-14 5.05,-3.26 12.84,0.61 13.77,-1.64 0.43,-1.03 -0.93,-2.48 -1.03,-2.58 -1.85,-1.93 -4.36,-0.58 -6.98,-1.61 -4.02,-1.58 -6.64,-8.12 -5.04,-12.15 0.81,-2.03 1.98,-1.66 5.02,-5.7 2.05,-2.73 3.3,-4.43 2.94,-6.28 -0.44,-2.3 -2.83,-2.28 -4.29,-4.79 -2,-3.44 -0.32,-8.28 1.28,-10.89 3.88,-6.34 11.63,-6.62 12.65,-6.64 1.98,-0.04 4.7,-0.09 6.98,1.61 5.62,4.2 3.88,15.64 4.23,15.64 0.37,0 -1.4,-12.55 3.72,-15.56 2.8,-1.65 7.54,-0.38 10,2.34 4.17,4.62 1.51,13.19 3.12,13.53 0.96,0.2 1.49,-2.91 3.7,-3.5 3.73,-1 8.89,6.05 8.92,6.02 z"
             id="path194"
             style="opacity:0.59;fill:#ffffff;stroke-width:0px" />
        </g>
        <g
           id="g196">
          <path
             class="cls-8"
             d="m 298.13,257.79 c -13.15,-9.39 -11.49,-19.1 -25.37,-35.36 -4.66,-5.47 -9.65,-11.27 -18.15,-15.86 -6.99,-3.77 -9.45,-2.94 -21.53,-6.49 -22.48,-6.61 -20.83,-11.43 -33.18,-12.31 -4.04,-0.29 -5.82,0.11 -27.07,-0.28 -5.13,-0.09 -9.76,-0.24 -11.26,-3.04 -2.03,-3.8 3.02,-9.88 3.37,-10.29 5.87,-6.92 15.54,-7.62 19.35,-7.77 13.22,-0.52 21.25,5.47 23.94,2.3 1.24,-1.46 1.06,-4.5 -2.53,-11.25 -7.26,-13.61 -15.56,-18.11 -27.46,-30 -8.76,-8.76 -22.24,-22.22 -18.68,-30.65 1.17,-2.77 3.96,-4.99 6.84,-5.49 6.41,-1.1 11.57,6.57 21.55,17.04 13.08,13.72 23.64,20.94 23.84,20.73 0.34,-0.36 -24.88,-32.47 -38.37,-46.9 -1.09,-1.17 -5.12,-5.48 -5.61,-11.58 -0.1,-1.28 -0.48,-5.97 2.43,-8.44 3.36,-2.84 8.85,-1.55 12.02,0.24 3.74,2.11 5.44,5.55 6.24,7.07 3.83,7.31 4.78,4.72 18.43,21.72 10.97,13.66 17.12,23.74 17.39,23.56 0.32,-0.21 -6.39,-14.74 -18.7,-31.97 -6.61,-9.25 -14.19,-18.37 -11.24,-23.72 1.07,-1.95 3.48,-3.28 3.9,-3.5 3.64,-1.96 7.86,-1.52 10.48,-0.5 5.38,2.11 5.35,7.23 11.77,18.21 2.41,4.11 5.21,7.7 10.73,14.94 5.67,7.44 12.3,16.15 13.81,15.28 1.43,-0.82 -1.95,-10.34 -5.49,-17.59 -5.43,-11.12 -10.45,-15.25 -8.55,-19.47 1.17,-2.6 4.48,-4.13 7.13,-4.05 3.73,0.12 6.38,3.43 7.64,5.06 11.26,14.54 21.42,34.07 21.42,34.07 7.02,13.64 7.52,9.42 14.86,23.35 8.25,15.66 8.27,22.24 19.52,46.55 4.01,8.66 6.07,13.06 8.66,16.11 9.58,11.26 18.67,9.79 27.06,19.96 1.11,1.34 8.46,10.51 8.14,22.83 -0.44,17.01 -15.35,34.04 -30.52,34.18 -7.34,0.07 -12.8,-3.83 -16.79,-6.68 z"
             id="path195"
             style="fill:url(#Gradiente_sem_nome_30-2);stroke-width:0px" />
          <path
             class="cls-5"
             d="m 298.11,257.82 c -4.31,-3.05 -7.91,-7.02 -10.52,-11.62 -2.65,-4.55 -4.8,-9.37 -7.64,-13.8 -2.75,-4.48 -6.06,-8.59 -9.53,-12.53 -5.12,-5.98 -11.23,-11.2 -18.44,-14.46 -2.39,-1.09 -4.93,-1.76 -7.5,-2.32 -5.14,-1.09 -10.25,-2.41 -15.26,-4.03 -5.01,-1.61 -9.94,-3.55 -14.59,-6.03 -2.34,-1.21 -4.59,-2.58 -7.04,-3.5 -4.93,-1.91 -10.31,-1.66 -15.51,-1.64 -7.31,-0.07 -16.4,0.06 -23.69,-0.31 -7.49,-0.31 -9.56,-4.45 -5.64,-10.86 5.6,-9.66 18.09,-11.57 28.31,-10.4 3.95,0.44 7.77,1.53 11.6,2.49 2.17,0.59 5.76,1.17 5.92,-1.95 -0.02,-3.87 -2.23,-7.44 -4.01,-10.8 -5.02,-9.36 -13.29,-16.14 -21.03,-23.18 -7.38,-7.27 -26.38,-23.89 -24.67,-34.57 0.77,-3.97 4.53,-7.18 8.59,-7.32 5.53,0.2 9.22,5.15 12.81,8.75 0,0 5.32,5.82 5.32,5.82 7.59,8.17 15.69,15.96 24.76,22.48 0.38,0.25 1.01,0.69 1.4,0.88 -0.21,0.22 -0.08,0.07 -0.17,0.02 -2.2,-3.25 -4.71,-6.32 -7.1,-9.44 -9.77,-12.38 -19.72,-24.65 -30.32,-36.32 -3.74,-3.68 -6.61,-8.62 -6.58,-14.01 -0.46,-10.79 11.15,-10.8 17.4,-4.99 2.99,2.7 4.03,6.78 6.67,9.74 2.65,2.9 5.61,5.55 8.19,8.53 8.7,9.75 16.6,20.53 24,31.3 0.18,0.25 0.4,0.55 0.57,0.73 0.11,-0.06 -0.64,0.36 -0.34,0.17 -0.01,-0.06 -0.04,-0.14 -0.06,-0.21 -5.1,-11.55 -12.06,-22.23 -19.35,-32.5 -3.06,-4.27 -6.32,-8.42 -8.91,-13.06 -1.84,-3.29 -3.81,-8.17 -0.66,-11.36 2.82,-3 7.16,-4.21 11.15,-3.51 6.27,0.72 8.13,6.18 10.44,11.1 1.12,2.37 2.31,4.71 3.61,6.98 2.54,4.58 5.82,8.7 8.99,12.9 3.2,4.17 6.34,8.4 9.67,12.45 1.66,1.91 3.32,4.14 5.39,5.54 0.24,0.15 0.54,0.21 0.56,0.17 0.06,-0.02 0.16,-0.32 0.15,-0.61 -0.05,-1.9 -0.72,-3.8 -1.29,-5.63 -1.69,-4.95 -3.8,-9.78 -6.31,-14.37 -1.25,-2.3 -2.62,-4.54 -3.99,-6.78 -1.98,-3.22 -5.01,-7.79 -1.65,-11.14 2.87,-3.08 8.01,-3.52 11.19,-0.68 4,3.59 6.62,8.22 9.72,12.51 5.85,8.76 11.19,17.86 16.06,27.19 2.36,4.77 5.77,8.68 8.89,12.96 5.82,8.82 9.94,18.64 13.49,28.54 3.54,9.91 7.59,19.6 12.06,29.12 2.28,4.68 4.21,9.7 7.71,13.62 1.7,1.99 3.66,3.74 5.76,5.29 6.35,4.64 14.43,6.83 19.7,12.96 6.1,6.86 9.81,16.2 9.11,25.44 -1.06,14.15 -11.45,28.42 -25.35,32.24 -8.21,2.21 -15.57,-1.07 -22.03,-6.01 v 0 z m 0.04,-0.06 c 6.43,4.88 13.78,8.17 21.95,5.93 13.8,-3.83 24.09,-18.07 25.11,-32.12 0.75,-11.67 -5.23,-23.85 -15.1,-30.19 -6.74,-4.01 -14.45,-6.9 -19.55,-13.17 -3.56,-3.96 -5.52,-9 -7.83,-13.71 -4.51,-9.51 -8.61,-19.23 -12.19,-29.12 -3.56,-9.86 -7.71,-19.58 -13.5,-28.34 -3.08,-4.21 -6.59,-8.29 -8.93,-13.03 -6.1,-11.64 -12.81,-22.96 -20.53,-33.59 -1.61,-2.06 -3.03,-4.33 -5.05,-5.9 -2.92,-2.61 -7.59,-2.2 -10.21,0.61 -3.08,3.16 -0.04,7.25 1.73,10.28 1.37,2.24 2.75,4.49 4.01,6.81 2.53,4.64 4.65,9.49 6.35,14.49 3.78,11.46 -1.41,7.08 -6.04,1.21 -3.34,-4.08 -6.48,-8.3 -9.68,-12.48 -3.16,-4.19 -6.46,-8.34 -9.03,-12.98 -1.31,-2.29 -2.51,-4.65 -3.63,-7.03 -1.76,-3.4 -2.86,-7.51 -6.31,-9.52 -4.5,-2.39 -10.63,-1.66 -14.15,2.1 -5.54,5.66 6.31,18.43 9.58,23.59 6.15,8.55 11.77,17.49 16.61,26.85 0.99,2 2.08,3.98 2.8,6.1 0.39,-0.03 -0.46,0.61 -0.51,0.33 -0.37,-0.31 -4.72,-6.75 -5.14,-7.31 -6.05,-8.59 -12.44,-16.97 -19.4,-24.84 -2.58,-2.99 -5.52,-5.63 -8.18,-8.56 -1.77,-1.98 -2.84,-4.46 -4.19,-6.7 -2.66,-4.47 -7.95,-7.28 -13.15,-6.73 -7.54,0.93 -7.03,10.78 -4.29,15.96 1.16,2.35 2.82,4.4 4.65,6.28 7.1,7.78 13.8,15.89 20.44,24.05 5.74,7.2 11.67,14.26 17.01,21.77 -0.05,0.05 0.3,0.16 -0.09,0.39 -1.13,-0.52 -2.13,-1.37 -3.15,-2.07 -8.43,-6.33 -16.09,-13.61 -23.25,-21.32 -3.07,-3.27 -7.51,-8.46 -10.94,-11.33 -4.26,-3.87 -9.67,-4.35 -13.5,0.45 -9.9,11.69 26.78,39.98 34.62,48.25 5.56,5.64 10.18,12.3 12.99,19.74 1.98,5.58 -0.18,8.16 -6,6.51 -3.82,-0.94 -7.62,-2.02 -11.53,-2.45 -9.99,-1.12 -22.22,0.6 -27.73,10.04 -6.62,11.22 5.54,10.06 13.05,10.27 3.95,0.07 11.83,0.14 15.77,0.15 5.23,0 10.68,-0.24 15.66,1.71 2.49,0.95 4.75,2.33 7.07,3.54 4.63,2.48 9.52,4.42 14.52,6.05 5,1.64 10.08,2.96 15.22,4.07 2.57,0.57 5.14,1.25 7.54,2.36 7.23,3.28 13.37,8.56 18.48,14.57 3.47,3.96 6.77,8.08 9.51,12.58 2.83,4.45 4.97,9.28 7.6,13.83 2.59,4.59 6.17,8.56 10.46,11.62 v 0 z"
             id="path196"
             style="fill:#000000;stroke-width:0px" />
        </g>
        <path
           class="cls-1"
           d="m 171.05,301.73 c -0.44,-2.07 -1.1,-5.31 -0.34,-9.43 0.16,-0.88 0.87,-4.38 3.37,-8.08 1.01,-1.49 2.73,-4.04 3.7,-3.7 1.24,0.43 0.62,5.29 0,10.1 -0.98,7.62 -1.92,8.63 -2.02,13.47 -0.11,5.37 0.97,8.22 0.34,8.42 -0.88,0.28 -3.82,-5.03 -5.05,-10.78 z"
           id="path197"
           style="fill:#eefcff;stroke-width:0px" />
        <path
           class="cls-6"
           d="m 286.22,93.42 c -1.52,-0.23 -3.34,-8.76 0,-16.5 3.34,-7.75 12.34,-15.85 22.57,-14.48 9.95,1.33 18.54,11.29 16.84,16.84 -0.67,2.19 -2.99,3.82 -5.05,4.38 -4.71,1.29 -7.06,-3.21 -14.48,-4.38 -1.75,-0.27 -6.79,-1.07 -11.11,1.35 -6.87,3.83 -7.15,13.04 -8.76,12.8 z"
           id="path198"
           style="fill:#c6e7f1;stroke-width:0px" />
        <path
           class="cls-1"
           d="m 306.47,118.7 c -0.8,-0.71 1.38,-6.37 6.25,-9.62 4.88,-3.25 13.2,-4.56 18.64,0.11 5.29,4.55 6.53,13.6 3.43,16.19 -1.22,1.02 -3.19,1.09 -4.6,0.64 -3.23,-1.03 -2.9,-4.55 -6.78,-8.04 -0.92,-0.82 -3.55,-3.19 -6.99,-3.43 -5.45,-0.37 -9.11,4.89 -9.95,4.14 z"
           id="path199"
           style="fill:#eefcff;stroke-width:0px" />
        <path
           class="cls-1"
           d="m 165,33.85 c -0.48,-1.15 -1.93,-4.76 -0.73,-8.97 0.22,-0.78 1.8,-6.31 5.12,-6.4 1.76,-0.05 3.8,1.43 4.03,3.11 0.31,2.29 -2.98,3.05 -4.39,6.22 -2.49,5.59 3.64,12.44 2.56,13.18 -0.79,0.53 -4.71,-2.65 -6.59,-7.14 z"
           id="path200"
           style="fill:#eefcff;stroke-width:0px" />
        <path
           class="cls-1"
           d="m 158.48,29 c -0.84,-0.92 -3.5,-3.76 -7.82,-4.44 -0.8,-0.13 -6.48,-1.02 -7.97,1.95 -0.79,1.58 -0.3,4.05 1.12,4.96 1.94,1.24 4.03,-1.42 7.49,-1.36 6.12,0.1 9.75,8.55 10.87,7.88 0.82,-0.49 -0.42,-5.39 -3.7,-8.98 z"
           id="path201"
           style="fill:#eefcff;stroke-width:0px" />
        <path
           class="cls-6"
           d="m 266.33,238.42 c 0.66,1.06 2.66,4.4 2.14,8.74 -0.1,0.8 -0.79,6.51 -4.05,7.13 -1.73,0.33 -3.98,-0.81 -4.47,-2.44 -0.67,-2.21 2.46,-3.49 3.36,-6.84 1.57,-5.91 -5.56,-11.71 -4.61,-12.61 0.69,-0.65 5.07,1.87 7.63,6.01 z"
           id="path202"
           style="fill:#c6e7f1;stroke-width:0px" />
        <path
           class="cls-1"
           d="m 312.93,193.17 c 0.98,0.78 4.05,3.16 8.43,3.15 0.81,0 6.56,-0.01 7.56,-3.18 0.53,-1.68 -0.34,-4.04 -1.89,-4.72 -2.11,-0.92 -3.75,2.03 -7.19,2.52 -6.06,0.86 -10.97,-6.9 -11.97,-6.07 -0.73,0.61 1.26,5.25 5.06,8.29 z"
           id="path203"
           style="fill:#eefcff;stroke-width:0px" />
        <path
           class="cls-1"
           d="m 99.62,148 c -1.24,0.17 -5.1,0.66 -8.86,-1.58 -0.7,-0.41 -5.64,-3.35 -4.89,-6.59 0.4,-1.72 2.35,-3.31 4.03,-3.1 2.29,0.28 2.19,3.66 4.9,5.83 4.77,3.83 12.96,-0.35 13.39,0.88 0.32,0.9 -3.76,3.88 -8.58,4.55 z"
           id="path204"
           style="fill:#eefcff;stroke-width:0px" />
        <path
           class="cls-1"
           d="m 93.27,153.07 c -1.11,0.58 -4.53,2.43 -6.29,6.43 -0.33,0.74 -2.64,6.01 -0.15,8.2 1.32,1.16 3.84,1.32 5.08,0.18 1.7,-1.56 -0.35,-4.25 0.59,-7.59 1.65,-5.89 10.75,-7.25 10.38,-8.5 -0.26,-0.91 -5.31,-0.97 -9.63,1.29 z"
           id="path205"
           style="fill:#eefcff;stroke-width:0px" />
        <path
           class="cls-9"
           d="m 109.41,115.81 c -2.46,0.43 -4.85,2.14 -5.73,4.72 -1.25,3.66 0.79,8.4 4.72,9.43 3.74,0.98 7.14,-1.94 8.42,-4.72 0.42,-0.92 1.52,-3.78 0,-6.4 -1.54,-2.66 -4.85,-3.48 -7.41,-3.03 z"
           id="path206"
           style="fill:#ffffff;stroke-width:0px" />
        <path
           class="cls-9"
           d="m 272.09,50.47 c -2.96,3.73 -2.1,9.54 1.68,12.46 4.17,3.23 10.58,1.93 13.14,-2.36 1.98,-3.33 1.23,-7.77 -1.35,-10.44 -3.48,-3.61 -10.15,-3.84 -13.47,0.34 z"
           id="path207"
           style="fill:#ffffff;stroke-width:0px" />
        <path
           class="cls-9"
           d="m 172.73,47.44 c -2.39,0.43 -5.08,2.54 -4.72,4.72 0.32,1.94 2.94,3.2 5.05,3.03 3.1,-0.25 5.8,-3.62 5.05,-5.73 -0.6,-1.7 -3.36,-2.38 -5.39,-2.02 z"
           id="path208"
           style="fill:#ffffff;stroke-width:0px" />
        <g
           id="g218">
          <path
             class="cls-4"
             d="m 212.99,140.22 1.21,-0.96 c -0.3,-0.13 -0.68,-0.14 -1.15,-0.03 -1.53,0.18 -3.07,0.39 -4.62,0.62 -1.55,0.22 -3.1,0.46 -4.67,0.74 -0.44,0.03 -0.87,0.16 -1.32,0.39 -0.85,0.64 -1.69,1.28 -2.55,1.93 2.87,0.11 5.72,0.22 8.59,0.33 l 2.16,-3.11 c 0.25,-0.35 -4.78,0.07 -4.7,0.07 -1.27,0.08 -2.56,0.19 -3.85,0.33 -0.37,-0.01 -0.74,0.09 -1.12,0.29 l -2.35,1.63 c 2.34,0.38 4.69,0.76 7.04,1.13 1.81,-1.78 3.62,-3.55 5.44,-5.33 -2.83,-0.1 -5.64,-0.21 -8.47,-0.32 -1.47,2.18 -2.95,4.36 -4.42,6.54 -0.36,0.54 2.61,1.37 2.78,1.42 -0.02,-0.01 2.96,1.29 3.31,0.91 2.6,-2.85 5.2,-5.71 7.81,-8.56 -2.56,-0.32 -5.13,-0.63 -7.7,-0.95 l -4.79,5.85 c -0.43,0.53 2.16,1.67 2.3,1.75 -0.02,-0.02 2.52,1.62 2.88,1.27 l 7.27,-7.14 -6.86,-1.75 c -1.08,2.1 -2.18,4.21 -3.26,6.32 -0.38,0.74 1.42,1.84 1.74,2.14 -0.05,-0.05 2.1,1.99 2.39,1.7 2.27,-2.4 4.55,-4.81 6.82,-7.21 l -6.05,-2.46 c -0.64,1.25 -1.29,2.51 -1.93,3.76 -0.41,0.8 1.08,1.96 1.39,2.35 -0.04,-0.06 1.78,2.21 2.06,1.93 2.37,-2.34 4.73,-4.68 7.1,-7.02 -1.78,-1.01 -3.56,-2.02 -5.34,-3.03 -0.54,1.03 -1.07,2.06 -1.61,3.08 -0.44,0.85 0.74,2.06 1.02,2.55 0.05,0.09 1.06,2.44 1.72,2.16 l 3.09,-1.31 c 0.35,-0.15 -2.09,-2.21 -2.02,-2.15 -0.22,-0.18 -1.8,-2.01 -2.65,-1.7 l -1.17,0.43 c 0.92,1.58 1.83,3.15 2.74,4.72 1.4,-1.59 2.81,-3.18 4.21,-4.77 0.44,-0.5 -2.27,-1.7 -2.38,-1.76 0.05,0.03 -2.66,-1.61 -2.97,-1.27 -1.73,1.92 -3.47,3.84 -5.21,5.77 1.15,1.43 2.3,2.86 3.45,4.28 1.52,-1.86 3.02,-3.72 4.53,-5.59 0.4,-0.49 -2.65,-1.44 -2.76,-1.48 0.04,0.02 -3,-1.33 -3.3,-0.98 -1.63,1.94 -3.27,3.89 -4.9,5.83 l 4.13,3.84 c 2,-2.8 4,-5.6 6,-8.41 0.44,-0.62 -6.52,-2.11 -6.86,-1.75 l -5.58,5.87 c 1.73,1.01 3.45,2.02 5.18,3.02 l 7.3,-7.93 c 0.18,-0.19 -7.13,-1.62 -7.7,-0.95 -2.06,2.39 -4.13,4.78 -6.19,7.17 2.03,0.78 4.06,1.56 6.08,2.33 l 6.81,-8.56 c 0.3,-0.37 -4.1,-0.44 -4.05,-0.44 -0.12,0 -3.97,-0.38 -4.41,0.11 -1.33,1.5 -2.67,3 -3.99,4.5 -0.35,0.39 3.31,0.84 3.3,0.84 0.32,0.05 3.03,0.79 3.74,0.3 1.66,-1.15 3.32,-2.31 4.98,-3.45 -3.22,0.22 -6.45,0.45 -9.67,0.68 l -1.08,2.1 c -0.24,0.47 4.04,0.44 4.11,0.44 0.47,0.02 3.64,0.47 4.47,-0.11 1.91,-1.33 3.82,-2.65 5.71,-3.97 -3.92,0.57 -7.84,1.15 -11.76,1.72 l -0.93,0.62 c 0.28,0.14 0.65,0.16 1.12,0.07 1.49,-0.14 3,-0.3 4.52,-0.49 1.51,-0.18 3.03,-0.38 4.56,-0.6 0.43,-0.01 0.86,-0.13 1.29,-0.36 v 0.02 z"
             id="path209"
             style="opacity:0.15;isolation:isolate;fill:#feb086;stroke-width:0px" />
          <path
             class="cls-4"
             d="m 225.73,122.76 1.21,-0.96 c -0.3,-0.13 -0.68,-0.14 -1.15,-0.03 -1.53,0.18 -3.07,0.39 -4.62,0.62 -1.55,0.22 -3.1,0.46 -4.67,0.74 -0.44,0.03 -0.87,0.16 -1.32,0.39 -0.85,0.64 -1.69,1.28 -2.55,1.93 2.87,0.11 5.72,0.22 8.59,0.33 l 2.16,-3.11 c 0.25,-0.35 -4.78,0.07 -4.7,0.07 -1.27,0.08 -2.56,0.19 -3.85,0.33 -0.37,-0.01 -0.74,0.09 -1.12,0.29 l -2.35,1.63 c 2.34,0.38 4.69,0.76 7.04,1.13 1.81,-1.78 3.62,-3.55 5.44,-5.33 -2.83,-0.1 -5.64,-0.21 -8.47,-0.32 -1.47,2.18 -2.95,4.36 -4.42,6.54 -0.36,0.54 2.61,1.37 2.78,1.42 -0.02,-0.01 2.96,1.29 3.31,0.91 2.6,-2.85 5.2,-5.71 7.81,-8.56 -2.56,-0.32 -5.13,-0.63 -7.7,-0.95 l -4.79,5.85 c -0.43,0.53 2.16,1.67 2.3,1.75 -0.02,-0.02 2.52,1.62 2.88,1.27 l 7.27,-7.14 -6.86,-1.75 c -1.08,2.1 -2.18,4.21 -3.26,6.32 -0.38,0.74 1.42,1.84 1.74,2.14 -0.05,-0.05 2.1,1.99 2.39,1.7 2.27,-2.4 4.55,-4.81 6.82,-7.21 l -6.05,-2.46 c -0.64,1.25 -1.29,2.51 -1.93,3.76 -0.41,0.8 1.08,1.96 1.39,2.35 -0.04,-0.06 1.78,2.21 2.06,1.93 2.37,-2.34 4.73,-4.68 7.1,-7.02 -1.78,-1.01 -3.56,-2.02 -5.34,-3.03 -0.54,1.03 -1.07,2.06 -1.61,3.08 -0.44,0.85 0.74,2.06 1.02,2.55 0.05,0.09 1.06,2.44 1.72,2.16 l 3.09,-1.31 c 0.35,-0.15 -2.09,-2.21 -2.02,-2.15 -0.22,-0.18 -1.8,-2.01 -2.65,-1.7 l -1.17,0.43 c 0.92,1.58 1.83,3.15 2.74,4.72 1.4,-1.59 2.81,-3.18 4.21,-4.77 0.44,-0.5 -2.27,-1.7 -2.38,-1.76 0.05,0.03 -2.66,-1.61 -2.97,-1.27 -1.73,1.92 -3.47,3.84 -5.21,5.77 1.15,1.43 2.3,2.86 3.45,4.28 1.52,-1.86 3.02,-3.72 4.53,-5.59 0.4,-0.49 -2.65,-1.44 -2.76,-1.48 0.04,0.02 -3,-1.33 -3.3,-0.98 -1.63,1.94 -3.27,3.89 -4.9,5.83 l 4.13,3.84 c 2,-2.8 4,-5.6 6,-8.41 0.44,-0.62 -6.52,-2.11 -6.86,-1.75 l -5.58,5.87 c 1.73,1.01 3.45,2.02 5.18,3.02 l 7.3,-7.93 c 0.18,-0.19 -7.13,-1.62 -7.7,-0.95 -2.06,2.39 -4.13,4.78 -6.19,7.17 2.03,0.78 4.06,1.56 6.08,2.33 l 6.81,-8.56 c 0.3,-0.37 -4.1,-0.44 -4.05,-0.44 -0.12,0 -3.97,-0.38 -4.41,0.11 -1.33,1.5 -2.67,3 -3.99,4.5 -0.35,0.39 3.31,0.84 3.3,0.84 0.32,0.05 3.03,0.79 3.74,0.3 1.66,-1.15 3.32,-2.31 4.98,-3.45 -3.22,0.22 -6.45,0.45 -9.67,0.68 l -1.08,2.1 c -0.24,0.47 4.04,0.44 4.11,0.44 0.47,0.02 3.64,0.47 4.47,-0.11 1.91,-1.33 3.82,-2.65 5.71,-3.97 -3.92,0.57 -7.84,1.15 -11.76,1.72 l -0.93,0.62 c 0.28,0.14 0.65,0.16 1.12,0.07 1.49,-0.14 3,-0.3 4.52,-0.49 1.51,-0.18 3.03,-0.38 4.56,-0.6 0.43,-0.01 0.86,-0.13 1.29,-0.36 v 0.02 z"
             id="path210"
             style="opacity:0.15;isolation:isolate;fill:#feb086;stroke-width:0px" />
          <path
             class="cls-4"
             d="m 242.05,109.27 1.21,-0.96 c -0.3,-0.13 -0.68,-0.14 -1.15,-0.03 -1.53,0.18 -3.07,0.39 -4.62,0.62 -1.55,0.22 -3.1,0.46 -4.67,0.74 -0.44,0.03 -0.87,0.16 -1.32,0.39 -0.85,0.64 -1.69,1.28 -2.55,1.93 2.87,0.11 5.72,0.22 8.59,0.33 l 2.16,-3.11 c 0.25,-0.35 -4.78,0.07 -4.7,0.07 -1.27,0.08 -2.56,0.19 -3.85,0.33 -0.37,-0.01 -0.74,0.09 -1.12,0.29 l -2.35,1.63 c 2.34,0.38 4.69,0.76 7.04,1.13 1.81,-1.78 3.62,-3.55 5.44,-5.33 -2.83,-0.1 -5.64,-0.21 -8.47,-0.32 -1.47,2.18 -2.95,4.36 -4.42,6.54 -0.36,0.54 2.61,1.37 2.78,1.42 -0.02,-0.01 2.96,1.29 3.31,0.91 2.6,-2.85 5.2,-5.71 7.81,-8.56 -2.56,-0.32 -5.13,-0.63 -7.7,-0.95 l -4.79,5.85 c -0.43,0.53 2.16,1.67 2.3,1.75 -0.02,-0.02 2.52,1.62 2.88,1.27 l 7.27,-7.14 c -2.29,-0.58 -4.58,-1.17 -6.86,-1.75 -1.08,2.1 -2.18,4.21 -3.26,6.32 -0.38,0.74 1.42,1.84 1.74,2.14 -0.05,-0.05 2.1,1.99 2.39,1.7 2.27,-2.4 4.55,-4.81 6.82,-7.21 l -6.05,-2.46 c -0.64,1.25 -1.29,2.51 -1.93,3.76 -0.41,0.8 1.08,1.96 1.39,2.35 -0.04,-0.06 1.78,2.21 2.06,1.93 2.37,-2.34 4.73,-4.68 7.1,-7.02 -1.78,-1.01 -3.56,-2.02 -5.34,-3.03 -0.54,1.03 -1.07,2.06 -1.61,3.08 -0.44,0.85 0.74,2.06 1.02,2.55 0.05,0.09 1.06,2.44 1.72,2.16 l 3.09,-1.31 c 0.35,-0.15 -2.09,-2.21 -2.02,-2.15 -0.22,-0.18 -1.8,-2.01 -2.65,-1.7 l -1.17,0.43 c 0.92,1.58 1.83,3.15 2.74,4.72 1.4,-1.59 2.81,-3.18 4.21,-4.77 0.44,-0.5 -2.27,-1.7 -2.38,-1.76 0.05,0.03 -2.66,-1.61 -2.97,-1.27 -1.73,1.92 -3.47,3.84 -5.21,5.77 1.15,1.43 2.3,2.86 3.45,4.28 1.52,-1.86 3.02,-3.72 4.53,-5.59 0.4,-0.49 -2.65,-1.44 -2.76,-1.48 0.04,0.02 -3,-1.33 -3.3,-0.98 -1.63,1.94 -3.27,3.89 -4.9,5.83 l 4.13,3.84 c 2,-2.8 4,-5.6 6,-8.41 0.44,-0.62 -6.52,-2.11 -6.86,-1.75 l -5.58,5.87 c 1.73,1.01 3.45,2.02 5.18,3.02 l 7.3,-7.93 c 0.18,-0.19 -7.13,-1.62 -7.7,-0.95 -2.06,2.39 -4.13,4.78 -6.19,7.17 2.03,0.78 4.06,1.56 6.08,2.33 l 6.81,-8.56 c 0.3,-0.37 -4.1,-0.44 -4.05,-0.44 -0.12,0 -3.97,-0.38 -4.41,0.11 -1.33,1.5 -2.67,3 -3.99,4.5 -0.35,0.39 3.31,0.84 3.3,0.84 0.32,0.05 3.03,0.79 3.74,0.3 1.66,-1.15 3.32,-2.31 4.98,-3.45 -3.22,0.22 -6.45,0.45 -9.67,0.68 l -1.08,2.1 c -0.24,0.47 4.04,0.44 4.11,0.44 0.47,0.02 3.64,0.47 4.47,-0.11 1.91,-1.33 3.82,-2.65 5.71,-3.97 -3.92,0.57 -7.84,1.15 -11.76,1.72 l -0.93,0.62 c 0.28,0.14 0.65,0.16 1.12,0.07 1.49,-0.14 3,-0.3 4.52,-0.49 1.51,-0.18 3.03,-0.38 4.56,-0.6 0.43,-0.01 0.86,-0.13 1.29,-0.36 v 0.02 z"
             id="path211"
             style="opacity:0.15;isolation:isolate;fill:#feb086;stroke-width:0px" />
          <path
             class="cls-4"
             d="m 262.64,102.05 1.21,-0.96 c -0.3,-0.13 -0.68,-0.14 -1.15,-0.03 -1.53,0.18 -3.07,0.39 -4.62,0.62 -1.55,0.22 -3.1,0.46 -4.67,0.74 -0.44,0.03 -0.87,0.16 -1.32,0.39 -0.85,0.64 -1.69,1.28 -2.55,1.93 2.87,0.11 5.72,0.22 8.59,0.33 l 2.16,-3.11 c 0.25,-0.35 -4.78,0.07 -4.7,0.07 -1.27,0.08 -2.56,0.19 -3.85,0.33 -0.37,-0.01 -0.74,0.09 -1.12,0.29 l -2.35,1.63 c 2.34,0.38 4.69,0.76 7.04,1.13 1.81,-1.78 3.62,-3.55 5.44,-5.33 -2.83,-0.1 -5.64,-0.21 -8.47,-0.32 -1.47,2.18 -2.95,4.36 -4.42,6.54 -0.36,0.54 2.61,1.37 2.78,1.42 -0.02,-0.01 2.96,1.29 3.31,0.91 2.6,-2.85 5.2,-5.71 7.81,-8.56 -2.56,-0.32 -5.13,-0.63 -7.7,-0.95 l -4.79,5.85 c -0.43,0.53 2.16,1.67 2.3,1.75 -0.02,-0.02 2.52,1.62 2.88,1.27 l 7.27,-7.14 -6.86,-1.75 c -1.08,2.1 -2.18,4.21 -3.26,6.32 -0.38,0.74 1.42,1.84 1.74,2.14 -0.05,-0.05 2.1,1.99 2.39,1.7 2.27,-2.4 4.55,-4.81 6.82,-7.21 l -6.05,-2.46 c -0.64,1.25 -1.29,2.51 -1.93,3.76 -0.41,0.8 1.08,1.96 1.39,2.35 -0.04,-0.06 1.78,2.21 2.06,1.93 2.37,-2.34 4.73,-4.68 7.1,-7.02 -1.78,-1.01 -3.56,-2.02 -5.34,-3.03 -0.54,1.03 -1.07,2.06 -1.61,3.08 -0.44,0.85 0.74,2.06 1.02,2.55 0.05,0.09 1.06,2.44 1.72,2.16 l 3.09,-1.31 c 0.35,-0.15 -2.09,-2.21 -2.02,-2.15 -0.22,-0.18 -1.8,-2.01 -2.65,-1.7 l -1.17,0.43 c 0.92,1.58 1.83,3.15 2.74,4.72 1.4,-1.59 2.81,-3.18 4.21,-4.77 0.44,-0.5 -2.27,-1.7 -2.38,-1.76 0.05,0.03 -2.66,-1.61 -2.97,-1.27 -1.73,1.92 -3.47,3.84 -5.21,5.77 1.15,1.43 2.3,2.86 3.45,4.28 1.52,-1.86 3.02,-3.72 4.53,-5.59 0.4,-0.49 -2.65,-1.44 -2.76,-1.48 0.04,0.02 -3,-1.33 -3.3,-0.98 -1.63,1.94 -3.27,3.89 -4.9,5.83 l 4.13,3.84 c 2,-2.8 4,-5.6 6,-8.41 0.44,-0.62 -6.52,-2.11 -6.86,-1.75 l -5.58,5.87 c 1.73,1.01 3.45,2.02 5.18,3.02 l 7.3,-7.93 c 0.18,-0.19 -7.13,-1.62 -7.7,-0.95 -2.06,2.39 -4.13,4.78 -6.19,7.17 2.03,0.78 4.06,1.56 6.08,2.33 l 6.81,-8.56 c 0.3,-0.37 -4.1,-0.44 -4.05,-0.44 -0.12,0 -3.97,-0.38 -4.41,0.11 -1.33,1.5 -2.67,3 -3.99,4.5 -0.35,0.39 3.31,0.84 3.3,0.84 0.32,0.05 3.03,0.79 3.74,0.3 1.66,-1.15 3.32,-2.31 4.98,-3.45 -3.22,0.22 -6.45,0.45 -9.67,0.68 l -1.08,2.1 c -0.24,0.47 4.04,0.44 4.11,0.44 0.47,0.02 3.64,0.47 4.47,-0.11 1.91,-1.33 3.82,-2.65 5.71,-3.97 -3.92,0.57 -7.84,1.15 -11.76,1.72 l -0.93,0.62 c 0.28,0.14 0.65,0.16 1.12,0.07 1.49,-0.14 3,-0.3 4.52,-0.49 1.51,-0.18 3.03,-0.38 4.56,-0.6 0.43,-0.01 0.86,-0.13 1.29,-0.36 V 102 Z"
             id="path212"
             style="opacity:0.15;isolation:isolate;fill:#feb086;stroke-width:0px" />
          <path
             class="cls-4"
             d="m 175.78,104.18 0.59,-0.9 c -0.23,-0.02 -0.48,0.05 -0.77,0.23 -0.98,0.45 -1.95,0.93 -2.93,1.42 -0.98,0.48 -1.96,0.98 -2.94,1.5 -0.29,0.11 -0.55,0.29 -0.79,0.55 -0.42,0.61 -0.84,1.22 -1.27,1.83 1.93,-0.55 3.85,-1.1 5.77,-1.65 l 0.76,-2.53 c 0.09,-0.29 -3.16,1.09 -3.1,1.07 -0.83,0.33 -1.66,0.68 -2.48,1.05 -0.25,0.07 -0.48,0.22 -0.68,0.44 l -1.2,1.6 c 1.64,-0.26 3.28,-0.51 4.92,-0.78 0.82,-1.58 1.63,-3.15 2.45,-4.72 -1.9,0.55 -3.79,1.09 -5.69,1.63 -0.5,1.77 -1.01,3.54 -1.51,5.3 -0.12,0.44 2.03,0.34 2.15,0.34 -0.01,0 2.25,0.21 2.39,-0.12 1.11,-2.46 2.21,-4.92 3.32,-7.38 -1.77,0.35 -3.55,0.7 -5.31,1.04 l -1.9,4.93 c -0.17,0.44 1.79,0.64 1.9,0.66 -0.02,0 2.03,0.53 2.19,0.21 l 3.27,-6.32 -4.94,0.33 c -0.26,1.63 -0.53,3.27 -0.79,4.9 -0.09,0.57 1.35,0.91 1.62,1.04 -0.05,-0.02 1.83,0.86 1.95,0.61 0.99,-2.09 1.97,-4.18 2.96,-6.27 l -4.55,-0.31 c -0.15,0.97 -0.31,1.95 -0.46,2.92 -0.1,0.62 1.14,1.07 1.43,1.26 -0.04,-0.03 1.66,1.08 1.79,0.83 1.06,-2.07 2.12,-4.13 3.18,-6.2 -1.4,-0.28 -2.8,-0.57 -4.2,-0.85 -0.13,0.8 -0.27,1.6 -0.4,2.4 -0.11,0.66 0.94,1.21 1.23,1.47 0.05,0.05 1.24,1.39 1.61,1.06 l 1.77,-1.54 c 0.2,-0.17 -1.87,-1.01 -1.81,-0.99 -0.18,-0.07 -1.63,-0.94 -2.13,-0.55 l -0.68,0.54 c 0.95,0.85 1.9,1.69 2.85,2.54 0.58,-1.36 1.17,-2.72 1.75,-4.08 0.18,-0.43 -1.87,-0.63 -1.96,-0.65 0.04,0 -2.12,-0.49 -2.25,-0.2 -0.73,1.65 -1.47,3.31 -2.2,4.96 1.07,0.7 2.15,1.39 3.22,2.09 0.6,-1.57 1.19,-3.13 1.79,-4.7 0.16,-0.41 -2.07,-0.38 -2.15,-0.38 0.03,0 -2.28,-0.23 -2.4,0.07 -0.66,1.64 -1.32,3.29 -1.98,4.93 l 3.58,1.65 c 0.72,-2.3 1.43,-4.59 2.15,-6.89 0.16,-0.5 -4.79,0.02 -4.94,0.33 l -2.43,5.11 c 1.37,0.29 2.73,0.59 4.09,0.88 l 3.12,-6.85 c 0.08,-0.17 -5.08,0.48 -5.31,1.04 -0.85,2.04 -1.7,4.07 -2.55,6.1 1.51,0.08 3.03,0.15 4.54,0.22 l 2.66,-7.16 c 0.12,-0.31 -2.82,0.6 -2.79,0.59 -0.08,0.02 -2.72,0.61 -2.9,1.04 -0.56,1.29 -1.12,2.57 -1.67,3.86 -0.15,0.33 2.38,-0.16 2.37,-0.16 0.22,-0.04 2.18,-0.13 2.55,-0.62 0.85,-1.12 1.7,-2.25 2.56,-3.37 -2.09,0.85 -4.18,1.7 -6.27,2.55 l -0.26,1.63 c -0.06,0.37 2.78,-0.59 2.83,-0.61 0.31,-0.09 2.52,-0.48 2.95,-1.04 0.98,-1.3 1.96,-2.59 2.93,-3.88 -2.48,1.23 -4.96,2.47 -7.43,3.7 l -0.48,0.61 c 0.22,0.03 0.47,-0.03 0.76,-0.2 0.96,-0.42 1.93,-0.85 2.89,-1.31 0.96,-0.44 1.93,-0.91 2.9,-1.39 0.28,-0.1 0.54,-0.27 0.78,-0.52 v 0.02 z"
             id="path213"
             style="opacity:0.15;isolation:isolate;fill:#feb086;stroke-width:0px" />
          <path
             class="cls-4"
             d="m 184.29,75.7 0.61,-0.89 c -0.22,-0.02 -0.48,0.04 -0.78,0.22 -0.99,0.43 -1.97,0.89 -2.96,1.36 -0.99,0.46 -1.98,0.94 -2.97,1.44 -0.29,0.11 -0.55,0.28 -0.8,0.53 -0.43,0.6 -0.87,1.2 -1.31,1.81 1.94,-0.51 3.87,-1.02 5.8,-1.53 l 0.81,-2.52 c 0.09,-0.29 -3.18,1.02 -3.13,1 -0.83,0.32 -1.67,0.65 -2.51,1 -0.25,0.07 -0.48,0.21 -0.69,0.42 l -1.24,1.57 c 1.64,-0.22 3.29,-0.45 4.94,-0.68 0.85,-1.56 1.69,-3.11 2.55,-4.67 -1.91,0.51 -3.81,1.01 -5.73,1.52 -0.54,1.76 -1.08,3.51 -1.62,5.27 -0.13,0.43 2.02,0.38 2.14,0.39 -0.01,0 2.24,0.26 2.39,-0.07 1.16,-2.43 2.31,-4.87 3.47,-7.31 -1.78,0.31 -3.56,0.62 -5.33,0.93 l -2,4.89 c -0.18,0.44 1.78,0.68 1.89,0.7 -0.02,0 2.02,0.57 2.18,0.26 l 3.4,-6.25 c -1.65,0.08 -3.29,0.15 -4.94,0.23 -0.3,1.63 -0.6,3.26 -0.89,4.88 -0.11,0.57 1.33,0.94 1.6,1.08 -0.05,-0.02 1.81,0.9 1.94,0.65 1.03,-2.07 2.06,-4.14 3.09,-6.21 l -4.55,-0.41 c -0.17,0.97 -0.35,1.94 -0.52,2.91 -0.11,0.62 1.12,1.09 1.41,1.29 -0.04,-0.03 1.64,1.11 1.77,0.87 1.1,-2.05 2.2,-4.09 3.31,-6.14 -1.4,-0.31 -2.79,-0.63 -4.19,-0.94 -0.15,0.8 -0.3,1.59 -0.45,2.39 -0.12,0.66 0.91,1.22 1.2,1.5 0.05,0.05 1.21,1.42 1.59,1.09 l 1.8,-1.5 c 0.2,-0.17 -1.85,-1.05 -1.79,-1.02 -0.18,-0.07 -1.61,-0.97 -2.12,-0.59 l -0.69,0.53 c 0.93,0.87 1.86,1.73 2.8,2.59 0.61,-1.35 1.23,-2.7 1.84,-4.05 0.19,-0.43 -1.86,-0.67 -1.95,-0.69 0.04,0 -2.11,-0.53 -2.24,-0.24 -0.77,1.64 -1.54,3.28 -2.3,4.91 1.06,0.72 2.12,1.44 3.18,2.16 0.63,-1.55 1.26,-3.1 1.89,-4.66 0.17,-0.41 -2.06,-0.42 -2.15,-0.43 0.03,0 -2.27,-0.28 -2.4,0.02 -0.69,1.63 -1.39,3.26 -2.08,4.89 l 3.54,1.72 c 0.77,-2.28 1.53,-4.56 2.3,-6.84 0.17,-0.5 -4.79,-0.08 -4.94,0.23 l -2.53,5.06 c 1.36,0.32 2.72,0.64 4.08,0.96 l 3.26,-6.78 c 0.08,-0.17 -5.09,0.37 -5.33,0.93 -0.89,2.02 -1.78,4.04 -2.67,6.05 1.51,0.11 3.03,0.21 4.54,0.32 l 2.81,-7.1 c 0.12,-0.31 -2.83,0.54 -2.8,0.54 -0.08,0.02 -2.73,0.56 -2.92,0.97 -0.58,1.27 -1.17,2.55 -1.75,3.82 -0.15,0.33 2.38,-0.11 2.38,-0.11 0.22,-0.03 2.18,-0.09 2.56,-0.56 0.87,-1.11 1.75,-2.22 2.63,-3.32 -2.11,0.81 -4.21,1.61 -6.32,2.42 l -0.3,1.63 c -0.07,0.37 2.79,-0.53 2.84,-0.55 0.32,-0.08 2.53,-0.43 2.97,-0.98 1,-1.28 2.01,-2.55 3.01,-3.82 -2.5,1.18 -5.01,2.37 -7.51,3.55 l -0.5,0.6 c 0.22,0.04 0.47,-0.02 0.76,-0.18 0.97,-0.4 1.94,-0.81 2.92,-1.25 0.97,-0.43 1.95,-0.87 2.93,-1.33 0.28,-0.09 0.55,-0.26 0.79,-0.5 v 0.02 z"
             id="path214"
             style="opacity:0.15;isolation:isolate;fill:#feb086;stroke-width:0px" />
          <path
             class="cls-4"
             d="m 209.02,67.5 0.96,-0.5 c -0.19,-0.13 -0.45,-0.19 -0.79,-0.17 -1.07,-0.08 -2.16,-0.14 -3.25,-0.19 -1.09,-0.05 -2.19,-0.09 -3.3,-0.11 -0.31,-0.04 -0.62,0 -0.96,0.1 -0.66,0.33 -1.33,0.66 -2,0.98 1.95,0.45 3.9,0.91 5.85,1.36 l 1.89,-1.84 c 0.22,-0.21 -3.29,-0.58 -3.23,-0.58 -0.88,-0.11 -1.78,-0.21 -2.68,-0.29 -0.25,-0.06 -0.52,-0.04 -0.81,0.05 l -1.83,0.81 c 1.56,0.57 3.12,1.14 4.68,1.71 1.48,-0.98 2.95,-1.96 4.43,-2.93 -1.92,-0.45 -3.84,-0.89 -5.77,-1.34 -1.3,1.3 -2.6,2.6 -3.9,3.9 -0.32,0.32 1.61,1.28 1.71,1.34 -0.01,0 1.86,1.28 2.15,1.06 2.16,-1.61 4.32,-3.22 6.49,-4.83 -1.71,-0.56 -3.44,-1.12 -5.15,-1.67 l -4.06,3.38 c -0.36,0.3 1.26,1.43 1.34,1.5 -0.01,-0.01 1.52,1.44 1.81,1.25 l 5.93,-3.93 -4.47,-2.11 c -1.02,1.3 -2.05,2.6 -3.07,3.9 -0.36,0.46 0.73,1.45 0.91,1.7 -0.03,-0.04 1.18,1.64 1.41,1.48 1.88,-1.35 3.76,-2.69 5.63,-4.04 L 205.11,65 c -0.61,0.77 -1.22,1.55 -1.82,2.32 -0.39,0.49 0.48,1.49 0.64,1.8 -0.02,-0.05 0.93,1.75 1.16,1.6 1.93,-1.29 3.86,-2.58 5.8,-3.87 -1.09,-0.93 -2.17,-1.86 -3.26,-2.79 -0.5,0.63 -1.01,1.27 -1.51,1.9 -0.42,0.53 0.23,1.51 0.36,1.89 0.02,0.07 0.4,1.82 0.89,1.71 l 2.3,-0.48 c 0.26,-0.05 -1.14,-1.79 -1.1,-1.74 -0.13,-0.15 -0.97,-1.62 -1.59,-1.52 l -0.86,0.14 c 0.42,1.2 0.84,2.4 1.26,3.6 1.17,-0.91 2.35,-1.81 3.52,-2.71 0.37,-0.29 -1.33,-1.47 -1.4,-1.52 0.03,0.02 -1.61,-1.46 -1.87,-1.27 -1.44,1.09 -2.89,2.18 -4.33,3.27 0.6,1.13 1.2,2.26 1.8,3.4 1.29,-1.08 2.57,-2.15 3.85,-3.24 0.34,-0.28 -1.63,-1.34 -1.7,-1.38 0.03,0.02 -1.88,-1.31 -2.13,-1.11 -1.37,1.12 -2.76,2.23 -4.13,3.35 l 2.32,3.18 c 1.75,-1.66 3.49,-3.31 5.23,-4.97 0.38,-0.36 -4.19,-2.31 -4.47,-2.11 l -4.61,3.28 c 1.05,0.92 2.1,1.84 3.15,2.76 l 6.06,-4.47 c 0.15,-0.11 -4.67,-2.05 -5.15,-1.67 -1.73,1.37 -3.47,2.73 -5.19,4.1 1.29,0.8 2.58,1.61 3.86,2.41 L 208,65.9 c 0.25,-0.22 -2.76,-0.84 -2.72,-0.84 -0.08,-0.02 -2.68,-0.79 -3.04,-0.51 -1.11,0.85 -2.23,1.7 -3.34,2.56 -0.29,0.22 2.16,1.02 2.15,1.01 0.21,0.08 1.97,0.94 2.52,0.7 1.29,-0.57 2.58,-1.14 3.87,-1.71 -2.24,-0.27 -4.48,-0.55 -6.72,-0.82 l -1.02,1.3 c -0.23,0.29 2.71,0.83 2.76,0.84 0.32,0.08 2.43,0.8 3.08,0.52 1.48,-0.66 2.97,-1.31 4.45,-1.97 -2.76,-0.13 -5.53,-0.25 -8.3,-0.38 l -0.72,0.3 c 0.17,0.14 0.43,0.2 0.76,0.2 1.04,0.1 2.1,0.19 3.16,0.26 1.06,0.08 2.13,0.14 3.21,0.2 0.29,0.05 0.61,0.03 0.93,-0.07 h -0.01 z"
             id="path215"
             style="opacity:0.15;isolation:isolate;fill:#feb086;stroke-width:0px" />
          <path
             class="cls-4"
             d="m 245.07,72.9 0.96,-0.5 c -0.19,-0.13 -0.45,-0.19 -0.79,-0.17 -1.07,-0.08 -2.16,-0.14 -3.25,-0.19 -1.09,-0.05 -2.19,-0.09 -3.3,-0.11 -0.31,-0.04 -0.62,0 -0.96,0.1 -0.66,0.33 -1.33,0.66 -2,0.98 1.95,0.45 3.9,0.91 5.85,1.36 l 1.89,-1.84 c 0.22,-0.21 -3.29,-0.58 -3.23,-0.58 -0.88,-0.11 -1.78,-0.21 -2.68,-0.29 -0.25,-0.06 -0.52,-0.04 -0.81,0.05 l -1.83,0.81 c 1.56,0.57 3.12,1.14 4.68,1.71 1.48,-0.98 2.95,-1.96 4.43,-2.93 -1.92,-0.45 -3.84,-0.89 -5.77,-1.34 -1.3,1.3 -2.6,2.6 -3.9,3.9 -0.32,0.32 1.61,1.28 1.71,1.34 -0.01,0 1.86,1.28 2.15,1.06 2.16,-1.61 4.32,-3.22 6.49,-4.83 -1.71,-0.56 -3.44,-1.12 -5.15,-1.67 l -4.06,3.38 c -0.36,0.3 1.26,1.43 1.34,1.5 -0.01,-0.01 1.52,1.44 1.81,1.25 l 5.93,-3.93 -4.47,-2.11 c -1.02,1.3 -2.05,2.6 -3.07,3.9 -0.36,0.46 0.73,1.45 0.91,1.7 -0.03,-0.04 1.18,1.64 1.41,1.48 1.88,-1.35 3.76,-2.69 5.63,-4.04 l -3.83,-2.49 c -0.61,0.77 -1.22,1.55 -1.82,2.32 -0.39,0.49 0.48,1.49 0.64,1.8 -0.02,-0.05 0.93,1.75 1.16,1.6 1.93,-1.29 3.86,-2.58 5.8,-3.87 -1.09,-0.93 -2.17,-1.86 -3.26,-2.79 -0.5,0.63 -1.01,1.27 -1.51,1.9 -0.42,0.53 0.23,1.51 0.36,1.89 0.02,0.07 0.4,1.82 0.89,1.71 l 2.3,-0.48 c 0.26,-0.05 -1.14,-1.79 -1.1,-1.74 -0.13,-0.15 -0.97,-1.62 -1.59,-1.52 l -0.86,0.14 c 0.42,1.2 0.84,2.4 1.26,3.6 1.17,-0.91 2.35,-1.81 3.52,-2.71 0.37,-0.29 -1.33,-1.47 -1.4,-1.52 0.03,0.02 -1.61,-1.46 -1.87,-1.27 -1.44,1.09 -2.89,2.18 -4.33,3.27 0.6,1.13 1.2,2.26 1.8,3.4 1.29,-1.08 2.57,-2.15 3.85,-3.24 0.34,-0.28 -1.63,-1.34 -1.7,-1.38 0.03,0.02 -1.88,-1.31 -2.13,-1.11 -1.37,1.12 -2.76,2.23 -4.13,3.35 l 2.32,3.18 c 1.75,-1.66 3.49,-3.31 5.23,-4.97 0.38,-0.36 -4.19,-2.31 -4.47,-2.11 l -4.61,3.28 c 1.05,0.92 2.1,1.84 3.15,2.76 l 6.06,-4.47 c 0.15,-0.11 -4.67,-2.05 -5.15,-1.67 -1.73,1.37 -3.47,2.73 -5.19,4.1 1.29,0.8 2.58,1.61 3.86,2.41 l 5.81,-4.96 c 0.25,-0.22 -2.76,-0.84 -2.72,-0.84 -0.08,-0.02 -2.68,-0.79 -3.04,-0.51 -1.11,0.85 -2.23,1.7 -3.34,2.56 -0.29,0.22 2.16,1.02 2.15,1.01 0.21,0.08 1.97,0.94 2.52,0.7 1.29,-0.57 2.58,-1.14 3.87,-1.71 -2.24,-0.27 -4.48,-0.55 -6.72,-0.82 l -1.02,1.3 c -0.23,0.29 2.71,0.83 2.76,0.84 0.32,0.08 2.43,0.8 3.08,0.52 1.48,-0.66 2.97,-1.31 4.45,-1.97 -2.76,-0.13 -5.53,-0.25 -8.3,-0.38 l -0.72,0.3 c 0.17,0.14 0.43,0.2 0.76,0.2 1.04,0.1 2.1,0.19 3.16,0.26 1.06,0.08 2.13,0.14 3.21,0.2 0.29,0.05 0.61,0.03 0.93,-0.07 h -0.01 z"
             id="path216"
             style="opacity:0.15;isolation:isolate;fill:#feb086;stroke-width:0px" />
          <path
             class="cls-4"
             d="m 191.39,185.13 1.02,-0.81 c -0.25,-0.11 -0.57,-0.12 -0.98,-0.02 -1.3,0.15 -2.6,0.33 -3.91,0.53 -1.31,0.19 -2.62,0.39 -3.95,0.62 -0.37,0.02 -0.74,0.13 -1.11,0.33 -0.72,0.54 -1.43,1.09 -2.16,1.63 2.42,0.09 4.84,0.19 7.26,0.28 l 1.83,-2.63 c 0.21,-0.3 -4.04,0.06 -3.97,0.06 -1.08,0.07 -2.16,0.16 -3.26,0.28 -0.31,-0.01 -0.63,0.07 -0.95,0.24 l -1.99,1.38 c 1.98,0.32 3.97,0.65 5.95,0.96 1.53,-1.5 3.06,-3 4.6,-4.5 -2.39,-0.09 -4.77,-0.18 -7.17,-0.27 -1.25,1.84 -2.49,3.69 -3.74,5.53 -0.31,0.46 2.21,1.16 2.35,1.2 -0.02,0 2.51,1.09 2.8,0.77 2.2,-2.41 4.4,-4.83 6.6,-7.24 -2.17,-0.27 -4.34,-0.54 -6.51,-0.8 l -4.05,4.95 c -0.36,0.45 1.82,1.41 1.94,1.48 -0.02,-0.01 2.13,1.37 2.44,1.07 l 6.15,-6.03 -5.8,-1.48 c -0.92,1.78 -1.84,3.56 -2.76,5.34 -0.32,0.63 1.2,1.56 1.47,1.81 -0.04,-0.04 1.78,1.68 2.02,1.44 1.92,-2.03 3.85,-4.07 5.77,-6.1 l -5.12,-2.08 c -0.54,1.06 -1.09,2.12 -1.64,3.18 -0.35,0.67 0.91,1.66 1.18,1.99 -0.04,-0.05 1.51,1.87 1.74,1.64 2,-1.98 4,-3.96 6,-5.94 -1.51,-0.86 -3.01,-1.71 -4.52,-2.57 -0.45,0.87 -0.91,1.74 -1.36,2.61 -0.37,0.72 0.62,1.74 0.86,2.16 0.04,0.07 0.9,2.07 1.45,1.83 l 2.62,-1.1 c 0.3,-0.12 -1.77,-1.87 -1.71,-1.82 -0.18,-0.15 -1.52,-1.7 -2.24,-1.44 l -0.99,0.37 c 0.77,1.33 1.55,2.66 2.32,3.99 1.19,-1.35 2.37,-2.69 3.56,-4.03 0.37,-0.42 -1.92,-1.44 -2.02,-1.49 0.04,0.02 -2.25,-1.36 -2.51,-1.08 -1.47,1.63 -2.94,3.25 -4.4,4.88 0.97,1.21 1.95,2.42 2.92,3.62 1.28,-1.58 2.56,-3.15 3.83,-4.73 0.34,-0.42 -2.24,-1.22 -2.33,-1.25 0.04,0.01 -2.54,-1.12 -2.79,-0.83 -1.38,1.64 -2.76,3.29 -4.14,4.93 l 3.49,3.25 c 1.7,-2.37 3.38,-4.74 5.08,-7.11 0.37,-0.52 -5.52,-1.79 -5.8,-1.48 l -4.72,4.96 c 1.46,0.85 2.92,1.7 4.38,2.56 l 6.18,-6.7 c 0.15,-0.16 -6.03,-1.37 -6.51,-0.8 -1.75,2.02 -3.49,4.04 -5.23,6.06 1.71,0.66 3.43,1.32 5.14,1.97 l 5.76,-7.24 c 0.25,-0.32 -3.47,-0.37 -3.43,-0.37 -0.1,0 -3.36,-0.32 -3.73,0.1 -1.13,1.27 -2.25,2.54 -3.38,3.81 -0.3,0.33 2.8,0.71 2.79,0.71 0.27,0.04 2.56,0.67 3.16,0.25 1.4,-0.97 2.81,-1.95 4.21,-2.92 -2.73,0.19 -5.45,0.38 -8.17,0.57 l -0.92,1.78 c -0.21,0.4 3.42,0.37 3.48,0.37 0.39,0.02 3.08,0.4 3.78,-0.09 1.61,-1.12 3.23,-2.24 4.83,-3.36 -3.31,0.48 -6.63,0.97 -9.95,1.46 l -0.79,0.52 c 0.24,0.12 0.55,0.14 0.94,0.06 1.26,-0.12 2.54,-0.25 3.82,-0.41 1.28,-0.15 2.56,-0.32 3.86,-0.5 0.36,0 0.73,-0.11 1.09,-0.3 v 0.02 z"
             id="path217"
             style="opacity:0.15;isolation:isolate;fill:#feb086;stroke-width:0px" />
          <path
             class="cls-4"
             d="m 245.16,189.84 1.63,-0.35 c -0.23,-0.27 -0.59,-0.46 -1.1,-0.58 -1.57,-0.56 -3.16,-1.1 -4.77,-1.63 -1.6,-0.53 -3.22,-1.05 -4.87,-1.54 -0.44,-0.19 -0.92,-0.27 -1.46,-0.25 -1.13,0.21 -2.25,0.43 -3.39,0.63 2.72,1.49 5.42,2.97 8.14,4.46 l 3.59,-1.96 c 0.41,-0.22 -4.66,-2.23 -4.57,-2.2 -1.27,-0.53 -2.56,-1.05 -3.88,-1.54 -0.35,-0.19 -0.76,-0.28 -1.23,-0.26 l -3.06,0.45 c 2.08,1.5 4.16,3 6.26,4.49 2.61,-0.84 5.21,-1.69 7.82,-2.53 -2.68,-1.46 -5.35,-2.92 -8.04,-4.39 -2.47,1.4 -4.95,2.79 -7.42,4.18 -0.61,0.35 1.87,2.58 2,2.71 -0.01,-0.02 2.24,2.67 2.76,2.47 3.89,-1.5 7.78,-3.01 11.67,-4.51 -2.32,-1.54 -4.66,-3.09 -6.98,-4.63 l -7.45,3.35 c -0.67,0.3 1.28,2.65 1.37,2.8 -0.01,-0.03 1.66,2.78 2.17,2.61 l 10.47,-3.39 -5.79,-5 c -2.06,1.51 -4.13,3.02 -6.2,4.53 -0.73,0.53 0.49,2.47 0.65,2.91 -0.03,-0.08 1.07,2.94 1.49,2.79 3.36,-1.23 6.71,-2.46 10.07,-3.68 l -4.67,-5.29 c -1.22,0.9 -2.46,1.8 -3.68,2.7 -0.78,0.57 0.1,2.41 0.21,2.94 -0.01,-0.08 0.66,2.99 1.06,2.86 3.42,-1.12 6.82,-2.24 10.24,-3.36 -1.23,-1.84 -2.47,-3.67 -3.7,-5.51 -1.01,0.73 -2.03,1.47 -3.04,2.2 -0.84,0.61 -0.28,2.35 -0.24,2.96 0,0.11 -0.15,2.87 0.62,2.92 l 3.62,0.23 c 0.41,0.03 -0.96,-3.14 -0.92,-3.05 -0.12,-0.28 -0.77,-2.81 -1.74,-2.92 l -1.33,-0.14 c 0.13,1.96 0.25,3.92 0.38,5.89 2.12,-0.86 4.24,-1.72 6.37,-2.58 0.67,-0.27 -1.37,-2.73 -1.46,-2.85 0.04,0.05 -1.8,-2.84 -2.25,-2.66 -2.6,1.02 -5.21,2.04 -7.81,3.07 0.42,1.93 0.85,3.87 1.27,5.8 2.36,-1.07 4.71,-2.14 7.08,-3.22 0.62,-0.28 -1.87,-2.67 -1.95,-2.76 0.04,0.04 -2.26,-2.73 -2.72,-2.53 -2.51,1.09 -5.03,2.18 -7.54,3.27 l 2.14,5.7 c 3.29,-1.74 6.57,-3.49 9.86,-5.23 0.72,-0.38 -5.29,-5.18 -5.79,-5 l -8.22,2.98 c 1.19,1.8 2.36,3.61 3.55,5.42 l 10.88,-4.14 c 0.27,-0.1 -6.11,-5 -6.98,-4.63 -3.15,1.32 -6.3,2.63 -9.43,3.95 1.58,1.73 3.17,3.46 4.75,5.19 L 244.31,187 c 0.47,-0.22 -3.75,-2.4 -3.71,-2.38 -0.12,-0.07 -3.66,-2.28 -4.32,-2.02 -2.01,0.81 -4.02,1.61 -6.03,2.43 -0.53,0.21 2.79,2.41 2.79,2.4 0.28,0.2 2.54,2.22 3.47,2.09 2.16,-0.31 4.32,-0.63 6.48,-0.93 -3.22,-1.34 -6.44,-2.67 -9.67,-4 l -2.06,1.51 c -0.46,0.34 3.7,2.37 3.77,2.4 0.44,0.24 3.29,2.21 4.38,2.05 2.48,-0.36 4.97,-0.72 7.44,-1.09 -4.06,-1.33 -8.14,-2.67 -12.2,-4 l -1.2,0.15 c 0.2,0.27 0.55,0.47 1.05,0.6 1.51,0.59 3.04,1.16 4.6,1.7 1.54,0.56 3.11,1.1 4.7,1.62 0.42,0.19 0.9,0.29 1.42,0.28 h -0.02 z"
             id="path218"
             style="opacity:0.15;isolation:isolate;fill:#feb086;stroke-width:0px" />
        </g>
      </g>
    </g>
  </g>
</svg>
