<?xml version="1.0" encoding="UTF-8" standalone="no"?>
<!-- Created with Inkscape (http://www.inkscape.org/) -->

<svg
   width="41.519962mm"
   height="33.661762mm"
   viewBox="0 0 41.519962 33.661762"
   version="1.1"
   id="svg1"
   inkscape:version="1.3.2 (091e20e, 2023-11-25)"
   sodipodi:docname="Relaxed.svg"
   xmlns:inkscape="http://www.inkscape.org/namespaces/inkscape"
   xmlns:sodipodi="http://sodipodi.sourceforge.net/DTD/sodipodi-0.dtd"
   xmlns:xlink="http://www.w3.org/1999/xlink"
   xmlns="http://www.w3.org/2000/svg"
   xmlns:svg="http://www.w3.org/2000/svg">
  <sodipodi:namedview
     id="namedview1"
     pagecolor="#ffffff"
     bordercolor="#000000"
     borderopacity="0.25"
     inkscape:showpageshadow="2"
     inkscape:pageopacity="0.0"
     inkscape:pagecheckerboard="0"
     inkscape:deskcolor="#d1d1d1"
     inkscape:document-units="mm"
     inkscape:zoom="0.2102413"
     inkscape:cx="80.859469"
     inkscape:cy="61.833711"
     inkscape:window-width="1312"
     inkscape:window-height="449"
     inkscape:window-x="0"
     inkscape:window-y="25"
     inkscape:window-maximized="0"
     inkscape:current-layer="layer1" />
  <defs
     id="defs1">
    <linearGradient
       id="Gradiente_sem_nome_30"
       data-name="Gradiente sem nome 30"
       x1="125.07"
       y1="14283.93"
       x2="156.77"
       y2="14283.93"
       gradientTransform="matrix(1,0,0,-1,0,14365.46)"
       gradientUnits="userSpaceOnUse">
      <stop
         offset="0"
         stop-color="#ffeac4"
         id="stop1" />
      <stop
         offset=".76"
         stop-color="#ffdaae"
         id="stop2" />
      <stop
         offset="1"
         stop-color="#ffd5a6"
         id="stop3" />
    </linearGradient>
    <linearGradient
       id="Gradiente_sem_nome_30-2"
       data-name="Gradiente sem nome 30"
       x1="125.42"
       y1="14274.48"
       x2="156.78"
       y2="14274.48"
       xlink:href="#Gradiente_sem_nome_30" />
    <linearGradient
       id="Gradiente_sem_nome_30-3"
       data-name="Gradiente sem nome 30"
       x1="-15898.11"
       y1="14283.09"
       x2="-15866.41"
       y2="14283.09"
       gradientTransform="rotate(180,-7932.895,7182.73)"
       xlink:href="#Gradiente_sem_nome_30" />
    <linearGradient
       id="Gradiente_sem_nome_30-4"
       data-name="Gradiente sem nome 30"
       x1="-15897.77"
       y1="14273.64"
       x2="-15866.4"
       y2="14273.64"
       gradientTransform="rotate(180,-7932.895,7182.73)"
       xlink:href="#Gradiente_sem_nome_30" />
    <linearGradient
       id="Gradiente_sem_nome_30-5"
       data-name="Gradiente sem nome 30"
       x1="79.559998"
       y1="14355.99"
       x2="79.559998"
       y2="14234.72"
       xlink:href="#Gradiente_sem_nome_30" />
    <linearGradient
       inkscape:collect="always"
       xlink:href="#Gradiente_sem_nome_30"
       id="linearGradient16"
       gradientUnits="userSpaceOnUse"
       gradientTransform="matrix(1,0,0,-1,0,14365.46)"
       x1="125.07"
       y1="14283.93"
       x2="156.77"
       y2="14283.93" />
  </defs>
  <g
     inkscape:label="Layer 1"
     inkscape:groupmode="layer"
     id="layer1"
     transform="translate(-83.608333,-131.7625)">
    <g
       id="g112"
       transform="matrix(0.26458333,0,0,0.26458333,83.545674,129.7061)">
      <path
         class="cls-2"
         d="m 47.62,104.85 c 0.26,-0.09 0.54,-0.09 0.8,-0.18 -0.26,0.09 -0.54,0.09 -0.8,0.18 0,0 0,-0.09 0,0 z"
         id="path3"
         style="opacity:0.41;isolation:isolate;fill:#444472;stroke-width:0px" />
      <path
         class="cls-2"
         d="m 50.93,103.95 c -0.8,0.26 -1.6,0.54 -2.5,0.71 0.89,-0.09 1.7,-0.36 2.5,-0.71 z"
         id="path4"
         style="opacity:0.41;isolation:isolate;fill:#444472;stroke-width:0px" />
      <path
         class="cls-12"
         d="m 137.99,59.85 -12.92,43.37 c 0,0 28.14,-2.31 31.37,-20.3 3.22,-17.99 -18.46,-23.07 -18.46,-23.07 v 0 z"
         id="path5"
         style="fill:url(#linearGradient16);stroke:#3a342a;stroke-width:0.25px;stroke-miterlimit:10" />
      <path
         class="cls-3"
         d="m 26.35,100.45 -1.39,30.45 c 0,0 5.07,9.22 8.77,0 l 0.46,-27.68 -0.92,-5.07 -4.61,-2.77"
         id="path6"
         style="fill:#023b49;stroke-width:0px" />
      <path
         class="cls-3"
         d="m 132.23,97.45 1.39,30.45 c 0,0 -5.07,9.22 -8.77,0 l -0.46,-27.68 0.92,-5.07 4.61,-2.77"
         id="path7"
         style="fill:#023b49;stroke-width:0px" />
      <g
         id="g14">
        <path
           class="cls-9"
           d="m 92.23,13.31 c -3.67,6.84 -7.44,13.53 -12.37,19.58 -1.68,1.95 -3.35,3.91 -5.03,5.86 -3.5,3.79 -7.25,7.3 -11.27,10.53 -0.36,0.31 0.88,0.11 0.73,0.13 0.51,-0.07 1.56,-0.13 1.96,-0.5 C 72.02,43.69 77.58,38.43 82.29,32.2 87,25.97 90.83,19.45 94.56,12.68 c 0.2,-0.36 -0.68,-0.05 -0.67,-0.06 -0.34,0.09 -1.48,0.32 -1.67,0.68 v 0 z"
           id="path8"
           style="opacity:0.18;isolation:isolate;fill:#fffdfa;stroke-width:0px" />
        <path
           class="cls-9"
           d="m 92.83,14.89 c -3.67,6.84 -7.44,13.53 -12.36,19.58 -1.67,1.95 -3.35,3.91 -5.02,5.86 -3.49,3.78 -7.24,7.3 -11.25,10.52 -0.33,0.29 0.76,0.13 0.64,0.15 0.45,-0.06 1.34,-0.13 1.7,-0.45 5.84,-5.21 11.47,-10.48 16.23,-16.73 4.7,-6.19 8.61,-12.76 12.36,-19.55 0.2,-0.36 -0.67,-0.05 -0.66,-0.06 -0.34,0.09 -1.46,0.31 -1.64,0.67 v 0 z"
           id="path9"
           style="opacity:0.18;isolation:isolate;fill:#fffdfa;stroke-width:0px" />
        <path
           class="cls-9"
           d="m 92.14,12.18 c -3.67,6.84 -7.43,13.52 -12.35,19.57 -1.67,1.95 -3.35,3.91 -5.02,5.86 -3.5,3.79 -7.25,7.3 -11.27,10.53 -0.35,0.3 0.85,0.12 0.71,0.14 0.49,-0.06 1.51,-0.13 1.91,-0.48 5.73,-5.2 11.24,-10.45 15.91,-16.66 4.64,-6.18 8.5,-12.73 12.21,-19.5 0.12,-0.21 -1.87,0.12 -2.08,0.53 v 0 z"
           id="path10"
           style="opacity:0.18;isolation:isolate;fill:#fffdfa;stroke-width:0px" />
        <path
           class="cls-9"
           d="m 91.61,17.26 c -2.56,4.42 -5.11,8.83 -7.67,13.25 -2.13,3.21 -4.49,6.25 -7.06,9.12 -4.21,4.93 -8.79,9.15 -13.68,13.41 -0.4,0.35 1.11,0.06 0.93,0.09 0.64,-0.11 2.02,-0.17 2.54,-0.63 5.9,-5.27 11.58,-10.58 16.39,-16.92 4.74,-6.24 8.69,-12.9 12.52,-19.73 0.03,-0.04 -2.06,0.53 -2.05,0.52 -0.43,0.15 -1.66,0.39 -1.93,0.89 v 0 z"
           id="path11"
           style="opacity:0.18;isolation:isolate;fill:#fffdfa;stroke-width:0px" />
        <path
           class="cls-9"
           d="m 92.09,15.55 c -3.65,6.85 -7.4,13.53 -12.33,19.58 -1.67,1.95 -3.34,3.9 -5.01,5.85 -3.49,3.78 -7.23,7.28 -11.23,10.51 -0.38,0.33 0.98,0.09 0.81,0.11 0.56,-0.08 1.75,-0.15 2.2,-0.55 5.85,-5.25 11.49,-10.53 16.26,-16.83 4.7,-6.2 8.61,-12.78 12.38,-19.57 0.22,-0.41 -0.89,0.02 -0.86,0 -0.43,0.12 -1.98,0.43 -2.22,0.88 z"
           id="path12"
           style="opacity:0.18;isolation:isolate;fill:#fffdfa;stroke-width:0px" />
        <path
           class="cls-9"
           d="M 91.83,14.16 C 88.17,21.02 84.4,27.7 79.47,33.75 l -5.03,5.86 c -3.5,3.78 -7.25,7.29 -11.27,10.52 -0.38,0.33 1.02,0.08 0.85,0.11 0.58,-0.08 1.84,-0.15 2.3,-0.57 5.79,-5.24 11.38,-10.52 16.11,-16.79 4.73,-6.26 8.56,-12.77 12.31,-19.55 0.21,-0.39 -0.84,0 -0.81,0 -0.41,0.12 -1.86,0.4 -2.09,0.83 v 0 z"
           id="path13"
           style="opacity:0.18;isolation:isolate;fill:#fffdfa;stroke-width:0px" />
        <path
           class="cls-9"
           d="m 92.7,16.83 c -3.65,6.84 -7.39,13.52 -12.31,19.57 -1.67,1.95 -3.33,3.9 -5,5.85 -3.48,3.78 -7.21,7.28 -11.21,10.51 -0.35,0.3 0.85,0.11 0.71,0.13 0.5,-0.07 1.5,-0.14 1.9,-0.5 5.91,-5.24 11.61,-10.52 16.43,-16.84 4.73,-6.2 8.66,-12.78 12.44,-19.59 0.22,-0.4 -0.86,0 -0.83,0 -0.42,0.12 -1.9,0.42 -2.13,0.85 v 0 z"
           id="path14"
           style="opacity:0.18;isolation:isolate;fill:#fffdfa;stroke-width:0px" />
      </g>
      <g
         class="cls-15"
         id="g27"
         style="opacity:0.72">
        <g
           id="g26">
          <path
             class="cls-10"
             d="m 20.06,76.74 c 0.03,-0.36 -0.09,-0.69 -0.35,-0.98 -0.69,-1.06 -1.42,-2.08 -2.16,-3.1 -0.73,-1.03 -1.5,-2.02 -2.29,-3 -0.2,-0.34 -0.47,-0.56 -0.82,-0.64 -0.03,0.36 0.09,0.69 0.35,0.98 0.69,1.06 1.42,2.08 2.16,3.1 0.73,1.03 1.5,2.02 2.29,3 0.2,0.34 0.47,0.56 0.82,0.64 z"
             id="path15"
             style="opacity:0.11;isolation:isolate;fill:#feb086;stroke-width:0px" />
          <path
             class="cls-10"
             d="m 21.44,81.03 c -0.1,-0.5 -0.35,-0.92 -0.74,-1.26 -1.16,-1.39 -2.35,-2.75 -3.58,-4.08 -1.2,-1.35 -2.43,-2.68 -3.69,-3.98 -0.3,-0.43 -0.7,-0.72 -1.18,-0.87 0.1,0.5 0.35,0.92 0.74,1.26 1.16,1.39 2.35,2.75 3.58,4.08 1.2,1.35 2.43,2.68 3.69,3.98 0.3,0.43 0.7,0.72 1.18,0.87 z"
             id="path16"
             style="opacity:0.11;isolation:isolate;fill:#feb086;stroke-width:0px" />
          <path
             class="cls-10"
             d="m 21.21,75.29 c 0.41,0 -1.19,-2.77 -1.13,-2.68 -0.24,-0.42 -1.04,-2.31 -1.77,-2.31 -0.41,0 1.19,2.77 1.13,2.68 0.24,0.42 1.04,2.31 1.77,2.31 z"
             id="path17"
             style="opacity:0.11;isolation:isolate;fill:#feb086;stroke-width:0px" />
          <path
             class="cls-10"
             d="M 19.92,82.64 C 19.73,82.16 19.41,81.78 18.96,81.5 17.56,80.3 16.15,79.12 14.7,77.96 13.27,76.8 11.82,75.65 10.34,74.55 9.96,74.17 9.52,73.93 9.01,73.86 9.2,74.34 9.52,74.72 9.97,75 c 1.4,1.2 2.81,2.38 4.26,3.54 1.43,1.16 2.88,2.31 4.36,3.41 0.38,0.38 0.82,0.62 1.33,0.69 z"
             id="path18"
             style="opacity:0.11;isolation:isolate;fill:#feb086;stroke-width:0px" />
          <path
             class="cls-10"
             d="m 20.42,78.5 c -0.03,-0.44 -0.21,-0.82 -0.55,-1.14 -0.93,-1.25 -1.88,-2.48 -2.86,-3.68 -0.97,-1.22 -1.96,-2.41 -2.98,-3.59 -0.24,-0.39 -0.58,-0.65 -1.01,-0.78 0.03,0.44 0.21,0.82 0.55,1.14 0.93,1.25 1.88,2.48 2.86,3.68 0.97,1.22 1.96,2.41 2.98,3.59 0.24,0.39 0.58,0.65 1.01,0.78 z"
             id="path19"
             style="opacity:0.11;isolation:isolate;fill:#feb086;stroke-width:0px" />
          <path
             class="cls-10"
             d="m 19.98,87.41 c 1.43,0 -3.21,-1.73 -2.55,-1.48 -1.74,-0.65 -3.49,-1.29 -5.25,-1.9 -0.9,-0.36 -1.83,-0.64 -2.78,-0.82 -1.43,0 3.21,1.73 2.55,1.48 1.74,0.65 3.49,1.29 5.25,1.9 0.9,0.36 1.83,0.64 2.78,0.82 z"
             id="path20"
             style="opacity:0.11;isolation:isolate;fill:#feb086;stroke-width:0px" />
          <path
             class="cls-10"
             d="M 19.31,84.5 C 19.1,84.08 18.77,83.77 18.31,83.56 16.9,82.65 15.48,81.76 14.04,80.91 12.6,80.04 11.16,79.2 9.69,78.4 9.3,78.1 8.87,77.95 8.4,77.97 c 0.21,0.42 0.54,0.73 1,0.94 1.41,0.91 2.83,1.8 4.27,2.65 1.44,0.87 2.88,1.71 4.35,2.51 0.39,0.3 0.82,0.45 1.29,0.43 z"
             id="path21"
             style="opacity:0.11;isolation:isolate;fill:#feb086;stroke-width:0px" />
          <path
             class="cls-10"
             d="m 22.05,77.55 c 0.25,0 -2.35,-4.45 -2.29,-4.34 -0.28,-0.45 -1.97,-3.95 -2.91,-3.95 -0.25,0 2.35,4.45 2.29,4.34 0.28,0.45 1.97,3.95 2.91,3.95 z"
             id="path22"
             style="opacity:0.11;isolation:isolate;fill:#feb086;stroke-width:0px" />
          <path
             class="cls-10"
             d="M 20.96,85.88 C 20.7,85.45 20.32,85.13 19.84,84.92 18.28,83.99 16.7,83.08 15.1,82.21 13.52,81.32 11.9,80.46 10.29,79.64 9.86,79.33 9.39,79.18 8.88,79.19 c 0.26,0.43 0.64,0.75 1.12,0.96 1.56,0.93 3.14,1.84 4.74,2.71 1.58,0.89 3.2,1.75 4.81,2.57 0.43,0.31 0.9,0.46 1.41,0.45 z"
             id="path23"
             style="opacity:0.11;isolation:isolate;fill:#feb086;stroke-width:0px" />
          <path
             class="cls-10"
             d="M 19.67,80.52 C 19.55,80.05 19.3,79.66 18.9,79.36 17.72,78.11 16.51,76.89 15.26,75.7 14.04,74.49 12.79,73.31 11.52,72.14 11.21,71.75 10.81,71.5 10.34,71.39 c 0.12,0.47 0.37,0.86 0.77,1.16 1.18,1.25 2.39,2.47 3.64,3.66 1.22,1.21 2.47,2.39 3.74,3.56 0.31,0.39 0.71,0.64 1.18,0.75 z"
             id="path24"
             style="opacity:0.11;isolation:isolate;fill:#feb086;stroke-width:0px" />
          <path
             class="cls-10"
             d="m 21.57,83.49 c -0.19,-0.5 -0.51,-0.9 -0.97,-1.21 -1.41,-1.29 -2.84,-2.55 -4.3,-3.79 -1.45,-1.25 -2.91,-2.47 -4.4,-3.67 -0.38,-0.4 -0.82,-0.66 -1.34,-0.77 0.19,0.5 0.51,0.9 0.97,1.21 1.41,1.29 2.84,2.55 4.3,3.79 1.45,1.25 2.91,2.47 4.4,3.67 0.38,0.4 0.82,0.66 1.34,0.77 z"
             id="path25"
             style="opacity:0.11;isolation:isolate;fill:#feb086;stroke-width:0px" />
          <path
             class="cls-10"
             d="m 22.44,76.17 c 0.37,0 -1.5,-3.57 -1.45,-3.45 -0.21,-0.4 -1.3,-3.11 -2.09,-3.11 -0.37,0 1.5,3.57 1.45,3.45 0.21,0.4 1.3,3.11 2.09,3.11 z"
             id="path26"
             style="opacity:0.11;isolation:isolate;fill:#feb086;stroke-width:0px" />
        </g>
      </g>
      <g
         id="g28">
        <path
           class="cls-6"
           d="m 125.42,101.13 c 0,0 28.14,-2.31 31.37,-20.3"
           id="path27"
           style="fill:url(#Gradiente_sem_nome_30-2);stroke-width:0px" />
        <path
           class="cls-1"
           d="m 125.42,103.32 c 12.79,-1.1 28.79,-6.96 31.71,-20.94 0.16,-0.73 -0.3,-4.94 -0.68,-3.11 -2.78,13.25 -19.07,18.63 -31.03,19.65 -0.8,0.07 -0.62,4.45 0,4.4 z"
           id="path28"
           style="fill:#3a342a;stroke-width:0px" />
      </g>
      <path
         class="cls-13"
         d="m 19.4,60.69 12.92,43.37 c 0,0 -28.14,-2.31 -31.37,-20.3 C -2.27,65.77 19.41,60.69 19.41,60.69 v 0 z"
         id="path29"
         style="fill:url(#Gradiente_sem_nome_30-3);stroke:#3a342a;stroke-width:0.25px;stroke-miterlimit:10" />
      <g
         id="g31">
        <path
           class="cls-8"
           d="m 31.98,101.97 c 0,0 -28.15,-2.31 -31.37,-20.3"
           id="path30"
           style="fill:url(#Gradiente_sem_nome_30-4);stroke-width:0px" />
        <path
           class="cls-1"
           d="M 31.98,99.77 C 20.03,98.74 3.72,93.36 0.95,80.12 0.56,78.27 0.11,82.48 0.27,83.23 c 2.92,13.98 18.92,19.85 31.71,20.94 0.6,0.05 0.81,-4.33 0,-4.4 z"
           id="path31"
           style="fill:#3a342a;stroke-width:0px" />
      </g>
      <g
         id="g43">
        <path
           class="cls-10"
           d="m 145.67,79.52 c 1.83,1.14 2.8,2.76 2.93,4.84 0.09,0.59 0.04,1.69 0.74,1.91 0.46,0.15 0.93,-0.15 0.99,-0.71 0.46,-4.04 1.09,-6.73 -0.19,-10.69 -1.11,-3.45 -3.18,-5.37 -5.5,-8.07 -0.8,-0.93 -2.59,0.49 -1.63,1.11 3.76,3.04 5.71,6.8 5.83,11.3 l -0.14,-1.67 c -0.07,1.1 -0.13,2.22 -0.2,3.32 l 1.68,-1.27 c -1.17,-3.08 -2.6,-4.96 -5.24,-6.93 -1.24,-0.92 -0.97,1.84 -0.95,2.02 0.21,1.38 0.47,3.9 1.65,4.85 v 0 z"
           id="path32"
           style="opacity:0.11;isolation:isolate;fill:#feb086;stroke-width:0px" />
        <path
           class="cls-10"
           d="m 146.53,76.05 c 2.12,1.26 3.22,3.24 3.31,5.96 0.14,1.08 1.76,1.11 1.87,0 l 0.47,-4.78 c 0.07,-2.61 -0.37,-5.1 -1.33,-7.5 -1.5,-4.63 -0.27,-1.42 -5.19,-7.17 -0.55,-0.64 -2.5,-0.02 -1.66,0.58 l 3.55,2.53 -0.86,-0.89 c 1.83,2.34 2.85,4.96 3.09,7.9 0.48,2.63 0.5,5.26 0.07,7.89 h 1.87 c -0.55,-3.21 -1.6,-5.21 -4.25,-7.31 -0.48,-0.38 -1.23,-0.13 -1.5,0.37 -0.27,0.5 0.17,2.08 0.6,2.42 h -0.02 z"
           id="path33"
           style="opacity:0.11;isolation:isolate;fill:#feb086;stroke-width:0px" />
        <path
           class="cls-10"
           d="m 147.97,78.92 c 1.59,1.07 2.57,2.51 2.95,4.31 l -0.52,-2.63 0.49,3.3 c 0.09,0.58 0.07,1.49 0.74,1.68 0.42,0.13 0.93,-0.1 0.99,-0.64 0.38,-1.85 0.58,-3.71 0.6,-5.59 0.12,-2.36 -0.37,-4.54 -1.46,-6.57 -0.22,-0.77 -0.55,-1.5 -0.97,-2.16 -1.27,-1.56 -2.56,-3.12 -3.89,-4.63 -0.75,-0.88 -2.59,0.35 -1.66,1.01 5.13,3.59 5.92,8.02 5.57,13.79 l 1.68,-1.13 c -0.58,-1.7 -1.19,-3.22 -2.36,-4.62 -0.98,-1.16 -1.48,-1.53 -2.79,-2.57 -1.18,-0.92 -0.99,1.74 -0.96,1.92 0.2,1.34 0.48,3.61 1.6,4.52 v 0 z"
           id="path34"
           style="opacity:0.11;isolation:isolate;fill:#feb086;stroke-width:0px" />
        <path
           class="cls-10"
           d="m 150.72,82.47 c 1.5,0.85 2.45,2.13 2.85,3.84 -0.26,-1.57 -0.53,-3.15 -0.8,-4.71 l 0.91,6.4 c 0.21,1.52 1.42,1.39 1.55,-0.07 0.37,-3.97 0.88,-7.78 -0.54,-11.62 -0.35,-0.96 -0.85,-2.25 -1.44,-3.08 -0.88,-1.26 -2.55,-2.36 -3.7,-3.38 -1.37,-1.19 -2.62,1.24 -1.36,1.74 0.84,0.33 1.69,0.66 2.53,1 l -0.79,-0.95 c 1.59,2.6 2.76,5.39 3.5,8.38 -0.14,-0.91 -0.26,-1.83 -0.4,-2.74 0.08,2.04 0.16,4.08 0.23,6.13 l 1.2,-5.57 c -0.5,-1.08 -0.98,-2.1 -1.64,-3.11 -1.13,-1.72 -2.45,-2.83 -4.12,-4.07 -1.67,-1.24 -0.59,3.43 -0.62,3.28 0.4,1.91 0.88,3.8 1.42,5.67 0.18,1.05 0.58,1.99 1.19,2.83 h 0.02 z"
           id="path35"
           style="opacity:0.11;isolation:isolate;fill:#feb086;stroke-width:0px" />
        <path
           class="cls-10"
           d="m 150.83,79.07 c 1.58,1.06 2.56,2.48 2.94,4.27 -0.19,-0.93 -0.37,-1.86 -0.56,-2.78 0.17,1.13 0.34,2.27 0.51,3.41 0.09,0.58 0.08,1.52 0.76,1.73 0.43,0.13 0.92,-0.12 0.99,-0.66 0.44,-3.76 1.04,-6.36 -0.08,-10.08 -1.06,-3.53 -3.34,-6.05 -5.63,-8.77 -0.76,-0.91 -2.61,0.35 -1.67,1.05 l 2.81,2.1 -0.55,-0.56 c 1.39,1.49 2.27,3.18 2.63,5.1 0.67,2.23 0.89,4.52 0.64,6.9 l 1.67,-1.17 c -0.6,-1.81 -1.23,-3.42 -2.45,-4.93 -1,-1.23 -1.5,-1.64 -2.86,-2.74 -1.25,-1.01 -0.92,2.02 -0.9,2.1 0.23,1.45 0.55,4.02 1.76,5.03 h -0.02 z"
           id="path36"
           style="opacity:0.11;isolation:isolate;fill:#feb086;stroke-width:0px" />
        <path
           class="cls-10"
           d="m 143.35,74.82 c 2.27,1.45 3.39,3.53 3.38,6.24 0.07,0.55 0.73,0.6 1.15,0.53 0.63,-0.1 0.7,-0.39 0.76,-1 0.38,-4.04 0.73,-5.33 -0.15,-9.48 -1.33,-6.24 -1.56,-4.36 -5.96,-9.57 -0.47,-0.55 -2.46,-0.08 -1.64,0.51 1.3,0.91 2.6,1.83 3.9,2.74 l -1.16,-1.04 c 3.48,4.9 4.5,10.5 3.05,16.83 l 1.92,-0.47 c -0.2,-1.49 -0.24,-2.59 -1.07,-3.93 -0.83,-1.34 -1.71,-2.08 -2.98,-3.08 -0.91,-0.72 -2.25,0.87 -1.19,1.71 v 0 z"
           id="path37"
           style="opacity:0.11;isolation:isolate;fill:#feb086;stroke-width:0px" />
        <path
           class="cls-10"
           d="m 143.52,78.71 c 0.99,1.46 1.97,2.91 2.96,4.37 l -0.47,-2.37 c 0.15,1.04 0.29,2.07 0.45,3.11 0.08,0.55 0.13,1.65 0.96,1.68 0.83,0.03 0.86,-1.23 0.91,-1.71 0.41,-3.67 0.88,-5.7 -0.15,-9.44 -0.52,-1.35 -1.07,-2.69 -1.65,-4.01 -1.44,-1.53 -2.8,-3.13 -4.1,-4.78 -0.64,-0.77 -2.56,0.2 -1.65,0.84 1.13,0.8 2.27,1.61 3.4,2.41 l -0.91,-0.84 c 2.75,3.91 3.8,8.21 3.17,12.88 l 1.69,-1.06 c -0.56,-1.53 -1.13,-2.92 -2.22,-4.18 -0.93,-1.07 -1.44,-1.4 -2.7,-2.33 -1.05,-0.77 -1.07,1.34 -1.05,1.64 0.14,1.19 0.38,2.96 1.37,3.75 v 0.03 z"
           id="path38"
           style="opacity:0.11;isolation:isolate;fill:#feb086;stroke-width:0px" />
        <path
           class="cls-10"
           d="m 146.5,83.4 c 1.53,0.88 2.5,2.2 2.89,3.97 l -0.82,-5.3 c 0.31,2.37 0.63,4.74 0.94,7.11 0.22,1.75 1.42,1.62 1.55,-0.06 0.18,-2.05 0.34,-4.09 0.52,-6.15 -0.04,-1.07 -0.19,-2.12 -0.43,-3.17 -0.21,-1.26 -0.31,-2.32 -0.82,-3.47 -0.42,-0.94 -0.9,-2.24 -1.68,-2.96 -0.96,-0.88 -2.15,-1.61 -3.21,-2.38 -1.67,-1.21 -2.42,1.69 -1.3,1.94 l 2.42,0.55 -0.54,-0.58 c 1.81,2.77 3.01,5.81 3.62,9.15 -0.27,-1.6 -0.55,-3.21 -0.81,-4.81 l 0.26,6.57 1.19,-6.47 c -0.64,-1.32 -1.42,-2.53 -2.35,-3.65 -1.01,-1.14 -2.17,-2.1 -3.49,-2.85 -1.74,-1.2 -0.59,3.53 -0.6,3.46 0.42,2.03 0.9,4.05 1.45,6.05 0.18,1.11 0.59,2.12 1.21,3.03 z"
           id="path39"
           style="opacity:0.11;isolation:isolate;fill:#feb086;stroke-width:0px" />
        <path
           class="cls-10"
           d="m 149.76,75.4 c 2.12,1.24 3.21,3.21 3.29,5.93 0.12,0.89 1.78,0.86 1.87,-0.02 0.16,-1.55 0.3,-3.12 0.46,-4.67 0.07,-2.62 -0.37,-5.13 -1.32,-7.54 -1.48,-4.64 -0.3,-1.53 -5.18,-7.22 -0.2,-0.22 -1.27,-0.44 -1.53,-0.27 -0.23,0.15 -0.45,0.57 -0.14,0.78 1.27,0.93 2.54,1.85 3.81,2.78 l -1.1,-1.09 c 1.86,2.37 2.89,5.06 3.09,8.05 0.48,2.7 0.5,5.39 0.04,8.09 l 1.87,-0.02 c -0.23,-1.66 -0.29,-2.52 -1.14,-4.07 -0.79,-1.46 -1.78,-2.3 -3.06,-3.32 -0.45,-0.36 -1.25,-0.08 -1.5,0.38 -0.25,0.46 0.15,1.9 0.56,2.23 v 0 z"
           id="path40"
           style="opacity:0.11;isolation:isolate;fill:#feb086;stroke-width:0px" />
        <path
           class="cls-10"
           d="m 144.17,81.44 3.11,6.07 c 0.19,1.39 1.42,1.31 1.55,-0.04 0.38,-3.7 1.21,-7.72 -0.36,-11.33 -0.43,-1.05 -0.95,-2.04 -1.56,-2.99 -1.23,-1.31 -2.44,-2.64 -3.64,-3.99 -1.03,-1.14 -2.57,0.97 -1.57,1.5 l 2.97,1.6 -0.95,-0.79 c 1.92,2.53 3.09,5.38 3.53,8.58 l -0.24,-2.27 -0.06,3.05 1.32,-2.6 c -0.46,-0.88 -0.91,-1.72 -1.48,-2.54 -1.07,-1.54 -2.32,-2.51 -3.87,-3.6 -1.55,-1.08 -0.82,2.56 -0.8,2.64 0.28,1.5 0.64,3 1.06,4.48 0.12,0.85 0.46,1.58 1.01,2.22 v 0 z"
           id="path41"
           style="opacity:0.11;isolation:isolate;fill:#feb086;stroke-width:0px" />
        <path
           class="cls-10"
           d="m 147.74,73.27 c 2.2,1.33 3.38,3.41 3.55,6.24 0.08,0.66 1.91,0.65 1.96,0 0.37,-4.15 0.73,-5.29 -0.16,-9.56 -1.33,-6.33 -1.52,-4.47 -5.94,-9.69 -0.45,-0.54 -2.44,-0.15 -1.64,0.43 l 3.89,2.81 -1.13,-1.07 c 3.54,4.96 4.54,10.66 3.02,17.07 h 1.96 c -0.21,-1.9 -0.15,-2.4 -0.98,-4.06 -0.78,-1.53 -1.55,-2.11 -2.85,-3.17 -0.57,-0.46 -2.51,0.32 -1.67,0.98 v 0 z"
           id="path42"
           style="opacity:0.11;isolation:isolate;fill:#feb086;stroke-width:0px" />
        <path
           class="cls-10"
           d="m 141.93,76.51 c 1.78,1.15 2.92,2.8 3.41,4.96 l -0.34,-1.49 0.34,2.83 c 0.16,1.31 1.72,1.44 1.87,0.02 0.66,-3.32 0.64,-6.64 -0.08,-9.96 -0.27,-0.82 -0.54,-1.64 -0.82,-2.46 0,-0.93 -0.28,-1.71 -0.83,-2.33 -1.59,-1.42 -3.03,-2.97 -4.31,-4.67 -0.57,-0.66 -2.51,0.06 -1.65,0.66 l 3.55,2.46 -0.89,-0.86 c 1.78,2.27 2.8,4.83 3.09,7.68 0.48,2.53 0.52,5.07 0.1,7.6 l 1.87,0.02 c -0.25,-1.31 -0.47,-2.39 -1.06,-3.59 -0.81,-1.68 -1.88,-2.67 -3.33,-3.85 -0.45,-0.37 -1.29,-0.21 -1.51,0.35 -0.22,0.56 0.13,2.19 0.61,2.59 v 0 z"
           id="path43"
           style="opacity:0.11;isolation:isolate;fill:#feb086;stroke-width:0px" />
      </g>
      <g
         id="g55">
        <path
           class="cls-10"
           d="m 10.53,79.23 c 1.33,0 0.21,-1.7 -0.03,-2 -0.68,-0.85 -2.08,-2.67 -3.32,-2.67 -1.33,0 -0.21,1.7 0.03,2 0.68,0.85 2.08,2.67 3.32,2.67 z"
           id="path44"
           style="opacity:0.11;isolation:isolate;fill:#feb086;stroke-width:0px" />
        <path
           class="cls-10"
           d="m 11.62,75.85 c 2.04,0 0.6,-2.85 -0.66,-2.85 -2.04,0 -0.6,2.85 0.66,2.85 z"
           id="path45"
           style="opacity:0.11;isolation:isolate;fill:#feb086;stroke-width:0px" />
        <path
           class="cls-10"
           d="m 12.89,78.62 c 1.41,0 0.09,-1.82 -0.14,-2.09 -0.73,-0.89 -2.29,-2.92 -3.6,-2.92 -1.41,0 -0.09,1.82 0.14,2.09 0.73,0.89 2.29,2.92 3.6,2.92 z"
           id="path46"
           style="opacity:0.11;isolation:isolate;fill:#feb086;stroke-width:0px" />
        <path
           class="cls-10"
           d="m 15.81,82.09 c 2.01,0 -1.11,-3.08 -1.18,-3.15 -1.34,-1.44 -2.74,-2.82 -4.17,-4.17 -0.69,-0.81 -1.53,-1.43 -2.5,-1.83 -2.01,0 1.11,3.08 1.18,3.15 1.34,1.44 2.74,2.82 4.17,4.17 0.69,0.81 1.53,1.43 2.5,1.83 z"
           id="path47"
           style="opacity:0.11;isolation:isolate;fill:#feb086;stroke-width:0px" />
        <path
           class="cls-10"
           d="m 15.83,78.84 c 1.64,0 -0.3,-2.23 -0.47,-2.41 -0.88,-0.97 -1.81,-1.89 -2.78,-2.76 -0.48,-0.58 -1.07,-0.94 -1.78,-1.09 -1.64,0 0.3,2.23 0.47,2.41 0.88,0.97 1.81,1.89 2.78,2.76 0.48,0.58 1.07,0.94 1.78,1.09 z"
           id="path48"
           style="opacity:0.11;isolation:isolate;fill:#feb086;stroke-width:0px" />
        <path
           class="cls-10"
           d="m 8.21,74.57 c 0.68,0 1.72,-1.71 0.49,-1.71 -0.68,0 -1.72,1.71 -0.49,1.71 z"
           id="path49"
           style="opacity:0.11;isolation:isolate;fill:#feb086;stroke-width:0px" />
        <path
           class="cls-10"
           d="m 8.47,78.41 c 1.02,0 0.55,-1.32 0.28,-1.69 -0.55,-0.75 -1.42,-1.76 -2.4,-1.76 -0.98,0 -0.55,1.32 -0.28,1.69 0.55,0.75 1.42,1.76 2.4,1.76 z"
           id="path50"
           style="opacity:0.11;isolation:isolate;fill:#feb086;stroke-width:0px" />
        <path
           class="cls-10"
           d="m 11.01,82.46 c 1.86,0 -0.72,-2.71 -0.84,-2.83 C 9.05,78.39 7.86,77.19 6.64,76.04 6.04,75.33 5.32,74.82 4.47,74.51 c -1.86,0 0.72,2.71 0.84,2.83 1.12,1.24 2.31,2.44 3.53,3.59 0.6,0.71 1.32,1.22 2.17,1.53 z"
           id="path51"
           style="opacity:0.11;isolation:isolate;fill:#feb086;stroke-width:0px" />
        <path
           class="cls-10"
           d="m 14.82,75.13 c 0.62,0 1.24,-0.39 1.08,-1.11 -0.13,-0.59 -1.52,-2.11 -2.15,-2.11 -0.63,0 -1.24,0.39 -1.08,1.11 0.13,0.59 1.52,2.11 2.15,2.11 z"
           id="path52"
           style="opacity:0.11;isolation:isolate;fill:#feb086;stroke-width:0px" />
        <path
           class="cls-10"
           d="m 8.78,80.95 c 1.5,0 -0.04,-1.98 -0.25,-2.24 C 7.79,77.85 6.99,77.04 6.15,76.28 5.73,75.76 5.2,75.45 4.57,75.35 c -1.5,0 0.04,1.98 0.25,2.24 0.74,0.86 1.54,1.67 2.38,2.43 0.42,0.52 0.95,0.83 1.58,0.93 z"
           id="path53"
           style="opacity:0.11;isolation:isolate;fill:#feb086;stroke-width:0px" />
        <path
           class="cls-10"
           d="m 13,73.44 c 1.29,0 1.36,-2.16 0.02,-2.16 -1.34,0 -1.36,2.16 -0.02,2.16 z"
           id="path54"
           style="opacity:0.11;isolation:isolate;fill:#feb086;stroke-width:0px" />
        <path
           class="cls-10"
           d="m 6.84,76.44 c 1.46,0 1.25,-2.29 -0.08,-2.29 -1.46,0 -1.25,2.29 0.08,2.29 z"
           id="path55"
           style="opacity:0.11;isolation:isolate;fill:#feb086;stroke-width:0px" />
      </g>
      <g
         id="g67">
        <path
           class="cls-10"
           d="m 12.34,76.96 c 1.33,0 0.21,-1.7 -0.03,-2 -0.68,-0.85 -2.08,-2.67 -3.32,-2.67 -1.33,0 -0.21,1.7 0.03,2 0.68,0.85 2.08,2.67 3.32,2.67 z"
           id="path56"
           style="opacity:0.11;isolation:isolate;fill:#feb086;stroke-width:0px" />
        <path
           class="cls-10"
           d="m 13.43,73.59 c 2.04,0 0.6,-2.85 -0.66,-2.85 -2.04,0 -0.6,2.85 0.66,2.85 z"
           id="path57"
           style="opacity:0.11;isolation:isolate;fill:#feb086;stroke-width:0px" />
        <path
           class="cls-10"
           d="m 14.7,76.36 c 1.41,0 0.09,-1.82 -0.14,-2.09 -0.73,-0.89 -2.29,-2.92 -3.6,-2.92 -1.41,0 -0.09,1.82 0.14,2.09 0.73,0.89 2.29,2.92 3.6,2.92 z"
           id="path58"
           style="opacity:0.11;isolation:isolate;fill:#feb086;stroke-width:0px" />
        <path
           class="cls-10"
           d="m 17.62,79.83 c 2.01,0 -1.11,-3.08 -1.18,-3.15 -1.34,-1.44 -2.74,-2.82 -4.17,-4.17 -0.69,-0.81 -1.53,-1.43 -2.5,-1.83 -2.01,0 1.11,3.08 1.18,3.15 1.34,1.44 2.74,2.82 4.17,4.17 0.69,0.81 1.53,1.43 2.5,1.83 z"
           id="path59"
           style="opacity:0.11;isolation:isolate;fill:#feb086;stroke-width:0px" />
        <path
           class="cls-10"
           d="m 17.64,76.57 c 1.64,0 -0.3,-2.23 -0.47,-2.41 -0.88,-0.97 -1.81,-1.89 -2.78,-2.76 -0.48,-0.58 -1.07,-0.94 -1.78,-1.09 -1.64,0 0.3,2.23 0.47,2.41 0.88,0.97 1.81,1.89 2.78,2.76 0.48,0.58 1.07,0.94 1.78,1.09 z"
           id="path60"
           style="opacity:0.11;isolation:isolate;fill:#feb086;stroke-width:0px" />
        <path
           class="cls-10"
           d="m 10.02,72.31 c 0.68,0 1.72,-1.71 0.49,-1.71 -0.68,0 -1.72,1.71 -0.49,1.71 z"
           id="path61"
           style="opacity:0.11;isolation:isolate;fill:#feb086;stroke-width:0px" />
        <path
           class="cls-10"
           d="m 10.27,76.15 c 1.02,0 0.55,-1.32 0.28,-1.69 C 10,73.71 9.13,72.7 8.15,72.7 c -0.98,0 -0.55,1.32 -0.28,1.69 0.55,0.75 1.42,1.76 2.4,1.76 z"
           id="path62"
           style="opacity:0.11;isolation:isolate;fill:#feb086;stroke-width:0px" />
        <path
           class="cls-10"
           d="m 12.81,80.19 c 1.86,0 -0.72,-2.71 -0.84,-2.83 -1.12,-1.24 -2.31,-2.44 -3.53,-3.59 -0.6,-0.71 -1.32,-1.22 -2.17,-1.53 -1.86,0 0.72,2.71 0.84,2.83 1.12,1.24 2.31,2.44 3.53,3.59 0.6,0.71 1.32,1.22 2.17,1.53 z"
           id="path63"
           style="opacity:0.11;isolation:isolate;fill:#feb086;stroke-width:0px" />
        <path
           class="cls-10"
           d="m 16.63,72.87 c 0.62,0 1.24,-0.39 1.08,-1.11 -0.13,-0.59 -1.52,-2.11 -2.15,-2.11 -0.63,0 -1.24,0.39 -1.08,1.11 0.13,0.59 1.52,2.11 2.15,2.11 z"
           id="path64"
           style="opacity:0.11;isolation:isolate;fill:#feb086;stroke-width:0px" />
        <path
           class="cls-10"
           d="m 10.59,78.69 c 1.5,0 -0.04,-1.98 -0.25,-2.24 C 9.6,75.59 8.8,74.78 7.95,74.02 7.53,73.5 7,73.19 6.37,73.09 c -1.5,0 0.04,1.98 0.25,2.24 0.74,0.86 1.54,1.67 2.39,2.43 0.42,0.52 0.95,0.83 1.58,0.93 z"
           id="path65"
           style="opacity:0.11;isolation:isolate;fill:#feb086;stroke-width:0px" />
        <path
           class="cls-10"
           d="m 14.81,71.17 c 1.29,0 1.36,-2.16 0.02,-2.16 -1.34,0 -1.36,2.16 -0.02,2.16 z"
           id="path66"
           style="opacity:0.11;isolation:isolate;fill:#feb086;stroke-width:0px" />
        <path
           class="cls-10"
           d="m 8.65,74.18 c 1.46,0 1.25,-2.29 -0.08,-2.29 -1.46,0 -1.25,2.29 0.08,2.29 z"
           id="path67"
           style="opacity:0.11;isolation:isolate;fill:#feb086;stroke-width:0px" />
      </g>
      <path
         class="cls-1"
         d="m 139.06,72 c -0.27,24.47 -16.11,46.41 -39.04,54.82 -22.92,8.4 -49.5,1.65 -65.64,-16.63 C 25.04,99.6 19.87,86.11 19.71,72 c -0.03,-2.6 -1.96,-2.64 -1.93,0 0.28,25.69 15.48,49.6 39.85,58.83 24.37,9.22 53.33,1.45 69.78,-19.29 8.93,-11.27 13.42,-25.23 13.57,-39.54 0.03,-2.61 -1.91,-2.63 -1.93,0 v 0 z"
         id="path68"
         style="fill:#3a342a;stroke-width:0px" />
      <circle
         class="cls-7"
         cx="79.559998"
         cy="70.110001"
         r="60.630001"
         id="circle68"
         style="fill:url(#Gradiente_sem_nome_30-5);stroke-width:0px" />
      <g
         class="cls-15"
         id="g81"
         style="opacity:0.72">
        <g
           id="g80">
          <path
             class="cls-10"
             d="m 52.17,89.87 1.8,-0.63 c -2.75,-2.08 -5.48,-4.16 -8.23,-6.25 -1.34,0.48 -2.68,0.97 -4.03,1.45 1.65,2.22 3.31,4.43 4.96,6.64 l 4.12,-3.12 c 0.4,-0.3 -2.96,-3.37 -2.92,-3.34 -0.34,-0.33 -2.61,-3.05 -3.44,-2.8 l -3.67,1.07 c 1.2,2.18 2.41,4.35 3.62,6.53 2.96,-1.37 5.91,-2.74 8.87,-4.1 -1.77,-2.09 -3.53,-4.18 -5.3,-6.27 -2.93,2.93 -5.87,5.86 -8.8,8.79 -0.55,0.55 0.75,3.31 0.89,3.69 -0.02,-0.05 1.18,3.71 1.58,3.46 4.4,-2.77 8.79,-5.53 13.18,-8.3 -1.55,-2.13 -3.12,-4.25 -4.67,-6.38 l -9.04,7.07 c -0.6,0.47 0.43,3.36 0.52,3.74 -0.02,-0.06 0.82,3.79 1.24,3.57 3.88,-2.05 7.77,-4.09 11.65,-6.15 l -3.86,-6.75 -7.86,9.43 c -0.63,0.75 -0.04,3.05 0.05,3.81 0,-0.12 0.44,3.94 0.78,3.73 3.69,-2.26 7.4,-4.51 11.09,-6.78 -1.07,-2.34 -2.15,-4.66 -3.21,-7 l -4.64,5.56 c -0.65,0.78 -0.21,2.98 -0.17,3.82 0,-0.12 0.23,3.97 0.57,3.78 3.71,-2.03 7.42,-4.07 11.13,-6.11 l -2.76,-7.14 c -1.27,1.47 -2.55,2.92 -3.82,4.39 -0.68,0.78 -0.36,2.94 -0.36,3.82 0,0.18 -0.25,3.7 0.37,3.82 l 3.48,0.64 c 0.39,0.07 -0.58,-4.07 -0.55,-3.96 -0.12,-0.49 -0.47,-3.54 -1.27,-3.79 L 51.8,89.27 v 7.64 c 2.2,-1.62 4.39,-3.25 6.58,-4.88 0.55,-0.41 -0.95,-3.48 -1.04,-3.7 0.02,0.05 -1.31,-3.7 -1.72,-3.44 -2.92,1.89 -5.84,3.77 -8.78,5.66 0.14,2.53 0.27,5.06 0.4,7.6 2.48,-2.05 4.97,-4.1 7.46,-6.17 0.52,-0.43 -1.17,-3.44 -1.28,-3.65 0.02,0.04 -1.54,-3.63 -1.94,-3.34 -2.9,2.08 -5.79,4.15 -8.7,6.23 0.27,2.51 0.55,5.02 0.82,7.53 L 54.5,88.54 c 0.64,-0.61 -3.5,-6.97 -3.86,-6.75 -3.19,1.87 -6.36,3.72 -9.55,5.59 0.59,2.43 1.17,4.88 1.76,7.31 3.99,-2.67 7.97,-5.34 11.96,-8.01 0.43,-0.29 -4.09,-6.78 -4.67,-6.38 -3.66,2.51 -7.32,5.01 -10.98,7.52 0.82,2.38 1.65,4.77 2.47,7.15 3.88,-3.22 7.76,-6.45 11.63,-9.67 0.43,-0.36 -2.35,-3.34 -2.36,-3.37 -0.12,-0.15 -2.35,-3.21 -2.93,-2.9 -2.39,1.28 -4.8,2.57 -7.19,3.85 -0.49,0.26 1.47,3.4 1.49,3.44 0.13,0.22 1.47,3.23 2.13,3.09 2.14,-0.49 4.28,-0.97 6.42,-1.46 C 48.7,85.9 46.58,83.86 44.46,81.8 l -2.73,2.62 c -0.45,0.43 2.11,3.45 2.19,3.55 0.21,0.28 2.03,3.29 2.78,3.11 2.43,-0.62 4.86,-1.23 7.29,-1.85 -0.1,-0.38 -0.32,-0.67 -0.68,-0.89 -1.05,-0.87 -2.11,-1.72 -3.21,-2.53 -1.07,-0.83 -2.18,-1.63 -3.29,-2.4 -0.3,-0.29 -0.64,-0.43 -1.04,-0.42 l -1.47,0.26 c 0.08,0.38 0.29,0.68 0.64,0.92 1,0.92 2.02,1.81 3.07,2.68 1.04,0.88 2.09,1.73 3.17,2.56 0.28,0.3 0.63,0.46 1.02,0.47 l -0.02,-0.03 z"
             id="path69"
             style="opacity:0.11;isolation:isolate;fill:#feb086;stroke-width:0px" />
          <path
             class="cls-10"
             d="m 53.32,94 1.84,-0.64 -12.37,-6.5 -4.07,1.55 8.75,6.84 4.16,-3.19 c 0.27,-0.21 -4.87,-3.5 -4.74,-3.42 -1.3,-0.83 -2.61,-1.62 -3.95,-2.39 -0.36,-0.29 -0.75,-0.43 -1.19,-0.4 l -3.81,1.24 c 2.35,2.15 4.72,4.3 7.07,6.45 3,-1.39 6,-2.78 9,-4.17 -2.8,-2.14 -5.61,-4.28 -8.4,-6.42 l -8.55,8.08 c -0.62,0.59 4.8,8.12 5.21,7.87 4.49,-2.78 8.96,-5.58 13.45,-8.36 -2.35,-2.37 -4.7,-4.74 -7.05,-7.11 -2.99,2.3 -5.98,4.58 -8.96,6.88 -0.54,0.41 1.54,4.09 1.62,4.25 0,0 1.8,4.19 2.29,3.93 l 11.92,-6.21 c -1.87,-2.62 -3.73,-5.24 -5.59,-7.87 -2.36,3.02 -4.73,6.05 -7.08,9.07 -0.63,0.8 0.41,3.81 0.56,4.51 -0.02,-0.12 0.93,4.57 1.27,4.37 3.81,-2.28 7.61,-4.55 11.42,-6.83 -1.23,-2.88 -2.47,-5.78 -3.7,-8.66 -1.32,1.92 -2.64,3.83 -3.96,5.76 -0.7,1.03 -0.28,3.44 -0.25,4.52 0,-0.14 0.19,4.66 0.48,4.5 3.82,-2.04 7.63,-4.07 11.45,-6.12 -0.69,-3.02 -1.4,-6.03 -2.09,-9.05 l -3.46,5.13 c -0.32,0.48 -1.77,8.54 -1.01,8.76 l 3.64,1.02 c 0.36,0.1 -0.14,-5.04 -0.13,-4.92 -0.02,-0.2 -0.15,-4.73 -0.86,-4.84 l -1.46,-0.22 c -0.4,2.99 -0.8,5.98 -1.21,8.96 2.19,-1.61 4.38,-3.22 6.56,-4.85 0.64,-0.48 -0.61,-4.26 -0.68,-4.6 0.03,0.12 -1.07,-4.65 -1.41,-4.44 -3.2,2.04 -6.39,4.09 -9.59,6.14 0.08,3.01 0.15,6.02 0.22,9.03 2.47,-2.04 4.95,-4.07 7.43,-6.12 0.56,-0.46 -1.42,-4.26 -1.51,-4.48 0.03,0.08 -1.8,-4.46 -2.19,-4.18 -3.19,2.2 -6.36,4.4 -9.55,6.61 0.61,2.96 1.22,5.92 1.83,8.88 C 48.29,99 51.91,95.64 55.53,92.27 56,91.83 53.09,88.2 53.03,88.13 52.98,88.07 50.47,84.1 49.93,84.42 L 39.7,90.31 c 1.3,2.73 2.61,5.45 3.91,8.18 4.04,-2.65 8.07,-5.3 12.11,-7.94 0.39,-0.25 -3.32,-3.88 -3.26,-3.81 -0.11,-0.11 -3.21,-3.67 -3.78,-3.29 -3.87,2.54 -7.74,5.07 -11.61,7.61 1.74,2.62 3.47,5.25 5.21,7.87 3.92,-3.18 7.84,-6.35 11.75,-9.53 0.34,-0.27 -4.07,-3.58 -3.98,-3.51 -0.29,-0.22 -3.67,-3.32 -4.43,-2.92 -2.56,1.38 -5.12,2.76 -7.67,4.14 -0.35,0.19 3.38,3.59 3.29,3.5 0.44,0.4 2.84,3.17 3.79,2.95 2.2,-0.49 4.41,-0.99 6.61,-1.48 l -9.88,-6.21 -3.03,2.56 c -0.34,0.29 4.23,3.78 4.14,3.71 1.14,0.91 2.32,1.79 3.51,2.64 0.31,0.31 0.67,0.48 1.09,0.49 2.56,-0.64 5.13,-1.26 7.69,-1.9 -0.27,-0.43 -0.66,-0.74 -1.16,-0.94 -1.6,-0.91 -3.21,-1.79 -4.86,-2.64 -1.62,-0.86 -3.26,-1.7 -4.92,-2.5 -0.44,-0.3 -0.92,-0.44 -1.44,-0.42 l -1.52,0.25 c 0.25,0.44 0.63,0.76 1.12,0.98 1.55,0.96 3.14,1.89 4.73,2.78 1.58,0.92 3.19,1.8 4.81,2.65 0.43,0.31 0.9,0.47 1.41,0.47 v 0 z"
             id="path70"
             style="opacity:0.11;isolation:isolate;fill:#feb086;stroke-width:0px" />
          <path
             class="cls-10"
             d="m 53.4,87.9 1.56,-0.78 c 0.4,-0.21 -2.11,-2.52 -2.05,-2.46 -0.23,-0.22 -1.95,-2.24 -2.56,-1.93 l -3.97,1.99 c 0.52,1.41 1.03,2.8 1.54,4.21 l 3.94,-2.75 c 0.36,-0.25 -2.44,-4.16 -3.21,-3.86 -1.22,0.5 -2.45,0.99 -3.67,1.49 l 0.57,3.69 c 2.84,-1.26 5.69,-2.51 8.53,-3.77 -0.89,-1.19 -1.77,-2.38 -2.66,-3.58 -3.24,3.18 -6.49,6.35 -9.73,9.53 -0.42,0.41 0.43,3.84 0.64,3.71 4.4,-2.73 8.79,-5.45 13.2,-8.19 -0.77,-1.13 -1.53,-2.27 -2.31,-3.4 -3.34,2.54 -6.68,5.08 -10.02,7.62 -0.42,0.32 -0.18,1.81 -0.16,2.26 0,0.14 0.03,1.64 0.38,1.46 3.87,-1.99 7.75,-3.98 11.62,-5.97 l -1.93,-3.46 c -3.04,3.27 -6.07,6.56 -9.11,9.83 -0.44,0.48 -0.54,4.07 0.11,3.68 3.64,-2.19 7.29,-4.37 10.93,-6.56 l -1.72,-3.47 c -1.82,1.9 -3.64,3.79 -5.45,5.69 -0.45,0.47 -0.79,4.07 -0.14,3.72 3.62,-1.94 7.23,-3.9 10.85,-5.84 -0.53,-1.16 -1.06,-2.33 -1.57,-3.49 -1.48,1.46 -2.95,2.91 -4.43,4.37 -0.28,0.28 -1.16,3.65 -0.51,3.82 1.11,0.29 2.24,0.58 3.35,0.87 0.45,0.12 -0.03,-2.24 -0.02,-2.19 -0.08,-0.43 -0.15,-1.9 -0.75,-2.06 l -1.89,-0.52 -0.51,3.82 c 2.11,-1.54 4.22,-3.09 6.33,-4.62 0.6,-0.44 -1.18,-3.73 -1.57,-3.49 -3.05,1.87 -6.09,3.74 -9.14,5.61 l -0.14,3.72 c 2.44,-1.98 4.88,-3.97 7.32,-5.95 0.58,-0.47 -1.35,-3.72 -1.72,-3.47 -3.11,2.11 -6.21,4.22 -9.31,6.33 0.04,1.23 0.07,2.46 0.11,3.68 3.64,-3.35 7.29,-6.7 10.93,-10.06 0.52,-0.47 -1.46,-3.73 -1.93,-3.46 -3.24,1.88 -6.5,3.74 -9.74,5.62 L 43.61,93 c 3.98,-2.61 7.95,-5.23 11.93,-7.84 0.5,-0.32 -1.81,-3.74 -2.31,-3.4 -3.79,2.58 -7.57,5.16 -11.36,7.74 l 0.64,3.71 c 3.87,-3.19 7.74,-6.36 11.61,-9.55 0.46,-0.38 -2.08,-3.9 -2.66,-3.58 -2.14,1.21 -4.29,2.43 -6.43,3.64 -0.61,0.34 0.04,3.8 0.57,3.69 2.1,-0.44 4.21,-0.88 6.31,-1.32 -1.07,-1.29 -2.14,-2.57 -3.21,-3.86 l -2.28,2.39 c -0.49,0.52 0.92,4.37 1.54,4.21 2.35,-0.6 4.69,-1.2 7.04,-1.8 -1.54,-1.47 -3.08,-2.93 -4.62,-4.4 l -1.27,0.36 c -0.4,0.12 1.95,2.73 1.89,2.65 0.18,0.2 1.85,2.45 2.43,2.16 l -0.05,0.05 z"
             id="path71"
             style="opacity:0.11;isolation:isolate;fill:#feb086;stroke-width:0px" />
          <path
             class="cls-10"
             d="m 51.76,95.6 1.84,-0.62 c -4.3,-1.51 -8.59,-3.03 -12.89,-4.54 -1.57,0.58 -3.16,1.15 -4.73,1.72 3.32,1.63 6.65,3.26 9.98,4.9 l 3.92,-3.14 c -0.24,-0.35 -0.59,-0.59 -1.04,-0.69 -1.41,-0.59 -2.82,-1.14 -4.26,-1.67 -1.43,-0.54 -2.86,-1.05 -4.31,-1.52 -0.41,-0.21 -0.82,-0.26 -1.24,-0.15 l -4.43,1.68 c 2.93,1.34 5.85,2.68 8.78,4.02 2.91,-1.35 5.82,-2.7 8.74,-4.05 -3.33,-1.21 -6.65,-2.42 -9.99,-3.64 -3.43,2.79 -6.87,5.59 -10.3,8.38 -0.3,0.24 4.07,2.86 3.97,2.79 0.37,0.22 3.61,2.62 4.34,2.17 4.46,-2.77 8.92,-5.53 13.38,-8.31 -3.17,-1.22 -6.33,-2.45 -9.5,-3.67 -3.71,2.52 -7.43,5.04 -11.13,7.56 -0.26,0.18 4.06,2.56 3.93,2.49 0.52,0.27 3.43,2.29 4.28,1.85 3.94,-2.04 7.87,-4.09 11.8,-6.14 l -9.28,-3.46 c -3.29,2.93 -6.59,5.85 -9.88,8.78 -0.32,0.28 3.84,2.79 3.74,2.74 0.36,0.22 3.41,2.55 4.13,2.11 l 11.3,-6.81 -8.99,-3.85 c -2.12,1.69 -4.23,3.38 -6.35,5.07 -0.32,0.26 3.71,2.86 3.63,2.8 0.37,0.24 3.28,2.6 4.03,2.19 3.75,-2.07 7.49,-4.14 11.25,-6.21 -2.93,-1.4 -5.86,-2.78 -8.79,-4.18 l -5.24,3.78 c -0.27,0.2 2.35,2.14 2.61,2.34 0.84,0.64 1.7,1.25 2.56,1.85 0.58,0.46 1.2,0.84 1.88,1.14 l 3.06,0.64 c 0.39,0.08 0.27,0 0.21,-0.27 l -0.58,-0.59 c -0.74,-0.62 -1.5,-1.2 -2.28,-1.78 -1.18,-0.9 -2.37,-1.78 -3.59,-2.63 -0.41,-0.28 -1.16,-0.95 -1.74,-0.9 l -2.12,0.2 c 2.44,1.77 4.89,3.55 7.34,5.32 2.23,-1.64 4.47,-3.28 6.69,-4.92 C 56.73,98.2 52.13,95.9 52.25,95.96 51.1,95.4 49.92,94.88 48.74,94.38 48.4,94.17 48.06,94.11 47.69,94.2 44.32,96 40.96,97.8 37.59,99.59 l 7.65,4.99 c 2.56,-2.07 5.13,-4.14 7.69,-6.21 0.23,-0.19 -4.48,-2.32 -4.35,-2.27 -1.18,-0.52 -2.37,-1 -3.59,-1.45 -0.35,-0.21 -0.7,-0.24 -1.06,-0.14 -3.39,1.93 -6.79,3.87 -10.18,5.8 l 7.88,4.86 c 3.76,-3.39 7.52,-6.79 11.29,-10.18 0.22,-0.21 -4.64,-2.12 -4.51,-2.07 -1.22,-0.47 -2.45,-0.9 -3.69,-1.29 -0.36,-0.19 -0.71,-0.21 -1.07,-0.09 -3.58,1.75 -7.15,3.51 -10.73,5.26 l 8.21,4.34 c 4.14,-2.75 8.29,-5.48 12.43,-8.23 -0.2,-0.33 -0.49,-0.56 -0.89,-0.65 -1.23,-0.54 -2.47,-1.05 -3.72,-1.52 -1.25,-0.5 -2.51,-0.96 -3.78,-1.38 -0.36,-0.2 -0.73,-0.23 -1.1,-0.12 -4.06,2.34 -8.12,4.68 -12.18,7.02 l 8.31,4.96 c 4,-3.23 7.99,-6.47 11.98,-9.7 0.19,-0.15 -4.99,-2.21 -4.87,-2.17 -1.31,-0.49 -2.64,-0.95 -3.97,-1.37 -0.38,-0.2 -0.76,-0.23 -1.14,-0.11 -2.51,1.22 -5.02,2.44 -7.53,3.66 0.16,0.33 0.42,0.57 0.8,0.68 1.13,0.59 2.28,1.13 3.44,1.66 0.94,0.43 3.34,1.98 4.54,1.67 2.16,-0.56 4.32,-1.11 6.48,-1.67 L 39.09,89.83 36.03,92.1 c -0.21,0.16 4.95,2.84 4.83,2.78 1.31,0.65 2.64,1.28 3.98,1.87 0.37,0.24 0.76,0.32 1.17,0.25 2.55,-0.69 5.1,-1.39 7.65,-2.08 -0.32,-0.38 -0.74,-0.64 -1.25,-0.75 -1.68,-0.65 -3.37,-1.28 -5.07,-1.87 -1.69,-0.61 -3.4,-1.18 -5.12,-1.72 -0.47,-0.23 -0.96,-0.3 -1.45,-0.21 l -1.58,0.27 c 0.3,0.39 0.71,0.65 1.22,0.78 1.64,0.7 3.29,1.37 4.96,2 1.66,0.65 3.33,1.27 5.02,1.86 0.46,0.24 0.94,0.32 1.43,0.24 l -0.04,0.06 z"
             id="path72"
             style="opacity:0.11;isolation:isolate;fill:#feb086;stroke-width:0px" />
          <path
             class="cls-10"
             d="m 52.26,91.49 1.91,-0.57 c -3.46,-2.28 -6.92,-4.54 -10.38,-6.82 -1.35,0.45 -2.7,0.91 -4.05,1.36 l 7,7.33 4.12,-3.21 c 0.35,-0.27 -3.98,-3.73 -3.89,-3.65 -1.08,-0.9 -2.19,-1.77 -3.31,-2.61 -0.29,-0.31 -0.64,-0.47 -1.05,-0.48 -1.23,0.33 -2.47,0.66 -3.7,1.01 1.84,2.41 3.66,4.82 5.5,7.23 2.98,-1.4 5.96,-2.79 8.95,-4.19 -2.32,-2.35 -4.62,-4.69 -6.94,-7.04 -2.84,2.79 -5.68,5.59 -8.52,8.38 -0.54,0.53 1.46,4.03 1.58,4.29 -0.02,-0.04 1.82,4.25 2.25,3.98 4.43,-2.78 8.85,-5.55 13.29,-8.33 l -5.94,-7.42 c -2.96,2.31 -5.93,4.61 -8.89,6.91 -0.59,0.46 0.98,4.09 1.07,4.37 -0.02,-0.06 1.33,4.37 1.77,4.13 3.92,-2.06 7.84,-4.12 11.76,-6.19 -1.61,-2.65 -3.21,-5.31 -4.83,-7.95 -2.49,3.09 -4.97,6.17 -7.47,9.25 -0.65,0.81 0.22,3.75 0.35,4.5 -0.02,-0.13 0.74,4.58 1.07,4.39 3.73,-2.27 7.47,-4.53 11.21,-6.8 l -3.74,-8.38 c -1.47,1.87 -2.93,3.72 -4.4,5.59 -0.7,0.89 -0.11,3.61 -0.04,4.51 0,-0.13 0.38,4.63 0.69,4.46 3.74,-2.04 7.49,-4.08 11.24,-6.14 -0.99,-2.87 -1.97,-5.75 -2.96,-8.62 -1.21,1.5 -2.41,3 -3.63,4.5 -0.75,0.93 -0.37,3.5 -0.37,4.5 0,0.17 -0.29,4.38 0.36,4.5 1.18,0.23 2.36,0.47 3.56,0.7 0.35,0.07 -0.66,-4.84 -0.64,-4.71 -0.1,-0.45 -0.52,-4.3 -1.36,-4.55 l -1.54,-0.46 c 0,3 0,6 0,9.01 l 6.6,-4.89 c 0.59,-0.44 -1.06,-4.19 -1.13,-4.43 0.03,0.09 -1.45,-4.44 -1.83,-4.19 -2.98,1.93 -5.96,3.86 -8.94,5.78 0.22,2.99 0.44,5.98 0.66,8.97 2.49,-2.05 4.98,-4.1 7.48,-6.17 0.55,-0.45 -1.45,-4.14 -1.53,-4.35 0.03,0.07 -1.82,-4.32 -2.21,-4.05 l -8.89,6.31 c 0.48,2.96 0.95,5.92 1.43,8.88 3.63,-3.39 7.25,-6.79 10.87,-10.18 0.5,-0.47 -2.01,-4.03 -2.1,-4.17 -0.02,-0.03 -2.22,-4.07 -2.73,-3.78 -3.25,1.88 -6.52,3.76 -9.77,5.64 0.95,2.83 1.9,5.67 2.84,8.5 4,-2.67 7.99,-5.34 11.99,-7.99 0.29,-0.2 -5.22,-7.9 -5.94,-7.42 -3.72,2.49 -7.45,4.98 -11.17,7.48 1.28,2.76 2.55,5.51 3.83,8.27 3.88,-3.21 7.75,-6.4 11.63,-9.61 0.41,-0.33 -3.23,-3.81 -3.21,-3.78 -0.17,-0.17 -3.08,-3.61 -3.73,-3.26 -2.5,1.34 -5,2.67 -7.51,4.01 -0.44,0.23 2.49,3.88 2.45,3.84 0.22,0.3 2.26,3.58 3.04,3.39 2.15,-0.5 4.31,-0.99 6.46,-1.49 l -8.26,-6.75 -2.87,2.62 c -0.41,0.38 3.24,3.93 3.23,3.92 0.33,0.34 2.88,3.64 3.76,3.41 L 54.16,90.9 C 53.97,90.48 53.67,90.16 53.23,89.94 51.9,88.99 50.54,88.07 49.17,87.18 47.81,86.27 46.42,85.4 45.03,84.55 44.66,84.24 44.24,84.08 43.78,84.08 l -1.5,0.24 c 0.17,0.43 0.46,0.75 0.88,0.99 1.28,0.99 2.58,1.95 3.9,2.88 1.31,0.95 2.64,1.87 3.99,2.77 0.35,0.32 0.76,0.5 1.21,0.51 v -0.02 z"
             id="path73"
             style="opacity:0.11;isolation:isolate;fill:#feb086;stroke-width:0px" />
          <path
             class="cls-10"
             d="m 52.09,100.52 1.88,-0.57 C 50.39,99.9 46.83,99.86 43.25,99.81 l -4.1,2.59 7.11,-0.04 c 1.39,-0.91 2.78,-1.81 4.17,-2.72 0.96,-0.63 -2.54,-0.16 -2.05,-0.21 -1.27,0.17 -2.54,0.35 -3.8,0.58 -0.67,0.07 -1.32,0.22 -1.94,0.47 l -3,2.54 c -1.07,0.91 0.65,0.39 1.06,0.22 3.64,-1.55 7.29,-3.12 10.93,-4.67 -1.53,0.42 -3.07,0.84 -4.61,1.26 -3.18,3.41 -6.34,6.83 -9.52,10.24 -0.93,1 0.77,0.21 1.01,0.05 4.64,-2.95 9.28,-5.91 13.93,-8.86 l -2.35,0.68 -7.61,6.11 c -0.75,0.6 -1.22,1.78 -1.61,2.62 0.08,-0.17 -0.72,1.59 -0.04,1.17 3.52,-2.16 7.04,-4.33 10.55,-6.49 l 1.04,-1.96 c -3.04,3 -6.09,6.01 -9.13,9.01 -0.61,0.6 -0.76,2.05 -0.92,2.83 0,-0.04 -0.35,1.55 0.24,1.11 3.11,-2.28 6.21,-4.54 9.31,-6.82 l 2.28,-3.83 c -2.38,2.06 -4.77,4.12 -7.15,6.19 -0.54,0.46 -0.42,2.34 -0.44,2.94 0,0.16 -0.14,1.44 0.43,1.06 3.01,-2 6.01,-4.01 9.02,-6.01 0.71,-1.4 1.43,-2.79 2.14,-4.2 l -6.57,5.03 c -0.33,0.25 -0.26,4.18 0.24,4.11 l 1.36,-0.19 c 0.51,-0.07 2.49,-3.12 2.19,-3.2 -1.2,-0.28 -2.4,-0.57 -3.62,-0.85 0.08,1.37 0.17,2.75 0.24,4.11 1.44,-1.7 2.87,-3.4 4.31,-5.11 0.72,-0.85 1.41,-1.97 1.85,-2.99 0.04,-0.09 0.57,-1.26 0,-0.94 -3.72,2.07 -7.44,4.14 -11.16,6.21 v 4 c 1.92,-2.41 3.83,-4.82 5.76,-7.23 0.53,-0.65 1.58,-1.77 1.87,-2.6 0.03,-0.1 0.32,-0.88 -0.13,-0.6 -3.75,2.32 -7.5,4.63 -11.26,6.96 l -0.67,3.95 c 3.93,-4.66 7.85,-9.32 11.78,-13.98 -0.08,0.09 0.52,-0.92 -0.03,-0.63 -3.96,2.11 -7.92,4.21 -11.87,6.32 l -1.65,3.79 c 4.53,-3.97 9.07,-7.93 13.59,-11.89 0.48,-0.42 0.43,-0.4 0.16,-0.64 -0.27,-0.24 -2.47,1.3 -2.51,1.33 -4.06,2.54 -8.1,5.07 -12.16,7.61 l 1.01,0.05 c 4.06,-3.5 8.11,-6.99 12.17,-10.49 0.55,-0.47 -0.81,-0.21 -0.66,-0.23 -1.33,0.22 -2.73,0.98 -3.95,1.5 l -5.81,2.51 -2.78,1.97 c 3.52,-1.3 7.04,-2.6 10.55,-3.9 -2.6,0.27 -5.2,0.56 -7.8,0.83 l -3.5,1.93 c -0.95,0.52 2.28,0.41 1.84,0.42 1.68,-0.04 3.65,0.05 5.28,-0.46 2.57,-0.81 5.14,-1.61 7.71,-2.42 1.31,-0.41 -3.38,-0.53 -2.66,-0.51 -2.47,-0.05 -5.34,-0.34 -7.77,0.21 l -1.62,0.37 c -0.38,0.11 -0.38,0.22 0,0.34 0.85,0.17 1.72,0.24 2.59,0.21 1.66,0.05 3.33,0.08 4.99,0.08 0.87,0.05 1.74,0 2.6,-0.14 v 0 z"
             id="path74"
             style="opacity:0.11;isolation:isolate;fill:#feb086;stroke-width:0px" />
          <path
             class="cls-10"
             d="m 51.18,97.47 1.89,-0.59 C 49.16,96.07 45.25,95.26 41.35,94.45 l -4.96,2.16 c 3,0.82 5.99,1.63 8.99,2.45 l 3.94,-2.95 c -0.24,-0.28 -0.57,-0.44 -0.97,-0.46 -1.27,-0.27 -2.54,-0.51 -3.82,-0.71 -1.09,-0.19 -3.75,-1.05 -4.91,-0.45 l -4.19,2.17 c 2.39,0.44 4.8,0.87 7.19,1.31 2.92,-1.27 5.83,-2.55 8.76,-3.82 -2.85,-0.27 -5.71,-0.56 -8.55,-0.83 -3.65,3.17 -7.31,6.34 -10.96,9.51 0.17,0.25 0.42,0.39 0.76,0.4 0.7,0.15 1.41,0.26 2.12,0.36 0.88,0.14 1.77,0.26 2.66,0.36 0.62,0.12 1.24,0.15 1.87,0.08 4.5,-2.73 9,-5.46 13.49,-8.19 -2.72,-0.08 -5.42,-0.16 -8.14,-0.23 l -11.14,9.01 c -0.77,0.63 2.02,0.36 1.78,0.37 1.11,-0.07 2.23,-0.16 3.34,-0.28 0.6,-0.02 1.16,-0.13 1.72,-0.32 3.97,-2.01 7.94,-4.04 11.91,-6.05 -2.53,0.21 -5.06,0.42 -7.59,0.64 -3.49,3.6 -6.99,7.19 -10.48,10.8 -0.68,0.7 2,0.16 1.78,0.19 1.49,-0.23 3.57,-0.33 4.9,-1.11 l 11.38,-6.71 -7.39,1.27 -6.63,6.99 c -0.55,0.58 1.1,0.13 1.21,0.1 1.52,-0.44 3.23,-0.89 4.64,-1.64 3.73,-2 7.47,-4.02 11.2,-6.02 l -6.64,1.61 c -1.82,1.89 -3.64,3.77 -5.45,5.66 -0.17,0.21 -0.12,0.31 0.15,0.3 2.36,-0.39 4.74,-0.78 7.1,-1.17 -0.41,0.07 2.94,-0.45 1.9,-0.82 l -3.07,-1.08 -0.52,0.58 c 2.36,-1.79 4.73,-3.59 7.09,-5.37 0.9,-0.67 -2.49,0.22 -1.96,0.08 -1.73,0.49 -3.65,0.95 -5.23,1.84 l -9.94,5.66 5.85,-1.54 c 2.56,-2.14 5.12,-4.28 7.68,-6.43 0.84,-0.7 -2.38,-0.02 -1.97,-0.1 -1.65,0.31 -3.93,0.49 -5.41,1.37 l -10.68,6.36 6.67,-0.93 c 3.8,-3.5 7.59,-7 11.39,-10.5 0.76,-0.7 -2.22,-0.24 -1.99,-0.26 -1.24,0.14 -2.47,0.29 -3.7,0.48 -0.65,0.05 -1.29,0.2 -1.9,0.42 l -11.17,5.65 c 2.28,-0.08 4.56,-0.16 6.84,-0.22 4.14,-2.84 8.29,-5.7 12.44,-8.54 0.87,-0.6 -2.26,-0.55 -2.01,-0.54 -1.3,-0.04 -2.59,-0.05 -3.89,-0.03 -0.68,-0.04 -1.36,0 -2.02,0.16 l -12.75,7.25 c 2.46,0.4 4.93,0.8 7.4,1.2 4.05,-3.29 8.09,-6.59 12.15,-9.89 -0.22,-0.25 -0.53,-0.38 -0.9,-0.36 -0.81,-0.11 -1.63,-0.2 -2.45,-0.25 -1.03,-0.1 -2.04,-0.18 -3.07,-0.22 -0.71,-0.09 -1.43,-0.09 -2.14,0 -2.55,1.16 -5.09,2.34 -7.64,3.5 -0.95,0.43 2.07,0.81 1.78,0.76 1.18,0.19 2.36,0.34 3.55,0.48 0.63,0.12 1.24,0.14 1.87,0.07 2.14,-0.58 4.27,-1.16 6.41,-1.74 -3.14,-0.58 -6.27,-1.16 -9.41,-1.74 l -3.23,2.12 c 0.2,0.3 0.48,0.48 0.87,0.54 0.82,0.27 1.65,0.53 2.49,0.75 1.04,0.3 2.08,0.59 3.14,0.85 0.72,0.23 1.47,0.37 2.22,0.42 l 7.64,-2.18 c 1.29,-0.37 -3.21,-1.2 -2.73,-1.09 -1.81,-0.4 -3.63,-0.78 -5.44,-1.13 -0.95,-0.23 -1.9,-0.37 -2.86,-0.41 l -1.65,0.32 c -0.43,0.09 -0.28,0.08 -0.08,0.33 l 0.88,0.33 c 1.06,0.29 2.12,0.57 3.19,0.82 1.64,0.4 3.29,0.78 4.94,1.12 0.67,0.14 1.52,0.41 2.21,0.2 v 0 z"
             id="path75"
             style="opacity:0.11;isolation:isolate;fill:#feb086;stroke-width:0px" />
          <path
             class="cls-10"
             d="m 53.82,90.27 1.85,-0.61 C 52.95,87.39 50.24,85.12 47.52,82.85 L 44,84.61 c 1.45,2.27 2.89,4.53 4.34,6.8 l 4.29,-3.03 c 0.42,-0.3 -2.63,-3.53 -2.61,-3.5 -0.19,-0.21 -2.48,-3.3 -3.16,-3.01 l -3.26,1.37 c 0.85,2.15 1.7,4.3 2.55,6.44 3.01,-1.33 6.03,-2.66 9.04,-3.99 -1.43,-2.17 -2.84,-4.33 -4.27,-6.5 -2.78,3.17 -5.57,6.33 -8.35,9.5 -0.58,0.65 0.06,2.75 0.16,3.4 -0.02,-0.1 0.53,3.52 0.89,3.29 4.41,-2.77 8.81,-5.54 13.22,-8.31 l -3.33,-6.44 c -2.86,2.64 -5.73,5.29 -8.59,7.92 -0.65,0.6 -0.35,2.59 -0.34,3.29 0,-0.12 0.04,3.48 0.39,3.29 3.89,-2.05 7.78,-4.1 11.67,-6.16 l -2.23,-6.61 c -2.64,3.52 -5.29,7.03 -7.92,10.54 -0.67,0.9 -0.59,2.75 -0.72,3.82 -0.03,0.23 -0.16,2.65 0,2.55 3.7,-2.27 7.41,-4.54 11.1,-6.81 l -1.45,-6.63 c -1.6,2.18 -3.21,4.36 -4.81,6.54 -0.7,0.96 -0.77,2.62 -1,3.75 -0.05,0.23 -0.34,2.63 -0.18,2.54 3.7,-2.03 7.42,-4.07 11.12,-6.1 -0.3,-2.21 -0.62,-4.42 -0.92,-6.62 l -4.07,5.27 c -0.27,0.35 -2.22,6.04 -1.55,6.23 l 3.49,0.99 c 0.43,0.12 0.14,-3.65 0.15,-3.57 -0.02,-0.24 0.06,-3.39 -0.59,-3.52 l -1.28,-0.25 -1.55,6.23 c 2.11,-1.58 4.23,-3.18 6.34,-4.76 0.61,-0.46 -0.03,-2.89 -0.1,-3.36 0.02,0.12 -0.5,-3.49 -0.82,-3.25 -3.01,2.14 -6.02,4.28 -9.02,6.42 l -0.98,6.17 c 2.41,-2.02 4.82,-4.05 7.23,-6.08 0.58,-0.49 -0.26,-2.95 -0.36,-3.39 0.02,0.11 -0.76,-3.49 -1.08,-3.23 -2.98,2.35 -5.96,4.71 -8.94,7.07 -0.18,2.07 -0.35,4.14 -0.53,6.22 3.56,-3.39 7.11,-6.77 10.67,-10.16 0.54,-0.51 -0.64,-3.04 -0.76,-3.42 0.02,0.05 -1.07,-3.44 -1.47,-3.19 -3.17,2.06 -6.32,4.11 -9.49,6.18 0.02,2.2 0.03,4.39 0.05,6.59 3.96,-2.69 7.92,-5.38 11.87,-8.07 0.75,-0.51 -3.11,-6.61 -3.33,-6.44 -3.64,2.69 -7.28,5.36 -10.92,8.05 0.35,2.23 0.69,4.47 1.05,6.69 3.86,-3.23 7.71,-6.46 11.57,-9.69 0.54,-0.45 -3.72,-6.79 -4.27,-6.5 l -7.33,4.04 c -0.53,0.29 0.88,3.21 0.94,3.36 0.07,0.18 1.01,3.21 1.62,3.09 2.16,-0.43 4.32,-0.87 6.47,-1.3 l -5.77,-6.52 c -0.96,0.92 -1.92,1.83 -2.87,2.75 -0.47,0.45 1.76,3.45 1.86,3.6 0.16,0.24 1.78,3.37 2.48,3.21 2.44,-0.59 4.89,-1.16 7.32,-1.75 C 55.57,89.26 55.35,88.95 55,88.71 53.96,87.76 52.91,86.84 51.83,85.95 50.76,85.04 49.67,84.16 48.57,83.31 48.28,83 47.93,82.83 47.53,82.82 L 46.1,83.1 c 0.07,0.39 0.26,0.71 0.62,0.96 0.98,0.99 1.97,1.94 3,2.88 1.02,0.95 2.05,1.87 3.11,2.77 0.27,0.32 0.61,0.5 1.01,0.54 v 0 z"
             id="path76"
             style="opacity:0.11;isolation:isolate;fill:#feb086;stroke-width:0px" />
          <path
             class="cls-10"
             d="m 52.53,98.93 1.85,-0.6 c -4.15,-0.61 -8.31,-1.2 -12.47,-1.81 -1.55,0.84 -3.1,1.68 -4.65,2.52 3.17,0.48 6.33,0.97 9.49,1.45 l 4.07,-2.87 c -0.28,-0.26 -0.64,-0.37 -1.06,-0.35 -1.34,-0.14 -2.68,-0.23 -4.02,-0.29 -1.1,-0.06 -4.02,-0.65 -5.11,0.1 -1.27,0.88 -2.55,1.75 -3.82,2.63 -0.86,0.59 2.18,0.4 1.86,0.41 1.6,-0.05 3.8,0.13 5.33,-0.5 2.99,-1.22 5.97,-2.43 8.96,-3.65 -2.85,0.28 -5.7,0.58 -8.55,0.86 -3.43,3.5 -6.86,7.01 -10.29,10.5 -0.7,0.71 2.07,0.08 1.81,0.13 1.51,-0.28 3.56,-0.47 4.91,-1.28 4.55,-2.74 9.1,-5.48 13.65,-8.22 -2.49,0.64 -4.98,1.29 -7.48,1.93 -3.2,3.33 -6.38,6.67 -9.58,10.01 -0.57,0.6 -0.4,0.85 0.34,0.47 3.73,-1.93 7.47,-3.86 11.2,-5.78 l -0.75,-0.05 -5.53,7.2 c -0.92,1.2 -1.89,2.45 -2.61,3.79 -0.03,0.06 -0.82,1.55 -0.18,1.13 3.44,-2.22 6.88,-4.45 10.31,-6.66 l 3.9,-5.08 c -2.33,2.08 -4.66,4.15 -6.99,6.23 -0.3,0.44 -0.52,0.91 -0.65,1.43 -0.33,0.95 -0.64,1.9 -0.93,2.85 0.02,-0.08 -0.75,2.11 0,1.64 3.3,-2 6.6,-4 9.9,-6 1.04,-2.03 2.08,-4.06 3.12,-6.09 -2.13,1.66 -4.25,3.31 -6.38,4.97 -0.67,0.53 -1.35,6.4 -0.72,6.48 l 1.33,0.18 c 0.68,0.09 1.73,-2.42 1.9,-2.73 -0.03,0.05 1.71,-2.97 1.24,-3.08 l -3.74,-0.86 -0.53,6.33 4.18,-5.65 c 1,-1.35 1.81,-2.92 2.58,-4.41 0.07,-0.14 0.85,-1.62 0.15,-1.24 -3.81,2.05 -7.63,4.1 -11.44,6.16 -0.53,1.97 -1.05,3.96 -1.57,5.93 3,-3.93 5.99,-7.85 8.99,-11.78 -0.13,0.16 0.72,-1.14 0.04,-0.74 -3.84,2.28 -7.68,4.55 -11.52,6.83 l -2.78,4.92 c 4.69,-5.18 9.39,-10.35 14.08,-15.53 0.59,-0.64 -1.05,0.1 -0.75,-0.05 -4.01,2.02 -8,4.05 -12.01,6.07 l -1.7,2.08 c 4.86,-3.64 9.7,-7.27 14.56,-10.92 0.92,-0.68 -2.57,0.22 -2.03,0.08 -1.78,0.49 -3.83,0.92 -5.44,1.86 -4.3,2.48 -8.59,4.96 -12.89,7.45 2.24,-0.38 4.48,-0.77 6.71,-1.15 4.05,-3.4 8.09,-6.81 12.13,-10.21 0.84,-0.7 -2.47,-0.23 -2.18,-0.26 -1.94,0.19 -4.32,0.2 -6.17,0.93 l -7.8,3.08 7.17,-0.09 6.55,-1.84 c -3.3,-0.23 -6.6,-0.47 -9.9,-0.7 l -3.39,1.97 c 0.23,0.28 0.56,0.43 0.95,0.44 0.88,0.19 1.76,0.34 2.64,0.47 1.1,0.19 2.21,0.35 3.31,0.5 0.77,0.15 1.54,0.21 2.32,0.18 2.64,-0.76 5.27,-1.52 7.91,-2.3 0.46,-0.06 0.48,-0.17 0.05,-0.34 -1.01,-0.28 -2.03,-0.48 -3.07,-0.59 -1.98,-0.28 -3.97,-0.55 -5.96,-0.78 -1.04,-0.17 -2.07,-0.24 -3.12,-0.23 l -1.66,0.34 c -0.46,0.05 -0.48,0.16 -0.05,0.34 0.99,0.3 1.99,0.52 3.02,0.64 1.95,0.32 3.91,0.63 5.87,0.91 1.02,0.2 2.04,0.29 3.08,0.29 h 0.03 z"
             id="path77"
             style="opacity:0.11;isolation:isolate;fill:#feb086;stroke-width:0px" />
          <path
             class="cls-10"
             d="m 51.52,93.51 1.88,-0.6 C 49.46,90.98 45.51,89.06 41.58,87.14 l -4.51,1.42 c 2.95,2.12 5.9,4.23 8.85,6.35 1.32,-1.07 2.65,-2.15 3.97,-3.22 0.26,-0.21 -4.89,-3.18 -4.76,-3.11 -1.3,-0.74 -2.61,-1.46 -3.95,-2.13 -0.36,-0.26 -0.75,-0.38 -1.18,-0.33 -1.4,0.39 -2.79,0.79 -4.2,1.18 2.55,2 5.1,4 7.65,6 2.93,-1.4 5.85,-2.79 8.78,-4.19 l -8.9,-5.69 c -3.14,2.65 -6.27,5.31 -9.41,7.95 -0.43,0.36 3,3.92 2.99,3.92 0.09,0.1 2.98,3.78 3.55,3.43 4.44,-2.78 8.87,-5.56 13.32,-8.35 l -8.18,-6.1 -10.04,6.65 c -0.44,0.29 2.75,4.01 2.73,3.98 0.1,0.12 2.7,3.83 3.3,3.52 3.93,-2.07 7.85,-4.14 11.78,-6.21 -2.5,-2.2 -5.01,-4.4 -7.51,-6.6 -2.78,2.78 -5.56,5.56 -8.34,8.35 -0.51,0.51 2,4.18 2.11,4.37 0,0 2.27,4.29 2.75,4 3.75,-2.29 7.5,-4.56 11.27,-6.85 -2.21,-2.45 -4.42,-4.91 -6.63,-7.36 -1.67,1.59 -3.33,3.2 -5,4.79 -0.55,0.53 1.59,4.28 1.71,4.52 0,-0.02 1.91,4.47 2.37,4.21 3.76,-2.07 7.52,-4.15 11.3,-6.22 -1.97,-2.63 -3.94,-5.26 -5.91,-7.89 -1.33,1.24 -2.67,2.49 -4,3.73 -0.6,0.56 1.17,4.33 1.29,4.66 0.16,0.42 1.11,4.28 1.98,4.41 l 3.4,0.5 c 0.08,-0.38 0,-0.75 -0.23,-1.09 -0.57,-1.24 -1.16,-2.46 -1.79,-3.67 -0.61,-1.22 -1.25,-2.41 -1.93,-3.6 -0.15,-0.39 -0.39,-0.67 -0.75,-0.83 l -1.97,-0.37 3.27,9.07 6.63,-4.92 c 0.37,-0.27 -5.18,-8.3 -5.91,-7.89 -3.16,1.8 -6.31,3.59 -9.47,5.38 1.36,2.91 2.73,5.81 4.08,8.73 2.51,-2.05 5.03,-4.1 7.54,-6.17 0.42,-0.34 -3.06,-3.94 -3.04,-3.92 -0.09,-0.1 -3.01,-3.78 -3.59,-3.43 -3.17,1.94 -6.32,3.89 -9.49,5.83 1.61,2.78 3.23,5.58 4.85,8.36 3.66,-3.37 7.34,-6.74 11,-10.11 0.38,-0.35 -3.56,-3.61 -3.52,-3.58 -0.23,-0.21 -3.29,-3.39 -4,-3.02 l -10.28,5.32 c 2,2.5 4.02,4.99 6.02,7.49 4.07,-2.69 8.13,-5.36 12.2,-8.05 0.31,-0.21 -3.98,-3.43 -3.87,-3.34 -0.25,-0.2 -3.62,-3.18 -4.31,-2.76 -3.89,2.36 -7.78,4.73 -11.67,7.1 2.18,2.45 4.36,4.9 6.54,7.35 3.93,-3.21 7.85,-6.41 11.78,-9.62 0.3,-0.24 -4.37,-3.22 -4.25,-3.16 -1.17,-0.76 -2.35,-1.49 -3.56,-2.18 -0.33,-0.27 -0.69,-0.39 -1.09,-0.35 -2.51,1.29 -5.02,2.59 -7.53,3.88 -0.3,0.16 3.71,3.37 3.6,3.29 1.01,0.8 2.02,1.57 3.07,2.31 0.28,0.28 0.61,0.42 0.98,0.4 L 49.9,91.67 C 46.61,89.81 43.31,87.96 40.02,86.1 l -2.94,2.44 c -0.32,0.27 4.31,3.55 4.21,3.48 1.16,0.85 2.35,1.66 3.55,2.44 0.32,0.29 0.68,0.44 1.09,0.43 2.5,-0.66 4.99,-1.33 7.49,-1.99 -0.26,-0.41 -0.64,-0.69 -1.11,-0.87 -1.53,-0.81 -3.08,-1.6 -4.64,-2.35 -1.55,-0.77 -3.13,-1.5 -4.71,-2.21 -0.43,-0.27 -0.89,-0.39 -1.37,-0.34 l -1.55,0.25 c 0.24,0.41 0.6,0.71 1.07,0.9 1.49,0.86 2.99,1.69 4.5,2.48 1.51,0.81 3.04,1.59 4.58,2.35 0.41,0.28 0.86,0.42 1.34,0.38 v -0.03 z"
             id="path78"
             style="opacity:0.11;isolation:isolate;fill:#feb086;stroke-width:0px" />
          <path
             class="cls-10"
             d="m 53.45,96.4 1.89,-0.62 c -4.49,-1.52 -8.98,-3.06 -13.47,-4.58 -1.47,0.64 -2.92,1.29 -4.39,1.93 l 9.93,4.7 C 48.78,96.8 50.14,95.78 51.5,94.74 51.26,94.39 50.9,94.16 50.45,94.06 49.03,93.48 47.61,92.95 46.17,92.45 44.73,91.92 43.3,91.43 41.84,90.98 41.43,90.77 41.02,90.73 40.6,90.84 l -4.14,1.91 c 2.78,1.2 5.57,2.41 8.35,3.62 2.97,-1.32 5.93,-2.65 8.9,-3.97 -3.25,-1.1 -6.5,-2.2 -9.75,-3.3 -3.34,2.89 -6.67,5.78 -10.02,8.68 -0.31,0.26 3.75,2.55 3.65,2.49 0.4,0.22 3.29,2.3 4.02,1.85 4.5,-2.77 8.99,-5.54 13.49,-8.31 l -9.06,-3.3 c -3.61,2.68 -7.21,5.35 -10.82,8.02 -0.28,0.21 3.64,2.16 3.52,2.11 0.57,0.27 3.02,1.87 3.83,1.45 3.97,-2.04 7.92,-4.07 11.89,-6.12 l -8.74,-2.86 c -3.22,3.08 -6.44,6.17 -9.66,9.24 -0.32,0.3 3.41,2.28 3.33,2.24 0.43,0.23 2.96,2.02 3.68,1.59 3.79,-2.27 7.59,-4.54 11.38,-6.81 -2.79,-1.05 -5.6,-2.09 -8.39,-3.15 -2.02,1.81 -4.06,3.62 -6.08,5.41 -0.33,0.29 3.24,2.33 3.17,2.29 0.43,0.25 2.8,2.05 3.54,1.65 3.78,-2.07 7.56,-4.14 11.34,-6.21 -2.72,-1.16 -5.42,-2.33 -8.14,-3.49 -1.64,1.35 -3.29,2.69 -4.93,4.04 -0.29,0.24 5.55,4.25 6.03,4.37 l 3.26,0.78 c 0.36,0.09 0.25,-0.03 0.21,-0.27 l -0.53,-0.54 c -0.68,-0.56 -1.38,-1.09 -2.09,-1.61 -1.08,-0.81 -2.18,-1.6 -3.31,-2.36 -0.35,-0.23 -1.1,-0.89 -1.61,-0.78 l -1.95,0.41 6.29,4.34 6.77,-4.89 c 0.24,-0.18 -4.05,-2.13 -3.92,-2.08 -0.58,-0.24 -3.39,-1.89 -4.21,-1.41 -3.3,1.93 -6.6,3.84 -9.9,5.77 l 6.69,3.93 7.78,-6.21 C 54.7,99.17 50.28,97.4 50.4,97.44 49.78,97.21 46.91,95.7 46.07,96.21 c -3.33,2.04 -6.66,4.08 -10,6.13 2.34,1.28 4.67,2.55 7.01,3.83 3.79,-3.4 7.59,-6.81 11.38,-10.21 0.22,-0.2 -4.38,-1.82 -4.25,-1.78 -0.79,-0.26 -3.51,-1.58 -4.49,-1.07 -3.5,1.81 -7.01,3.62 -10.5,5.41 2.45,1.18 4.9,2.36 7.35,3.56 4.17,-2.76 8.35,-5.51 12.52,-8.28 -0.18,-0.32 -0.46,-0.53 -0.85,-0.62 -1.17,-0.49 -2.35,-0.95 -3.56,-1.38 -0.65,-0.23 -3.77,-1.84 -4.65,-1.31 -4.04,2.42 -8.06,4.85 -12.1,7.27 l 7.66,4.34 c 4.04,-3.23 8.06,-6.48 12.1,-9.71 0.18,-0.14 -4.88,-2.04 -4.76,-2 -1.28,-0.45 -2.57,-0.86 -3.88,-1.23 -0.38,-0.19 -0.75,-0.21 -1.11,-0.07 l -7.51,3.65 c 0.15,0.32 0.4,0.54 0.76,0.64 1.07,0.54 2.17,1.04 3.27,1.5 0.98,0.42 3.13,1.76 4.32,1.48 l 6.68,-1.62 c -3.64,-1.3 -7.26,-2.6 -10.9,-3.9 l -3.13,2.29 c -0.21,0.15 4.93,2.75 4.81,2.68 1.3,0.63 2.62,1.22 3.96,1.79 0.37,0.23 0.76,0.31 1.16,0.22 2.64,-0.68 5.28,-1.36 7.92,-2.04 -0.34,-0.39 -0.78,-0.64 -1.32,-0.75 -1.75,-0.66 -3.52,-1.29 -5.3,-1.89 -1.77,-0.62 -3.56,-1.19 -5.35,-1.74 -0.49,-0.23 -1,-0.3 -1.5,-0.21 l -1.62,0.26 c 0.33,0.4 0.76,0.65 1.28,0.79 1.72,0.7 3.45,1.38 5.19,2.02 1.74,0.65 3.49,1.29 5.25,1.88 0.48,0.24 0.98,0.32 1.49,0.24 l 0.02,0.02 z"
             id="path79"
             style="opacity:0.11;isolation:isolate;fill:#feb086;stroke-width:0px" />
          <path
             class="cls-10"
             d="M 53.93,88.24 55.95,87.86 50,81.9 c -1.18,0.72 -2.35,1.44 -3.54,2.16 l 2.33,5.57 c 1.4,-0.97 2.79,-1.93 4.18,-2.9 0.38,-0.26 -3.18,-5.72 -3.9,-5.37 l -3.43,1.63 c 0.3,1.68 0.62,3.36 0.92,5.04 2.94,-1.29 5.88,-2.58 8.82,-3.87 l -2.91,-5.07 c -3.06,3.34 -6.13,6.68 -9.19,10.03 -0.48,0.53 -0.08,2.31 -0.03,2.95 0,0.16 0.17,2.08 0.46,1.9 4.4,-2.78 8.78,-5.55 13.18,-8.33 -0.8,-1.61 -1.59,-3.22 -2.39,-4.84 -3.13,2.74 -6.25,5.47 -9.38,8.2 -0.54,0.47 -0.37,2.22 -0.41,2.85 0,0.15 -0.09,2.05 0.21,1.9 3.87,-2.05 7.74,-4.1 11.61,-6.15 -0.58,-1.63 -1.15,-3.25 -1.73,-4.89 -2.86,3.5 -5.74,7 -8.6,10.49 -0.63,0.76 -0.66,2.45 -0.78,3.37 0,0.09 -0.33,1.64 0.3,1.25 3.64,-2.24 7.26,-4.48 10.9,-6.71 -0.45,-1.62 -0.9,-3.23 -1.35,-4.86 -1.73,2.12 -3.46,4.24 -5.18,6.36 -0.65,0.8 -0.8,2.36 -0.98,3.33 -0.02,0.08 -0.42,1.63 0.23,1.27 L 60.22,91.2 59.15,86.35 c -1.44,1.68 -2.88,3.36 -4.32,5.04 -0.24,0.29 -1.83,4.49 -1.16,4.67 1.12,0.31 2.26,0.63 3.38,0.94 0.45,0.13 0.1,-2.76 0.1,-2.7 -0.04,-0.34 0,-2.46 -0.64,-2.62 l -1.49,-0.37 c -0.39,1.55 -0.78,3.12 -1.16,4.67 2.12,-1.6 4.23,-3.2 6.35,-4.8 0.53,-0.39 -0.09,-2.09 -0.18,-2.5 0,0.05 -0.51,-2.61 -0.89,-2.35 -3.02,2.08 -6.04,4.16 -9.06,6.24 l -0.75,4.61 c 2.42,-2.04 4.85,-4.07 7.28,-6.12 0.51,-0.42 -0.21,-2.13 -0.31,-2.52 0,0.05 -0.65,-2.61 -1.03,-2.33 l -9.08,6.95 -0.48,4.62 c 3.61,-3.41 7.2,-6.82 10.81,-10.23 0.69,-0.65 -1.52,-5.01 -1.73,-4.89 -3.22,2.09 -6.45,4.19 -9.67,6.28 0,1.54 0,3.09 -0.02,4.64 3.93,-2.67 7.86,-5.34 11.79,-8 0.7,-0.48 -2.11,-5.04 -2.39,-4.84 -3.68,2.73 -7.37,5.44 -11.05,8.17 0.09,1.66 0.18,3.32 0.26,4.98 3.89,-3.26 7.78,-6.53 11.67,-9.8 0.58,-0.49 -2.46,-5.33 -2.91,-5.07 -2.28,1.3 -4.55,2.6 -6.84,3.89 -0.68,0.39 0.43,5.14 0.92,5.04 l 6.41,-1.31 -3.9,-5.37 c -0.87,0.9 -1.74,1.81 -2.61,2.71 -0.48,0.5 0.67,2.57 0.82,2.92 0.08,0.18 0.92,2.78 1.5,2.64 2.38,-0.59 4.78,-1.18 7.16,-1.77 0.3,-0.08 -2.8,-3.33 -2.72,-3.23 -0.59,-0.59 -2.18,-2.71 -3.23,-2.72 l -1.7,-0.02 c -0.02,0.33 0.11,0.62 0.37,0.86 0.69,0.88 1.42,1.73 2.17,2.56 0.33,0.38 2.24,3.09 3.09,2.93 v 0.06 z"
             id="path80"
             style="opacity:0.11;isolation:isolate;fill:#feb086;stroke-width:0px" />
        </g>
      </g>
      <g
         id="g92">
        <path
           class="cls-10"
           d="m 76.98,124.43 h 5.25 c 1.36,0 0.11,-1.76 -0.12,-2.02 -0.74,-0.87 -2.18,-2.62 -3.47,-2.62 l -5.01,-0.02 c -1.33,0 -0.21,1.7 0.03,2 0.68,0.85 2.08,2.67 3.32,2.67 v 0 z"
           id="path81"
           style="opacity:0.11;isolation:isolate;fill:#feb086;stroke-width:0px" />
        <path
           class="cls-10"
           d="m 78.08,121.05 c 1.72,-0.08 3.45,-0.17 5.17,-0.24 0.61,-0.03 1.12,-0.46 1.09,-1.1 -0.02,-0.5 -1.27,-1.8 -1.79,-1.77 -1.72,0.09 -3.43,0.19 -5.15,0.27 -0.61,0.03 -1.12,0.46 -1.09,1.1 0.02,0.5 1.25,1.77 1.76,1.75 v 0 z"
           id="path82"
           style="opacity:0.11;isolation:isolate;fill:#feb086;stroke-width:0px" />
        <path
           class="cls-10"
           d="m 79.34,123.83 5.25,-0.02 c 1.44,0 0,-1.88 -0.21,-2.11 -0.79,-0.91 -2.39,-2.85 -3.74,-2.86 l -5.02,-0.03 c -1.41,0 -0.09,1.83 0.14,2.09 0.72,0.88 2.29,2.92 3.6,2.92 v 0 z"
           id="path83"
           style="opacity:0.11;isolation:isolate;fill:#feb086;stroke-width:0px" />
        <path
           class="cls-10"
           d="m 82.27,127.29 c 1.8,0 3.59,0.02 5.38,0.03 2.04,0 -1.25,-3.11 -1.26,-3.13 -1.38,-1.42 -2.8,-2.78 -4.28,-4.08 -0.72,-0.8 -1.57,-1.4 -2.55,-1.78 l -5.15,-0.18 c -2.04,-0.07 1.18,3.15 1.18,3.15 1.34,1.44 2.74,2.82 4.17,4.17 0.69,0.81 1.53,1.43 2.5,1.83 v 0 z"
           id="path84"
           style="opacity:0.11;isolation:isolate;fill:#feb086;stroke-width:0px" />
        <path
           class="cls-10"
           d="m 82.29,124.04 c 1.78,0 3.56,0.02 5.34,0.03 1.67,0 -0.44,-2.29 -0.56,-2.42 -0.92,-0.95 -1.89,-1.86 -2.9,-2.71 -0.5,-0.57 -1.11,-0.92 -1.83,-1.06 -1.69,-0.04 -3.39,-0.08 -5.08,-0.12 -1.69,-0.04 0.33,2.26 0.47,2.41 0.88,0.97 1.81,1.89 2.78,2.76 0.48,0.58 1.07,0.94 1.78,1.09 v 0 z"
           id="path85"
           style="opacity:0.11;isolation:isolate;fill:#feb086;stroke-width:0px" />
        <path
           class="cls-10"
           d="m 74.66,119.77 5.07,-0.35 c 0.59,-0.04 1.74,-1.69 0.57,-1.63 -1.72,0.09 -3.43,0.19 -5.15,0.27 -0.69,0.04 -1.71,1.79 -0.49,1.71 z"
           id="path86"
           style="opacity:0.11;isolation:isolate;fill:#feb086;stroke-width:0px" />
        <path
           class="cls-10"
           d="m 74.92,123.61 c 1.8,0 3.6,-0.02 5.39,-0.03 1.04,0 0.54,-1.33 0.26,-1.71 -0.55,-0.74 -1.46,-1.82 -2.45,-1.8 l -5.34,0.1 c -1.01,0.02 -0.56,1.31 -0.28,1.69 0.55,0.75 1.42,1.76 2.4,1.76 v 0 z"
           id="path87"
           style="opacity:0.11;isolation:isolate;fill:#feb086;stroke-width:0px" />
        <path
           class="cls-10"
           d="m 77.47,127.67 c 1.79,0 3.57,0.02 5.35,0.04 1.9,0 -0.85,-2.76 -0.93,-2.82 -1.16,-1.22 -2.37,-2.39 -3.64,-3.53 -0.62,-0.7 -1.36,-1.2 -2.22,-1.49 -1.71,-0.05 -3.41,-0.1 -5.12,-0.15 -1.89,-0.06 0.77,2.76 0.84,2.83 1.12,1.24 2.31,2.44 3.53,3.59 0.6,0.71 1.32,1.22 2.17,1.53 v 0 z"
           id="path88"
           style="opacity:0.11;isolation:isolate;fill:#feb086;stroke-width:0px" />
        <path
           class="cls-10"
           d="m 81.28,120.34 c 1.8,0 3.6,-0.02 5.38,-0.04 0.62,0 1.25,-0.38 1.08,-1.11 -0.13,-0.58 -1.56,-2.16 -2.2,-2.15 l -5.35,0.08 c -0.62,0 -1.24,0.38 -1.08,1.11 0.13,0.58 1.52,2.11 2.15,2.11 v 0 z"
           id="path89"
           style="opacity:0.11;isolation:isolate;fill:#feb086;stroke-width:0px" />
        <path
           class="cls-10"
           d="m 75.23,126.16 h 5.26 c 1.53,0 -0.16,-2.03 -0.33,-2.25 -0.78,-0.85 -1.61,-1.64 -2.49,-2.39 -0.44,-0.51 -0.98,-0.81 -1.62,-0.9 -1.67,-0.02 -3.34,-0.05 -5.02,-0.07 -1.51,-0.02 0.05,1.99 0.25,2.24 0.74,0.86 1.54,1.67 2.39,2.43 0.42,0.52 0.95,0.83 1.58,0.93 h -0.02 z"
           id="path90"
           style="opacity:0.11;isolation:isolate;fill:#feb086;stroke-width:0px" />
        <path
           class="cls-10"
           d="m 79.46,118.65 5.15,-0.26 c 1.25,-0.07 1.4,-2.18 0.06,-2.12 -1.73,0.08 -3.46,0.16 -5.19,0.22 -1.3,0.06 -1.35,2.23 -0.02,2.16 z"
           id="path91"
           style="opacity:0.11;isolation:isolate;fill:#feb086;stroke-width:0px" />
        <path
           class="cls-10"
           d="m 73.3,121.65 c 1.68,-0.13 3.36,-0.25 5.04,-0.38 1.41,-0.11 1.28,-2.34 -0.04,-2.25 -1.7,0.12 -3.39,0.22 -5.09,0.34 -1.47,0.1 -1.23,2.39 0.08,2.29 v 0 z"
           id="path92"
           style="opacity:0.11;isolation:isolate;fill:#feb086;stroke-width:0px" />
      </g>
      <path
         class="cls-3"
         d="m 86.67,15.35 c 0,0 -21.5,53.71 -63.73,47.95 -0.28,2.74 3.41,-49.59 58.53,-52.9 50.33,-3.03 60.18,52.08 58.53,56.76 0,0 -32.57,-2.26 -53.33,-51.81 z"
         id="path93"
         style="fill:#023b49;stroke-width:0px" />
      <path
         class="cls-4"
         d="m 18.09,72.54 c 0,0 70.25,-17.29 74.74,-61.95 0,0 -22.15,-11.4 -53.2,11.66 -24.31,18.07 -21.54,50.3 -21.54,50.3 z"
         id="path94"
         style="fill:#678c84;stroke-width:0px" />
      <path
         class="cls-3"
         d="M 84.56,10.5 C 63.33,12.58 45.26,25.34 31.37,40.89 41.92,22.61 62.86,8.31 84.56,10.5 Z"
         id="path95"
         style="fill:#023b49;stroke-width:0px" />
      <path
         class="cls-3"
         d="M 84.97,16.1 C 70.95,19.31 59.75,28.35 49.76,38.31 56.39,25.71 70.23,15.08 84.97,16.1 Z"
         id="path96"
         style="fill:#023b49;stroke-width:0px" />
      <path
         class="cls-5"
         d="m 132.08,56.55 c -4.9,-13.52 -15.25,-23.53 -26.34,-32.23 13.31,5.03 25.55,17.47 26.34,32.23 z"
         id="path97"
         style="fill:#8eb49d;stroke-width:0px" />
      <path
         class="cls-3"
         d="m 61.25,11.53 c -17.99,6.49 -30.85,19.2 -37.67,37 -2.21,5.67 -3.89,11.58 -4.91,17.7 -0.21,-6.22 0.89,-12.47 2.75,-18.46 5.52,-18.35 20.66,-33.2 39.83,-36.24 z"
         id="path98"
         style="fill:#023b49;stroke-width:0px" />
      <g
         class="cls-15"
         id="g111"
         style="opacity:0.72">
        <g
           id="g110">
          <path
             class="cls-10"
             d="m 121.98,89.31 1.8,-0.63 c -2.75,-2.08 -5.48,-4.16 -8.23,-6.25 l -4.03,1.45 c 1.65,2.22 3.31,4.43 4.96,6.64 l 4.12,-3.12 c 0.4,-0.3 -2.96,-3.37 -2.92,-3.34 -0.34,-0.33 -2.61,-3.05 -3.44,-2.8 l -3.67,1.07 c 1.2,2.18 2.41,4.35 3.62,6.53 2.96,-1.37 5.91,-2.74 8.87,-4.1 -1.77,-2.09 -3.53,-4.18 -5.3,-6.27 -2.94,2.93 -5.87,5.86 -8.81,8.79 -0.55,0.55 0.75,3.31 0.89,3.69 -0.02,-0.05 1.18,3.71 1.58,3.46 4.4,-2.77 8.79,-5.53 13.18,-8.3 -1.55,-2.13 -3.12,-4.25 -4.67,-6.38 -3.01,2.36 -6.03,4.72 -9.04,7.07 -0.6,0.47 0.43,3.36 0.52,3.74 -0.02,-0.06 0.82,3.79 1.24,3.57 3.88,-2.05 7.77,-4.09 11.65,-6.15 l -3.86,-6.75 -7.86,9.43 c -0.63,0.75 -0.04,3.05 0.05,3.81 0,-0.12 0.44,3.94 0.78,3.73 3.69,-2.26 7.39,-4.51 11.09,-6.78 l -3.21,-7 -4.64,5.56 c -0.65,0.78 -0.21,2.98 -0.17,3.82 0,-0.12 0.23,3.97 0.57,3.78 3.71,-2.03 7.42,-4.07 11.13,-6.11 l -2.76,-7.14 c -1.27,1.47 -2.54,2.92 -3.82,4.39 -0.68,0.79 -0.36,2.94 -0.36,3.82 0,0.18 -0.25,3.7 0.37,3.82 1.15,0.21 2.32,0.43 3.47,0.64 0.39,0.07 -0.58,-4.07 -0.55,-3.96 -0.12,-0.49 -0.47,-3.53 -1.27,-3.79 l -1.67,-0.54 c 0,2.55 0,5.09 0,7.64 2.19,-1.62 4.38,-3.25 6.57,-4.88 0.55,-0.41 -0.95,-3.48 -1.04,-3.7 0.02,0.05 -1.31,-3.7 -1.72,-3.44 -2.92,1.89 -5.84,3.77 -8.78,5.66 l 0.4,7.6 c 2.48,-2.05 4.97,-4.1 7.46,-6.17 0.52,-0.43 -1.17,-3.44 -1.28,-3.65 0.02,0.04 -1.54,-3.63 -1.94,-3.34 l -8.7,6.23 0.82,7.53 c 3.64,-3.4 7.26,-6.81 10.9,-10.21 0.64,-0.61 -3.5,-6.97 -3.86,-6.75 l -9.55,5.59 c 0.59,2.43 1.17,4.88 1.76,7.31 3.99,-2.67 7.97,-5.34 11.96,-8.01 0.43,-0.29 -4.09,-6.78 -4.67,-6.38 -3.66,2.51 -7.32,5.01 -10.98,7.52 l 2.47,7.15 11.64,-9.67 c 0.43,-0.36 -2.35,-3.34 -2.36,-3.37 -0.12,-0.15 -2.35,-3.21 -2.93,-2.9 -2.39,1.28 -4.8,2.57 -7.19,3.85 -0.49,0.26 1.47,3.4 1.49,3.44 0.13,0.22 1.47,3.23 2.13,3.09 l 6.42,-1.46 c -2.12,-2.05 -4.24,-4.09 -6.36,-6.15 -0.91,0.87 -1.82,1.75 -2.73,2.62 -0.45,0.43 2.11,3.45 2.19,3.55 0.21,0.28 2.03,3.29 2.78,3.11 l 7.28,-1.85 c -0.1,-0.38 -0.32,-0.67 -0.68,-0.89 -1.05,-0.87 -2.11,-1.72 -3.21,-2.53 -1.07,-0.83 -2.18,-1.63 -3.29,-2.4 -0.3,-0.29 -0.64,-0.43 -1.04,-0.42 l -1.47,0.26 c 0.08,0.38 0.29,0.68 0.64,0.92 1,0.92 2.02,1.81 3.07,2.68 1.04,0.88 2.09,1.73 3.17,2.56 0.28,0.3 0.63,0.46 1.02,0.47 v -0.03 z"
             id="path99"
             style="opacity:0.11;isolation:isolate;fill:#feb086;stroke-width:0px" />
          <path
             class="cls-10"
             d="m 123.13,93.44 1.84,-0.64 c -4.12,-2.17 -8.25,-4.33 -12.37,-6.5 -1.36,0.52 -2.71,1.04 -4.07,1.55 2.91,2.28 5.83,4.56 8.75,6.84 l 4.16,-3.19 c 0.27,-0.21 -4.87,-3.5 -4.74,-3.42 -1.3,-0.83 -2.61,-1.62 -3.95,-2.39 -0.36,-0.29 -0.75,-0.43 -1.19,-0.4 -1.27,0.41 -2.54,0.83 -3.8,1.24 2.35,2.15 4.72,4.3 7.07,6.45 3,-1.39 6,-2.78 9,-4.17 -2.8,-2.14 -5.61,-4.28 -8.4,-6.42 -2.85,2.7 -5.71,5.38 -8.55,8.08 -0.62,0.59 4.8,8.12 5.21,7.87 4.49,-2.78 8.96,-5.58 13.45,-8.36 -2.35,-2.37 -4.7,-4.74 -7.05,-7.11 -2.99,2.3 -5.97,4.58 -8.96,6.88 -0.54,0.41 1.54,4.09 1.62,4.25 0,0 1.8,4.19 2.29,3.93 3.98,-2.07 7.94,-4.13 11.92,-6.21 -1.87,-2.62 -3.73,-5.24 -5.59,-7.87 -2.36,3.02 -4.73,6.05 -7.08,9.07 -0.63,0.8 0.41,3.81 0.56,4.51 -0.02,-0.12 0.93,4.57 1.27,4.37 3.81,-2.28 7.61,-4.55 11.42,-6.83 -1.23,-2.88 -2.47,-5.78 -3.7,-8.66 -1.32,1.92 -2.64,3.83 -3.96,5.76 -0.7,1.03 -0.28,3.44 -0.25,4.52 0,-0.14 0.19,4.66 0.48,4.5 3.82,-2.04 7.63,-4.07 11.45,-6.12 -0.69,-3.02 -1.4,-6.03 -2.09,-9.05 -1.15,1.71 -2.31,3.42 -3.46,5.14 -0.32,0.48 -1.77,8.54 -1.01,8.76 l 3.64,1.02 c 0.36,0.1 -0.14,-5.04 -0.13,-4.92 -0.02,-0.2 -0.15,-4.73 -0.86,-4.84 l -1.46,-0.22 c -0.4,2.99 -0.8,5.98 -1.21,8.96 2.19,-1.61 4.37,-3.22 6.56,-4.85 0.64,-0.48 -0.61,-4.26 -0.68,-4.6 0.03,0.12 -1.07,-4.65 -1.41,-4.44 -3.2,2.04 -6.39,4.09 -9.59,6.14 l 0.22,9.03 c 2.47,-2.04 4.95,-4.07 7.43,-6.12 0.56,-0.46 -1.42,-4.26 -1.51,-4.48 0.03,0.08 -1.8,-4.46 -2.19,-4.18 -3.19,2.2 -6.36,4.4 -9.55,6.61 0.61,2.96 1.22,5.92 1.83,8.88 3.62,-3.36 7.24,-6.72 10.86,-10.09 0.47,-0.44 -2.43,-4.07 -2.49,-4.14 -0.05,-0.06 -2.56,-4.03 -3.1,-3.71 -3.41,1.96 -6.82,3.93 -10.23,5.89 1.3,2.73 2.61,5.45 3.91,8.18 4.04,-2.65 8.07,-5.3 12.11,-7.94 0.39,-0.25 -3.32,-3.88 -3.26,-3.81 -0.11,-0.11 -3.21,-3.67 -3.78,-3.29 -3.87,2.54 -7.74,5.07 -11.6,7.61 1.74,2.62 3.47,5.25 5.21,7.87 3.92,-3.18 7.84,-6.35 11.76,-9.53 0.34,-0.27 -4.07,-3.58 -3.98,-3.51 -0.29,-0.22 -3.67,-3.32 -4.43,-2.92 -2.56,1.38 -5.12,2.76 -7.67,4.14 -0.35,0.19 3.38,3.59 3.29,3.5 0.44,0.4 2.84,3.17 3.79,2.95 l 6.61,-1.48 c -3.29,-2.07 -6.59,-4.14 -9.88,-6.21 -1.01,0.85 -2.02,1.71 -3.03,2.56 -0.34,0.29 4.23,3.78 4.14,3.71 1.14,0.91 2.32,1.79 3.51,2.64 0.31,0.31 0.67,0.48 1.09,0.49 l 7.69,-1.9 c -0.27,-0.43 -0.66,-0.74 -1.16,-0.94 -1.6,-0.91 -3.21,-1.79 -4.86,-2.64 -1.62,-0.86 -3.26,-1.7 -4.92,-2.5 -0.44,-0.3 -0.92,-0.44 -1.44,-0.42 l -1.52,0.25 c 0.25,0.44 0.63,0.76 1.12,0.98 1.55,0.96 3.14,1.89 4.73,2.78 1.58,0.92 3.19,1.8 4.81,2.65 0.43,0.31 0.9,0.47 1.41,0.47 h -0.04 z"
             id="path100"
             style="opacity:0.11;isolation:isolate;fill:#feb086;stroke-width:0px" />
          <path
             class="cls-10"
             d="m 123.21,87.35 1.56,-0.78 c 0.4,-0.21 -2.11,-2.52 -2.05,-2.46 -0.23,-0.22 -1.95,-2.24 -2.56,-1.93 -1.32,0.66 -2.64,1.33 -3.97,1.99 l 1.54,4.21 3.94,-2.75 c 0.36,-0.25 -2.44,-4.16 -3.21,-3.86 l -3.67,1.49 0.57,3.69 c 2.84,-1.26 5.69,-2.51 8.53,-3.77 -0.89,-1.19 -1.77,-2.38 -2.66,-3.58 -3.24,3.18 -6.49,6.35 -9.73,9.53 -0.42,0.41 0.43,3.84 0.64,3.71 4.4,-2.73 8.79,-5.45 13.2,-8.19 l -2.31,-3.4 c -3.34,2.54 -6.67,5.08 -10.02,7.62 -0.42,0.32 -0.18,1.81 -0.16,2.26 0,0.14 0.03,1.64 0.38,1.46 l 11.62,-5.97 -1.93,-3.46 c -3.04,3.27 -6.07,6.56 -9.11,9.83 -0.44,0.48 -0.54,4.07 0.11,3.68 3.64,-2.19 7.29,-4.37 10.93,-6.56 l -1.72,-3.47 -5.45,5.69 c -0.45,0.47 -0.79,4.07 -0.14,3.72 3.62,-1.94 7.23,-3.9 10.85,-5.84 l -1.57,-3.49 c -1.48,1.46 -2.95,2.91 -4.43,4.37 -0.28,0.28 -1.16,3.65 -0.51,3.82 1.11,0.29 2.24,0.58 3.35,0.87 0.45,0.12 -0.03,-2.24 -0.02,-2.19 -0.08,-0.43 -0.15,-1.9 -0.75,-2.06 l -1.89,-0.52 -0.51,3.82 c 2.11,-1.54 4.22,-3.09 6.33,-4.62 0.6,-0.44 -1.18,-3.73 -1.57,-3.49 -3.05,1.87 -6.09,3.74 -9.14,5.61 -0.05,1.24 -0.09,2.48 -0.14,3.72 2.44,-1.98 4.88,-3.97 7.32,-5.95 0.58,-0.47 -1.35,-3.72 -1.72,-3.47 -3.11,2.11 -6.21,4.22 -9.31,6.33 l 0.11,3.68 c 3.64,-3.35 7.29,-6.7 10.93,-10.06 0.52,-0.47 -1.46,-3.73 -1.93,-3.46 -3.24,1.88 -6.5,3.74 -9.74,5.62 0.08,1.24 0.15,2.47 0.22,3.71 3.98,-2.61 7.95,-5.23 11.93,-7.84 0.5,-0.32 -1.81,-3.74 -2.31,-3.4 -3.79,2.58 -7.57,5.16 -11.36,7.74 l 0.64,3.71 c 3.87,-3.19 7.74,-6.36 11.61,-9.55 0.46,-0.38 -2.08,-3.9 -2.66,-3.58 -2.14,1.21 -4.29,2.43 -6.43,3.64 -0.61,0.34 0.04,3.8 0.57,3.69 2.1,-0.44 4.21,-0.88 6.31,-1.32 -1.07,-1.29 -2.14,-2.57 -3.21,-3.86 l -2.28,2.39 c -0.49,0.52 0.92,4.37 1.54,4.21 2.35,-0.6 4.69,-1.2 7.04,-1.8 l -4.62,-4.4 -1.26,0.36 c -0.4,0.12 1.95,2.73 1.89,2.65 0.18,0.2 1.85,2.45 2.43,2.16 l -0.06,0.05 z"
             id="path101"
             style="opacity:0.11;isolation:isolate;fill:#feb086;stroke-width:0px" />
          <path
             class="cls-10"
             d="m 121.57,95.05 1.84,-0.62 c -4.3,-1.51 -8.59,-3.03 -12.89,-4.54 l -4.73,1.72 c 3.32,1.63 6.65,3.26 9.98,4.9 1.31,-1.05 2.62,-2.09 3.93,-3.14 -0.24,-0.35 -0.59,-0.59 -1.04,-0.69 -1.41,-0.59 -2.82,-1.14 -4.26,-1.67 -1.43,-0.54 -2.86,-1.05 -4.31,-1.52 -0.41,-0.21 -0.82,-0.26 -1.24,-0.15 -1.48,0.56 -2.95,1.12 -4.43,1.68 2.93,1.34 5.85,2.68 8.78,4.02 2.91,-1.35 5.82,-2.7 8.74,-4.05 -3.33,-1.21 -6.65,-2.42 -9.99,-3.64 -3.44,2.79 -6.87,5.59 -10.31,8.38 -0.3,0.24 4.07,2.86 3.97,2.79 0.37,0.22 3.61,2.62 4.34,2.17 4.46,-2.77 8.91,-5.53 13.38,-8.31 -3.17,-1.22 -6.33,-2.45 -9.5,-3.67 -3.71,2.52 -7.43,5.04 -11.13,7.56 -0.26,0.18 4.06,2.56 3.93,2.49 0.52,0.27 3.43,2.29 4.28,1.85 3.94,-2.04 7.87,-4.09 11.8,-6.14 -3.1,-1.15 -6.19,-2.31 -9.28,-3.46 -3.29,2.93 -6.59,5.85 -9.88,8.78 -0.32,0.28 3.84,2.79 3.74,2.74 0.36,0.22 3.41,2.55 4.13,2.11 3.76,-2.27 7.52,-4.54 11.3,-6.81 -3,-1.28 -5.99,-2.57 -8.99,-3.85 l -6.35,5.07 c -0.32,0.26 3.71,2.86 3.63,2.8 0.37,0.24 3.28,2.6 4.03,2.19 3.75,-2.07 7.49,-4.14 11.25,-6.21 -2.93,-1.4 -5.86,-2.78 -8.79,-4.18 -1.75,1.26 -3.5,2.52 -5.24,3.78 -0.27,0.2 2.35,2.14 2.61,2.34 0.84,0.64 1.7,1.25 2.56,1.85 0.58,0.46 1.2,0.84 1.88,1.14 l 3.06,0.64 c 0.39,0.08 0.27,0 0.21,-0.27 L 122,102.54 c -0.74,-0.62 -1.5,-1.2 -2.28,-1.78 -1.18,-0.9 -2.37,-1.78 -3.59,-2.63 -0.41,-0.28 -1.16,-0.95 -1.74,-0.9 l -2.12,0.2 c 2.44,1.77 4.89,3.55 7.34,5.32 2.23,-1.64 4.47,-3.28 6.69,-4.92 0.24,-0.18 -4.36,-2.48 -4.24,-2.42 -1.15,-0.56 -2.33,-1.08 -3.51,-1.58 -0.34,-0.21 -0.68,-0.27 -1.05,-0.18 l -10.1,5.39 c 2.55,1.66 5.1,3.33 7.65,4.99 2.56,-2.07 5.13,-4.14 7.69,-6.21 0.23,-0.19 -4.48,-2.32 -4.35,-2.27 -1.18,-0.52 -2.37,-1 -3.59,-1.45 -0.35,-0.21 -0.7,-0.24 -1.06,-0.14 -3.39,1.93 -6.78,3.87 -10.18,5.8 2.63,1.62 5.25,3.23 7.88,4.86 3.76,-3.39 7.52,-6.79 11.28,-10.18 0.22,-0.21 -4.64,-2.12 -4.51,-2.07 -1.22,-0.47 -2.45,-0.9 -3.69,-1.29 -0.36,-0.19 -0.71,-0.21 -1.07,-0.09 -3.58,1.75 -7.15,3.51 -10.73,5.26 l 8.21,4.34 c 4.14,-2.75 8.29,-5.48 12.43,-8.23 -0.2,-0.33 -0.49,-0.56 -0.89,-0.65 -1.23,-0.54 -2.47,-1.05 -3.72,-1.52 -1.25,-0.5 -2.51,-0.96 -3.78,-1.38 -0.36,-0.2 -0.73,-0.23 -1.1,-0.12 -4.06,2.34 -8.12,4.68 -12.18,7.02 l 8.31,4.96 c 4,-3.23 7.99,-6.47 11.98,-9.7 0.19,-0.15 -4.99,-2.21 -4.87,-2.17 -1.31,-0.49 -2.64,-0.95 -3.97,-1.37 -0.38,-0.2 -0.76,-0.23 -1.14,-0.11 -2.51,1.22 -5.02,2.44 -7.53,3.66 0.16,0.33 0.42,0.57 0.8,0.68 1.13,0.59 2.28,1.13 3.44,1.66 0.94,0.43 3.34,1.98 4.54,1.67 l 6.48,-1.67 c -3.62,-1.35 -7.22,-2.69 -10.84,-4.04 l -3.06,2.27 c -0.21,0.16 4.95,2.84 4.83,2.78 1.31,0.65 2.64,1.28 3.98,1.87 0.37,0.24 0.76,0.32 1.17,0.25 2.55,-0.69 5.1,-1.39 7.65,-2.08 -0.32,-0.38 -0.74,-0.64 -1.25,-0.75 -1.68,-0.65 -3.37,-1.28 -5.07,-1.87 -1.69,-0.61 -3.4,-1.18 -5.12,-1.72 -0.47,-0.23 -0.96,-0.3 -1.45,-0.21 l -1.58,0.27 c 0.3,0.39 0.71,0.65 1.22,0.78 1.64,0.7 3.29,1.37 4.96,2 1.66,0.65 3.33,1.27 5.02,1.86 0.46,0.24 0.94,0.32 1.43,0.24 l -0.03,0.06 z"
             id="path102"
             style="opacity:0.11;isolation:isolate;fill:#feb086;stroke-width:0px" />
          <path
             class="cls-10"
             d="m 122.07,90.93 1.91,-0.57 c -3.46,-2.28 -6.92,-4.54 -10.38,-6.82 l -4.05,1.36 c 2.34,2.44 4.67,4.89 7,7.33 l 4.13,-3.21 c 0.35,-0.27 -3.98,-3.73 -3.89,-3.65 -1.08,-0.9 -2.19,-1.77 -3.31,-2.61 -0.29,-0.31 -0.64,-0.47 -1.05,-0.48 -1.23,0.33 -2.47,0.66 -3.7,1.01 1.84,2.41 3.66,4.82 5.5,7.23 2.98,-1.4 5.96,-2.79 8.94,-4.19 l -6.94,-7.04 c -2.84,2.79 -5.69,5.59 -8.52,8.38 -0.54,0.53 1.46,4.03 1.58,4.29 -0.02,-0.04 1.82,4.25 2.25,3.98 4.43,-2.78 8.85,-5.55 13.29,-8.33 -1.98,-2.47 -3.97,-4.94 -5.94,-7.42 -2.96,2.31 -5.93,4.61 -8.89,6.91 -0.59,0.46 0.98,4.09 1.07,4.37 -0.02,-0.06 1.33,4.37 1.77,4.13 3.92,-2.06 7.84,-4.12 11.76,-6.19 -1.61,-2.65 -3.21,-5.31 -4.83,-7.95 l -7.47,9.25 c -0.65,0.81 0.22,3.75 0.35,4.5 -0.02,-0.13 0.74,4.58 1.07,4.39 3.73,-2.27 7.47,-4.53 11.2,-6.8 l -3.74,-8.38 c -1.47,1.86 -2.93,3.72 -4.4,5.58 -0.7,0.89 -0.11,3.61 -0.04,4.51 0,-0.13 0.38,4.63 0.69,4.46 3.74,-2.04 7.49,-4.08 11.24,-6.13 -0.99,-2.87 -1.97,-5.75 -2.96,-8.62 -1.2,1.5 -2.41,3 -3.62,4.5 -0.75,0.93 -0.37,3.5 -0.37,4.5 0,0.17 -0.29,4.38 0.36,4.5 1.18,0.23 2.36,0.47 3.56,0.7 0.35,0.07 -0.66,-4.84 -0.64,-4.71 -0.1,-0.45 -0.52,-4.3 -1.36,-4.55 L 122.1,88.7 c 0,3 0,6 0,9.01 2.2,-1.63 4.4,-3.25 6.6,-4.89 0.59,-0.44 -1.06,-4.19 -1.13,-4.43 0.03,0.09 -1.45,-4.44 -1.83,-4.19 -2.98,1.93 -5.96,3.86 -8.94,5.78 0.22,2.99 0.44,5.98 0.66,8.97 2.49,-2.05 4.98,-4.1 7.48,-6.17 0.55,-0.45 -1.45,-4.14 -1.53,-4.35 0.03,0.07 -1.82,-4.32 -2.21,-4.05 -2.96,2.1 -5.92,4.2 -8.88,6.31 0.48,2.96 0.95,5.92 1.43,8.88 3.63,-3.39 7.25,-6.79 10.87,-10.18 0.5,-0.47 -2.01,-4.03 -2.1,-4.17 -0.02,-0.03 -2.22,-4.07 -2.73,-3.78 -3.25,1.88 -6.52,3.76 -9.77,5.64 0.95,2.83 1.9,5.67 2.84,8.5 4,-2.67 7.99,-5.34 11.99,-7.99 0.29,-0.2 -5.22,-7.9 -5.94,-7.42 -3.72,2.49 -7.45,4.98 -11.17,7.48 1.28,2.76 2.55,5.51 3.83,8.27 3.88,-3.21 7.76,-6.4 11.63,-9.61 0.41,-0.33 -3.23,-3.81 -3.21,-3.78 -0.16,-0.17 -3.08,-3.61 -3.73,-3.26 -2.5,1.34 -5,2.67 -7.51,4.01 -0.44,0.23 2.49,3.88 2.45,3.84 0.22,0.3 2.26,3.58 3.04,3.39 2.15,-0.5 4.31,-0.99 6.46,-1.49 -2.76,-2.25 -5.5,-4.5 -8.26,-6.75 -0.96,0.87 -1.92,1.75 -2.87,2.62 -0.41,0.38 3.24,3.93 3.23,3.92 0.33,0.34 2.88,3.64 3.76,3.41 2.47,-0.63 4.94,-1.25 7.42,-1.88 -0.19,-0.42 -0.49,-0.74 -0.93,-0.96 -1.33,-0.95 -2.69,-1.87 -4.06,-2.76 -1.36,-0.91 -2.75,-1.78 -4.14,-2.63 -0.37,-0.31 -0.79,-0.47 -1.25,-0.47 l -1.5,0.24 c 0.17,0.43 0.46,0.75 0.88,0.99 1.28,0.99 2.58,1.95 3.9,2.88 1.31,0.95 2.64,1.87 3.99,2.77 0.35,0.32 0.76,0.5 1.21,0.51 v -0.02 z"
             id="path103"
             style="opacity:0.11;isolation:isolate;fill:#feb086;stroke-width:0px" />
          <path
             class="cls-10"
             d="m 121.9,99.96 1.87,-0.57 c -3.58,-0.05 -7.14,-0.09 -10.72,-0.14 -1.37,0.86 -2.74,1.73 -4.1,2.59 2.37,0 4.75,-0.02 7.11,-0.04 1.39,-0.91 2.78,-1.81 4.17,-2.72 0.96,-0.63 -2.54,-0.16 -2.05,-0.21 -1.27,0.17 -2.54,0.35 -3.8,0.58 -0.67,0.07 -1.32,0.22 -1.94,0.47 l -2.99,2.54 c -1.07,0.91 0.65,0.39 1.06,0.22 3.64,-1.55 7.29,-3.12 10.93,-4.67 -1.53,0.42 -3.07,0.84 -4.61,1.26 -3.18,3.41 -6.35,6.83 -9.52,10.24 -0.93,1 0.77,0.21 1.01,0.05 4.64,-2.95 9.28,-5.91 13.93,-8.86 l -2.35,0.68 c -2.54,2.03 -5.07,4.07 -7.61,6.11 -0.75,0.6 -1.22,1.78 -1.61,2.62 0.08,-0.17 -0.72,1.59 -0.04,1.17 3.52,-2.16 7.04,-4.33 10.55,-6.49 l 1.04,-1.96 c -3.04,3 -6.09,6.01 -9.13,9.01 -0.61,0.6 -0.76,2.05 -0.92,2.83 0,-0.04 -0.35,1.55 0.24,1.11 l 9.31,-6.82 c 0.76,-1.28 1.51,-2.55 2.28,-3.83 -2.38,2.06 -4.77,4.12 -7.15,6.19 -0.54,0.46 -0.42,2.34 -0.44,2.94 0,0.16 -0.14,1.43 0.43,1.06 3.01,-2 6.01,-4.01 9.02,-6.01 0.71,-1.4 1.43,-2.79 2.14,-4.2 l -6.57,5.03 c -0.33,0.25 -0.26,4.18 0.24,4.11 l 1.35,-0.19 c 0.51,-0.07 2.49,-3.12 2.19,-3.2 l -3.62,-0.85 0.24,4.11 c 1.44,-1.7 2.87,-3.4 4.31,-5.11 0.72,-0.85 1.41,-1.97 1.85,-2.99 0.04,-0.09 0.57,-1.26 0,-0.93 -3.72,2.07 -7.44,4.14 -11.16,6.21 v 4 c 1.92,-2.41 3.83,-4.82 5.76,-7.23 0.53,-0.65 1.58,-1.77 1.87,-2.6 0.03,-0.1 0.32,-0.88 -0.13,-0.6 -3.75,2.32 -7.5,4.63 -11.26,6.96 l -0.67,3.95 c 3.92,-4.66 7.85,-9.32 11.77,-13.98 -0.08,0.09 0.52,-0.92 -0.03,-0.63 -3.96,2.11 -7.92,4.21 -11.87,6.32 l -1.65,3.79 c 4.53,-3.97 9.07,-7.93 13.59,-11.89 0.48,-0.42 0.43,-0.4 0.16,-0.64 -0.27,-0.24 -2.47,1.3 -2.51,1.33 -4.06,2.54 -8.1,5.07 -12.16,7.61 l 1.01,0.05 c 4.06,-3.5 8.11,-6.99 12.17,-10.49 0.55,-0.47 -0.81,-0.21 -0.66,-0.23 -1.33,0.22 -2.73,0.98 -3.95,1.5 -1.93,0.84 -3.88,1.67 -5.81,2.51 -0.93,0.65 -1.85,1.31 -2.78,1.97 3.52,-1.3 7.04,-2.6 10.55,-3.9 -2.6,0.27 -5.2,0.56 -7.8,0.83 l -3.5,1.93 c -0.95,0.52 2.28,0.41 1.84,0.42 1.68,-0.04 3.65,0.05 5.28,-0.46 2.57,-0.81 5.14,-1.61 7.7,-2.42 1.31,-0.41 -3.38,-0.53 -2.66,-0.51 -2.47,-0.05 -5.34,-0.34 -7.77,0.21 l -1.62,0.37 c -0.38,0.11 -0.38,0.22 0,0.34 0.85,0.17 1.72,0.24 2.59,0.21 1.66,0.05 3.33,0.08 4.99,0.08 0.87,0.05 1.74,0 2.6,-0.14 l 0.03,-0.02 z"
             id="path104"
             style="opacity:0.11;isolation:isolate;fill:#feb086;stroke-width:0px" />
          <path
             class="cls-10"
             d="m 120.99,96.91 1.89,-0.59 c -3.91,-0.81 -7.82,-1.62 -11.72,-2.43 -1.65,0.72 -3.31,1.44 -4.96,2.16 3,0.82 5.99,1.63 8.99,2.45 l 3.94,-2.95 c -0.24,-0.28 -0.57,-0.44 -0.97,-0.46 -1.27,-0.27 -2.54,-0.51 -3.82,-0.71 -1.09,-0.19 -3.75,-1.05 -4.91,-0.45 -1.4,0.72 -2.79,1.45 -4.19,2.17 2.39,0.44 4.8,0.87 7.19,1.31 2.92,-1.27 5.83,-2.55 8.76,-3.82 -2.85,-0.27 -5.71,-0.56 -8.55,-0.83 -3.65,3.17 -7.31,6.34 -10.96,9.51 0.17,0.25 0.42,0.39 0.76,0.4 0.7,0.15 1.41,0.26 2.12,0.36 0.88,0.14 1.77,0.26 2.66,0.36 0.62,0.12 1.24,0.15 1.87,0.08 4.5,-2.73 9,-5.46 13.49,-8.19 -2.72,-0.08 -5.42,-0.16 -8.14,-0.23 -3.71,3 -7.43,6.01 -11.14,9.01 -0.77,0.63 2.02,0.36 1.78,0.37 1.11,-0.07 2.23,-0.16 3.34,-0.28 0.6,-0.02 1.16,-0.13 1.72,-0.32 3.97,-2.01 7.94,-4.04 11.91,-6.05 -2.53,0.21 -5.06,0.42 -7.59,0.64 l -10.48,10.8 c -0.68,0.7 2,0.16 1.78,0.19 1.49,-0.23 3.57,-0.33 4.9,-1.11 3.79,-2.24 7.59,-4.48 11.38,-6.71 -2.46,0.42 -4.92,0.85 -7.39,1.27 -2.21,2.33 -4.42,4.66 -6.63,6.99 -0.55,0.58 1.1,0.13 1.21,0.1 1.52,-0.44 3.23,-0.89 4.64,-1.64 3.73,-2 7.47,-4.02 11.2,-6.02 l -6.64,1.61 c -1.82,1.89 -3.64,3.77 -5.45,5.66 -0.17,0.21 -0.12,0.31 0.15,0.3 l 7.1,-1.17 c -0.41,0.07 2.94,-0.45 1.9,-0.82 l -3.07,-1.08 -0.52,0.58 c 2.36,-1.79 4.73,-3.59 7.09,-5.37 0.9,-0.67 -2.49,0.22 -1.96,0.08 -1.73,0.49 -3.65,0.95 -5.23,1.84 -3.31,1.89 -6.63,3.77 -9.94,5.66 1.95,-0.52 3.9,-1.03 5.85,-1.54 2.56,-2.14 5.12,-4.28 7.68,-6.43 0.84,-0.7 -2.38,-0.02 -1.97,-0.1 -1.65,0.31 -3.93,0.49 -5.41,1.37 -3.56,2.12 -7.12,4.24 -10.68,6.36 l 6.67,-0.93 c 3.8,-3.5 7.59,-7 11.39,-10.5 0.76,-0.7 -2.22,-0.24 -1.99,-0.26 -1.24,0.14 -2.47,0.29 -3.7,0.48 -0.65,0.05 -1.29,0.2 -1.9,0.42 -3.72,1.89 -7.45,3.76 -11.17,5.65 l 6.84,-0.22 c 4.14,-2.84 8.29,-5.7 12.44,-8.54 0.87,-0.6 -2.26,-0.55 -2.01,-0.54 -1.3,-0.04 -2.59,-0.05 -3.89,-0.03 -0.68,-0.04 -1.36,0 -2.02,0.16 -4.25,2.41 -8.5,4.84 -12.75,7.25 l 7.4,1.2 c 4.05,-3.29 8.09,-6.59 12.15,-9.89 -0.22,-0.25 -0.53,-0.38 -0.9,-0.36 -0.81,-0.11 -1.63,-0.2 -2.45,-0.25 -1.02,-0.1 -2.04,-0.18 -3.07,-0.22 -0.71,-0.09 -1.43,-0.09 -2.14,0 -2.55,1.16 -5.09,2.34 -7.64,3.5 -0.95,0.43 2.07,0.81 1.78,0.76 1.18,0.19 2.36,0.34 3.55,0.48 0.63,0.12 1.24,0.14 1.87,0.07 2.14,-0.58 4.27,-1.16 6.41,-1.74 -3.14,-0.58 -6.27,-1.16 -9.41,-1.74 -1.07,0.7 -2.16,1.41 -3.23,2.12 0.2,0.3 0.48,0.48 0.87,0.54 0.82,0.27 1.65,0.53 2.49,0.75 1.04,0.3 2.08,0.59 3.14,0.85 0.72,0.23 1.47,0.37 2.22,0.42 l 7.64,-2.18 c 1.29,-0.37 -3.21,-1.2 -2.73,-1.09 -1.81,-0.4 -3.63,-0.78 -5.44,-1.13 -0.95,-0.23 -1.9,-0.37 -2.86,-0.41 l -1.64,0.32 c -0.43,0.09 -0.28,0.08 -0.08,0.33 l 0.88,0.33 c 1.06,0.29 2.12,0.57 3.19,0.82 1.64,0.4 3.29,0.78 4.94,1.12 0.67,0.14 1.52,0.41 2.21,0.2 v 0 z"
             id="path105"
             style="opacity:0.11;isolation:isolate;fill:#feb086;stroke-width:0px" />
          <path
             class="cls-10"
             d="m 123.63,89.71 1.85,-0.61 -8.15,-6.81 -3.52,1.76 c 1.45,2.27 2.89,4.53 4.34,6.8 1.44,-1.01 2.86,-2.02 4.3,-3.03 0.42,-0.3 -2.63,-3.53 -2.61,-3.5 -0.19,-0.21 -2.48,-3.3 -3.16,-3.01 -1.08,0.46 -2.18,0.91 -3.26,1.37 l 2.55,6.44 c 3.01,-1.33 6.03,-2.66 9.04,-3.99 l -4.27,-6.5 -8.35,9.5 c -0.58,0.65 0.06,2.75 0.16,3.4 -0.02,-0.1 0.53,3.52 0.89,3.29 4.41,-2.77 8.81,-5.54 13.21,-8.31 -1.11,-2.15 -2.22,-4.29 -3.33,-6.44 -2.86,2.64 -5.73,5.29 -8.58,7.92 -0.65,0.6 -0.35,2.59 -0.34,3.29 0,-0.12 0.04,3.48 0.39,3.29 3.89,-2.05 7.78,-4.1 11.67,-6.16 -0.74,-2.2 -1.49,-4.41 -2.23,-6.61 -2.64,3.52 -5.29,7.03 -7.92,10.54 -0.67,0.9 -0.59,2.75 -0.72,3.82 -0.03,0.23 -0.16,2.65 0,2.55 3.7,-2.27 7.4,-4.54 11.1,-6.81 -0.48,-2.21 -0.97,-4.42 -1.45,-6.63 -1.6,2.18 -3.21,4.36 -4.81,6.54 -0.7,0.96 -0.77,2.62 -1,3.75 -0.05,0.23 -0.34,2.63 -0.18,2.54 3.7,-2.03 7.42,-4.07 11.12,-6.1 l -0.92,-6.62 c -1.36,1.76 -2.72,3.52 -4.07,5.27 -0.27,0.35 -2.22,6.04 -1.55,6.23 l 3.48,0.99 c 0.43,0.12 0.14,-3.65 0.15,-3.57 -0.02,-0.24 0.06,-3.39 -0.59,-3.52 l -1.28,-0.25 -1.55,6.23 c 2.11,-1.58 4.22,-3.18 6.34,-4.76 0.61,-0.46 -0.03,-2.89 -0.1,-3.36 0.02,0.12 -0.5,-3.49 -0.83,-3.25 -3.01,2.14 -6.02,4.28 -9.02,6.42 -0.32,2.05 -0.64,4.1 -0.98,6.17 2.41,-2.02 4.82,-4.05 7.23,-6.08 0.58,-0.49 -0.26,-2.95 -0.36,-3.39 0.02,0.11 -0.76,-3.49 -1.08,-3.23 -2.98,2.35 -5.96,4.71 -8.94,7.07 -0.18,2.07 -0.35,4.14 -0.53,6.22 3.56,-3.39 7.11,-6.77 10.67,-10.16 0.54,-0.51 -0.64,-3.04 -0.76,-3.42 0.02,0.05 -1.07,-3.44 -1.47,-3.19 -3.17,2.06 -6.32,4.11 -9.49,6.18 l 0.05,6.59 c 3.96,-2.69 7.92,-5.38 11.87,-8.07 0.75,-0.51 -3.11,-6.61 -3.33,-6.44 -3.64,2.69 -7.28,5.36 -10.92,8.05 l 1.05,6.69 c 3.86,-3.23 7.72,-6.46 11.57,-9.69 0.54,-0.45 -3.72,-6.79 -4.27,-6.5 l -7.33,4.04 c -0.53,0.29 0.88,3.21 0.94,3.36 0.07,0.18 1.01,3.21 1.62,3.09 l 6.47,-1.3 c -1.93,-2.17 -3.84,-4.35 -5.77,-6.52 -0.96,0.92 -1.92,1.83 -2.87,2.75 -0.47,0.45 1.76,3.45 1.86,3.6 0.16,0.24 1.78,3.37 2.48,3.21 2.44,-0.59 4.89,-1.16 7.32,-1.75 -0.09,-0.39 -0.31,-0.7 -0.66,-0.94 -1.04,-0.95 -2.09,-1.87 -3.17,-2.76 -1.07,-0.91 -2.16,-1.79 -3.26,-2.64 -0.29,-0.31 -0.64,-0.48 -1.04,-0.49 l -1.43,0.28 c 0.07,0.39 0.26,0.71 0.62,0.96 0.98,0.99 1.97,1.94 3,2.88 1.02,0.95 2.05,1.87 3.11,2.77 0.27,0.32 0.61,0.5 1.01,0.54 v 0 z"
             id="path106"
             style="opacity:0.11;isolation:isolate;fill:#feb086;stroke-width:0px" />
          <path
             class="cls-10"
             d="m 122.34,98.37 1.85,-0.6 c -4.15,-0.61 -8.31,-1.2 -12.47,-1.81 -1.55,0.84 -3.1,1.68 -4.65,2.52 3.17,0.48 6.33,0.97 9.49,1.45 l 4.07,-2.87 c -0.28,-0.26 -0.64,-0.37 -1.06,-0.35 -1.34,-0.14 -2.68,-0.23 -4.02,-0.29 -1.1,-0.06 -4.02,-0.65 -5.11,0.1 l -3.82,2.63 c -0.86,0.59 2.18,0.4 1.86,0.41 1.6,-0.05 3.8,0.13 5.33,-0.5 2.99,-1.22 5.97,-2.43 8.96,-3.65 -2.85,0.28 -5.7,0.58 -8.55,0.86 -3.43,3.5 -6.86,7.01 -10.29,10.5 -0.7,0.71 2.07,0.08 1.81,0.13 1.51,-0.28 3.56,-0.47 4.91,-1.28 4.55,-2.74 9.1,-5.48 13.65,-8.22 -2.49,0.64 -4.98,1.29 -7.48,1.93 -3.2,3.33 -6.38,6.67 -9.58,10.01 -0.57,0.6 -0.4,0.85 0.34,0.47 3.73,-1.93 7.47,-3.86 11.2,-5.78 l -0.75,-0.05 c -1.85,2.4 -3.68,4.8 -5.53,7.2 -0.92,1.2 -1.89,2.45 -2.61,3.79 -0.03,0.06 -0.82,1.55 -0.18,1.13 3.44,-2.22 6.87,-4.45 10.31,-6.66 1.3,-1.69 2.6,-3.39 3.9,-5.08 -2.33,2.08 -4.66,4.15 -6.99,6.23 -0.3,0.44 -0.52,0.91 -0.65,1.43 -0.33,0.95 -0.64,1.9 -0.93,2.85 0.02,-0.08 -0.75,2.11 0,1.64 3.3,-2 6.6,-4 9.9,-6 1.04,-2.03 2.08,-4.06 3.12,-6.09 -2.13,1.66 -4.25,3.31 -6.38,4.97 -0.67,0.53 -1.35,6.4 -0.72,6.48 l 1.33,0.18 c 0.68,0.09 1.73,-2.42 1.9,-2.73 -0.03,0.05 1.71,-2.97 1.24,-3.08 -1.25,-0.28 -2.5,-0.57 -3.74,-0.86 -0.18,2.11 -0.35,4.22 -0.53,6.33 1.4,-1.89 2.78,-3.77 4.18,-5.65 1,-1.35 1.81,-2.92 2.58,-4.41 0.07,-0.14 0.85,-1.62 0.15,-1.24 -3.81,2.05 -7.63,4.1 -11.44,6.16 l -1.57,5.93 c 3,-3.93 5.99,-7.85 8.99,-11.78 -0.13,0.16 0.72,-1.14 0.04,-0.74 -3.84,2.28 -7.68,4.55 -11.52,6.83 -0.93,1.64 -1.86,3.28 -2.78,4.92 4.69,-5.18 9.39,-10.35 14.08,-15.53 0.59,-0.64 -1.05,0.1 -0.75,-0.05 -4.01,2.02 -8,4.05 -12.01,6.07 -0.57,0.69 -1.13,1.39 -1.7,2.08 4.86,-3.64 9.7,-7.27 14.56,-10.92 0.92,-0.68 -2.57,0.22 -2.03,0.08 -1.78,0.49 -3.83,0.92 -5.44,1.86 -4.29,2.48 -8.59,4.96 -12.88,7.45 2.24,-0.38 4.48,-0.77 6.71,-1.15 4.05,-3.4 8.09,-6.81 12.14,-10.21 0.84,-0.7 -2.47,-0.23 -2.18,-0.26 -1.94,0.19 -4.32,0.2 -6.17,0.93 l -7.8,3.08 7.17,-0.09 c 2.18,-0.62 4.37,-1.22 6.55,-1.84 -3.3,-0.23 -6.6,-0.47 -9.9,-0.7 l -3.39,1.97 c 0.23,0.28 0.56,0.43 0.95,0.44 0.88,0.19 1.76,0.34 2.64,0.47 1.1,0.19 2.21,0.35 3.31,0.5 0.77,0.15 1.54,0.21 2.32,0.18 2.63,-0.76 5.27,-1.52 7.9,-2.3 0.46,-0.06 0.48,-0.17 0.05,-0.34 -1.01,-0.28 -2.03,-0.48 -3.07,-0.59 -1.98,-0.28 -3.97,-0.55 -5.96,-0.78 -1.04,-0.17 -2.07,-0.24 -3.12,-0.23 l -1.66,0.34 c -0.46,0.05 -0.48,0.16 -0.05,0.34 0.99,0.3 1.99,0.52 3.02,0.64 1.95,0.32 3.91,0.63 5.87,0.91 1.02,0.2 2.04,0.29 3.08,0.29 h 0.02 z"
             id="path107"
             style="opacity:0.11;isolation:isolate;fill:#feb086;stroke-width:0px" />
          <path
             class="cls-10"
             d="m 121.33,92.96 1.88,-0.6 c -3.94,-1.93 -7.89,-3.85 -11.82,-5.77 -1.5,0.47 -3.01,0.95 -4.51,1.42 2.95,2.12 5.9,4.23 8.85,6.35 1.32,-1.07 2.65,-2.15 3.97,-3.22 0.26,-0.21 -4.89,-3.18 -4.76,-3.11 -1.3,-0.74 -2.61,-1.46 -3.95,-2.13 -0.36,-0.26 -0.75,-0.38 -1.18,-0.33 l -4.2,1.18 c 2.55,2 5.1,4 7.65,6 2.93,-1.4 5.85,-2.79 8.78,-4.19 -2.97,-1.9 -5.93,-3.79 -8.9,-5.69 -3.14,2.65 -6.27,5.31 -9.41,7.95 -0.43,0.36 3,3.92 2.99,3.92 0.09,0.1 2.98,3.78 3.55,3.43 4.44,-2.78 8.87,-5.56 13.32,-8.35 l -8.18,-6.1 c -3.34,2.22 -6.69,4.44 -10.04,6.65 -0.44,0.29 2.75,4.01 2.73,3.98 0.1,0.12 2.7,3.83 3.3,3.52 3.93,-2.07 7.85,-4.14 11.78,-6.21 -2.5,-2.2 -5.01,-4.4 -7.51,-6.6 -2.78,2.78 -5.56,5.56 -8.34,8.35 -0.51,0.51 2,4.18 2.11,4.37 0,0 2.27,4.29 2.75,4 3.75,-2.29 7.5,-4.56 11.27,-6.85 -2.21,-2.45 -4.42,-4.91 -6.63,-7.36 -1.67,1.59 -3.33,3.2 -5,4.79 -0.55,0.53 1.59,4.28 1.71,4.52 0,-0.02 1.91,4.47 2.37,4.21 3.76,-2.07 7.52,-4.15 11.3,-6.22 -1.96,-2.63 -3.94,-5.26 -5.9,-7.89 -1.33,1.24 -2.67,2.49 -4,3.73 -0.6,0.56 1.17,4.33 1.29,4.66 0.16,0.42 1.11,4.28 1.98,4.41 l 3.4,0.5 c 0.08,-0.38 0,-0.75 -0.23,-1.09 -0.57,-1.24 -1.16,-2.46 -1.79,-3.67 -0.61,-1.22 -1.25,-2.41 -1.93,-3.6 -0.15,-0.39 -0.39,-0.67 -0.75,-0.83 l -1.97,-0.37 c 1.09,3.02 2.18,6.04 3.27,9.07 2.21,-1.64 4.42,-3.27 6.63,-4.92 0.37,-0.27 -5.18,-8.3 -5.9,-7.89 -3.16,1.8 -6.31,3.59 -9.47,5.38 1.36,2.91 2.73,5.81 4.08,8.73 2.51,-2.05 5.03,-4.1 7.54,-6.17 0.42,-0.34 -3.06,-3.94 -3.04,-3.92 -0.09,-0.1 -3.01,-3.78 -3.59,-3.43 -3.16,1.94 -6.32,3.89 -9.48,5.83 1.61,2.78 3.23,5.58 4.85,8.36 3.66,-3.37 7.34,-6.74 11,-10.11 0.38,-0.35 -3.56,-3.61 -3.52,-3.58 -0.23,-0.21 -3.29,-3.39 -4,-3.02 -3.43,1.77 -6.85,3.54 -10.28,5.32 2,2.5 4.02,4.99 6.02,7.49 4.07,-2.69 8.13,-5.36 12.2,-8.05 0.31,-0.21 -3.98,-3.43 -3.87,-3.34 -0.25,-0.2 -3.62,-3.18 -4.31,-2.76 -3.89,2.36 -7.78,4.73 -11.67,7.1 2.18,2.45 4.36,4.9 6.54,7.35 3.93,-3.21 7.86,-6.41 11.78,-9.62 0.3,-0.24 -4.37,-3.22 -4.25,-3.16 -1.17,-0.76 -2.35,-1.49 -3.56,-2.18 -0.33,-0.27 -0.69,-0.39 -1.09,-0.35 -2.51,1.29 -5.02,2.59 -7.53,3.88 -0.3,0.16 3.71,3.37 3.6,3.29 1.01,0.8 2.02,1.57 3.07,2.31 0.28,0.28 0.61,0.42 0.98,0.4 2.14,-0.54 4.28,-1.07 6.43,-1.61 -3.29,-1.86 -6.59,-3.71 -9.88,-5.57 l -2.94,2.44 c -0.32,0.27 4.31,3.55 4.21,3.48 1.16,0.85 2.35,1.66 3.55,2.44 0.32,0.29 0.68,0.44 1.09,0.43 l 7.49,-1.99 c -0.26,-0.41 -0.64,-0.69 -1.11,-0.87 -1.53,-0.81 -3.08,-1.6 -4.64,-2.35 -1.55,-0.77 -3.13,-1.5 -4.71,-2.21 -0.43,-0.27 -0.89,-0.39 -1.37,-0.34 l -1.55,0.25 c 0.24,0.41 0.6,0.71 1.07,0.9 1.49,0.86 2.99,1.69 4.5,2.48 1.51,0.81 3.04,1.59 4.58,2.35 0.41,0.28 0.86,0.42 1.34,0.38 l -0.02,-0.03 z"
             id="path108"
             style="opacity:0.11;isolation:isolate;fill:#feb086;stroke-width:0px" />
          <path
             class="cls-10"
             d="m 123.26,95.84 1.89,-0.62 c -4.49,-1.52 -8.98,-3.06 -13.47,-4.58 -1.46,0.64 -2.92,1.29 -4.38,1.93 3.31,1.56 6.62,3.14 9.93,4.7 1.37,-1.03 2.73,-2.05 4.09,-3.09 -0.24,-0.35 -0.6,-0.58 -1.05,-0.68 -1.42,-0.58 -2.84,-1.11 -4.28,-1.61 -1.44,-0.53 -2.87,-1.02 -4.33,-1.47 -0.41,-0.21 -0.82,-0.25 -1.24,-0.14 l -4.14,1.91 c 2.78,1.2 5.57,2.41 8.35,3.62 2.97,-1.32 5.93,-2.65 8.9,-3.97 -3.25,-1.1 -6.5,-2.2 -9.75,-3.3 -3.34,2.89 -6.67,5.78 -10.02,8.68 -0.31,0.26 3.75,2.55 3.65,2.49 0.4,0.22 3.29,2.3 4.02,1.85 4.5,-2.77 8.99,-5.54 13.49,-8.31 -3.02,-1.1 -6.04,-2.2 -9.06,-3.3 -3.61,2.68 -7.21,5.35 -10.82,8.02 -0.28,0.21 3.64,2.16 3.52,2.11 0.57,0.27 3.02,1.87 3.83,1.45 3.97,-2.04 7.92,-4.07 11.89,-6.12 -2.91,-0.96 -5.82,-1.91 -8.74,-2.86 -3.22,3.08 -6.44,6.17 -9.66,9.24 -0.32,0.3 3.41,2.28 3.33,2.24 0.43,0.23 2.96,2.02 3.68,1.59 3.79,-2.27 7.59,-4.54 11.38,-6.81 l -8.39,-3.15 c -2.02,1.81 -4.06,3.62 -6.08,5.41 -0.33,0.29 3.24,2.33 3.17,2.29 0.43,0.25 2.8,2.05 3.54,1.65 3.78,-2.07 7.56,-4.14 11.34,-6.21 -2.72,-1.16 -5.42,-2.33 -8.14,-3.49 -1.64,1.35 -3.28,2.69 -4.93,4.04 -0.29,0.24 5.55,4.25 6.03,4.37 1.08,0.26 2.17,0.53 3.26,0.78 0.36,0.09 0.25,-0.03 0.21,-0.27 l -0.53,-0.54 c -0.68,-0.56 -1.38,-1.09 -2.09,-1.61 -1.08,-0.81 -2.18,-1.6 -3.31,-2.36 -0.35,-0.23 -1.1,-0.89 -1.61,-0.78 l -1.95,0.41 6.29,4.34 c 2.26,-1.63 4.51,-3.25 6.77,-4.89 0.24,-0.18 -4.05,-2.13 -3.92,-2.08 -0.58,-0.24 -3.39,-1.89 -4.21,-1.41 l -9.9,5.77 c 2.23,1.31 4.47,2.62 6.69,3.93 l 7.78,-6.21 c 0.23,-0.19 -4.19,-1.96 -4.07,-1.92 -0.62,-0.23 -3.49,-1.74 -4.33,-1.23 -3.33,2.04 -6.66,4.08 -10,6.13 2.34,1.28 4.67,2.55 7.01,3.83 L 124.28,95.4 c 0.22,-0.2 -4.38,-1.82 -4.25,-1.78 -0.79,-0.26 -3.51,-1.58 -4.49,-1.07 -3.5,1.81 -7.01,3.62 -10.5,5.41 2.45,1.18 4.9,2.36 7.35,3.56 4.17,-2.76 8.35,-5.51 12.52,-8.28 -0.18,-0.32 -0.46,-0.53 -0.85,-0.62 -1.17,-0.49 -2.35,-0.95 -3.56,-1.38 -0.65,-0.23 -3.77,-1.84 -4.65,-1.31 -4.04,2.42 -8.06,4.85 -12.1,7.27 2.55,1.45 5.11,2.89 7.66,4.34 4.04,-3.23 8.06,-6.48 12.1,-9.71 0.18,-0.14 -4.88,-2.04 -4.76,-2 -1.28,-0.45 -2.57,-0.86 -3.88,-1.23 -0.38,-0.19 -0.75,-0.21 -1.11,-0.07 -2.5,1.22 -5,2.44 -7.51,3.65 0.15,0.32 0.4,0.54 0.76,0.64 1.07,0.54 2.17,1.04 3.27,1.5 0.98,0.42 3.13,1.76 4.32,1.48 2.23,-0.54 4.46,-1.08 6.68,-1.62 -3.64,-1.3 -7.26,-2.6 -10.9,-3.9 -1.05,0.76 -2.08,1.52 -3.13,2.29 -0.21,0.15 4.93,2.75 4.81,2.68 1.3,0.63 2.62,1.22 3.96,1.79 0.37,0.23 0.76,0.31 1.16,0.22 2.64,-0.68 5.28,-1.36 7.92,-2.04 -0.34,-0.39 -0.78,-0.64 -1.32,-0.75 -1.75,-0.66 -3.52,-1.29 -5.3,-1.89 -1.77,-0.62 -3.56,-1.19 -5.35,-1.74 -0.49,-0.23 -1,-0.3 -1.5,-0.21 l -1.62,0.26 c 0.33,0.4 0.76,0.65 1.28,0.79 1.72,0.7 3.45,1.38 5.19,2.02 1.74,0.65 3.49,1.29 5.25,1.88 0.48,0.24 0.98,0.32 1.49,0.24 v 0.02 z"
             id="path109"
             style="opacity:0.11;isolation:isolate;fill:#feb086;stroke-width:0px" />
          <path
             class="cls-10"
             d="m 123.75,87.68 2.02,-0.38 c -1.98,-1.98 -3.97,-3.97 -5.95,-5.96 l -3.53,2.16 c 0.77,1.86 1.54,3.71 2.33,5.57 l 4.19,-2.9 c 0.38,-0.26 -3.18,-5.72 -3.9,-5.37 -1.14,0.55 -2.29,1.09 -3.43,1.63 0.3,1.68 0.62,3.36 0.92,5.04 l 8.82,-3.87 c -0.97,-1.69 -1.94,-3.38 -2.91,-5.07 -3.06,3.34 -6.13,6.68 -9.19,10.03 -0.48,0.53 -0.08,2.32 -0.03,2.95 0,0.16 0.17,2.08 0.46,1.9 4.4,-2.78 8.78,-5.55 13.18,-8.33 -0.8,-1.61 -1.59,-3.22 -2.39,-4.84 -3.13,2.74 -6.25,5.47 -9.38,8.2 -0.54,0.47 -0.37,2.22 -0.41,2.85 0,0.15 -0.08,2.05 0.21,1.9 3.87,-2.05 7.74,-4.1 11.61,-6.15 l -1.73,-4.89 c -2.86,3.5 -5.74,7 -8.6,10.49 -0.63,0.76 -0.66,2.45 -0.78,3.37 0,0.09 -0.33,1.64 0.3,1.25 3.64,-2.24 7.26,-4.48 10.9,-6.71 -0.45,-1.62 -0.9,-3.23 -1.35,-4.86 -1.73,2.12 -3.46,4.24 -5.18,6.36 -0.65,0.8 -0.8,2.36 -0.98,3.33 -0.02,0.08 -0.43,1.63 0.23,1.27 3.63,-2 7.25,-4.01 10.88,-6.01 -0.35,-1.61 -0.71,-3.22 -1.07,-4.85 l -4.32,5.04 c -0.24,0.29 -1.83,4.49 -1.16,4.67 l 3.38,0.94 c 0.45,0.13 0.1,-2.76 0.1,-2.7 -0.04,-0.34 0,-2.46 -0.64,-2.62 l -1.49,-0.37 c -0.39,1.55 -0.78,3.12 -1.16,4.67 l 6.35,-4.8 c 0.53,-0.39 -0.09,-2.09 -0.18,-2.5 0,0.05 -0.51,-2.61 -0.89,-2.35 -3.02,2.08 -6.04,4.16 -9.06,6.24 l -0.75,4.61 7.28,-6.12 c 0.51,-0.42 -0.21,-2.13 -0.32,-2.52 0,0.05 -0.65,-2.61 -1.03,-2.33 -3.03,2.32 -6.05,4.63 -9.08,6.95 -0.16,1.54 -0.31,3.08 -0.47,4.62 l 10.81,-10.23 c 0.69,-0.65 -1.52,-5.01 -1.73,-4.89 -3.22,2.09 -6.45,4.19 -9.67,6.28 l -0.02,4.64 c 3.93,-2.67 7.86,-5.34 11.78,-8 0.7,-0.48 -2.11,-5.04 -2.39,-4.84 -3.68,2.73 -7.37,5.44 -11.05,8.17 0.09,1.66 0.18,3.32 0.26,4.98 3.89,-3.26 7.78,-6.53 11.68,-9.8 0.58,-0.49 -2.46,-5.33 -2.91,-5.07 -2.28,1.3 -4.55,2.6 -6.84,3.9 -0.68,0.39 0.43,5.14 0.92,5.04 2.14,-0.44 4.27,-0.87 6.41,-1.31 -1.3,-1.79 -2.6,-3.59 -3.9,-5.37 l -2.61,2.71 c -0.48,0.5 0.67,2.57 0.82,2.92 0.08,0.18 0.92,2.78 1.5,2.64 2.38,-0.59 4.78,-1.18 7.16,-1.77 0.3,-0.08 -2.8,-3.33 -2.72,-3.23 -0.59,-0.59 -2.18,-2.71 -3.23,-2.72 l -1.7,-0.02 c -0.02,0.33 0.11,0.62 0.37,0.86 0.69,0.88 1.42,1.73 2.17,2.56 0.33,0.38 2.24,3.09 3.09,2.93 l -0.03,0.05 z"
             id="path110"
             style="opacity:0.11;isolation:isolate;fill:#feb086;stroke-width:0px" />
        </g>
      </g>
    </g>
    <path
       class="cls-14"
       d="m 97.89932,156.77033 c 1.883833,0.21167 3.96081,0.35983 6.20712,0.38894 2.39184,0.0318 4.60111,-0.0767 6.59078,-0.26194"
       id="path265"
       style="fill:none;stroke:#0a0c0c;stroke-width:0.529167px;stroke-linecap:round;stroke-miterlimit:10" />
    <path
       class="cls-1"
       d="m 100.90499,149.4255 c -0.30957,-0.16934 -0.72496,-0.39423 -1.076858,-0.45509 -0.489479,-0.0847 -0.976312,-0.12435 -1.479021,-0.14287 -0.404812,-0.0159 -0.751416,0.0397 -1.180041,0.11112 -0.431271,0.0714 -0.915459,0.15081 -1.383771,0.25665 -0.351896,0.0794 -0.809625,0.17727 -0.992188,0.55298 -0.111125,0.22754 0.224896,0.29898 0.33073,0.11641 0,0.0238 0,0.003 0.01323,-0.008 0.01588,-0.0132 0.02381,-0.0265 0.05821,-0.0529 0.0344,-0.0265 0.105833,-0.0635 0.164042,-0.0873 0.161396,-0.0635 0.336021,-0.11907 0.510646,-0.15875 0.425979,-0.0926 0.85725,-0.16934 1.28852,-0.24342 0.341313,-0.0582 0.685271,-0.12171 1.029229,-0.12435 0.439209,0 0.899584,0.0582 1.328209,0.10583 0.224896,0.0238 0.497413,0.0714 0.677333,0.12171 0.18256,0.0503 0.31221,0.12964 0.4101,0.22225 0.17992,0.16933 0.49477,-0.10848 0.30163,-0.21431 -0.0661,-0.0476 0,0 0,0 z"
       id="path266"
       style="fill:#3a342a;stroke-width:0px" />
    <path
       class="cls-1"
       d="m 113.34834,149.29585 c -0.30956,-0.16933 -0.72496,-0.39423 -1.07685,-0.45508 -0.48948,-0.0847 -0.97632,-0.12436 -1.47902,-0.14288 -0.40482,-0.0159 -0.75142,0.0397 -1.18005,0.11113 -0.43127,0.0714 -0.91545,0.15081 -1.38377,0.25664 -0.35189,0.0794 -0.80962,0.17727 -0.99218,0.55298 -0.11113,0.22754 0.22489,0.29898 0.33072,0.11642 0,0.0238 0,0.003 0.0132,-0.008 0.0159,-0.0132 0.0238,-0.0265 0.0582,-0.0529 0.0344,-0.0265 0.10584,-0.0635 0.16404,-0.0873 0.1614,-0.0635 0.33602,-0.11906 0.51065,-0.15875 0.42598,-0.0926 0.85725,-0.16933 1.28852,-0.24342 0.34131,-0.0582 0.68527,-0.1217 1.02923,-0.12435 0.43921,0 0.89958,0.0582 1.32821,0.10583 0.22489,0.0238 0.49741,0.0714 0.67733,0.12171 0.18256,0.0503 0.31221,0.12965 0.41011,0.22225 0.17991,0.16934 0.49477,-0.10848 0.30162,-0.21431 -0.0661,-0.0476 0,0 0,0 z"
       id="path267"
       style="fill:#3a342a;stroke-width:0px" />
    <path
       class="cls-14"
       d="m 95.234966,146.49127 c 0.587375,-0.0979 1.22502,-0.22755 1.899708,-0.41011 0.719666,-0.19314 1.370541,-0.4101 1.949979,-0.63235"
       id="path268"
       style="fill:none;stroke:#0a0c0c;stroke-width:0.529167px;stroke-linecap:round;stroke-miterlimit:10" />
    <path
       class="cls-14"
       d="m 113.31394,145.99385 c -0.59002,-0.0794 -1.23031,-0.19315 -1.91293,-0.3519 -0.72496,-0.17198 -1.38377,-0.37041 -1.9685,-0.57414"
       id="path269"
       style="fill:none;stroke:#0a0c0c;stroke-width:0.529167px;stroke-linecap:round;stroke-miterlimit:10" />
  </g>
</svg>
