<?xml version="1.0" encoding="UTF-8" standalone="no"?>
<!-- Created with Inkscape (http://www.inkscape.org/) -->

<svg
   width="12.921968mm"
   height="14.422104mm"
   viewBox="0 0 12.921968 14.422104"
   version="1.1"
   id="svg1"
   inkscape:version="1.3.2 (091e20e, 2023-11-25)"
   sodipodi:docname="activities.svg"
   xmlns:inkscape="http://www.inkscape.org/namespaces/inkscape"
   xmlns:sodipodi="http://sodipodi.sourceforge.net/DTD/sodipodi-0.dtd"
   xmlns="http://www.w3.org/2000/svg"
   xmlns:svg="http://www.w3.org/2000/svg">
  <sodipodi:namedview
     id="namedview1"
     pagecolor="#ffffff"
     bordercolor="#000000"
     borderopacity="0.25"
     inkscape:showpageshadow="2"
     inkscape:pageopacity="0.0"
     inkscape:pagecheckerboard="0"
     inkscape:deskcolor="#d1d1d1"
     inkscape:document-units="mm"
     inkscape:zoom="1.6819304"
     inkscape:cx="29.430468"
     inkscape:cy="95.128787"
     inkscape:window-width="1600"
     inkscape:window-height="937"
     inkscape:window-x="286"
     inkscape:window-y="94"
     inkscape:window-maximized="0"
     inkscape:current-layer="layer1" />
  <defs
     id="defs1" />
  <g
     inkscape:label="Layer 1"
     inkscape:groupmode="layer"
     id="layer1"
     transform="translate(-110.33125,-152.92916)">
    <path
       class="cls-13"
       d="m 119.46968,153.26343 c 2.09021,0 3.78354,1.69333 3.78354,3.75708 0,2.06375 -1.69333,3.81 -3.78354,3.81 -2.06375,0 -3.78354,-1.64042 -3.78354,-3.78354 0,-2.16958 1.79916,-3.81 3.78354,-3.78354 z"
       id="path265"
       style="fill:#1d2129;stroke-width:0px" />
    <path
       class="cls-62"
       d="m 115.92426,156.33259 c 0.10584,-0.58208 0.34396,-1.08479 0.74084,-1.53458 0,0.26458 -0.1323,0.52917 -0.1323,0.79375 0.37042,0.0265 0.74084,0.0529 1.13771,0.10583 0.10584,0.0794 0.0265,0.18521 0.0794,0.26459 0.0265,0.18521 0.0265,0.39687 0.10583,0.55562 -0.0794,-0.18521 -0.0794,-0.39687 -0.13229,-0.60854 0,-0.0794 -0.0265,-0.18521 0.0265,-0.26458 0.3175,-0.42334 0.68791,-0.79375 1.03187,-1.19063 0.58209,0.0794 1.13771,0.15875 1.64042,0.42334 0.15875,0.42333 0.3175,0.8202 0.44979,1.21708 0.0265,0.0794 0.0529,0.13229 0.0529,0.23812 0,0.0529 0,0.0265 0.0529,0.0265 0.0529,-0.0529 0.10584,-0.0265 0.15875,0 0.34396,0.10584 0.68792,0.18521 1.03188,0.23813 0.0794,0.10583 0.0794,0.23812 0.21167,0.3175 0.0529,-0.0794 0,-0.13229 0,-0.18521 0,-0.0529 -0.0529,-0.15875 0,-0.23813 0.10583,-0.29104 0.1852,-0.58208 0.23812,-0.89958 0.18521,0 0.23813,0.10583 0.29104,0.23813 0.26459,0.79375 0.26459,1.56104 0,2.35479 0,0 0,0 -0.0265,0 -0.0794,0 -0.13229,-0.0529 -0.21166,-0.10584 -0.0529,-0.37041 -0.0529,-0.74083 -0.18521,-1.08479 -0.0265,0.18521 0.0265,0.37042 0.0529,0.52917 0,0.18521 0.0529,0.39687 0,0.60854 -0.29105,0.42333 -0.60855,0.82021 -1.03188,1.13771 -0.44979,0 -0.89958,0 -1.29646,-0.21167 -0.0529,-0.50271 -0.0529,-1.00541 -0.23812,-1.48166 0,-0.0529 0.0529,-0.0794 0.0529,-0.1323 0,-0.0264 0,-0.0264 -0.0264,-0.0264 -0.0529,0.0529 -0.1323,0.0529 -0.18521,0.0264 -0.47625,-0.10583 -0.97896,-0.21166 -1.45521,-0.26458 0,0 -0.0265,0 -0.0794,-0.0529 -0.0529,-0.0529 -0.0264,-0.21166 -0.1852,-0.26458 0,0.15875 0.13229,0.23813 0.15875,0.39688 -0.26459,0.37041 -0.47625,0.79375 -0.66146,1.21708 -0.3175,0.0529 -0.635,0 -0.9525,-0.10583 v 0 c -0.15875,-0.0529 -0.21167,-0.18521 -0.29104,-0.3175 -0.15875,-0.3175 -0.26459,-0.66146 -0.34396,-1.00542 0,-0.13229 -0.0529,-0.23813 0,-0.37042 -0.0265,-0.0529 -0.0529,-0.13229 0,-0.18521 0.0529,-0.0794 0.0794,-0.15875 0.10583,-0.23812 0,-0.0265 0.0265,-0.0529 0.0529,-0.0794 h 0.0265 -0.0265 c 0,0 0,0.0265 -0.0265,0.0529 0,0.0265 -0.0265,0.0529 -0.0529,0.0794 -0.0265,0 -0.0529,0 -0.0794,0 v 0 z"
       id="path266"
       style="fill:#fcfcfc;stroke-width:0px" />
    <path
       class="cls-62"
       d="m 116.5328,158.4228 c 0.1323,0.18521 0.34396,0.15875 0.52917,0.18521 0.13229,0 0.26458,0 0.42333,0 0.29105,0.44979 0.635,0.87313 1.0848,1.16417 0,0.18521 -0.0529,0.34396 0.0529,0.52916 v -0.5027 c 0.52917,-0.15875 1.00542,-0.3175 1.42875,-0.635 0.21167,0.10583 0.39688,0.21166 0.60854,0.21166 0.21167,0 0.4498,0.0529 0.68792,0.0265 0.0794,0.29104 -0.0794,0.50271 -0.18521,0.76729 -0.58208,0.3175 -1.21708,0.47625 -1.905,0.47625 -0.23812,0 -0.47625,-0.0529 -0.66146,-0.23812 -0.34395,0.0794 -0.635,-0.0265 -0.92604,-0.18521 -0.55562,-0.3175 -1.00541,-0.74083 -1.34937,-1.27 0,-0.18521 -0.0529,-0.34396 0,-0.50271 0.0529,0 0.10583,0.0265 0.15875,0 v 0 c 0,0 0,0 0,0 z"
       id="path267"
       style="fill:#fcfcfc;stroke-width:0px" />
    <path
       class="cls-62"
       d="m 121.18947,153.92489 c 0.10583,-0.0529 0.18521,0.0529 0.23813,0.10583 0.42333,0.26458 0.76729,0.60854 1.00541,1.05833 0.0794,0.15875 0.21167,0.29104 0.29104,0.44979 -0.0794,0.0529 -0.13229,-0.0529 -0.1852,0 -0.26459,-0.47625 -0.635,-0.79375 -1.05834,-1.11125 0,-0.0529 -0.0529,-0.10583 -0.0794,-0.15875 0,0 -0.0529,0 -0.0265,0.0529 -0.0265,0.10583 -0.13229,0.10583 -0.21167,0.13229 -0.23812,0.10584 -0.44979,0.26459 -0.66146,0.42334 -0.5027,-0.26459 -1.05833,-0.34396 -1.64041,-0.42334 -0.13229,-0.23812 -0.3175,-0.44979 -0.52917,-0.68791 0.26458,-0.15875 0.52917,-0.26459 0.82021,-0.29105 0.44979,-0.0264 0.87312,0 1.29646,0.1323 0.21166,0.0529 0.39687,0.13229 0.55562,0.29104 0.0265,0.0265 0.0529,0.10583 0.13229,0.0529 v 0 c 0,0 0,0 0,0 v 0 c 0,0 0,0 0,0 z"
       id="path268"
       style="fill:#fcfcfc;stroke-width:0px" />
    <path
       class="cls-40"
       d="m 117.77635,155.69759 c 0,0.0794 0,0.18521 0,0.26459 0,0.0529 -0.0529,0.0529 -0.0794,0 -0.0529,-0.0794 -0.0265,-0.18521 0,-0.26459 0.0265,0 0.0794,0 0.10583,0 v 0 z"
       id="path269"
       style="fill:#65c1c6;stroke-width:0px" />
    <path
       class="cls-40"
       d="m 115.95072,156.59718 c 0.0265,0.0529 0,0.10583 0,0.13229 -0.0265,-0.0265 -0.0529,-0.0794 -0.10583,-0.13229 0,-0.0794 0.0529,-0.18521 0.0529,-0.26459 0.0265,0 0.0794,0 0.10584,0 0,0.10584 -0.0265,0.15875 -0.0529,0.26459 z"
       id="path270"
       style="fill:#65c1c6;stroke-width:0px" />
    <path
       class="cls-40"
       d="m 118.04093,153.73968 c 0.0265,-0.0529 0.0794,-0.0529 0.13229,-0.0265 -0.0265,0.0794 -0.0794,0 -0.13229,0.0265 z"
       id="path271"
       style="fill:#65c1c6;stroke-width:0px" />
    <path
       class="cls-62"
       d="m 121.13655,153.92489 c 0,-0.0265 0,-0.0529 0.0529,-0.0529 0,0 0,0.0265 0,0.0529 v 0 c 0,0 0,0 -0.0265,0 0,0 0,0 -0.0265,-0.0265 v 0 c 0,0 0,0 0,0 z"
       id="path272"
       style="fill:#fcfcfc;stroke-width:0px" />
    <path
       class="cls-13"
       d="m 117.69697,155.98864 c 0.0265,0 0.0529,0 0.0794,0 0,0.29104 0.10583,0.58208 0.1852,0.84666 -0.15875,-0.26458 -0.23812,-0.52916 -0.26458,-0.84666 z"
       id="path273"
       style="fill:#1d2129;stroke-width:0px" />
    <path
       class="cls-13"
       d="m 116.2153,156.04155 c 0,-0.10583 0.0529,-0.18521 0.15875,-0.26458 0,0.13229 -0.10583,0.18521 -0.15875,0.26458 z"
       id="path274"
       style="fill:#1d2129;stroke-width:0px" />
    <path
       class="cls-13"
       d="m 115.95072,156.59718 c 0,-0.10584 0,-0.15875 0.0529,-0.26459 0,-0.0265 0,-0.0794 0.0529,-0.0794 0,0 0.0529,0 0.0529,0.0265 -0.0529,0.10583 -0.0529,0.21166 -0.15875,0.29104 v 0 z"
       id="path275"
       style="fill:#1d2129;stroke-width:0px" />
    <path
       class="cls-13"
       d="m 120.9778,156.41197 c -0.0264,0.0529 -0.0264,0.10583 -0.10583,0.0794 0,-0.0794 0,-0.10583 0.0794,-0.13229 0,0 0.0264,0.0265 0.0529,0.0265 v 0 z"
       id="path276"
       style="fill:#1d2129;stroke-width:0px" />
    <path
       class="cls-13"
       d="m 120.6603,156.78239 c 0,-0.15875 0.0529,-0.15875 0.1323,-0.1323 0,0.0794 -0.0529,0.10584 -0.1323,0.1323 z"
       id="path277"
       style="fill:#1d2129;stroke-width:0px" />
    <path
       class="cls-13"
       d="m 116.16239,156.17384 c 0,0.0265 -0.0529,0.0794 -0.0529,0.10584 0,0 -0.0265,0 -0.0529,-0.0265 0,-0.0529 0,-0.10583 0.0529,-0.10583 0,0 0.0529,0 0.0529,0.0265 z"
       id="path278"
       style="fill:#1d2129;stroke-width:0px" />
    <path
       class="cls-13"
       d="m 116.13593,156.14739 c 0,-0.0265 0,-0.0794 0.0529,-0.0529 0.0264,0.0265 0,0.0529 0,0.0794 0,0 -0.0265,0 -0.0529,-0.0265 z"
       id="path279"
       style="fill:#1d2129;stroke-width:0px" />
    <path
       class="cls-13"
       d="m 119.91947,157.4703 c 0,0 0.0529,0 0.0794,0 0,0.0529 0,0.0265 -0.0265,0.0529 0,0 0,0 -0.0265,-0.0265 v 0 z"
       id="path280"
       style="fill:#1d2129;stroke-width:0px" />
    <path
       class="cls-13"
       d="m 121.13655,153.92489 h 0.0529 c 0,0.0264 0,0.0794 0.0529,0.10583 -0.0794,0 -0.13229,0 -0.10584,-0.10583 z"
       id="path281"
       style="fill:#1d2129;stroke-width:0px" />
    <path
       class="cls-13"
       d="m 121.34822,154.2953 c -0.0265,0 -0.0529,-0.0265 -0.0265,-0.0529 0.0265,0 0.0529,0 0.0794,0 0,0 0,0.0265 -0.0265,0.0529 v 0 z"
       id="path282"
       style="fill:#1d2129;stroke-width:0px" />
    <path
       class="cls-54"
       d="m 115.10405,153.63384 c 2.11667,1.87855 3.06917,4.2598 2.91042,7.09084 0,0.29104 0.0529,0.44979 0.29104,0.635 1.82563,1.40229 1.56104,4.3127 -0.44979,5.3975 -0.37042,0.21166 -0.42333,0.15875 -0.42333,-0.23813 0,-0.635 -0.15875,-1.21708 -0.50271,-1.77271 -0.18521,-0.3175 -0.44979,-0.18521 -0.68792,-0.15875 -0.21166,0.0265 -0.10583,0.23813 -0.10583,0.37042 -0.0265,0.58208 -0.0794,1.16417 -0.3175,1.71979 -0.13229,0.29104 -0.29104,0.58208 -0.66146,0.60854 -0.34396,0 -0.52917,-0.23812 -0.71437,-0.47625 -0.34396,-0.50271 -0.47625,-1.08479 -0.60855,-1.66687 0,-0.10584 0.0529,-0.3175 -0.1852,-0.29104 -0.18521,0 -0.39688,-0.0265 -0.52917,0.23812 -0.26458,0.60854 -0.3175,1.21708 -0.21167,1.87854 0.0794,0.39688 0,0.44979 -0.37041,0.3175 -2.2225,-0.76729 -2.93688,-3.57187 -1.34938,-5.29166 0.15875,-0.15875 0.15875,-0.29104 0.10583,-0.50271 -0.55562,-2.24896 -0.34395,-4.39208 0.7673,-6.42938 0.42333,-0.76729 0.97895,-1.42875 1.61395,-2.01083 0.15875,-0.15875 0.3175,-0.15875 0.47625,-0.0265 0.29105,0.21167 0.635,0.39688 0.92605,0.66146 z m 1.66688,2.56646 c -0.0794,-0.0794 -0.21167,-0.0265 -0.3175,0 -1.48167,0.13229 -2.93688,0.26459 -4.41854,0.39688 -0.21167,0 -0.3175,0.10583 -0.37042,0.3175 -0.60854,2.19604 -0.34396,4.28625 0.66146,6.29708 0.10583,0.21167 0.21167,0.29104 0.47625,0.26458 1.34937,-0.13229 2.72521,-0.23812 4.07458,-0.34395 0.23813,0 0.34396,-0.10584 0.39688,-0.3175 0.68791,-2.16959 0.52916,-4.28625 -0.42334,-6.35 -0.0265,-0.0794 -0.0794,-0.1323 -0.10583,-0.21167 v 0 z m -4.89479,0.0794 c 0.82021,-0.0794 1.5875,-0.15875 2.35479,-0.21167 0.76729,-0.0794 1.53458,-0.13229 2.35479,-0.21167 -0.635,-1.05833 -1.42875,-1.905 -2.43417,-2.54 -0.13229,-0.0794 -0.1852,-0.0529 -0.29104,0.0265 -0.89958,0.79375 -1.50812,1.77271 -1.95791,2.93688 v 0 z m 5.87375,10.16 c 1.74625,-1.00542 1.95791,-3.51896 0.44979,-4.78896 -0.10583,-0.0794 -0.23813,-0.26458 -0.29104,0.0529 -0.15875,0.84666 -0.44979,1.66687 -0.84667,2.4077 -0.0529,0.10584 -0.0794,0.15875 0,0.29104 0.44979,0.58209 0.68792,1.24355 0.68792,2.0373 z m -6.24417,-4.33917 c -0.74083,0.82021 -0.97896,1.74625 -0.74083,2.75167 0.23812,0.97895 0.84666,1.66687 1.82562,2.06375 -0.13229,-0.7673 -0.0265,-1.42875 0.29104,-2.09021 0.0529,-0.10584 0.0265,-0.18521 -0.0265,-0.26459 -0.58209,-0.74083 -1.03188,-1.56104 -1.34938,-2.46062 z m 1.24354,1.71979 c 0.10584,0.15875 0.23813,0.3175 0.34396,0.50271 0.10583,0.13229 0.21167,0.21167 0.39688,0.18521 0.97895,-0.10584 1.98437,-0.18521 2.96333,-0.26459 0.10583,0 0.21167,0 0.29104,-0.13229 0.13229,-0.21166 0.23813,-0.44979 0.3175,-0.66145 -1.42875,0.13229 -2.8575,0.26458 -4.28625,0.37041 z m 2.64584,2.93688 c 0.26458,-0.37042 0.3175,-0.82021 0.37041,-1.29646 0.10584,-0.89959 0.10584,-0.89959 -0.79375,-0.82021 -0.635,0.0529 -0.84666,0.39687 -0.66146,1.00542 0.1323,0.37041 0.26459,0.76729 0.52917,1.05833 0.15875,0.18521 0.34396,0.26458 0.55563,0 v 0 z"
       id="path283"
       style="fill:#0a0a0a;stroke-width:0px" />
    <path
       class="cls-29"
       d="m 116.77093,156.2003 c 0.0529,0.0794 0.0794,0.13229 0.10583,0.21167 0.9525,2.06375 1.11125,4.18042 0.42334,6.35 -0.0529,0.21167 -0.15875,0.3175 -0.39688,0.3175 -1.34937,0.10583 -2.72521,0.21167 -4.07458,0.34396 -0.26459,0.0265 -0.37042,-0.0529 -0.47625,-0.26459 -1.00542,-2.01083 -1.27,-4.10104 -0.66146,-6.29708 0.0529,-0.21167 0.15875,-0.29104 0.37042,-0.3175 1.48166,-0.13229 2.93687,-0.26458 4.41854,-0.39687 0.10583,0 0.21166,-0.0529 0.3175,0 v 0 z m -1.21708,1.11125 c -0.74084,-0.60854 -1.79917,-0.52916 -2.40771,0.21167 -0.60854,0.74083 -0.52917,1.79917 0.21166,2.40771 0.74084,0.635 1.82563,0.52916 2.43417,-0.21167 0.60854,-0.74083 0.50271,-1.79917 -0.21167,-2.40771 z"
       id="path284"
       style="fill:#fbfbfb;stroke-width:0px" />
    <path
       class="cls-17"
       d="m 111.87614,156.27968 c 0.44979,-1.16417 1.08479,-2.14313 1.95791,-2.93688 0.10584,-0.10583 0.15875,-0.10583 0.29105,-0.0265 1.00541,0.635 1.79916,1.48167 2.43416,2.54 -0.79375,0.0794 -1.5875,0.1323 -2.35479,0.21167 -0.76729,0.0794 -1.50812,0.13229 -2.35479,0.21167 v 0 z"
       id="path285"
       style="fill:#db5252;stroke-width:0px" />
    <path
       class="cls-17"
       d="m 117.74989,166.43968 c 0,-0.79375 -0.23813,-1.45521 -0.68792,-2.0373 -0.0794,-0.13229 -0.0529,-0.1852 0,-0.29104 0.39688,-0.76729 0.68792,-1.56104 0.84667,-2.4077 0.0529,-0.3175 0.18521,-0.1323 0.29104,-0.0529 1.50812,1.27 1.29646,3.78354 -0.42333,4.78896 z"
       id="path286"
       style="fill:#db5252;stroke-width:0px" />
    <path
       class="cls-17"
       d="m 111.50572,162.10051 c 0.34396,0.92604 0.76729,1.71979 1.34938,2.46062 0.0794,0.0794 0.0794,0.15875 0.0265,0.26459 -0.3175,0.635 -0.42333,1.32291 -0.29104,2.09021 -0.97896,-0.39688 -1.5875,-1.0848 -1.82562,-2.06375 -0.26459,-1.03188 0,-1.95792 0.74083,-2.75167 z"
       id="path287"
       style="fill:#db5252;stroke-width:0px" />
    <path
       class="cls-28"
       d="m 112.74926,163.8203 c 1.45521,-0.13229 2.8575,-0.26458 4.28625,-0.37041 -0.0529,0.21166 -0.18521,0.42333 -0.3175,0.66145 -0.0794,0.13229 -0.15875,0.13229 -0.29104,0.13229 -0.97896,0.0794 -1.98437,0.15875 -2.96333,0.26459 -0.18521,0 -0.3175,-0.0529 -0.39688,-0.18521 -0.10583,-0.15875 -0.23812,-0.3175 -0.34396,-0.50271 z"
       id="path288"
       style="fill:#5f93aa;stroke-width:0px" />
    <path
       class="cls-17"
       d="m 115.3951,166.75718 c -0.21167,0.26458 -0.39688,0.15875 -0.55563,0 -0.26458,-0.3175 -0.39687,-0.68792 -0.52917,-1.05834 -0.1852,-0.60854 0,-0.9525 0.66146,-1.00541 0.89959,-0.0794 0.89959,-0.0794 0.79375,0.8202 -0.0529,0.4498 -0.13229,0.92605 -0.37041,1.29646 v 0 z"
       id="path289"
       style="fill:#db5252;stroke-width:0px" />
    <path
       class="cls-54"
       d="m 115.55385,157.31155 c 0.74083,0.60854 0.8202,1.66688 0.21166,2.40771 -0.60854,0.74083 -1.69333,0.84667 -2.43416,0.21167 -0.74084,-0.60854 -0.82021,-1.69334 -0.21167,-2.40771 0.60854,-0.71438 1.66687,-0.82021 2.40771,-0.21167 z m -0.21167,0.23813 c -0.58208,-0.50271 -1.42875,-0.42334 -1.93146,0.18521 -0.50271,0.58208 -0.42333,1.48166 0.15875,1.98437 0.58208,0.47625 1.48167,0.39688 1.95792,-0.18521 0.50271,-0.58208 0.42333,-1.48166 -0.18521,-1.98437 z"
       id="path290"
       style="fill:#0a0a0a;stroke-width:0px" />
    <path
       class="cls-20"
       d="m 115.34218,157.54968 c 0.60854,0.50271 0.68792,1.37583 0.18521,1.98437 -0.47625,0.55563 -1.37584,0.66146 -1.95792,0.18521 -0.60854,-0.50271 -0.66146,-1.37583 -0.15875,-1.98437 0.50271,-0.58209 1.34938,-0.66146 1.93146,-0.18521 z"
       id="path291"
       style="fill:#fac866;stroke-width:0px" />
  </g>
</svg>
