<?xml version="1.0" encoding="UTF-8" standalone="no"?>
<!-- Created with Inkscape (http://www.inkscape.org/) -->

<svg
   width="18.651699mm"
   height="13.290228mm"
   viewBox="0 0 18.651699 13.290228"
   version="1.1"
   id="svg1"
   inkscape:version="1.3.2 (091e20e, 2023-11-25)"
   sodipodi:docname="clean.svg"
   xmlns:inkscape="http://www.inkscape.org/namespaces/inkscape"
   xmlns:sodipodi="http://sodipodi.sourceforge.net/DTD/sodipodi-0.dtd"
   xmlns="http://www.w3.org/2000/svg"
   xmlns:svg="http://www.w3.org/2000/svg">
  <sodipodi:namedview
     id="namedview1"
     pagecolor="#ffffff"
     bordercolor="#000000"
     borderopacity="0.25"
     inkscape:showpageshadow="2"
     inkscape:pageopacity="0.0"
     inkscape:pagecheckerboard="0"
     inkscape:deskcolor="#d1d1d1"
     inkscape:document-units="mm"
     inkscape:zoom="0.2102413"
     inkscape:cx="35.673295"
     inkscape:cy="23.782197"
     inkscape:window-width="1312"
     inkscape:window-height="449"
     inkscape:window-x="0"
     inkscape:window-y="25"
     inkscape:window-maximized="0"
     inkscape:current-layer="layer1" />
  <defs
     id="defs1" />
  <g
     inkscape:label="Layer 1"
     inkscape:groupmode="layer"
     id="layer1"
     transform="translate(-95.779159,-141.81667)">
    <path
       class="cls-53"
       d="m 111.03013,143.43466 c 0.1852,0 0.13229,-0.26459 0.3175,-0.29105 0,-0.26458 0.1852,-0.47625 0.3175,-0.68791 v 0 c 1.03187,-0.89959 1.905,-0.71438 2.4077,0.52916 0.42334,1.0848 0.34396,2.16959 -0.1852,3.22792 -0.23813,0.44979 -0.635,0.74083 -1.13771,0.89958 -0.44979,0.1323 -0.87313,0 -1.19063,-0.34395 -0.37041,-0.42334 -0.58208,-0.87313 -0.55562,-1.42875 v -0.4498 c 0,-0.0794 0.0265,-0.1852 -0.0529,-0.21166 -0.74083,-0.29104 -1.48167,-0.60854 -2.30187,-0.60854 -0.82021,0 -0.97896,0.37041 -1.21709,0.87312 -0.21166,0.44979 -0.26458,0.92604 -0.10583,1.40229 v 0 c 0.10583,0.26459 0.0529,0.50271 -0.13229,0.76729 -0.55563,0.1323 -1.11125,-0.0529 -1.66688,-0.23812 -0.3175,-0.10583 -0.3175,-0.42333 -0.10583,-0.68792 0.44979,-0.47625 0.68792,-1.05833 0.84667,-1.66687 0.34395,-1.19063 1.79916,-1.74625 2.91041,-1.53459 0.635,0.1323 1.19063,0.4498 1.85209,0.4498 z"
       id="path368"
       style="fill:#e5dccc;stroke-width:0px" />
    <path
       class="cls-56"
       d="m 111.03013,143.43466 c -0.0529,0.21166 -0.23813,0.10583 -0.34396,0.0794 -0.50271,-0.15875 -1.00542,-0.29104 -1.50813,-0.39687 -0.97896,-0.18521 -2.38125,0.15875 -2.83104,1.50812 -0.15875,0.52917 -0.37042,1.05833 -0.76729,1.50813 -0.13229,0.13229 -0.26458,0.29104 -0.18521,0.58208 0.55563,0.15875 1.13771,0.23812 1.69333,0.34396 0.26459,-0.21167 0.10584,-0.50271 0.23813,-0.71438 0.15875,0 0.13229,0.10584 0.13229,0.21167 0,0.21167 0.0265,0.39687 0.0529,0.60854 0.0265,0.15875 0.26458,0.0794 0.29104,0.23813 0,0 -0.0265,0.0529 -0.0529,0.0794 -0.52916,0.18521 -1.00541,-0.0529 -1.48166,-0.18521 -1.24355,-0.34396 -2.2225,-0.21166 -2.77813,1.05834 0,0.0529 -0.0794,0.0794 -0.10583,0.13229 0,0 0,0.0265 0,0.10583 1.61396,0.47625 3.25437,0.79375 4.92125,0.97896 -0.13229,-0.68792 -0.44979,-1.29646 -0.44979,-1.98438 0,0 0.0529,-0.0529 0.0529,-0.0529 0.23813,0.0265 0.3175,0.21166 0.39688,0.39687 0.10583,0.23813 0.18521,0.47625 0.21166,0.74084 0.0529,0.55562 0.29105,1.03187 0.68792,1.42875 -0.0529,0.47625 -0.23812,0.68791 -0.71437,0.68791 -0.37042,0 -0.7673,-0.0265 -1.13771,-0.0529 -0.74084,-0.0529 -1.48167,-0.15875 -2.19604,-0.34396 -0.0794,0 -0.15875,0 -0.15875,-0.13229 0.21166,-0.21167 0.5027,-0.15875 0.74083,-0.10584 0.66146,0.13229 1.32292,0.18521 1.98437,0.26459 0.29105,0.0265 0.60855,0.0794 1.00542,-0.15875 -2.06375,-0.34396 -4.02167,-0.635 -5.97958,-1.13771 0.15875,0.3175 0.50271,0.34396 0.76729,0.44979 0.37042,0.15875 0.76729,0.21167 1.13771,0.37042 0.15875,0.0529 0.37041,0.0529 0.34396,0.3175 -0.0794,0 -0.15875,0 -0.23813,0 -0.0529,0.0529 -0.10583,0.0265 -0.15875,0 -0.68792,-0.1323 -1.34937,-0.37042 -1.98437,-0.60855 -0.29105,-0.10583 -0.4498,-0.3175 -0.50271,-0.58208 0.0529,-0.44979 0.50271,-0.44979 0.74083,-0.68792 0.15875,-0.15875 0.37042,-0.26458 0.44979,-0.5027 0.0529,-0.18521 0.23813,-0.3175 0.34396,-0.47625 0.3175,-0.39688 0.68792,-0.71438 1.29646,-0.635 0.15875,-0.34396 0.39687,-0.60855 0.60854,-0.89959 0.18521,-0.26458 0.34396,-0.55562 0.39688,-0.89958 0.26458,-1.34938 1.56104,-2.19604 2.98979,-2.03729 0.60854,0.0794 1.16416,0.34396 1.77271,0.50271 0.10583,0 0.1852,0.0529 0.29104,0.0794 v 0 z"
       id="path369"
       style="fill:#202020;stroke-width:0px" />
    <path
       class="cls-56"
       d="m 111.03013,145.3132 c 0.0794,0.52916 0.1852,1.05833 0.635,1.45521 0.39687,0.34395 0.8202,0.39687 1.27,0.15875 0.5027,-0.26459 0.84666,-0.66146 1.03187,-1.16417 0.3175,-0.9525 0.3175,-1.905 -0.0794,-2.83104 -0.0529,-0.10584 -0.10584,-0.21167 -0.15875,-0.3175 -0.34396,-0.52917 -0.89959,-0.68792 -1.50813,-0.39688 -0.18521,0.0794 -0.3175,0.29104 -0.58208,0.29104 0.50271,-0.8202 1.45521,-0.92604 2.09021,-0.23812 0.39687,0.42333 0.58208,0.92604 0.66145,1.48167 0.10584,0.79375 0,1.53458 -0.26458,2.27541 -0.21167,0.58209 -0.60854,0.92604 -1.16417,1.16417 -0.60854,0.26458 -1.16416,0.10583 -1.53458,-0.39688 -0.3175,-0.42333 -0.55562,-0.89958 -0.44979,-1.4552 0,0 0.0529,0 0.0529,0 v 0 z"
       id="path370"
       style="fill:#202020;stroke-width:0px" />
    <path
       class="cls-56"
       d="m 107.32596,146.34507 c 0,0 -0.0529,0 -0.0529,0 -0.3175,-0.79375 0,-1.79916 0.74084,-2.24896 0.3175,-0.21166 0.66145,-0.23812 1.03187,-0.15875 0.3175,0.0794 0.60854,0.15875 0.92604,0.26459 0.42334,0.13229 0.82021,0.29104 1.21709,0.44979 0,0.13229 -0.0529,0.15875 -0.1323,0.18521 v 0 c -0.55562,-0.26459 -1.16416,-0.39688 -1.74625,-0.55563 -1.42875,-0.3175 -1.82562,0.60854 -1.93145,1.50813 0,0.18521 0.0794,0.39687 0,0.58208 v 0 z"
       id="path371"
       style="fill:#202020;stroke-width:0px" />
    <path
       class="cls-56"
       d="m 111.69158,142.48216 c 0,0.26458 -0.29104,0.42333 -0.3175,0.68791 0,-0.29104 0.0529,-0.52916 0.3175,-0.68791 z"
       id="path372"
       style="fill:#202020;stroke-width:0px" />
    <path
       class="cls-57"
       d="m 111.03013,144.81049 v 0 c 0.0264,0.15875 0.0529,0.34396 0,0.50271 0,0 -0.0529,0 -0.0529,0 -0.0529,-0.18521 -0.0529,-0.34396 0.0529,-0.50271 z"
       id="path373"
       style="fill:#698085;stroke-width:0px" />
    <path
       class="cls-56"
       d="m 107.82867,147.37695 c 0.0529,0 0.10583,0.0529 0.10583,0.13229 h -0.0265 c -0.0794,0.0529 -0.13229,0 -0.15875,-0.0265 0.0265,-0.0265 0.0529,-0.0529 0.0794,-0.10583 z"
       id="path374"
       style="fill:#202020;stroke-width:0px" />
    <path
       class="cls-6"
       d="m 106.24117,145.76299 c 0,0.26458 0,0.52917 -0.37042,0.58208 v 0 c 0.0265,-0.23812 0.10583,-0.47625 0.37042,-0.58208 z"
       id="path375"
       style="fill:#fdfdfd;stroke-width:0px" />
    <path
       class="cls-6"
       d="m 106.347,145.52486 c 0,-0.10583 -0.0529,-0.23812 0.0529,-0.3175 0.0794,0.1323 0.10583,0.23813 -0.0529,0.3175 z"
       id="path376"
       style="fill:#fdfdfd;stroke-width:0px" />
    <path
       class="cls-6"
       d="m 106.21471,145.76299 c 0,-0.10583 0,-0.21167 0.13229,-0.23813 v 0 c 0,0.10584 0.0265,0.21167 -0.10583,0.23813 v 0 z"
       id="path377"
       style="fill:#fdfdfd;stroke-width:0px" />
    <path
       class="cls-56"
       d="m 111.34763,143.69924 c 0.10583,-0.10583 0.15875,-0.0529 0.21166,0 -0.0529,0.0794 -0.13229,0.0794 -0.21166,0 z"
       id="path378"
       style="fill:#202020;stroke-width:0px" />
    <path
       class="cls-6"
       d="m 105.87075,146.34507 c 0,0.0265 -0.0265,0.0529 -0.0529,0.0794 -0.0794,-0.0794 0,-0.0794 0.0529,-0.10584 v 0 c 0,0 0,0 0,0 z"
       id="path379"
       style="fill:#fdfdfd;stroke-width:0px" />
    <path
       class="cls-53"
       d="m 107.74929,147.48278 c 0.0529,0 0.10584,0.0265 0.15875,0.0529 0.34396,0.68791 0.34396,1.45521 0.74084,2.19604 -1.95792,-0.15875 -3.81,-0.55563 -5.63563,-1.08479 -0.0794,-0.21167 0.10583,-0.18521 0.18521,-0.26459 0.15875,-0.15875 0.34396,-0.29104 0.44979,-0.52916 0.18521,-0.39688 0.52917,-0.68792 0.89958,-0.9525 1.0848,0 2.14313,0.29104 3.20146,0.55562 v 0 z"
       id="path380"
       style="fill:#e5dccc;stroke-width:0px" />
    <path
       class="cls-53"
       d="m 105.02408,150.20799 c -0.29104,-0.21167 -0.66145,-0.23813 -1.00541,-0.37042 -0.37042,-0.13229 -0.76729,-0.23812 -1.13771,-0.37041 -0.21167,-0.0794 -0.42333,-0.21167 -0.52917,-0.42334 0.0794,-0.3175 0.34396,-0.29104 0.52917,-0.21166 1.42875,0.5027 2.93687,0.71437 4.41854,1.00541 0.39688,0.0794 0.79375,0.0794 1.19063,0.10584 0.21166,0 0.42333,0 0.47625,0.26458 -0.0529,0.26458 -0.26459,0.34396 -0.52917,0.34396 -0.68792,0 -1.34938,-0.10584 -2.03729,-0.15875 -0.47625,-0.0529 -0.92604,-0.23813 -1.42875,-0.18521 v 0 c 0,0 0,0 0,0 z"
       id="path381"
       style="fill:#e5dccc;stroke-width:0px" />
    <path
       class="cls-6"
       d="m 104.04513,147.8532 c 0.0794,-0.34396 0.29104,-0.52917 0.71437,-0.58209 -0.13229,0.37042 -0.37042,0.52917 -0.71437,0.60855 v 0 z"
       id="path382"
       style="fill:#fdfdfd;stroke-width:0px" />
    <path
       class="cls-6"
       d="m 104.04513,147.87966 c 0,0.0529 0,0.0794 -0.0794,0.0794 0,-0.0794 0.0265,-0.0794 0.0794,-0.0794 z"
       id="path383"
       style="fill:#fdfdfd;stroke-width:0px" />
    <path
       class="cls-6"
       d="m 103.91283,148.1707 c 0,0 -0.0264,0.0265 -0.0264,0.0265 -0.0529,0 -0.0529,-0.0529 0,-0.0794 0,0 0,0 0.0264,0.0265 v 0 z"
       id="path384"
       style="fill:#fdfdfd;stroke-width:0px" />
    <path
       class="cls-6"
       d="m 103.67471,148.38236 c 0,0 -0.0265,0.0265 -0.0265,0.0265 -0.0529,0 -0.0529,-0.0529 0,-0.0794 0,0 0,0 0.0265,0.0265 v 0 z"
       id="path385"
       style="fill:#fdfdfd;stroke-width:0px" />
    <path
       class="cls-34"
       d="m 105.12992,152.74799 c -0.0529,0.47625 0.26458,0.97896 0.92604,0.79375 0.42333,-0.13229 0.42333,-0.74083 0.18521,-1.16417 -0.29104,-0.55562 -0.21167,-1.05833 -0.47625,-0.71437 -0.42334,0.52916 -0.60854,0.71437 -0.635,1.11125 v 0 z"
       id="path386"
       style="opacity:0.7;isolation:isolate;fill:#518eb0;stroke-width:0px" />
    <path
       class="cls-10"
       d="m 105.26221,152.50986 c -0.0529,0.34396 0.3175,0.87313 0.76729,0.74084 0.37042,-0.10584 0.55563,-0.21167 0.13229,-1.08479 -0.21166,-0.47625 -0.18521,-0.87313 -0.37041,-0.60855 -0.34396,0.4498 -0.47625,0.58209 -0.52917,0.92605 v 0 z"
       id="path387"
       style="opacity:0.7;isolation:isolate;fill:#a8c7d7;stroke-width:0px" />
    <path
       class="cls-34"
       d="m 106.24117,154.25611 c 0,0.15875 0.10583,0.34396 0.3175,0.29105 0.15875,-0.0529 0.15875,-0.26459 0.0794,-0.42334 -0.10583,-0.21166 -0.0794,-0.37041 -0.15875,-0.26458 -0.15875,0.18521 -0.21166,0.26458 -0.23812,0.39687 z"
       id="path388"
       style="opacity:0.7;isolation:isolate;fill:#518eb0;stroke-width:0px" />
    <path
       class="cls-10"
       d="m 106.26763,154.17674 c 0,0.13229 0.10583,0.3175 0.26458,0.26458 0.13229,-0.0265 0.18521,-0.0794 0.0529,-0.39687 -0.0794,-0.15875 -0.0529,-0.3175 -0.1323,-0.21167 -0.13229,0.15875 -0.15875,0.21167 -0.1852,0.3175 v 0 z"
       id="path389"
       style="opacity:0.7;isolation:isolate;fill:#a8c7d7;stroke-width:0px" />
    <path
       class="cls-34"
       d="m 107.80221,151.71611 c 0.0265,0.29105 -0.15875,0.60855 -0.55563,0.47625 -0.26458,-0.0794 -0.26458,-0.47625 -0.10583,-0.71437 0.18521,-0.34396 0.13229,-0.66146 0.29104,-0.44979 0.26459,0.3175 0.37042,0.44979 0.39688,0.68791 v 0 z"
       id="path390"
       style="opacity:0.7;isolation:isolate;fill:#518eb0;stroke-width:0px" />
    <path
       class="cls-10"
       d="m 107.72283,151.58382 c 0.0265,0.21167 -0.21166,0.52917 -0.47625,0.47625 -0.21166,-0.0529 -0.34395,-0.13229 -0.0794,-0.66146 0.13229,-0.29104 0.10583,-0.52916 0.23812,-0.37041 0.21167,0.26458 0.29105,0.37041 0.3175,0.58208 v 0 z"
       id="path391"
       style="opacity:0.7;isolation:isolate;fill:#a8c7d7;stroke-width:0px" />
    <path
       class="cls-34"
       d="m 107.11429,152.64216 c 0,0.10583 -0.0529,0.21166 -0.21166,0.1852 -0.10584,-0.0265 -0.10584,-0.15875 -0.0529,-0.26458 0.0529,-0.13229 0.0529,-0.23812 0.10583,-0.15875 0.10584,0.10583 0.13229,0.15875 0.13229,0.23813 v 0 z"
       id="path392"
       style="opacity:0.7;isolation:isolate;fill:#518eb0;stroke-width:0px" />
    <path
       class="cls-10"
       d="m 107.08783,152.58924 c 0,0.0794 -0.0794,0.18521 -0.15875,0.15875 -0.0794,0 -0.10583,-0.0529 -0.0264,-0.23813 0.0529,-0.10583 0.0264,-0.1852 0.0794,-0.13229 0.0794,0.10584 0.10583,0.13229 0.10583,0.21167 z"
       id="path393"
       style="opacity:0.7;isolation:isolate;fill:#a8c7d7;stroke-width:0px" />
    <path
       class="cls-34"
       d="m 103.35721,151.42507 c -0.0265,0.29104 0.15875,0.60854 0.55562,0.47625 0.26459,-0.0794 0.26459,-0.47625 0.10584,-0.71437 -0.18521,-0.34396 -0.13229,-0.66146 -0.29104,-0.44979 -0.26459,0.3175 -0.37042,0.44979 -0.39688,0.68791 v 0 z"
       id="path394"
       style="opacity:0.7;isolation:isolate;fill:#518eb0;stroke-width:0px" />
    <path
       class="cls-10"
       d="m 103.46304,151.26632 c -0.0265,0.21167 0.21167,0.52917 0.47625,0.47625 0.21167,-0.0529 0.34396,-0.13229 0.0794,-0.66146 -0.13229,-0.29104 -0.10584,-0.52916 -0.23813,-0.37041 -0.21166,0.26458 -0.29104,0.37041 -0.3175,0.58208 v 0 z"
       id="path395"
       style="opacity:0.7;isolation:isolate;fill:#a8c7d7;stroke-width:0px" />
    <path
       class="cls-34"
       d="m 104.04513,152.35111 c 0,0.10584 0.0529,0.21167 0.21166,0.18521 0.10584,-0.0265 0.10584,-0.15875 0.0529,-0.26458 -0.0529,-0.13229 -0.0529,-0.23813 -0.10583,-0.15875 -0.10584,0.10583 -0.1323,0.15875 -0.1323,0.23812 v 0 z"
       id="path396"
       style="opacity:0.7;isolation:isolate;fill:#518eb0;stroke-width:0px" />
    <path
       class="cls-10"
       d="m 104.07158,152.2982 c 0,0.0794 0.0794,0.18521 0.15875,0.15875 0.0794,0 0.10584,-0.0529 0.0265,-0.23813 -0.0529,-0.10583 -0.0265,-0.18521 -0.0794,-0.13229 -0.0794,0.10583 -0.10584,0.13229 -0.10584,0.21167 z"
       id="path397"
       style="opacity:0.7;isolation:isolate;fill:#a8c7d7;stroke-width:0px" />
    <path
       class="cls-34"
       d="m 104.07158,153.99153 c -0.0264,0.29104 0.15875,0.60854 0.55563,0.47625 0.26458,-0.0794 0.26458,-0.47625 0.10583,-0.71437 -0.18521,-0.34396 -0.13229,-0.66146 -0.29104,-0.4498 -0.26458,0.3175 -0.37042,0.4498 -0.39687,0.68792 v 0 z"
       id="path398"
       style="opacity:0.7;isolation:isolate;fill:#518eb0;stroke-width:0px" />
    <path
       class="cls-10"
       d="m 104.15096,153.83278 c -0.0265,0.21167 0.21167,0.52917 0.47625,0.47625 0.21167,-0.0529 0.34396,-0.13229 0.0794,-0.66146 -0.13229,-0.29104 -0.10583,-0.52916 -0.23812,-0.37041 -0.21167,0.26458 -0.29104,0.37041 -0.3175,0.58208 v 0 z"
       id="path399"
       style="opacity:0.7;isolation:isolate;fill:#a8c7d7;stroke-width:0px" />
    <path
       class="cls-34"
       d="m 104.73304,154.91757 c 0,0.10584 0.0529,0.21167 0.21167,0.18521 0.10583,-0.0265 0.10583,-0.15875 0.0529,-0.26458 -0.0529,-0.13229 -0.0529,-0.23813 -0.10584,-0.15875 -0.10583,0.10583 -0.13229,0.15875 -0.13229,0.23812 v 0 z"
       id="path400"
       style="opacity:0.7;isolation:isolate;fill:#518eb0;stroke-width:0px" />
    <path
       class="cls-10"
       d="m 104.78596,154.86466 c 0,0.0794 0.0794,0.1852 0.15875,0.15875 0.0794,0 0.10583,-0.0529 0.0265,-0.23813 -0.0529,-0.10583 -0.0265,-0.18521 -0.0794,-0.13229 -0.0794,0.10583 -0.10583,0.13229 -0.10583,0.21167 z"
       id="path401"
       style="opacity:0.7;isolation:isolate;fill:#a8c7d7;stroke-width:0px" />
    <path
       class="cls-45"
       d="m 101.66388,152.35111 c -0.0265,0 -0.0529,0 -0.0794,0 0,0 -0.0265,0 -0.0529,-0.0265 -0.1852,-0.18521 -0.3175,-0.39688 -0.47625,-0.58209 -0.44979,-0.60854 -0.87312,-1.27 -1.296454,-1.905 -0.714375,-1.11125 -1.402292,-2.27541 -2.090209,-3.41312 -0.105833,-0.15875 -0.185208,-0.3175 -0.291041,-0.47625 0,-0.0529 -0.05292,-0.0529 -0.07938,-0.0529 -0.105834,0 -0.238125,0 -0.3175,-0.0794 -0.07937,-0.0529 -0.132292,-0.10584 -0.185209,-0.15875 -0.264583,-0.23813 -0.529166,-0.47625 -0.740833,-0.74084 -0.105833,-0.13229 -0.185208,-0.26458 -0.238125,-0.39687 -0.02646,-0.0529 -0.05292,-0.13229 -0.02646,-0.21167 0,-0.13229 0.05292,-0.21167 0.15875,-0.26458 0.05292,-0.0265 0.07937,-0.0794 0.105833,-0.13229 0.02646,-0.10584 0.05292,-0.21167 0.132292,-0.3175 0,0 0,0 0,-0.0529 0,-0.0529 0,-0.10583 0.05292,-0.13229 0.02646,0 0.05292,0 0.105834,-0.0529 0.105833,-0.0529 0.185208,-0.0794 0.264583,-0.13229 0.05292,-0.0529 0.132292,-0.0529 0.211667,-0.0794 0.07937,0 0.105833,0 0.132291,0.0794 0,0 0,0.0265 0.02646,0.0529 0.07937,0.0529 0.132291,0.13229 0.15875,0.21166 0,0.0529 0.05292,0.10584 0.105833,0.13229 0.05292,0.0529 0.105833,0.10584 0.132292,0.18521 0.02646,0.0794 0.07937,0.15875 0.15875,0.21167 0.02646,0 0.05292,0.0529 0.07937,0.0794 0.05292,0.0265 0.07937,0.0529 0.105833,0.1323 0,0.0265 0.02646,0.0529 0.05292,0.0794 0.02646,0.0265 0.05292,0.0529 0.07937,0.0794 0.05292,0.0794 0.105833,0.15875 0.105833,0.23812 0,0.0265 0,0.0529 0.05292,0.0529 0.05292,0 0.07937,0.10583 0.05292,0.15875 -0.02646,0.0529 -0.05292,0.10583 -0.07937,0.15875 -0.05292,0.10583 -0.105833,0.21166 -0.15875,0.29104 0,0 0,0 0,0.0529 0.02646,0.0529 0.02646,0.13229 0,0.1852 0,0 0,0.0529 0,0.0529 0.132292,0.23813 0.264584,0.44979 0.396875,0.66146 0.555625,0.79375 1.137709,1.5875 1.719792,2.32833 0.820203,1.05834 1.640413,2.09021 2.487083,3.12209 0,0 0,0.0529 0,0.0794 -0.0794,0.15875 -0.15875,0.3175 -0.3175,0.39688 -0.10584,0.0794 -0.23813,0.0794 -0.37042,0.10583 v 0 z"
       id="path402"
       style="fill:#3b3d3f;stroke-width:0px" />
    <path
       class="cls-20"
       d="m 95.975334,144.09611 c 0,0.0529 0,0.10584 -0.02646,0.18521 0,0 0,0.0529 0,0.0529 0.238125,0.39687 0.529166,0.74083 0.846666,1.03187 0.07937,0.0794 0.185209,0.15875 0.291042,0.23813 0.07937,0.0529 0.15875,0.0794 0.264583,0.0529 0.132292,0 0.238125,-0.0794 0.291042,-0.18521 0,0 0,-0.0265 0.02646,0 0,0 0,0 0,0.0529 0,0.0265 0,0.0794 0,0.10584 0,0 0,0.0265 0,0.0529 0.105834,0.21167 0.238125,0.42334 0.396875,0.635 0.3175,0.47625 0.635,0.92605 0.978959,1.37584 0.396875,0.52916 0.79375,1.05833 1.217079,1.5875 0.4498,0.58208 0.89959,1.13771 1.34938,1.69333 0.23812,0.29104 0.44979,0.58208 0.68792,0.84667 0,0 0,0.0529 0,0.0794 -0.0529,0.13229 -0.1323,0.23813 -0.26459,0.3175 -0.13229,0.0794 -0.26458,0.10584 -0.42333,0.10584 0,0 -0.0265,0 -0.0529,-0.0265 -0.29104,-0.3175 -0.52916,-0.66146 -0.76729,-1.00542 -0.44979,-0.635 -0.846666,-1.27 -1.269999,-1.93146 -0.370417,-0.60854 -0.767292,-1.21708 -1.11125,-1.82562 -0.3175,-0.55563 -0.661459,-1.08479 -0.978959,-1.64042 0,-0.0265 -0.02646,-0.0529 -0.07937,-0.0265 -0.105833,0 -0.185208,0 -0.291041,0 -0.05292,0 -0.105834,-0.0794 -0.15875,-0.10583 -0.291042,-0.26458 -0.582084,-0.52917 -0.820209,-0.84667 -0.07937,-0.10583 -0.15875,-0.23812 -0.211666,-0.37041 -0.02646,-0.0794 -0.05292,-0.1323 -0.02646,-0.21167 0,-0.10583 0.07937,-0.15875 0.15875,-0.18521 v 0 c 0,0 0,0 0,0 z"
       id="path403"
       style="fill:#fac866;stroke-width:0px" />
    <path
       class="cls-50"
       d="m 96.769084,143.24945 c 0.05292,0 0.07937,0 0.105833,0.0529 0,0 0,0.0529 0.05292,0.0529 0.07937,0.0529 0.132292,0.13229 0.15875,0.21167 0,0.0529 0.05292,0.10583 0.105833,0.13229 0.05292,0.0529 0.105834,0.10583 0.132292,0.18521 0.02646,0.0794 0.07937,0.13229 0.132292,0.18521 0.02646,0.0265 0.05292,0.0529 0.105833,0.0794 0.05292,0.0265 0.07937,0.0794 0.105833,0.13229 0,0.0529 0.05292,0.0794 0.105834,0.13229 0.05292,0.0529 0.105833,0.10584 0.132291,0.18521 0,0.0265 0,0.0529 0,0.10584 0,0.0529 0,0.0529 0.05292,0.0794 0.05292,0 0.05292,0.0529 0.05292,0.10583 0,0.0265 -0.02646,0.0529 -0.05292,0.0794 -0.132292,0.10583 -0.291042,0.18521 -0.47625,0.23812 -0.02646,0 -0.05292,0 -0.07937,0 0,0 -0.05292,0 -0.07937,-0.0529 -0.05292,0 -0.07937,-0.0529 -0.105833,-0.13229 0,-0.0529 -0.05292,-0.10584 -0.105834,-0.1323 -0.07937,-0.0529 -0.105833,-0.10583 -0.15875,-0.1852 0,0 0,0 -0.02646,-0.0265 -0.05292,0 -0.07937,-0.0529 -0.105833,-0.10584 0,0 0,-0.0529 0,-0.0794 0,-0.0794 -0.05292,-0.15875 -0.132292,-0.21167 0,0 -0.02646,0 -0.02646,-0.0529 0,0 0,-0.0265 0,-0.0529 -0.05292,-0.0265 -0.07937,-0.0794 -0.132292,-0.10583 -0.05292,-0.0529 -0.07937,-0.10584 -0.05292,-0.15875 0,-0.0529 0,-0.10584 -0.05292,-0.15875 -0.05292,-0.0529 -0.105834,-0.10584 -0.132292,-0.15875 -0.02646,-0.0529 0,-0.0794 0.05292,-0.10584 0.105833,-0.0529 0.211666,-0.0794 0.3175,-0.15875 0.05292,-0.0529 0.132291,-0.0794 0.211666,-0.0794 v 0 z"
       id="path404"
       style="fill:#f6f6f6;stroke-width:0px" />
    <path
       class="cls-50"
       d="m 96.769084,144.78403 c -0.02646,0.0794 -0.05292,0.15875 -0.07938,0.26458 0,0 0,0.0529 0,0.0529 0,0.0265 -0.02646,0.0529 -0.05292,0 -0.132291,-0.13229 -0.264583,-0.29104 -0.370416,-0.44979 0,0 0,-0.0265 0,-0.0529 0.05292,-0.13229 0.105833,-0.29104 0.132291,-0.42333 0,0 0,0 0,0 -0.05292,0.15875 -0.105833,0.3175 -0.15875,0.44979 -0.05292,-0.0794 -0.105833,-0.13229 -0.132291,-0.21167 0,0 0,0 0,-0.0529 0.05292,-0.18521 0.105833,-0.37042 0.15875,-0.52917 v 0 c -0.07937,0.15875 -0.132292,0.34396 -0.185209,0.52917 -0.02646,-0.0529 -0.07937,-0.0794 -0.05292,-0.15875 0.02646,-0.15875 0.07937,-0.3175 0.132291,-0.47625 0,-0.0529 0.02646,-0.0794 0.05292,-0.10584 0.05292,0.0529 0.105833,0.1323 0.15875,0.18521 0,0 0.02646,0.0529 0,0.0794 -0.02646,0.10583 0,0.15875 0.07937,0.23812 0,0 0.02646,0.0265 0.05292,0.0529 0.02646,0 0.07937,0.0529 0.05292,0.10583 0,0 0,0.0265 0.02646,0.0529 0.05292,0 0.07937,0.0529 0.105833,0.10583 0,0.0529 0.02646,0.10584 0.05292,0.15875 0,0.0265 0.02646,0.0794 0.05292,0.0794 0.05292,0.0265 0.07937,0.0794 0.132292,0.13229 0,0 0,0 0,0 0.05292,0.0265 0.02646,0.0794 0,0.10583 -0.02646,0.10584 -0.07937,0.21167 -0.132292,0.3175 0,0 -0.02646,0.0265 -0.05292,0 -0.02646,-0.0265 -0.05292,-0.0794 -0.105834,-0.10583 -0.02646,0 -0.02646,-0.0529 0,-0.0794 0.05292,-0.10583 0.07937,-0.21166 0.132292,-0.34395 0,0 0,0 0,0 v 0 z"
       id="path405"
       style="fill:#f6f6f6;stroke-width:0px" />
    <path
       class="cls-50"
       d="m 97.351167,145.23382 c -0.05292,0.10584 -0.132291,0.23813 -0.211666,0.34396 0,0 0,0 -0.02646,0 -0.105833,-0.0794 -0.185208,-0.15875 -0.264583,-0.23812 0,0 0,0 0,-0.0265 0.07937,-0.10584 0.132292,-0.23813 0.15875,-0.37042 0,-0.0265 0,-0.0265 0.02646,0 0.02646,0 0.05292,0.0529 0.07937,0.10583 0,0.0794 0.05292,0.10584 0.132292,0.1323 0.05292,0 0.07937,0.0529 0.132292,0.0529 v 0 z"
       id="path406"
       style="fill:#f6f6f6;stroke-width:0px" />
    <path
       class="cls-50"
       d="m 97.324709,145.60424 c -0.02646,0.0529 -0.07937,0 -0.132292,0 0,0 0,0 0,0 0.07937,-0.10583 0.132292,-0.21167 0.185209,-0.3175 0,0 0,0 0,0 0.132291,0 0.238125,-0.0794 0.370416,-0.15875 0,0.0529 -0.05292,0.10583 -0.07937,0.15875 v 0 c 0,0 0,0.0529 -0.02646,0.0529 0,0 0,0 0,0 0,0 -0.02646,0.0264 -0.02646,0.0529 v 0 c -0.02646,0.0265 -0.05292,0.0794 -0.07937,0.10584 -0.05292,0.0794 -0.132292,0.10583 -0.211667,0.13229 0,0 0,0 0,0 0,0 0,0 0,0 v 0 c 0,0 0,0 0,0 v 0 c 0,0 0,0 0,0 v 0 z"
       id="path407"
       style="fill:#f6f6f6;stroke-width:0px" />
    <path
       class="cls-50"
       d="m 97.695126,145.26028 c 0,0 0,0 0,0 0,-0.0265 0.02646,-0.0794 0.05292,-0.10583 0,-0.0529 0.02646,-0.0529 0.105834,-0.10584 -0.05292,0.1323 -0.132292,0.23813 -0.211667,0.34396 0,0 0,-0.0265 0,-0.0529 v 0 c 0,0 0,-0.0529 0.02646,-0.0529 v 0 z"
       id="path408"
       style="fill:#f6f6f6;stroke-width:0px" />
    <path
       class="cls-50"
       d="M 97.642209,145.39257 Z"
       id="path409"
       style="fill:#f6f6f6;stroke-width:0px" />
    <path
       class="cls-47"
       d="M 95.975334,144.06966 Z"
       id="path410"
       style="fill:#01aeee;stroke-width:0px" />
    <path
       class="cls-45"
       d="m 97.536376,145.28674 c -0.02646,0.0794 -0.07937,0.15875 -0.132292,0.23812 0.05292,-0.0794 0.105833,-0.15875 0.132292,-0.23812 z"
       id="path411"
       style="fill:#3b3d3f;stroke-width:0px" />
    <path
       class="cls-45"
       d="m 97.695126,145.26028 c 0,0 0,0.0529 -0.02646,0.0529 0,0 0,-0.0529 0.02646,-0.0529 z"
       id="path412"
       style="fill:#3b3d3f;stroke-width:0px" />
    <path
       class="cls-45"
       d="m 97.377626,145.55132 c 0,0 0,0 0.02646,-0.0265 z"
       id="path413"
       style="fill:#3b3d3f;stroke-width:0px" />
    <path
       class="cls-45"
       d="M 97.377626,145.57778 Z"
       id="path414"
       style="fill:#3b3d3f;stroke-width:0px" />
    <path
       class="cls-45"
       d="M 97.351167,145.57778 Z"
       id="path415"
       style="fill:#3b3d3f;stroke-width:0px" />
    <path
       class="cls-45"
       d="M 97.351167,145.57778 Z"
       id="path416"
       style="fill:#3b3d3f;stroke-width:0px" />
    <path
       class="cls-45"
       d="M 97.324709,145.60424 Z"
       id="path417"
       style="fill:#3b3d3f;stroke-width:0px" />
  </g>
</svg>
