<?xml version="1.0" encoding="UTF-8" standalone="no"?>
<!-- Created with Inkscape (http://www.inkscape.org/) -->

<svg
   width="26.012136mm"
   height="21.816174mm"
   viewBox="0 0 26.012136 21.816174"
   version="1.1"
   id="svg1"
   inkscape:version="1.3.2 (091e20e, 2023-11-25)"
   sodipodi:docname="eat.svg"
   xmlns:inkscape="http://www.inkscape.org/namespaces/inkscape"
   xmlns:sodipodi="http://sodipodi.sourceforge.net/DTD/sodipodi-0.dtd"
   xmlns="http://www.w3.org/2000/svg"
   xmlns:svg="http://www.w3.org/2000/svg">
  <sodipodi:namedview
     id="namedview1"
     pagecolor="#ffffff"
     bordercolor="#000000"
     borderopacity="0.25"
     inkscape:showpageshadow="2"
     inkscape:pageopacity="0.0"
     inkscape:pagecheckerboard="0"
     inkscape:deskcolor="#d1d1d1"
     inkscape:document-units="mm"
     inkscape:zoom="2.3786088"
     inkscape:cx="49.819037"
     inkscape:cy="41.200554"
     inkscape:window-width="1312"
     inkscape:window-height="449"
     inkscape:window-x="0"
     inkscape:window-y="25"
     inkscape:window-maximized="0"
     inkscape:current-layer="layer1" />
  <defs
     id="defs1" />
  <g
     inkscape:label="Layer 1"
     inkscape:groupmode="layer"
     id="layer1"
     transform="translate(-92.075001,-137.58333)">
    <path
       class="cls-9"
       d="m 95.615521,139.23138 c 0.07937,-0.0265 0.15875,-0.0265 0.264584,-0.0529 -0.07937,0.0265 -0.15875,0.0265 -0.264584,0.0529 0,0 0,-0.0265 0,0 z"
       id="path20"
       style="opacity:0.4;isolation:isolate;fill:#444472;stroke-width:0px" />
    <path
       class="cls-9"
       d="m 96.673855,138.96679 c -0.264584,0.0794 -0.502709,0.15875 -0.79375,0.23813 0.291041,-0.0265 0.555625,-0.10584 0.79375,-0.23813 z"
       id="path21"
       style="opacity:0.4;isolation:isolate;fill:#444472;stroke-width:0px" />
    <g
       id="g42"
       transform="matrix(0.26458333,0,0,0.26458333,53.388022,72.768044)">
      <path
         class="cls-46"
         d="m 175.2,271.8 c 0.7,0 0,-1.3 -0.5,-1.3 -0.7,0 0,1.3 0.5,1.3 z"
         id="path36"
         style="opacity:0.2;isolation:isolate;fill:#8eb49d;stroke-width:0px" />
      <path
         class="cls-46"
         d="m 175.2,271.4 c 0.6,0 0,-0.8 -0.4,-0.8 -0.4,0 0,0.8 0.4,0.8 z"
         id="path37"
         style="opacity:0.2;isolation:isolate;fill:#8eb49d;stroke-width:0px" />
      <path
         class="cls-46"
         d="m 176.6,272.9 c 0.6,0 -0.9,-1.9 -1.5,-1.9 -0.6,0 0.9,1.9 1.5,1.9 z"
         id="path38"
         style="opacity:0.2;isolation:isolate;fill:#8eb49d;stroke-width:0px" />
      <path
         class="cls-46"
         d="m 176.2,272 c 1,0 -0.7,-1.3 -1.1,-1.3 -1,0 0.7,1.3 1.1,1.3 z"
         id="path39"
         style="opacity:0.2;isolation:isolate;fill:#8eb49d;stroke-width:0px" />
      <path
         class="cls-46"
         d="m 175,271.5 c 0.2,0 0.4,-0.5 0.4,-0.5 -0.2,0 -0.4,0.5 -0.4,0.5 z"
         id="path40"
         style="opacity:0.2;isolation:isolate;fill:#8eb49d;stroke-width:0px" />
      <path
         class="cls-46"
         d="m 175.4,272.8 c 0.7,0 0,-1.6 -0.4,-1.6 -0.7,0 0,1.6 0.4,1.6 z"
         id="path41"
         style="opacity:0.2;isolation:isolate;fill:#8eb49d;stroke-width:0px" />
      <path
         class="cls-46"
         d="m 174.8,272 c 0.4,0 0.6,-0.5 0.2,-0.5 -0.4,0 -0.6,0.5 -0.2,0.5 z"
         id="path42"
         style="opacity:0.2;isolation:isolate;fill:#8eb49d;stroke-width:0px" />
    </g>
    <g
       class="cls-83"
       id="g190"
       style="opacity:0.7"
       transform="matrix(0.26458333,0,0,0.26458333,53.388022,72.768044)">
      <g
         id="g189">
        <path
           class="cls-60"
           d="m 169.6,282.6 c 0,-0.4 0,-0.7 -0.4,-1 -0.7,-1.1 -1.4,-2.1 -2.2,-3.2 -0.8,-1 -1.5,-2.1 -2.3,-3.1 -0.2,-0.4 -0.5,-0.6 -0.8,-0.6 0,0.4 0,0.7 0.4,1 0.7,1.1 1.4,2.1 2.2,3.2 0.8,1 1.5,2.1 2.3,3.1 0.2,0.4 0.5,0.6 0.8,0.6 z"
           id="path178"
           style="opacity:0.1;isolation:isolate;fill:#feb086;stroke-width:0px" />
        <path
           class="cls-60"
           d="m 171.1,287 c -0.1,-0.5 -0.4,-0.9 -0.8,-1.3 -1.2,-1.4 -2.4,-2.8 -3.7,-4.2 -1.2,-1.4 -2.5,-2.7 -3.8,-4.1 -0.3,-0.4 -0.7,-0.7 -1.2,-0.9 0.1,0.5 0.4,0.9 0.8,1.3 1.2,1.4 2.4,2.8 3.7,4.2 1.2,1.4 2.5,2.7 3.8,4.1 0.3,0.4 0.7,0.7 1.2,0.9 z"
           id="path179"
           style="opacity:0.1;isolation:isolate;fill:#feb086;stroke-width:0px" />
        <path
           class="cls-60"
           d="m 170.8,281.1 c 0.4,0 -1.2,-2.8 -1.2,-2.7 -0.2,-0.4 -1.1,-2.4 -1.8,-2.4 -0.7,0 1.2,2.8 1.2,2.7 0.2,0.4 1.1,2.4 1.8,2.4 z"
           id="path180"
           style="opacity:0.1;isolation:isolate;fill:#feb086;stroke-width:0px" />
        <path
           class="cls-60"
           d="m 169.5,288.6 c -0.2,-0.5 -0.5,-0.9 -1,-1.2 -1.4,-1.2 -2.9,-2.4 -4.4,-3.6 -1.5,-1.2 -2.9,-2.4 -4.5,-3.5 -0.4,-0.4 -0.8,-0.6 -1.4,-0.7 0.2,0.5 0.5,0.9 1,1.2 1.4,1.2 2.9,2.4 4.4,3.6 1.5,1.2 2.9,2.4 4.5,3.5 0.4,0.4 0.8,0.6 1.4,0.7 z"
           id="path181"
           style="opacity:0.1;isolation:isolate;fill:#feb086;stroke-width:0px" />
        <path
           class="cls-60"
           d="m 170,284.4 c 0,-0.5 -0.2,-0.8 -0.6,-1.2 -0.9,-1.3 -1.9,-2.5 -2.9,-3.8 -1,-1.2 -2,-2.5 -3.1,-3.7 -0.2,-0.4 -0.6,-0.7 -1,-0.8 0,0.5 0.2,0.8 0.6,1.2 0.9,1.3 1.9,2.5 2.9,3.8 1,1.2 2,2.5 3.1,3.7 0.2,0.4 0.6,0.7 1,0.8 z"
           id="path182"
           style="opacity:0.1;isolation:isolate;fill:#feb086;stroke-width:0px" />
        <path
           class="cls-60"
           d="m 169.6,293.5 c 1.5,0 -3.3,-1.8 -2.6,-1.5 -1.8,-0.7 -3.6,-1.3 -5.4,-1.9 -0.9,-0.4 -1.9,-0.6 -2.9,-0.8 -1.5,0 3.3,1.8 2.6,1.5 1.8,0.7 3.6,1.3 5.4,1.9 0.9,0.4 1.9,0.6 2.9,0.8 z"
           id="path183"
           style="opacity:0.1;isolation:isolate;fill:#feb086;stroke-width:0px" />
        <path
           class="cls-60"
           d="m 168.9,290.5 c -0.2,-0.4 -0.6,-0.8 -1,-1 -1.4,-0.9 -2.9,-1.8 -4.4,-2.7 -1.5,-0.9 -2.9,-1.8 -4.4,-2.6 -0.4,-0.3 -0.8,-0.5 -1.3,-0.4 0.2,0.4 0.6,0.8 1,1 1.4,0.9 2.9,1.8 4.4,2.7 1.5,0.9 2.9,1.8 4.4,2.6 0.4,0.3 0.8,0.5 1.3,0.4 z"
           id="path184"
           style="opacity:0.1;isolation:isolate;fill:#feb086;stroke-width:0px" />
        <path
           class="cls-60"
           d="m 171.7,283.4 c 0.3,0 -2.4,-4.5 -2.3,-4.4 -0.3,-0.5 -2,-4 -3,-4 -1,0 2.4,4.5 2.3,4.4 0.3,0.5 2,4 3,4 z"
           id="path185"
           style="opacity:0.1;isolation:isolate;fill:#feb086;stroke-width:0px" />
        <path
           class="cls-60"
           d="m 170.6,291.9 c -0.3,-0.4 -0.6,-0.8 -1.1,-1 -1.6,-1 -3.2,-1.9 -4.9,-2.8 -1.6,-0.9 -3.3,-1.8 -4.9,-2.6 -0.4,-0.3 -0.9,-0.5 -1.4,-0.5 0.3,0.4 0.6,0.8 1.1,1 1.6,1 3.2,1.9 4.9,2.8 1.6,0.9 3.3,1.8 4.9,2.6 0.4,0.3 0.9,0.5 1.4,0.5 z"
           id="path186"
           style="opacity:0.1;isolation:isolate;fill:#feb086;stroke-width:0px" />
        <path
           class="cls-60"
           d="m 169.2,286.5 c -0.1,-0.5 -0.4,-0.9 -0.8,-1.2 -1.2,-1.3 -2.4,-2.5 -3.7,-3.8 -1.2,-1.2 -2.5,-2.5 -3.8,-3.6 -0.3,-0.4 -0.7,-0.7 -1.2,-0.8 0.1,0.5 0.4,0.9 0.8,1.2 1.2,1.3 2.4,2.5 3.7,3.8 1.2,1.2 2.5,2.5 3.8,3.6 0.3,0.4 0.7,0.7 1.2,0.8 z"
           id="path187"
           style="opacity:0.1;isolation:isolate;fill:#feb086;stroke-width:0px" />
        <path
           class="cls-60"
           d="m 171.2,289.5 c -0.2,-0.5 -0.5,-0.9 -1,-1.2 -1.4,-1.3 -2.9,-2.6 -4.4,-3.9 -1.5,-1.3 -3,-2.5 -4.5,-3.8 -0.4,-0.4 -0.8,-0.7 -1.4,-0.8 0.2,0.5 0.5,0.9 1,1.2 1.4,1.3 2.9,2.6 4.4,3.9 1.5,1.3 3,2.5 4.5,3.8 0.4,0.4 0.8,0.7 1.4,0.8 z"
           id="path188"
           style="opacity:0.1;isolation:isolate;fill:#feb086;stroke-width:0px" />
        <path
           class="cls-60"
           d="m 172.1,282 c 0.4,0 -1.5,-3.6 -1.5,-3.5 -0.2,-0.4 -1.3,-3.2 -2.1,-3.2 -0.8,0 1.5,3.6 1.5,3.5 0.2,0.4 1.3,3.2 2.1,3.2 z"
           id="path189"
           style="opacity:0.1;isolation:isolate;fill:#feb086;stroke-width:0px" />
      </g>
    </g>
    <path
       class="cls-35"
       d="m 96.832605,156.00596 c -2.434167,0 -4.180417,-1.34938 -4.656667,-3.30729 -0.185208,-0.76729 -0.105833,-1.48167 0.15875,-2.2225 0.05292,-0.18521 0.132292,-0.21167 0.291042,-0.13229 0.846666,0.26458 1.693333,0.5027 2.54,0.79375 0.238125,0.0794 0.3175,0.0265 0.3175,-0.23813 0,-1.11125 0.264583,-2.16958 1.005416,-3.04271 0.608542,-0.71437 1.349375,-1.11125 2.275417,-1.24354 0.3175,-0.0529 0.370417,-0.10583 0.291042,-0.44979 -0.05292,-0.21167 -0.105834,-0.44979 -0.291042,-0.58208 -0.15875,-0.1323 -0.105833,-0.18521 0,-0.29105 0.370417,-0.29104 0.767292,-0.29104 1.217083,-0.26458 0.132294,0 0.238124,0.0794 0.211664,0.23813 0,0.13229 -0.10583,0.15875 -0.238122,0.15875 -0.820208,0.0265 -0.767292,0.0794 -0.635,0.89958 0,0.10583 0,0.18521 0.15875,0.18521 1.693332,-0.13229 3.201462,1.40229 3.677712,3.06916 0.52916,1.98438 -0.42334,4.23334 -2.80459,4.70959 -0.13229,0 -0.23812,0.0529 -0.34396,0.15875 -0.899579,1.05833 -2.063745,1.50812 -3.148537,1.53458 v 0 z"
       id="path292"
       style="fill:#1f1d0f;stroke-width:0px" />
    <path
       class="cls-68"
       d="m 100.06052,146.71908 c 1.5875,0.23813 2.83104,2.11667 2.98979,3.59834 0.18521,1.74625 -0.76729,3.20146 -2.43416,3.70416 -0.10584,0.0265 -0.21167,0.0794 -0.3175,0.0529 0.0794,-0.3175 0.1852,-0.635 0.23812,-0.92604 0.0794,-0.42333 0.0265,-0.47625 -0.37042,-0.58208 -1.428745,-0.39688 -2.857495,-0.82021 -4.259787,-1.21709 -0.132292,-0.0265 -0.238125,-0.0529 -0.238125,-0.23812 0,-1.53459 0.423333,-2.8575 1.74625,-3.78354 0.423333,-0.29105 0.926042,-0.47625 1.455208,-0.58209 0.07937,0 0.211667,-0.0529 0.264584,0.0529 0.05292,0.13229 -0.105834,0.13229 -0.15875,0.18521 -0.105834,0.0529 -0.211667,0.13229 -0.343959,0.15875 -0.238125,0 -0.185208,0.15875 -0.105833,0.29104 0.07937,0.10583 0.211667,0.15875 0.343958,0.18521 0.396875,0.0794 0.79375,0.0529 1.164164,-0.13229 0.18521,-0.0794 0.3175,-0.21167 0.13229,-0.42334 0,-0.10583 -0.0794,-0.21166 0,-0.29104 v 0 z"
       id="path293"
       style="fill:#75ab88;stroke:#023b49;stroke-width:0.211667px;stroke-miterlimit:10" />
    <path
       class="cls-17"
       d="m 93.445938,153.59825 c 0.105833,-0.13229 -0.05292,-0.21167 -0.105833,-0.29104 -0.449792,-0.74083 -0.661458,-1.53458 -0.502708,-2.40771 0.05292,-0.23812 0.105833,-0.29104 0.343958,-0.21167 1.217083,0.39688 2.460625,0.74084 3.677708,1.11125 0.740833,0.21167 1.481667,0.42334 2.2225,0.635 0.582083,0.15875 0.582083,0.15875 0.582083,0.66146 0,0.50271 0,0 0,0.0265 0,0.0529 0,0.10583 -0.02646,0.15875 -0.132292,0.29104 -0.3175,0.52917 -0.555625,0.74083 -0.05292,0.0529 -0.105833,0.0794 -0.15875,0.1323 0,0 -0.05292,0.0265 -0.07937,0.0529 -0.264583,0.15875 -0.529167,0.34396 -0.79375,0.50271 -0.02646,0 -0.05292,0.0265 -0.105833,0.0265 -1.031875,0.39687 -2.037292,0.42333 -3.042709,-0.0529 -0.105833,-0.0529 -0.211666,-0.0794 -0.3175,-0.10583 -0.15875,-0.0529 -0.291041,-0.10583 -0.396875,-0.21167 -0.211666,-0.26458 -0.502708,-0.47625 -0.740833,-0.71437 0,0 0,-0.0265 0,-0.0265 v 0 z"
       id="path294"
       style="fill:#db5252;stroke-width:0px" />
    <path
       class="cls-68"
       d="m 100.1399,153.01617 c 0.10583,0 0.10583,-0.13229 0.23812,-0.21167 0.0265,0.50271 -0.13229,0.89958 -0.34396,1.27 -0.502705,0.84667 -1.296455,1.32292 -2.222497,1.5875 -2.06375,0.58208 -4.153958,-0.29104 -5.132916,-2.11667 -0.370417,-0.68791 -0.47625,-1.4552 -0.396875,-2.2225 0,-0.13229 -0.02646,-0.34395 0.211666,-0.34395 0.185209,0.29104 0.07937,0.60854 0.07937,0.92604 -0.132291,0.34396 -0.05292,0.68791 0.132292,1.00541 0,0 0.02646,0.0529 0.05292,0.0794 0.02646,0.10583 0.07937,0.21167 0.185208,0.29104 0.105833,0.13229 0.185208,0.29104 0.291041,0.44979 0.02646,0.10584 0.105834,0.21167 0.211667,0.26459 0,0 0.05292,0.0265 0.05292,0.0529 0.15875,0.23813 0.370416,0.37042 0.608541,0.50271 0.02646,0 0.05292,0.0265 0.07937,0.0529 0.07938,0.0794 0.185209,0.13229 0.291042,0.18521 0.02646,0 0.05292,0.0264 0.07937,0.0529 1.640417,0.9525 4.1275,0.47625 5.212292,-1.16416 0.07937,-0.1323 0.15875,-0.26459 0.185208,-0.42334 0.05291,-0.10583 0.07937,-0.23812 0.211661,-0.23812 v 0 z"
       id="path295"
       style="fill:#75ab88;stroke:#023b49;stroke-width:0.211667px;stroke-miterlimit:10" />
    <path
       class="cls-43"
       d="m 93.128438,153.73054 c -0.07937,-0.13229 -0.185208,-0.26458 -0.264583,-0.39687 -0.105833,-0.10584 -0.132292,-0.23813 -0.185208,-0.37042 v 0 c -0.15875,-0.3175 -0.264584,-0.635 -0.211667,-1.00542 0,-0.3175 0,-0.635 0,-0.97895 0,-0.0265 0,-0.0529 0,-0.10584 0.02646,-0.15875 0.05292,-0.42333 0.238125,-0.37041 0.238125,0.0529 0.02646,0.23812 0,0.37041 -0.15875,1.00542 0.02646,1.905 0.714375,2.69875 v 0 c 0.264583,0.23813 0.502708,0.50271 0.820208,0.68792 0.07937,0.0794 0.185208,0.13229 0.291042,0.15875 1.137708,0.635 2.301875,0.66146 3.4925,0.18521 v 0 c 0.291041,-0.15875 0.582083,-0.34396 0.846666,-0.52917 v 0 c 0,-0.0794 0.105834,-0.10583 0.132292,-0.18521 0.291042,-0.15875 0.396875,-0.47625 0.582083,-0.71437 0,-0.0529 0,-0.13229 0.07937,-0.15875 v 0 c 0.105834,-0.0529 0.105834,-0.18521 0.15875,-0.26459 0.05292,-0.0794 0.05292,-0.21166 0.185199,-0.15875 0.15875,0.0529 0.1323,0.15875 0.0794,0.26459 -0.0265,0.0529 -0.0265,0.10583 0,0.13229 -0.0529,0.0794 -0.0794,0.13229 -0.132297,0.21167 -0.714375,1.37583 -1.878542,2.01083 -3.386667,2.11666 -0.661458,0.0529 -1.296458,-0.10583 -1.905,-0.37041 -0.105833,-0.0529 -0.211666,-0.0794 -0.264583,-0.15875 v 0 c -0.105833,-0.0529 -0.238125,-0.0794 -0.3175,-0.18521 v 0 c -0.291042,-0.13229 -0.502708,-0.34396 -0.714375,-0.58209 v 0 c -0.105833,-0.0794 -0.211667,-0.15875 -0.264583,-0.29104 v 0 z"
       id="path296"
       style="fill:#f7f2da;stroke-width:0px" />
    <path
       class="cls-8"
       d="m 100.06052,146.71908 c 0,0.10584 0,0.18521 0,0.29105 -0.158749,-0.21167 -0.423332,-0.0529 -0.582082,-0.21167 -0.02646,-0.0265 -0.105833,-0.0265 -0.105833,-0.10583 0,-0.0794 0.07938,-0.0794 0.15875,-0.0794 0.185208,0 0.370416,0.0265 0.555625,0.0794 v 0 z"
       id="path297"
       style="fill:#f8a51d;stroke-width:0px" />
    <path
       class="cls-43"
       d="m 96.409271,148.9945 c 0.05292,-0.47625 0.264584,-0.89958 0.661459,-1.16417 0.185208,-0.13229 0.449791,-0.13229 0.635,0 0.185208,0.1323 0.264583,0.3175 0.238125,0.52917 -0.07937,0.44979 -0.291042,0.84667 -0.661459,1.11125 -0.185208,0.13229 -0.396875,0.21167 -0.608541,0.10583 -0.211667,-0.10583 -0.3175,-0.3175 -0.291042,-0.58208 v 0 z"
       id="path298"
       style="fill:#f7f2da;stroke-width:0px" />
    <path
       class="cls-35"
       d="m 98.049688,154.63013 c -0.291042,0.23812 -0.635,0.29104 -0.978958,0.34395 -0.846667,0.15875 -1.640417,0 -2.407709,-0.39687 -0.05292,-0.0265 -0.132291,-0.0265 -0.105833,-0.13229 0.105833,0 0.211667,0 0.291042,0.0529 0.978958,0.50271 2.010833,0.50271 3.01625,0.10584 0.05292,0 0.132291,-0.0265 0.185208,0 v 0 z"
       id="path299"
       style="fill:#1f1d0f;stroke-width:0px" />
    <path
       class="cls-35"
       d="m 94.954063,151.852 c -0.02646,0.18521 -0.15875,0.26458 -0.3175,0.29104 -0.07937,0 -0.185208,-0.0265 -0.15875,-0.10583 0.05292,-0.13229 0.105833,-0.29104 0.291042,-0.3175 0.105833,0 0.15875,0.0794 0.185208,0.15875 z"
       id="path300"
       style="fill:#1f1d0f;stroke-width:0px" />
    <path
       class="cls-35"
       d="m 94.107396,152.43408 c -0.05292,0.1323 -0.132291,0.23813 -0.264583,0.26459 -0.105833,0 -0.211667,-0.0265 -0.185208,-0.15875 0,-0.13229 0.07937,-0.21167 0.211666,-0.21167 0.105834,0 0.185209,0 0.238125,0.10583 z"
       id="path301"
       style="fill:#1f1d0f;stroke-width:0px" />
    <path
       class="cls-35"
       d="m 95.747813,151.90492 c 0,0.13229 -0.07937,0.23812 -0.211667,0.26458 -0.105833,0 -0.15875,-0.0529 -0.15875,-0.15875 0,-0.13229 0.07937,-0.23812 0.211667,-0.26458 0.105833,0 0.15875,0.0529 0.15875,0.15875 z"
       id="path302"
       style="fill:#1f1d0f;stroke-width:0px" />
    <path
       class="cls-35"
       d="m 95.721355,153.17492 c -0.132292,0 -0.15875,-0.10584 -0.132292,-0.21167 0,-0.10583 0,-0.23812 0.15875,-0.23812 0.15875,0 0.15875,0.13229 0.15875,0.26458 0,0.10583 -0.05292,0.18521 -0.185208,0.18521 z"
       id="path303"
       style="fill:#1f1d0f;stroke-width:0px" />
    <path
       class="cls-35"
       d="m 94.266146,154.28617 c -0.370416,-0.13229 -0.608541,-0.39688 -0.820208,-0.71438 0.07937,-0.0794 0.132292,0 0.185208,0.0529 0.185209,0.26458 0.502709,0.37042 0.635,0.66146 z"
       id="path304"
       style="fill:#1f1d0f;stroke-width:0px" />
    <path
       class="cls-35"
       d="m 97.414688,152.24888 c 0.105833,0.0529 0.211667,0.10583 0.238125,0.23812 0,0.13229 -0.05292,0.23813 -0.15875,0.21167 -0.132292,0 -0.185208,-0.10584 -0.15875,-0.23813 0,-0.10583 0,-0.18521 0.105833,-0.23812 v 0 z"
       id="path305"
       style="fill:#1f1d0f;stroke-width:0px" />
    <path
       class="cls-35"
       d="m 97.86448,153.38658 c 0,0.10584 -0.02646,0.15875 -0.132292,0.15875 -0.15875,0 -0.211667,-0.13229 -0.211667,-0.26458 0,-0.0794 0,-0.18521 0.105834,-0.15875 0.132291,0 0.211666,0.13229 0.238125,0.26458 z"
       id="path306"
       style="fill:#1f1d0f;stroke-width:0px" />
    <path
       class="cls-35"
       d="m 98.896355,154.10096 c -0.238125,0.26458 -0.502709,0.47625 -0.846667,0.52917 0.238125,-0.23813 0.502708,-0.4498 0.846667,-0.52917 z"
       id="path307"
       style="fill:#1f1d0f;stroke-width:0px" />
    <path
       class="cls-35"
       d="m 97.203021,153.73054 c 0,0.15875 0,0.29104 -0.105833,0.26459 -0.105833,0 -0.132292,-0.15875 -0.132292,-0.26459 0,-0.10583 0,-0.18521 0.132292,-0.15875 0.132292,0 0.132292,0.10584 0.132292,0.15875 v 0 z"
       id="path308"
       style="fill:#1f1d0f;stroke-width:0px" />
    <path
       class="cls-35"
       d="m 95.562605,153.86283 c -0.02646,0.10584 -0.05292,0.23813 -0.211667,0.23813 -0.07937,0 -0.132292,-0.0529 -0.105833,-0.13229 0,-0.10584 0.02646,-0.26459 0.185208,-0.26459 0.07937,0 0.132292,0.0529 0.132292,0.15875 z"
       id="path309"
       style="fill:#1f1d0f;stroke-width:0px" />
    <path
       class="cls-35"
       d="m 95.112813,152.51346 c -0.07937,0 -0.105833,-0.0529 -0.07937,-0.13229 0.02646,-0.10584 0.07937,-0.21167 0.185208,-0.23813 0.105834,0 0.105834,0.0794 0.07937,0.13229 -0.02646,0.10584 -0.105833,0.18521 -0.211666,0.21167 v 0 z"
       id="path310"
       style="fill:#1f1d0f;stroke-width:0px" />
    <path
       class="cls-35"
       d="m 98.34073,153.01617 c 0,0.0794 0,0.13229 -0.105834,0.13229 -0.15875,0 -0.132291,-0.13229 -0.15875,-0.23813 0,-0.0529 0,-0.13229 0.05292,-0.13229 0.132292,0 0.15875,0.10584 0.211667,0.21167 z"
       id="path311"
       style="fill:#1f1d0f;stroke-width:0px" />
    <path
       class="cls-35"
       d="m 93.472396,151.19054 c 0.07937,0 0.15875,0 0.132292,0.0794 -0.02646,0.0794 -0.105833,0.15875 -0.211667,0.18521 -0.07937,0 -0.132291,0 -0.15875,-0.0794 0,-0.15875 0.132292,-0.13229 0.211667,-0.15875 v 0 z"
       id="path312"
       style="fill:#1f1d0f;stroke-width:0px" />
    <path
       class="cls-35"
       d="m 93.41948,152.14304 c -0.105834,0 -0.211667,0 -0.185209,-0.13229 0,-0.13229 0.132292,-0.13229 0.238125,-0.13229 0.105834,0 0.15875,0.0794 0.15875,0.15875 0,0.15875 -0.132291,0.0794 -0.211666,0.10583 z"
       id="path313"
       style="fill:#1f1d0f;stroke-width:0px" />
    <path
       class="cls-35"
       d="m 94.84823,153.49242 c -0.07937,0.0794 -0.105834,0.23812 -0.238125,0.26458 -0.07937,0 -0.105834,-0.0794 -0.07937,-0.13229 0.02646,-0.13229 0.07937,-0.23813 0.211666,-0.26458 0.07937,0 0.105834,0.0529 0.105834,0.13229 z"
       id="path314"
       style="fill:#1f1d0f;stroke-width:0px" />
    <path
       class="cls-35"
       d="m 94.239688,153.30721 c -0.132292,-0.0529 -0.132292,-0.13229 -0.132292,-0.21167 0,-0.10583 0.05292,-0.21166 0.211667,-0.21166 0.07937,0 0.132292,0.0529 0.105833,0.13229 -0.05292,0.10583 -0.105833,0.18521 -0.15875,0.29104 v 0 z"
       id="path315"
       style="fill:#1f1d0f;stroke-width:0px" />
    <path
       class="cls-35"
       d="m 98.869896,153.20138 c 0,0.10583 0,0.15875 -0.105833,0.15875 -0.15875,0 -0.211667,-0.10584 -0.211667,-0.21167 0,-0.0794 0.02646,-0.13229 0.105834,-0.13229 0.132291,0 0.15875,0.10583 0.211666,0.18521 z"
       id="path316"
       style="fill:#1f1d0f;stroke-width:0px" />
    <path
       class="cls-35"
       d="m 96.515105,153.83638 c 0,0.10583 -0.05292,0.1852 -0.15875,0.1852 -0.105834,0 -0.07937,-0.10583 -0.07937,-0.15875 0,-0.0529 0.02646,-0.15875 0.132291,-0.15875 0.07937,0 0.105834,0.0529 0.105834,0.1323 z"
       id="path317"
       style="fill:#1f1d0f;stroke-width:0px" />
    <path
       class="cls-35"
       d="m 99.690105,153.04263 c 0,0.0794 0,0.13229 -0.07937,0.15875 -0.105834,-0.1323 -0.05292,-0.15875 0.07937,-0.15875 z"
       id="path318"
       style="fill:#1f1d0f;stroke-width:0px" />
    <path
       class="cls-35"
       d="m 99.028646,153.91575 c 0,0.0794 0,0.15875 -0.132291,0.15875 -0.07937,-0.13229 0.05292,-0.13229 0.132291,-0.15875 z"
       id="path319"
       style="fill:#1f1d0f;stroke-width:0px" />
    <path
       class="cls-35"
       d="m 94.451355,154.81533 c 0.529166,0.21167 1.058333,0.42334 1.640416,0.47625 1.613959,0.0794 2.883959,-0.47625 3.757084,-1.87854 0.02646,-0.0529 0.05292,-0.13229 0.158745,-0.15875 0.0529,0.21167 -0.105829,0.37042 -0.211662,0.52917 -1.031875,1.48167 -3.227917,2.11667 -4.868333,1.37583 -0.15875,-0.0794 -0.423334,-0.0529 -0.47625,-0.3175 v 0 z"
       id="path320"
       style="fill:#1f1d0f;stroke-width:0px" />
    <path
       class="cls-35"
       d="m 92.46698,151.95783 c 0,0.34396 0.185208,0.66146 0.211667,1.00542 -0.264584,0 -0.238125,-0.26458 -0.238125,-0.39687 -0.02646,-0.21167 -0.211667,-0.42334 0,-0.635 v 0 z"
       id="path321"
       style="fill:#1f1d0f;stroke-width:0px" />
    <path
       class="cls-35"
       d="m 93.393021,154.02158 c 0.238125,0.18521 0.47625,0.39688 0.714375,0.58209 -0.264583,0 -0.661458,-0.3175 -0.714375,-0.58209 z"
       id="path322"
       style="fill:#1f1d0f;stroke-width:0px" />
    <path
       class="cls-35"
       d="m 93.128438,153.73054 c 0.132292,0.0529 0.238125,0.13229 0.264583,0.29104 -0.211666,0 -0.238125,-0.13229 -0.264583,-0.29104 z"
       id="path323"
       style="fill:#1f1d0f;stroke-width:0px" />
    <path
       class="cls-35"
       d="m 94.107396,154.60367 c 0.132292,0.0265 0.238125,0.0794 0.3175,0.18521 -0.185208,0.0529 -0.291041,0 -0.3175,-0.18521 z"
       id="path324"
       style="fill:#1f1d0f;stroke-width:0px" />
    <path
       class="cls-35"
       d="m 92.678647,152.96325 c 0.15875,0.0794 0.105833,0.26458 0.185208,0.37042 -0.132292,-0.0794 -0.238125,-0.18521 -0.185208,-0.37042 z"
       id="path325"
       style="fill:#1f1d0f;stroke-width:0px" />
    <path
       class="cls-63"
       d="m 102.60052,148.33304 c -0.0794,-1.93146 0.23813,-3.83646 1.05833,-5.63562 0.18521,-0.42334 0.42334,-0.82021 0.60855,-1.21709 0.13229,-0.26458 0.10583,-0.47625 -0.15875,-0.66145 -0.39688,-0.26459 -0.50271,-0.635 -0.37042,-1.0848 0.0794,-0.26458 0.10583,-0.52916 0.10583,-0.8202 0.0265,-0.66146 0.55563,-0.9525 1.08479,-1.11125 1.34938,-0.37042 2.69875,-0.26459 3.99521,0.26458 0.60854,0.26458 0.68792,0.50271 0.55563,1.21708 -0.0265,0.15875 0.10583,0.21167 0.15875,0.3175 0.29104,0.44979 0.29104,1.00542 -0.10584,1.34938 -0.44979,0.37041 -0.37041,0.76729 -0.10583,1.13771 1.40229,1.93145 1.64042,4.18041 1.71979,6.42937 0.0265,1.27 0,2.54 -0.0529,3.81 0,1.00542 -0.52917,1.71979 -1.42875,2.06375 -1.85209,0.71438 -3.70417,0.68792 -5.5298,-0.15875 -0.74083,-0.34396 -1.19062,-0.9525 -1.27,-1.79917 -0.13229,-1.34937 -0.26458,-2.67229 -0.26458,-4.07458 v 0 z"
       id="path326"
       style="fill:#060b0c;stroke-width:0px" />
    <path
       class="cls-5"
       d="m 103.36781,151.66679 c 0.0529,-1.37583 -0.0794,-2.77812 0,-4.15396 0.0529,-0.76729 0.10584,-1.50812 0.29104,-2.24895 0.0529,-0.26459 0.1323,-0.52917 0.10584,-0.79375 0.0529,-0.15875 0.21166,-0.23813 0.37041,-0.26459 1.11125,-0.21166 2.2225,-0.29104 3.33375,-0.23812 0.4498,0 0.89959,0.10583 1.34938,0.15875 0.71437,0.0794 1.05833,0.50271 1.19062,1.19062 0.15875,0.74084 0.21167,1.45521 0.3175,2.19604 0,0.0529 0,0.10584 0,0.15875 0.0794,1.13771 0.0529,2.27542 0.0529,3.41313 0,1.13771 0,0.79375 -0.0794,1.19062 -0.0529,0.34396 -0.15875,0.635 -0.3175,0.92605 -0.0265,0.0794 -0.0794,0.13229 -0.15875,0.1852 -1.19063,0.66146 -2.43417,0.84667 -3.75709,0.66146 -0.15875,0 -0.34396,-0.0529 -0.50271,-0.0529 -0.13229,0 -0.23812,-0.0529 -0.34395,-0.10584 -0.37042,-0.21166 -0.74084,-0.37041 -1.13771,-0.55562 -0.10584,-0.0529 -0.18521,-0.10584 -0.26459,-0.21167 -0.0264,-0.0265 -0.0529,-0.0794 -0.0794,-0.10583 0,-0.0265 -0.0529,-0.0794 -0.0529,-0.10584 -0.10583,-0.26458 -0.21166,-0.55562 -0.34396,-0.8202 -0.0529,-0.1323 -0.10583,-0.23813 -0.0265,-0.37042 v 0 z"
       id="path327"
       style="fill:#faf3e0;stroke-width:0px" />
    <path
       class="cls-64"
       d="m 103.36781,151.66679 c 0.0529,0.10584 0.15875,0.21167 0.10584,0.34396 0.0794,0.3175 0.15875,0.635 0.37041,0.87313 v 0 c 0.0265,0 0.0529,0.0529 0.0794,0.0794 0.0794,0.0794 0.15875,0.15875 0.21166,0.26458 0.37042,0.18521 0.71438,0.39688 1.13771,0.50271 0.10584,0 0.21167,0.0265 0.26459,0.10584 1.29645,0.3175 2.56645,0.1852 3.81,-0.29105 0.1852,-0.0794 0.39687,-0.13229 0.47625,-0.34395 v 0 c 0,-0.0265 0.0264,-0.0529 0.0264,-0.0529 0.50271,-0.39688 0.50271,-0.97896 0.50271,-1.50813 0.0265,-1.37583 0.0529,-2.75166 -0.0794,-4.1275 0,-0.0265 0,-0.0529 0,-0.0794 -0.0794,-0.89958 -0.10584,-1.77271 -0.39688,-2.64583 -0.10583,-0.3175 -0.26458,-0.47625 -0.55562,-0.58209 -0.50271,-0.18521 -1.00542,-0.26458 -1.53459,-0.26458 -1.24354,-0.0529 -2.48708,-0.0794 -3.70416,0.29104 -0.10584,0.10583 -0.21167,0.15875 -0.34396,0.18521 -0.23813,0.0529 -0.21167,0.29104 -0.23813,0.44979 -0.3175,1.61396 -0.42333,3.25438 -0.37041,4.89479 0,0.23813 0,0.50271 -0.0529,0.74084 -0.0265,-0.3175 -0.10583,-0.60855 -0.10583,-0.92605 -0.10584,-2.61937 0.0529,-5.18583 1.42875,-7.51416 0,0 0,-0.0265 0.0265,-0.0265 0.44979,-0.87313 0.42333,-1.05833 -0.23813,-1.71979 0.13229,-0.10584 0.29104,-0.0794 0.44979,-0.0529 1.13771,0.3175 2.30188,0.23813 2.93688,0.23813 -0.60854,0.0264 -1.77271,0.0529 -2.88396,-0.21167 -0.18521,-0.0529 -0.34396,-0.10583 -0.47625,0.0265 -0.15875,-0.10584 -0.10583,-0.29104 -0.10583,-0.42334 0.0264,-0.29104 0.10583,-0.42333 0.44979,-0.26458 1.08479,0.47625 2.19604,0.52917 3.33375,0.3175 0.23812,-0.0529 0.47625,-0.10583 0.66146,-0.21167 0.23812,-0.13229 0.44979,-0.21166 0.66145,0.0529 0.21167,0.26458 0.21167,0.52917 0,0.79375 -0.635,0.89958 -0.635,1.08479 0,2.03729 0.84667,1.24354 1.13771,2.64584 1.29646,4.10104 0.21167,1.85209 0.10584,3.73063 0.0529,5.58271 0,0.79375 -0.42333,1.34938 -1.11125,1.61396 -1.74625,0.71438 -3.4925,0.66146 -5.18583,-0.10583 -0.7673,-0.34396 -1.0848,-1.03188 -1.13771,-1.82563 0,-0.15875 0.0794,-0.26458 0.18521,-0.34396 v 0 z"
       id="path328"
       style="fill:#72a8b5;stroke:#023b49;stroke-width:0.211667px;stroke-miterlimit:10" />
    <path
       class="cls-64"
       d="m 108.20969,138.35825 c 0.0794,0 0.15875,0 0.23812,0 0.3175,0.0794 0.66146,0.18521 0.71438,0.52917 0.0529,0.3175 -0.29104,0.42333 -0.52917,0.52916 -1.40229,0.635 -2.80458,0.50271 -4.15396,-0.13229 -0.29104,-0.13229 -0.29104,-0.37041 -0.13229,-0.58208 0.21167,-0.29104 0.50271,-0.44979 0.82021,-0.52917 0.92604,-0.23812 1.87854,-0.15875 2.80458,0.0529 0.0794,0 0.18521,0 0.21167,0.13229 -0.37042,0.21167 -0.76729,0 -1.13771,0 -0.74083,-0.0265 -1.45521,0 -2.14312,0.34396 0,0.0265 -0.0529,0.0794 -0.0794,0.10583 -0.10583,0.23813 0.0794,0.29104 0.21167,0.34396 1.05833,0.34396 2.14312,0.34396 3.20146,0.0265 0.42333,-0.13229 0.42333,-0.3175 0.0529,-0.60854 -0.0794,-0.0529 -0.15875,-0.10584 -0.13229,-0.21167 v 0 z"
       id="path329"
       style="fill:#72a8b5;stroke:#023b49;stroke-width:0.211667px;stroke-miterlimit:10" />
    <path
       class="cls-63"
       d="m 104.1351,144.25846 c 0.50271,-0.34396 1.11125,-0.3175 1.69334,-0.37042 1.05833,-0.10583 2.11666,-0.0265 3.14854,0.15875 0.635,0.13229 1.03187,0.44979 1.11125,1.11125 0.10583,0.76729 0.29104,1.50813 0.18521,2.30188 -0.21167,-0.58209 -0.13229,-1.21709 -0.29104,-1.82563 -0.0529,-0.23812 -0.0529,-0.50271 -0.26459,-0.71437 -0.58208,-0.66146 -0.76729,-0.79375 -1.77271,-0.84667 -1.21708,-0.0794 -2.46062,-0.0794 -3.65125,0.23813 -0.0529,0 -0.10583,0 -0.15875,-0.0265 v 0 z"
       id="path330"
       style="fill:#060b0c;stroke-width:0px" />
    <path
       class="cls-63"
       d="m 110.2999,147.53929 c 0.21166,0.26459 0.10583,0.58209 0.13229,0.84667 0.10583,1.27 0.13229,2.54 0,3.83646 -0.0265,0.3175 -0.13229,0.60854 -0.29104,0.89958 -0.0529,0.0794 -0.1323,0.21167 -0.23813,0.0529 0.3175,-0.42334 0.42333,-0.9525 0.42333,-1.45521 0,-1.27 0.0794,-2.54 -0.0794,-3.81 0,-0.10583 -0.0529,-0.26458 0.0794,-0.34396 v 0 z"
       id="path331"
       style="fill:#060b0c;stroke-width:0px" />
    <path
       class="cls-63"
       d="m 108.3949,145.29033 c -1.48167,0.23813 -2.96334,0.29105 -4.41855,-0.29104 1.45521,0.39688 2.93688,0.3175 4.41855,0.29104 z"
       id="path332"
       style="fill:#060b0c;stroke-width:0px" />
    <path
       class="cls-63"
       d="m 109.8501,153.20138 c 0.15875,0.13229 0,0.23812 -0.0794,0.26458 -1.34938,0.58208 -2.75167,0.89958 -4.20688,0.37042 0.47625,-0.0794 0.92605,0.10583 1.37584,0.10583 1.03187,-0.0265 2.01083,-0.13229 2.88396,-0.71438 v 0 z"
       id="path333"
       style="fill:#060b0c;stroke-width:0px" />
    <path
       class="cls-63"
       d="m 105.29927,153.73054 c -0.44979,0 -0.82021,-0.15875 -1.13771,-0.50271 0.42334,0.0794 0.76729,0.26459 1.13771,0.50271 z"
       id="path334"
       style="fill:#060b0c;stroke-width:0px" />
    <path
       class="cls-63"
       d="m 103.87052,152.88388 c -0.34396,-0.21167 -0.44979,-0.50271 -0.37042,-0.87313 0.21167,0.26458 0.29105,0.58208 0.37042,0.87313 z"
       id="path335"
       style="fill:#060b0c;stroke-width:0px" />
    <path
       class="cls-63"
       d="m 103.9499,152.96325 c 0,-0.0529 -0.0265,-0.0794 -0.0794,-0.10583 0.0265,0.0265 0.0529,0.0529 0.0794,0.10583 z"
       id="path336"
       style="fill:#060b0c;stroke-width:0px" />
    <path
       class="cls-63"
       d="m 104.24094,140.34263 c 0.0794,-0.0529 0,-0.26459 0.23812,-0.21167 1.24354,0.42333 2.54,0.29104 3.81,0.29104 0.0265,0 0.0529,0 0.21167,0.0265 -1.19063,0.23812 -2.24896,0.15875 -3.33375,0 -0.3175,-0.0529 -0.60854,-0.23813 -0.92604,-0.15875 v 0 c 0,0 0,0 0,0 z"
       id="path337"
       style="fill:#060b0c;stroke-width:0px" />
    <path
       class="cls-63"
       d="m 108.20969,138.35825 c 0.18521,0.21167 0.66146,0.18521 0.55562,0.58208 -0.0794,0.37042 -0.47625,0.42334 -0.79375,0.47625 -0.9525,0.18521 -1.905,0.21167 -2.8575,-0.0794 -0.15875,-0.0529 -0.34396,-0.10583 -0.44979,-0.26458 -0.0794,-0.1323 -0.23812,-0.34396 0.10583,-0.3175 0.3175,0.3175 0.71438,0.37041 1.11125,0.44979 0.68792,0.13229 1.34938,0 2.01084,-0.10584 0.13229,0 0.37041,-0.0264 0.37041,-0.21166 0,-0.15875 -0.21166,-0.18521 -0.34395,-0.21167 -0.58209,-0.13229 -1.16417,-0.21167 -1.77271,-0.13229 -0.47625,0.0529 -0.89959,0.23812 -1.37584,0.21167 -0.0264,-0.34396 0.29105,-0.3175 0.4498,-0.34396 0.84666,-0.23813 1.69333,-0.21167 2.56645,-0.0794 0.1323,0 0.26459,0.0265 0.42334,0.0529 v 0 c 0,0 0,0 0,0 z"
       id="path338"
       style="fill:#060b0c;stroke-width:0px" />
    <path
       class="cls-64"
       d="m 104.79656,138.72867 c 1.11125,-0.50271 2.27542,-0.47625 3.41313,-0.15875 0.15875,0.0265 0.39687,0.0794 0.37041,0.29104 0,0.21167 -0.23812,0.23812 -0.39687,0.29104 -1.00542,0.29104 -2.03729,0.29104 -3.04271,0 -0.18521,-0.0529 -0.47625,-0.10583 -0.37042,-0.42333 v 0 c 0,0 0,0 0,0 z"
       id="path339"
       style="fill:#72a8b5;stroke:#023b49;stroke-width:0.211667px;stroke-miterlimit:10" />
    <path
       class="cls-35"
       d="m 101.19823,152.96325 c 1.08479,0.3175 1.77271,1.19063 1.905,2.35479 0.0794,0.635 0,1.27 -0.37042,1.79917 -0.26458,0.37042 -0.635,0.60854 -1.08479,0.74083 -0.29104,0.0794 -0.55562,0.15875 -0.82021,0.3175 -1.349372,0.74084 -2.566455,0.0529 -3.148539,-0.87312 -0.502708,-0.79375 -0.714375,-1.64042 -0.343958,-2.56646 0.291042,-0.71438 0.820208,-1.08479 1.5875,-1.11125 0.02646,0 0.07937,0 0.15875,0 -0.238125,-0.29104 -0.502708,-0.52917 -0.79375,-0.74083 -0.211667,-0.1323 -0.238125,-0.23813 -0.07937,-0.50271 0.105833,-0.18521 0.238125,-0.21167 0.423333,-0.10584 0.185209,0.10584 0.291042,0.29105 0.449792,0.42334 0.423333,-1.00542 1.217092,-1.37584 2.248962,-1.40229 0.0794,0 0.18521,0 0.26458,0.0265 0.15875,0 0.21167,0.10584 0.18521,0.26459 -0.0265,0.47625 -0.15875,0.76729 -0.58209,1.34937 v 0 z"
       id="path340"
       style="fill:#1f1d0f;stroke-width:0px" />
    <path
       class="cls-17"
       d="m 100.61615,153.51888 c -0.1323,0.15875 -0.10584,0.3175 -0.18521,0.44979 -0.0794,0.13229 -0.18521,0.23812 -0.29104,0.34396 -0.0794,0.0794 -0.1323,0.10583 -0.185212,-0.0265 -0.05292,-0.18521 -0.132292,-0.39688 -0.211667,-0.58209 -0.05292,-0.10583 0,-0.13229 0.07937,-0.13229 0.423329,-0.0529 0.793759,-0.18521 1.137699,-0.42333 0.18521,-0.13229 0.34396,0 0.50271,0.0265 0.50271,0.15875 0.84667,0.50271 1.11125,0.9525 0.34396,0.60854 0.52917,1.24354 0.44979,1.93146 -0.0794,0.79375 -0.44979,1.4552 -1.53458,1.74625 -0.23812,0.0529 -0.47625,0.15875 -0.68792,0.26458 -1.005407,0.52917 -2.010824,0.34396 -2.725199,-0.50271 -0.740833,-0.87312 -1.005416,-1.85208 -0.529166,-2.91042 0.3175,-0.71437 0.873125,-0.89958 1.534583,-0.9525 0.05292,0 0.105833,0 0.15875,0.0529 0.132292,0.21167 0.238125,0.42333 0.3175,0.66146 0.02646,0.10583 0,0.13229 -0.105833,0.13229 -0.211667,0.0265 -0.370417,-0.10583 -0.529167,-0.18521 -0.07937,-0.0265 -0.132292,-0.13229 -0.211667,-0.0794 0.238125,0.3175 0.767292,0.47625 1.164167,0.34396 0.449782,-0.15875 0.767282,-0.58209 0.767282,-1.11125 v 0 z"
       id="path341"
       style="fill:#db5252;stroke-width:0px" />
    <path
       class="cls-68"
       d="m 101.0924,151.87846 c 0.15875,-0.10583 0.34395,-0.18521 0.55562,-0.29104 -0.0265,0.635 -0.29104,1.13771 -0.79375,1.48166 -0.29104,0.18521 -0.60854,0.3175 -0.952499,0.39688 -0.15875,0.0529 -0.3175,0.0529 -0.370416,-0.15875 -0.02646,-0.0794 -0.105834,-0.15875 -0.15875,-0.23813 -0.185209,-0.1852 -0.15875,-0.37041 -0.02646,-0.55562 0.423334,-0.74083 1.455205,-1.21708 2.248955,-1.00542 -0.1852,0.13229 -0.34395,0.23813 -0.5027,0.34396 -0.0529,0.10583 -0.18521,0.13229 -0.26459,0.21167 -0.23812,0.15875 -0.44979,0.3175 -0.635,0.50271 -0.0265,0.0264 -0.0794,0.0529 -0.10583,0.10583 0,0 -0.0265,0.0529 -0.0529,0.0529 0,0 -0.0265,0.0264 -0.05291,0.0529 0,0 -0.05292,0.0265 -0.05292,0.0529 -0.05292,0.0265 -0.05292,0.0794 -0.105834,0.10583 0.02646,-0.0265 0.05292,-0.0794 0.105834,-0.10583 0,0 0.05292,-0.0265 0.05292,-0.0529 0,0 0.02645,-0.0265 0.05291,-0.0529 0,0 0.0265,-0.0265 0.0529,-0.0529 0.0265,-0.0529 0.0794,-0.0529 0.10583,-0.10583 0.21167,-0.18521 0.42334,-0.34396 0.66146,-0.50271 0.10583,-0.0265 0.15875,-0.15875 0.29104,-0.15875 z"
       id="path342"
       style="fill:#75ab88;stroke:#023b49;stroke-width:0.211667px;stroke-miterlimit:10" />
    <path
       class="cls-26"
       d="m 99.663646,154.52429 c -0.185208,-0.68791 -0.635,-1.24354 -1.217083,-1.66687 -0.105833,-0.0794 -0.238125,-0.13229 -0.132292,-0.29104 0.105834,-0.18521 0.185209,-0.18521 0.343959,-0.0529 0.555625,0.47625 0.926041,1.08479 1.164166,1.77271 0.05292,0.15875 0.05292,0.15875 -0.15875,0.26458 v 0 z"
       id="path343"
       style="fill:#ca6623;stroke-width:0px" />
    <path
       class="cls-43"
       d="m 98.525938,155.60908 c 0,0.3175 -0.211667,0.58209 -0.449792,0.55563 -0.238125,-0.0265 -0.396875,-0.26458 -0.396875,-0.58208 0,-0.29105 0.185209,-0.52917 0.423334,-0.52917 0.238125,0 0.423333,0.23812 0.423333,0.55562 z"
       id="path344"
       style="fill:#f7f2da;stroke-width:0px" />
    <path
       class="cls-43"
       d="m 98.208438,157.06429 c 0,0.0529 -0.02646,0.10584 -0.105833,0.10584 -0.07937,0 -0.132292,-0.0529 -0.132292,-0.1323 0,-0.0529 0.02646,-0.13229 0.105833,-0.10583 0.07937,0 0.105834,0.0794 0.105834,0.13229 v 0 z"
       id="path345"
       style="fill:#f7f2da;stroke-width:0px" />
    <path
       class="cls-35"
       d="m 100.82781,152.06367 c -0.23812,0.15875 -0.44979,0.34396 -0.68791,0.52916 -0.0265,0 -0.0529,0 -0.0529,-0.0529 0.21167,-0.21167 0.42333,-0.39688 0.68792,-0.52917 0.0264,0 0.0529,0 0.0529,0.0529 z"
       id="path346"
       style="fill:#1f1d0f;stroke-width:0px" />
    <path
       class="cls-35"
       d="m 99.92823,152.8045 c -0.07937,0.10583 -0.15875,0.21167 -0.3175,0.3175 0.05292,-0.18521 0.15875,-0.29104 0.264583,-0.37042 0,0 0.02646,0.0265 0.02646,0.0529 z"
       id="path347"
       style="fill:#1f1d0f;stroke-width:0px" />
    <path
       class="cls-35"
       d="m 100.80135,152.01075 c 0.0794,-0.0794 0.15875,-0.13229 0.26459,-0.18521 0,0 0,0.0265 0.0265,0.0529 -0.0794,0.0794 -0.15875,0.13229 -0.26459,0.18521 0,0 -0.0265,-0.0265 -0.0529,-0.0529 v 0 z"
       id="path348"
       style="fill:#1f1d0f;stroke-width:0px" />
    <path
       class="cls-35"
       d="m 100.1399,152.56638 c -0.0265,0.0264 -0.0529,0.0529 -0.0794,0.0794 0,0 -0.0265,0 -0.0529,-0.0265 0,-0.0529 0.0529,-0.0794 0.10584,-0.0794 0,0 0.0265,0.0265 0.0529,0.0529 v 0 z"
       id="path349"
       style="fill:#1f1d0f;stroke-width:0px" />
    <path
       class="cls-35"
       d="m 99.875313,152.75158 c 0,0 0.02646,-0.0264 0.05292,-0.0529 0,0 0.02646,0.0265 0.02646,0.0529 0,0 -0.02646,0.0265 -0.05292,0.0529 0,0 -0.02646,-0.0265 -0.02646,-0.0529 z"
       id="path350"
       style="fill:#1f1d0f;stroke-width:0px" />
    <path
       class="cls-35"
       d="m 100.0076,152.69867 c 0,0 -0.02645,0.0265 -0.05291,0.0529 0,0 0,-0.0264 -0.02646,-0.0529 0,0 0.02646,-0.0265 0.05292,-0.0529 0,0 0.02645,0.0265 0.02645,0.0529 z"
       id="path351"
       style="fill:#1f1d0f;stroke-width:0px" />
    <path
       class="cls-35"
       d="m 100.06052,152.67221 c 0,0 -0.0265,0.0265 -0.0529,0.0529 0,0 0,-0.0265 -0.02645,-0.0529 0,0 0,0 0.02645,-0.0265 0,0 0.0265,0.0265 0.0529,0.0265 z"
       id="path352"
       style="fill:#1f1d0f;stroke-width:0px" />
    <path
       class="cls-38"
       d="m 114.77135,159.10158 c 0.71438,-0.15875 1.34938,-0.39687 1.95792,-0.79375 1.45521,-0.89958 1.74625,-2.24895 0.84667,-3.6777 -0.3175,-0.50271 -0.71438,-0.92605 -1.13771,-1.32292 -0.13229,-0.13229 -0.26458,-0.15875 -0.42333,-0.0529 -0.1323,0.0794 -0.29105,0.13229 -0.4498,0.15875 -0.44979,0.10584 -0.635,0 -0.74083,-0.44979 -0.0265,-0.13229 -0.0794,-0.18521 -0.18521,-0.23812 -0.76729,-0.3175 -1.48166,-0.39688 -2.24896,0 -0.44979,0.23812 -0.76729,0.15875 -1.08479,-0.23813 -0.0529,-0.0794 -0.13229,-0.18521 -0.23812,-0.15875 -0.55563,0.0529 -1.16417,-0.10583 -1.64042,0.3175 -0.15875,0.13229 -0.26458,0.13229 -0.39687,0 -0.3175,-0.3175 -0.71438,-0.42333 -1.16417,-0.34396 -0.635,0.10584 -1.27,0.15875 -1.71979,0.66146 -0.0529,0.0529 -0.15875,0.0529 -0.23813,0.10583 -0.29104,0.21167 -0.47625,0.10584 -0.58208,-0.21166 -0.0794,-0.26459 -0.21167,-0.3175 -0.47625,-0.23813 -0.89958,0.26459 -1.87854,0.34396 -2.72521,0.79375 -1.56104,0.84667 -1.71979,2.61938 -0.34396,3.70417 0.37042,0.29104 0.76729,0.52917 1.21709,0.635 2.59291,0.66146 5.21229,1.29646 7.88458,1.5875 1.29646,0.13229 2.59292,0.0529 3.83646,-0.3175 v 0 z"
       id="path353"
       style="fill:#0d0a07;stroke-width:0px" />
    <path
       class="cls-65"
       d="m 114.21573,152.88388 c -0.52917,-0.21167 -1.05833,-0.26459 -1.56104,0 -1.08479,0.52916 -1.87854,1.37583 -2.46063,2.43416 -0.10583,0.15875 -0.18521,0.34396 -0.29104,0.52917 -0.18521,0.3175 -0.47625,0.3175 -0.71437,0.0529 -0.21167,-0.23813 -0.21167,-0.50271 -0.18521,-0.79375 0.10583,-1.03188 0.635,-1.79917 1.48166,-2.3548 0.10584,-0.0794 0.21167,-0.13229 0.37042,-0.23812 -0.44979,0 -0.76729,0 -1.11125,0.23812 -0.82021,0.635 -1.29646,1.45521 -1.71979,2.38125 -0.0529,0.1323 -0.13229,0.29105 -0.21167,0.42334 -0.0794,0.13229 -0.21166,0.23812 -0.39687,0.21166 -0.21167,-0.0265 -0.29104,-0.15875 -0.3175,-0.34395 -0.0794,-0.52917 -0.10584,-1.03188 0.10583,-1.56105 0.15875,-0.42333 0.42333,-0.8202 0.68792,-1.27 -0.47625,-0.0529 -0.89959,0 -1.24354,0.3175 -0.60855,0.55563 -1.13771,1.16417 -1.29646,2.01084 -0.0529,0.29104 -0.13229,0.58208 -0.29104,0.82021 -0.18521,0.3175 -0.4498,0.34395 -0.635,0 -0.21167,-0.42334 -0.34396,-0.87313 -0.21167,-1.37584 0.10583,-0.50271 0.3175,-0.92604 0.60854,-1.34937 -0.10583,-0.0794 -0.18521,-0.0529 -0.26458,-0.0265 -0.76729,0.15875 -1.50813,0.37042 -2.2225,0.74083 -1.11125,0.55563 -1.42875,1.61396 -0.74084,2.67229 0.37042,0.58209 0.87313,1.00542 1.53459,1.19063 3.12208,0.82021 6.27062,1.48167 9.49854,1.48167 1.29646,0 2.54,-0.39688 3.73062,-0.87313 1.27,-0.52917 1.66688,-1.87854 1.00542,-3.12208 -0.26458,-0.50271 -0.635,-0.9525 -1.05833,-1.34938 -0.13229,-0.13229 -0.23813,-0.13229 -0.39688,-0.0794 -0.84666,0.29104 -1.64041,0.71437 -2.16958,1.45521 -0.26458,0.37041 -0.52917,0.74083 -0.79375,1.08479 -0.26458,0.3175 -0.60854,0.44979 -0.89958,0.34396 -0.26459,-0.10584 -0.42334,-0.50271 -0.37042,-0.87313 0.0529,-0.50271 0.3175,-0.89958 0.635,-1.27 0.52917,-0.635 1.16417,-1.13771 1.905,-1.53458 v 0 z"
       id="path354"
       style="fill:#e2c289;stroke:#023b49;stroke-width:0.211667px;stroke-miterlimit:10" />
    <path
       class="cls-53"
       d="m 115.0624,153.73054 c -0.10584,-0.13229 -0.21167,-0.21166 -0.26459,-0.3175 -0.15875,-0.39687 -0.37041,-0.39687 -0.68791,-0.18521 -0.79375,0.50271 -1.48167,1.11125 -1.98438,1.905 -0.15875,0.23813 -0.21167,0.52917 -0.18521,0.79375 0,0.21167 0.10584,0.37042 0.3175,0.4498 0.23813,0.0794 0.37042,-0.0265 0.50271,-0.21167 0.10583,-0.15875 0.23813,-0.34396 0.3175,-0.52917 0.44979,-0.84666 1.03188,-1.53458 1.95792,-1.905 v 0 z"
       id="path355"
       style="fill:#e5dccc;stroke-width:0px" />
    <path
       class="cls-53"
       d="m 111.80802,153.06908 c -0.26458,-0.0529 -0.50271,-0.0794 -0.66146,-0.3175 -0.0529,-0.10583 -0.13229,-0.10583 -0.21166,-0.0264 -0.79375,0.60854 -1.50813,1.29645 -1.7198,2.32833 -0.0265,0.15875 -0.0529,0.3175 0,0.47625 0.0529,0.13229 0.1323,0.23812 0.26459,0.26458 0.15875,0.0265 0.21166,-0.0794 0.26458,-0.18521 0.3175,-0.5027 0.635,-1.00541 1.00542,-1.48166 0.29104,-0.37042 0.635,-0.74084 1.03187,-1.03188 v 0 z"
       id="path356"
       style="fill:#e5dccc;stroke-width:0px" />
    <path
       class="cls-53"
       d="m 107.25719,155.29158 c 0.0265,0.10584 0.0529,0.21167 0.18521,0.23813 0.13229,0 0.21166,-0.0794 0.23812,-0.18521 0.0529,-0.13229 0.13229,-0.29104 0.18521,-0.44979 0.18521,-0.66146 0.635,-1.16417 1.05833,-1.69333 0.0794,-0.10584 0.23813,-0.18521 0.0265,-0.34396 -0.18521,-0.13229 -0.3175,-0.47625 -0.635,-0.29104 -0.635,0.39687 -1.24354,1.95791 -1.08479,2.67229 0,0 0,0 0,0.0265 v 0 z"
       id="path357"
       style="fill:#e5dccc;stroke-width:0px" />
    <path
       class="cls-53"
       d="m 105.80198,153.46596 c -0.26458,-0.0529 -0.50271,-0.0265 -0.66146,-0.18521 -0.10583,-0.10583 -0.15875,0 -0.18521,0.0529 -0.26458,0.60854 -0.58208,1.21708 -0.50271,1.905 0,0.10583 0.0265,0.21166 0.10584,0.3175 0.15875,0.21166 0.29104,0.23812 0.37041,-0.0265 0.0529,-0.15875 0.1323,-0.34396 0.18521,-0.52917 0.15875,-0.52916 0.26459,-1.11125 0.68792,-1.56104 v 0 z"
       id="path358"
       style="fill:#e5dccc;stroke-width:0px" />
  </g>
</svg>
