<?xml version="1.0" encoding="UTF-8" standalone="no"?>
<svg
   width="135.73053mm"
   height="48.703457mm"
   viewBox="0 0 135.73053 48.703458"
   version="1.1"
   id="svg1"
   sodipodi:docname="logo.svg"
   inkscape:version="1.3.2 (091e20e, 2023-11-25)"
   xmlns:inkscape="http://www.inkscape.org/namespaces/inkscape"
   xmlns:sodipodi="http://sodipodi.sourceforge.net/DTD/sodipodi-0.dtd"
   xmlns="http://www.w3.org/2000/svg"
   xmlns:svg="http://www.w3.org/2000/svg">
  <sodipodi:namedview
     id="namedview1"
     pagecolor="#ffffff"
     bordercolor="#000000"
     borderopacity="0.25"
     inkscape:showpageshadow="2"
     inkscape:pageopacity="0.0"
     inkscape:pagecheckerboard="0"
     inkscape:deskcolor="#d1d1d1"
     inkscape:document-units="mm"
     inkscape:zoom="0.5946522"
     inkscape:cx="394.34816"
     inkscape:cy="550.7421"
     inkscape:window-width="1440"
     inkscape:window-height="1122"
     inkscape:window-x="0"
     inkscape:window-y="25"
     inkscape:window-maximized="0"
     inkscape:current-layer="g4" />
  <defs
     id="defs1" />
  <g
     id="layer1"
     transform="translate(-17.676744,-2.4624879)">
    <g
       id="g5"
       transform="matrix(0.26458333,0,0,0.26458333,-277.4087,-24.418483)">
      <path
         class="cls-51"
         d="m 1503.0596,108.14166 c -10.83,-1.81 -20.81,4.02 -29.21,10.22 -5.2,3.83 -10.16,8.03 -14.81,12.52 -2.29,2.21 -5.03,4.59 -6.66,7.38 5.02,-4.2 10.04,-8.41 15.06,-12.61 -13.55,-14.72 -33.25,-24.48 -53.48,-24.04 -10.19,0.22 -19.92,3.08 -28.71,8.22 -11.32,6.62 -22.95,16.15 -30.69,26.82 -6.94,9.57 -12.66,20.01 -14.37,31.85 -1.59,11.03 -0.12,23.43 4.55,33.59 8.8,19.17 26.48,34.42 42.88,47.05 9.5,7.32 19.64,13.72 29.98,19.79 9.6,5.64 19.75,10.55 29.07,16.63 2,1.3 11.96,-9.14 13.4,-10.6 0.96,-0.97 -0.35,0.33 0.7,-0.7 0.7,-0.69 1.4,-1.38 2.11,-2.07 0.03,-0.03 1.89,-1.69 1.21,-1.14 3.42,-2.74 7.96,-5.69 12.21,-7.99 12.11,-6.55 25.65,-10.55 39.31,-12.13 25.25,-2.91 51.43,1.25 75.7,8.25 7.3,2.11 15.07,4.26 21.79,7.92 1.47,0.8 7.2,-4.88 8.23,-5.77 0.55,-0.47 7.38,-7.03 6.93,-7.28 -6.71,-3.66 -14.49,-5.82 -21.79,-7.92 -12.85,-3.71 -26.02,-6.42 -39.31,-7.91 -30.06,-3.38 -60.18,0.54 -85.94,17.3 -12.01,7.82 -22.74,17.41 -32.79,27.59 4.47,-3.53 8.93,-7.07 13.4,-10.6 -16.37,-10.66 -34.21,-18.83 -50.31,-30.01 -15.01,-10.41 -29.42,-22.65 -40.93,-36.88 -13.06,-16.16 -19.81,-37.26 -13.52,-57.78 1.38,-4.51 3.35,-8.83 5.66,-12.94 1.38,-2.45 2.89,-4.82 4.48,-7.13 0.89,-1.3 1.8,-2.57 2.75,-3.82 0.43,-0.44 0.84,-0.88 1.25,-1.34 -1.58,1.28 -1.78,1.49 -0.62,0.65 4.2,-1.87 7.9,-4.43 12.35,-5.88 4.93,-1.61 10.08,-2.52 15.26,-2.7 20.44,-0.68 40.44,9.16 54.11,24.02 1.3,1.41 14.09,-10.94 15.06,-12.61 0.04,-0.08 -0.44,0.18 0.47,-0.48 -4.89,3.51 -0.35,0.6 1.39,-0.39 5.71,-3.25 12.13,-5.13 18.7,-4.03 2.24,0.37 6.69,-4.44 8.23,-5.77 1.78,-1.53 3.58,-3.1 5.17,-4.84 0.18,-0.2 2.02,-2.4 1.76,-2.45 h -0.03 z"
         id="path3"
         style="fill:#fac866;stroke-width:0px" />
      <g
         class="cls-33"
         id="g4"
         style="isolation:isolate"
         transform="translate(-10.089932,-3.3633106)">
        <path
           d="M 50.984884,-17.508545 H 20.123155 L 12.092569,0 H 0.37351564 L 36.044259,-76.617395 70.454387,0 H 58.548576 Z M 46.549386,-27.733536 35.857501,-52.2455 24.652032,-27.733536 Z m 41.040033,-44.354982 v 43.421193 q 0,9.291201 3.034814,13.586631 4.528878,6.2096977 12.746217,6.2096977 8.26404,0 12.79292,-6.2096977 3.03481,-4.155361 3.03481,-13.586631 v -43.421193 h 10.87864 V -25.6792 q 0,11.392227 -7.09679,18.7691607 -7.9839,8.217344 -19.60958,8.217344 -11.62567,0 -19.562877,-8.217344 Q 76.710776,-14.286973 76.710776,-25.6792 v -46.409318 z m 79.652211,10.224991 V 0 h -10.87865 v -61.863527 h -16.57475 v -10.224991 h 43.98146 v 10.224991 z m 37.11811,-10.224991 V 0 H 193.4811 v -72.088518 z m 148.19234,54.579973 H 321.69035 L 313.65977,0 H 301.94072 L 337.61146,-76.617395 372.02159,0 H 360.11578 Z M 348.11659,-27.733536 337.4247,-52.2455 326.21923,-27.733536 Z M 405.45121,-30.721661 427.76877,0 h -13.30649 l -20.59005,-29.507735 h -1.96096 V 0 h -10.87864 v -72.088518 h 12.74622 q 14.28697,0 20.63674,5.369288 7.00342,5.97625 7.00342,15.781035 0,7.657071 -4.38881,13.166426 -4.38881,5.509356 -11.57899,7.050108 z m -13.53994,-8.264033 h 3.45502 q 15.45421,0 15.45421,-11.812432 0,-11.065401 -15.034,-11.065401 h -3.87523 z m 86.46889,-22.877833 h -28.90077 v 17.321787 h 28.06036 v 10.224991 h -28.06036 v 24.091758 h 28.90077 V 0 h -39.77942 v -72.088518 h 39.77942 z"
           id="text4"
           style="font-weight:500;font-size:95.62px;font-family:Futura-Medium, Futura;fill:#3a6f7f"
           class="cls-17"
           transform="translate(1125,227.05)"
           aria-label="AUTI   ARE" />
      </g>
    </g>
  </g>
</svg>
