<svg xmlns="http://www.w3.org/2000/svg" xmlns:xlink="http://www.w3.org/1999/xlink" viewBox="0 0 69.234 73.25"><defs><linearGradient id="a" x1="251.39" x2="283.84" y1="12520.16" y2="12520.16" data-name="Gradiente sem nome 30" gradientTransform="matrix(1 0 0 -1 0 12607.98)" gradientUnits="userSpaceOnUse"><stop offset="0" stop-color="#ffeac4"/><stop offset=".76" stop-color="#ffdaae"/><stop offset="1" stop-color="#ffd5a6"/></linearGradient><linearGradient xlink:href="#a" id="c" x1="251.74" x2="283.85" y1="12510.49" y2="12510.49" data-name="Gradiente sem nome 30"/><linearGradient xlink:href="#a" id="d" x1="-7678.52" x2="-7646.08" y1="12519.3" y2="12519.3" data-name="Gradiente sem nome 30" gradientTransform="rotate(180 -3761.045 6303.99)"/><linearGradient xlink:href="#a" id="e" x1="-7678.17" x2="-7646.06" y1="12509.63" y2="12509.63" data-name="Gradiente sem nome 30" gradientTransform="rotate(180 -3761.045 6303.99)"/><linearGradient xlink:href="#a" id="f" x1="204.8" x2="204.8" y1="12593.93" y2="12469.78" data-name="Gradiente sem nome 30"/><linearGradient xlink:href="#a" id="g" x1="143.49" x2="189.12" y1="128.86" y2="128.86" data-name="Gradiente sem nome 30"/><linearGradient xlink:href="#a" id="h" x1="148.62" x2="203.45" y1="250.35" y2="250.35" data-name="Gradiente sem nome 30"/><linearGradient xlink:href="#a" id="i" x1="156.57" x2="166.78" y1="263.04" y2="263.04" data-name="Gradiente sem nome 30" gradientTransform="translate(47.768 111.361)scale(.26458)"/><linearGradient xlink:href="#a" id="j" x1="162.72" x2="172.93" y1="270.77" y2="270.77" data-name="Gradiente sem nome 30" gradientTransform="translate(47.768 111.361)scale(.26458)"/><linearGradient xlink:href="#a" id="b" x1="251.39" x2="283.84" y1="12520.16" y2="12520.16" gradientTransform="matrix(1 0 0 -1 0 12607.98)" gradientUnits="userSpaceOnUse"/></defs><g transform="translate(-69.85 -111.919)"><ellipse cx="104.204" cy="151.962" fill="#f5f2e6" class="cls-8" rx="34.353" ry="32.271"/><path fill="#fd965a" d="M95.816 182.63c-2.445.412-2.368 1.193-3.897 1.203-.982.008-1.159-1.182-2.55-1.984-2.575-1.484-2.062.116-5.385-.78-2.297-.62-6.239-1.517-7.59-4.596-1.316-2.995-.313-5.983 0-6.8.515-1.355 1.539-2.609 2.851-3.3 1.075-.568 3.546-.799 3.832-1.603.092-.26-1.736-.389-1.876-1.077a11 11 0 0 0-.469-1.64c-.412-1.04-.494-3.826.469-6.916.875-2.808 2.368-2.125 3.733-3.138.73-.543 1.037-1.215 1.437-2.104 2.532-5.643 3.153-6.757 4.06-6.874.498-.063.903.194 1.411.519 1.672 1.064 1.94 3.19 2.588 3.104.317-.043.36-.57.751-.612.36-.037.71.363.987.8.431.243 1.058.555 1.847.814.418.138 1.934.609 4.032.503 4.696-.235 8.231-2.916 8.231-2.916 1.291-.979 2.265-2.093 3.443-1.82.481.111.706.386 1.357 1.056 2.37 2.436 4.45 3.72 5.511 5.744.336.64.577.725 1.056 3.019.407 1.944.413 3.699.704 5.305.82 4.527 1.127 6.863 2.58 8.792 1.06 1.407 1.732 1.563 2.579 3.164.26.492 1.648 3.114 1.056 5.863-.926 4.294-5.953 6.197-6.332 6.332-1.098.389-1.01.13-6.202 1.233-.452.095-1.516.325-2.968.603 0 0-1.379.265-2.553.466-1.982.338-2.93-.236-10.3-.876-.292-.027-1.546-1.088-2.551-1.63-.307-.167-.897-.019-1.842.143z" class="cls-2"/><path fill="#020202" d="M95.821 182.648c-.743.13-1.479.33-2.148.688-.333.172-.672.362-1.045.45-.947.225-1.4-.01-1.984-.77-.707-.87-1.718-1.516-2.813-1.754-.749-.109-1.495.238-2.254.148-.767-.037-1.508-.246-2.239-.434-2.518-.654-5.35-1.548-6.786-3.905-1.635-2.884-1.172-7.335 1.143-9.74.548-.553 1.177-1.032 1.926-1.31 1.04-.404 2.236-.48 3.14-1.103a.6.6 0 0 0 .144-.188c.005-.005.01-.026 0 .014 0 .026 0 .047.013.066 0 .008.013.016.01.016-.6-.315-1.547-.297-1.878-1.035-.074-.288-.117-.553-.201-.833-.22-.725-.522-1.46-.535-2.23-.145-1.943.379-6.398 1.99-7.61.92-.685 2.207-.654 2.982-1.553.513-.532.794-1.246 1.114-1.932l.947-2.066c.481-1.03.958-2.064 1.519-3.056.288-.492.584-1.013 1.058-1.357.513-.363 1.193-.17 1.659.153 1.24.635 1.82 1.908 2.495 3.043.479.638.566-.222.995-.365.54-.135.905.431 1.167.807 4.188 2.37 9.866 1.17 13.782-1.527l.092-.066.048-.034a.3.3 0 0 1 .122-.059l-.077.027c1.108-.78 2.26-2.307 3.786-1.789.466.193.783.611 1.125.942q.658.672 1.352 1.307c1.852 1.686 4 3.313 4.89 5.76.822 2.413.8 4.995 1.245 7.467.228 1.238.44 2.479.696 3.706.378 1.826.87 3.654 2.114 5.078.818.929 1.858 1.802 2.37 2.974 1.445 2.863 1.676 6.027-.375 8.673-1.31 1.638-3.1 2.81-5.03 3.572-.595.233-1.248.312-1.873.41-2.487.391-4.953.942-7.437 1.405-.805.135-2.509.476-3.297.529-1.87.032-3.704-.418-5.556-.598-1.067-.12-2.255-.257-3.329-.352l-.555-.053c-.048-.005-.09-.005-.14-.016-.802-.373-1.456-1.021-2.226-1.455-.624-.495-1.431-.114-2.14-.042zm-.007-.04c.714-.076 1.534-.463 2.172.037.725.424 1.368.969 2.087 1.387a.56.56 0 0 0 .257.06l.556.048c1.841.159 3.717.368 5.55.593 1.104.124 2.207.323 3.318.26.736-.035 2.625-.474 3.287-.578 2.161-.45 5.252-1.156 7.405-1.51 1.246-.133 2.403-.58 3.477-1.225 1.069-.627 2.077-1.384 2.87-2.326 2.236-2.535 2.09-5.702.622-8.596-.529-1.178-1.484-1.934-2.323-2.895-1.288-1.455-1.833-3.41-2.198-5.26-.254-1.24-.46-2.482-.683-3.72-.44-2.479-.4-5.019-1.204-7.416-.876-2.395-2.947-3.958-4.76-5.646-.693-.627-1.336-1.347-2.008-1.987-1.376-1.059-2.786.756-3.881 1.495l-.077.026c.01.016.042.003.03.01l-.049.035c-3.069 2.056-6.884 3.257-10.588 2.717a10.2 10.2 0 0 1-3.559-1.233c-.196-.299-.423-.643-.762-.767-.442-.122-.479.402-.839.574-.227.087-.433-.103-.547-.267-.326-.474-.54-1.005-.855-1.48-.397-.637-.929-1.182-1.593-1.542-.664-.455-1.42-.47-1.92.23-1.265 1.765-2.112 4.096-3.049 6.062-.31.683-.584 1.418-1.127 1.995-.759.92-2.074.934-2.981 1.604-.882.711-1.136 1.88-1.41 2.942-.173.73-.302 1.473-.374 2.22-.092 1.106-.132 2.251.151 3.325a13.4 13.4 0 0 1 .558 1.903c.183.362.664.45 1.067.598.243.087.497.116.727.29.08.059.103.212.056.281-.241.506-.858.678-1.31.847-.73.24-1.476.4-2.17.65-.68.255-1.285.71-1.801 1.223-2.427 2.474-2.853 7.612-.516 10.26 1.537 1.689 3.796 2.4 5.948 2.998.73.201 1.455.416 2.206.46.762.096 1.498-.24 2.262-.116a5.15 5.15 0 0 1 2.853 1.797c.566.73.979.981 1.92.76.368-.083.699-.268 1.038-.44.674-.355 1.418-.556 2.164-.68z" class="cls-7"/><g transform="translate(47.768 111.361)scale(.26458)"><path fill="#444472" d="M172.1 111.69c.27-.09.55-.09.82-.18-.27.09-.55.09-.82.18 0 0 0-.09 0 0m3.38-.92c-.82.27-1.64.55-2.56.73.91-.09 1.74-.37 2.56-.73" class="cls-3" opacity=".41" style="isolation:isolate"/><path fill="url(#b)" stroke="#3a342a" stroke-miterlimit="10" stroke-width=".25" d="m264.62 65.63-13.22 44.4s28.81-2.36 32.11-20.78-18.9-23.62-18.9-23.62z" class="cls-24"/><path fill="#023b49" d="m258.71 104.12 1.42 31.17s-5.19 9.44-8.97 0l-.47-28.34.94-5.19 4.72-2.83" class="cls-4"/><g fill="#fffdfa"><path d="M217.77 17.98c-3.76 7-7.61 13.86-12.66 20.05-1.72 2-3.43 4-5.15 6-3.58 3.88-7.42 7.47-11.53 10.78-.37.32.9.11.75.13.52-.07 1.6-.13 2.01-.51 5.9-5.34 11.59-10.72 16.42-17.11 4.82-6.38 8.74-13.05 12.56-19.99.2-.37-.7-.05-.69-.06-.35.09-1.51.33-1.71.7h.01z" class="cls-17" opacity=".18" style="isolation:isolate"/><path d="M218.38 19.6c-3.76 7-7.61 13.86-12.65 20.05-1.71 2-3.43 4-5.14 6a106.6 106.6 0 0 1-11.51 10.77c-.34.3.78.13.66.15.46-.06 1.37-.13 1.74-.46 5.98-5.33 11.74-10.72 16.62-17.13 4.81-6.33 8.81-13.06 12.65-20.02.2-.37-.69-.05-.68-.06-.35.09-1.49.32-1.68.69z" class="cls-17" opacity=".18" style="isolation:isolate"/><path d="M217.68 16.83c-3.76 7-7.6 13.85-12.64 20.04-1.71 2-3.43 4-5.14 6-3.58 3.88-7.42 7.47-11.53 10.78-.36.31.87.12.73.14.5-.06 1.55-.13 1.95-.49 5.86-5.32 11.5-10.69 16.29-17.06 4.75-6.32 8.7-13.03 12.49-19.97.12-.22-1.91.12-2.13.54z" class="cls-17" opacity=".18" style="isolation:isolate"/><path d="M217.13 22.03c-2.62 4.52-5.23 9.04-7.85 13.56-2.18 3.29-4.59 6.4-7.22 9.33-4.31 5.04-9 9.36-14.01 13.72-.41.36 1.14.06.95.09.66-.11 2.07-.17 2.6-.64 6.04-5.39 11.85-10.83 16.78-17.32 4.85-6.39 8.89-13.2 12.81-20.2.03-.04-2.11.54-2.1.53-.44.15-1.7.4-1.97.91z" class="cls-17" opacity=".18" style="isolation:isolate"/><path d="M217.63 20.28c-3.74 7.01-7.57 13.86-12.62 20.05-1.71 2-3.42 3.99-5.13 5.99-3.57 3.87-7.4 7.45-11.49 10.76-.39.34 1 .09.83.11.57-.08 1.79-.15 2.25-.56 5.99-5.37 11.76-10.78 16.65-17.23 4.81-6.34 8.81-13.08 12.67-20.04.23-.42-.91.02-.88.01-.44.12-2.03.44-2.27.9z" class="cls-17" opacity=".18" style="isolation:isolate"/><path d="M217.36 18.85c-3.75 7.02-7.6 13.87-12.65 20.06l-5.15 6c-3.58 3.87-7.42 7.46-11.53 10.77-.39.34 1.04.08.87.11.59-.08 1.88-.15 2.35-.58 5.93-5.36 11.65-10.77 16.5-17.19 4.84-6.41 8.76-13.07 12.6-20.02.22-.4-.86 0-.83 0-.42.12-1.9.41-2.14.85z" class="cls-17" opacity=".18" style="isolation:isolate"/><path d="M218.25 21.59c-3.74 7-7.56 13.85-12.6 20.04l-5.12 5.99c-3.56 3.87-7.38 7.45-11.47 10.76-.36.31.87.11.73.13.51-.07 1.53-.14 1.94-.51 6.05-5.36 11.88-10.77 16.82-17.24 4.84-6.34 8.86-13.08 12.73-20.06.23-.41-.88.01-.85 0-.43.12-1.94.43-2.18.87z" class="cls-17" opacity=".18" style="isolation:isolate"/></g><g fill="#feb086" class="cls-31" opacity=".72"><path d="M143.88 82.92c.03-.37-.09-.71-.36-1a78 78 0 0 0-2.21-3.17c-.75-1.05-1.53-2.07-2.34-3.07-.2-.35-.48-.57-.84-.65-.03.37.09.71.36 1a78 78 0 0 0 2.21 3.17c.75 1.05 1.53 2.07 2.34 3.07.2.35.48.57.84.65m1.42 4.39c-.1-.51-.36-.94-.76-1.29-1.19-1.42-2.41-2.81-3.66-4.18-1.23-1.38-2.49-2.74-3.78-4.07-.31-.44-.72-.74-1.21-.89.1.51.36.94.76 1.29 1.19 1.42 2.41 2.81 3.66 4.18 1.23 1.38 2.49 2.74 3.78 4.07.31.44.72.74 1.21.89m-.24-5.88c.42 0-1.22-2.83-1.16-2.74-.25-.43-1.06-2.36-1.81-2.36-.42 0 1.22 2.83 1.16 2.74.25.43 1.06 2.36 1.81 2.36m-1.32 7.52c-.19-.49-.52-.88-.98-1.17a152 152 0 0 0-4.36-3.62c-1.46-1.19-2.95-2.36-4.46-3.49-.39-.39-.84-.63-1.36-.71.19.49.52.88.98 1.17 1.43 1.23 2.88 2.44 4.36 3.62 1.46 1.19 2.95 2.36 4.46 3.49.39.39.84.63 1.36.71m.51-4.23c-.03-.45-.22-.84-.56-1.17a97 97 0 0 0-2.93-3.77c-.99-1.25-2.01-2.47-3.05-3.67-.25-.4-.59-.67-1.03-.8.03.45.22.84.56 1.17a97 97 0 0 0 2.93 3.77c.99 1.25 2.01 2.47 3.05 3.67.25.4.59.67 1.03.8m-.45 9.12c1.46 0-3.29-1.77-2.61-1.51-1.78-.67-3.57-1.32-5.37-1.94q-1.38-.555-2.85-.84c-1.46 0 3.29 1.77 2.61 1.51 1.78.67 3.57 1.32 5.37 1.94q1.38.555 2.85.84m-.68-2.98c-.22-.43-.55-.75-1.02-.96-1.44-.93-2.9-1.84-4.37-2.71-1.47-.89-2.95-1.75-4.45-2.57-.4-.31-.84-.46-1.32-.44.22.43.55.75 1.02.96 1.44.93 2.9 1.84 4.37 2.71 1.47.89 2.95 1.75 4.45 2.57.4.31.84.46 1.32.44" class="cls-18" opacity=".11" style="isolation:isolate"/><path d="M145.92 83.74c.26 0-2.41-4.55-2.34-4.44-.29-.46-2.02-4.04-2.98-4.04-.26 0 2.41 4.55 2.34 4.44.29.46 2.02 4.04 2.98 4.04m-1.11 8.53c-.27-.44-.65-.77-1.15-.98-1.6-.95-3.21-1.88-4.85-2.77-1.62-.91-3.27-1.79-4.92-2.63-.44-.32-.92-.47-1.44-.46.27.44.65.77 1.15.98 1.6.95 3.21 1.88 4.85 2.77 1.62.91 3.27 1.79 4.92 2.63.44.32.92.47 1.44.46m-1.32-5.49c-.12-.48-.38-.88-.79-1.19q-1.815-1.92-3.72-3.75c-1.25-1.24-2.53-2.45-3.83-3.64-.32-.4-.73-.66-1.21-.77.12.48.38.88.79 1.19q1.815 1.92 3.72 3.75c1.25 1.24 2.53 2.45 3.83 3.64.32.4.73.66 1.21.77m1.94 3.04a2.55 2.55 0 0 0-.99-1.24c-1.44-1.32-2.91-2.61-4.4-3.88-1.48-1.28-2.98-2.53-4.5-3.76-.39-.41-.84-.68-1.37-.79.19.51.52.92.99 1.24 1.44 1.32 2.91 2.61 4.4 3.88 1.48 1.28 2.98 2.53 4.5 3.76.39.41.84.68 1.37.79m.89-7.49c.38 0-1.54-3.65-1.48-3.53-.22-.41-1.33-3.18-2.14-3.18-.38 0 1.54 3.65 1.48 3.53.22.41 1.33 3.18 2.14 3.18" class="cls-18" opacity=".11" style="isolation:isolate"/></g><path fill="url(#c)" d="M251.74 107.88s28.81-2.36 32.11-20.78" class="cls-12"/><path fill="#3a342a" d="M251.74 110.13c13.09-1.13 29.47-7.12 32.46-21.44.16-.75-.31-5.06-.7-3.18-2.84 13.56-19.53 19.07-31.76 20.12-.82.07-.63 4.55 0 4.5" class="cls-1"/><path fill="url(#d)" stroke="#3a342a" stroke-miterlimit="10" stroke-width=".25" d="m143.21 66.49 13.22 44.4s-28.81-2.36-32.11-20.78 18.9-23.62 18.9-23.62z" class="cls-25"/><path fill="url(#e)" d="M156.09 108.74s-28.81-2.36-32.11-20.78" class="cls-15"/><path fill="#3a342a" d="M156.09 106.49c-12.23-1.05-28.93-6.56-31.76-20.12-.4-1.89-.86 2.42-.7 3.18 2.99 14.32 19.37 20.32 32.46 21.44.61.05.83-4.43 0-4.5" class="cls-1"/><g fill="#feb086"><path d="M125.36 82.87c-.61 1.26-.97 2.05-1.09 3.44-.24 2.68.68 4.52 1.91 6.91.58 1.13 2.83-.42 3.34-.71s3.02-1.39 2.37-2.47c-1.37-2.25-1.93-3.64-.4-6.21.67-1.11-.82-1.35-1.56-1.43s-4.11-.51-4.58.46h.01z" class="cls-18" opacity=".11" style="isolation:isolate"/><path d="M126.02 78.95c-.81 1.87-1.34 2.8-1.11 4.99s1.02 3.74 2.09 5.76c.69 1.3 3.53 0 2.93-1.36-1.64-2.58-1.71-5.38-.2-8.41.88-1.84-3.25-2.05-3.71-.99z" class="cls-18" opacity=".11" style="isolation:isolate"/><path d="M127.45 82.15c-.58 1.29-.9 2.09-1 3.5-.19 2.67.7 4.51 1.91 6.89.51 1.01 2 .03 2.58-.29s2.17-1.07 1.59-2.05c-1.52-2.54-2.16-4.11-.7-7.08.45-.92-.34-1.31-1.11-1.43-.66-.1-2.89-.38-3.27.46" class="cls-18" opacity=".11" style="isolation:isolate"/><path d="M130.72 85.41c-.5 1.22-.78 2.04-.86 3.36-.16 2.57.66 4.45 1.72 6.8.5 1.1 2.47-.24 2.97-.51.4-.22 2.75-1.34 1.98-2.27-2.21-1.83-2.78-3.98-1.68-6.44.37-.9-.25-1.3-1.05-1.42-.62-.09-2.74-.34-3.07.49z" class="cls-18" opacity=".11" style="isolation:isolate"/><path d="M130.5 82.28c-.73 1.83-1.2 2.8-1 4.9.21 2.23.93 3.72 1.88 5.74.64 1.37 3.96-.26 3.21-1.52-2.14-2.55-2.53-5.27-1.18-8.17.68-1.71-2.47-2.07-2.91-.95m-7.97-4.37c-.91 1.88-1.51 2.76-1.27 5.03.25 2.33 1.08 3.8 2.19 5.85.73 1.35 4-.21 3.54-1.65q-1.935-4.02.69-8.22c.58-1-.56-1.34-1.3-1.44s-3.43-.48-3.87.42h.02z" class="cls-18" opacity=".11" style="isolation:isolate"/><path d="M122.88 81.92c-.65 1.28-1.06 2.06-1.2 3.5q-.315 1.365.18 2.7c.18 1.59.8 3.02 1.87 4.29.63 1.15 3.11-.55 3.64-.84.58-.32 3.25-1.43 2.67-2.61-1.35-1.86-1.27-3.87.24-6.05.86-1.21-1.26-1.38-1.88-1.43q-1.815-.12-3.63-.03c-.7-.07-1.33.09-1.89.47" class="cls-18" opacity=".11" style="isolation:isolate"/><path d="M126.96 86.43c-.57 1.18-.95 1.99-1.12 3.29-.34 2.63.43 4.52 1.45 6.96.53 1.26 4.31-1.18 4.63-1.36.1-.06 4.6-2.19 3.67-3.13q-2.94-2.07-1.2-4.86c.77-1.24-1.2-1.36-1.9-1.42-1.22-.07-2.43-.06-3.65 0-.7-.07-1.33.1-1.89.49v.03z" class="cls-18" opacity=".11" style="isolation:isolate"/><path d="M129.61 78.25c-.66 1.8-1.01 2.98-.83 4.95.21 2.29.98 3.61 2.06 5.56.25.45.47.89 1.06.62.55-.26.45-.74.21-1.21l-1.56-7.51-.18.79.96-2.24c.55-1.28-1.29-2.16-1.72-.96" class="cls-18" opacity=".11" style="isolation:isolate"/><path d="M124.12 84.92c-.63 1.22-1.06 2.02-1.23 3.39-.23.89-.21 1.78.07 2.67.11 1.6.66 3.06 1.66 4.38.61 1.25 4.29-1.18 4.67-1.38.25-.14 4.53-2.07 3.71-3.15-1.3-1.72-1.97-2.91-.45-4.97.95-1.29-1.59-1.38-2.14-1.42-1.38-.07-2.75-.07-4.13 0-.78-.07-1.5.09-2.15.48z" class="cls-18" opacity=".11" style="isolation:isolate"/><path d="M127.67 76.6c-.68 1.82-1.03 2.98-.82 4.99.26 2.49 1.18 3.83 2.42 5.96.2.34.53.43.84.18.37-.3.17-.7 0-1.08-1.98-3.25-2.12-6.28-.42-9.07.64-1.41-1.6-2.14-2.03-.97h.01z" class="cls-18" opacity=".11" style="isolation:isolate"/><path d="M121.19 79.82c-.68 1.32-1.1 2.1-1.22 3.59-.2.94-.12 1.85.24 2.75.22 1.6.88 3.03 1.99 4.28.64 1.08 2.62-.29 3.22-.61.76-.42 2.67-1.17 2.26-2.38q-1.71-3.285.9-6.6c.89-1.2-1.29-1.39-1.87-1.44-1.21-.08-2.42-.1-3.64-.04-.7-.08-1.33.08-1.89.46h.01z" class="cls-18" opacity=".11" style="isolation:isolate"/></g><g fill="#feb086"><path d="M272.48 85.76q2.805 1.755 3 4.95c.09.6.04 1.73.76 1.95.47.15.95-.15 1.01-.73.47-4.13 1.12-6.89-.19-10.94-1.14-3.53-3.25-5.5-5.63-8.26-.82-.95-2.65.5-1.67 1.14 3.85 3.11 5.84 6.96 5.97 11.56l-.14-1.71c-.07 1.13-.13 2.27-.2 3.4l1.72-1.3c-1.2-3.15-2.66-5.08-5.36-7.09-1.27-.94-.99 1.88-.97 2.07.21 1.41.48 3.99 1.69 4.96z" class="cls-18" opacity=".11" style="isolation:isolate"/><path d="M273.36 82.21c2.17 1.29 3.3 3.32 3.39 6.1.14 1.11 1.8 1.14 1.91 0l.48-4.89c.07-2.67-.38-5.22-1.36-7.67-1.54-4.74-.28-1.45-5.31-7.34-.56-.66-2.56-.02-1.7.59l3.63 2.59-.88-.91c1.87 2.39 2.92 5.08 3.16 8.08.49 2.69.51 5.38.07 8.07h1.91c-.56-3.29-1.64-5.33-4.35-7.48-.49-.39-1.26-.13-1.54.38s.17 2.13.61 2.48z" class="cls-18" opacity=".11" style="isolation:isolate"/><path d="M274.83 85.15c1.63 1.1 2.63 2.57 3.02 4.41l-.53-2.69.5 3.38c.09.59.07 1.52.76 1.72.43.13.95-.1 1.01-.65.39-1.89.59-3.8.61-5.72.12-2.41-.38-4.65-1.49-6.72-.23-.79-.56-1.53-.99-2.21-1.3-1.6-2.62-3.19-3.98-4.74-.77-.9-2.65.36-1.7 1.03 5.25 3.67 6.06 8.21 5.7 14.12l1.72-1.16c-.59-1.74-1.22-3.3-2.42-4.73-1-1.19-1.51-1.57-2.86-2.63-1.21-.94-1.01 1.78-.98 1.96.2 1.37.49 3.69 1.64 4.63z" class="cls-18" opacity=".11" style="isolation:isolate"/><path d="M277.64 88.78c1.53.87 2.51 2.18 2.92 3.93-.27-1.61-.54-3.22-.82-4.82l.93 6.55c.22 1.56 1.45 1.42 1.59-.07.38-4.06.9-7.96-.55-11.89-.36-.98-.87-2.3-1.47-3.15-.9-1.29-2.61-2.42-3.79-3.46-1.4-1.22-2.68 1.27-1.39 1.78.86.34 1.73.68 2.59 1.02l-.81-.97c1.63 2.66 2.82 5.52 3.58 8.58-.14-.93-.27-1.87-.41-2.8l.24 6.27 1.23-5.7c-.51-1.11-1-2.15-1.68-3.18-1.16-1.76-2.51-2.9-4.22-4.16s-.6 3.51-.63 3.36c.41 1.95.9 3.89 1.45 5.8.18 1.07.59 2.04 1.22 2.9h.02z" class="cls-18" opacity=".11" style="isolation:isolate"/><path d="M277.76 85.3c1.62 1.08 2.62 2.54 3.01 4.37-.19-.95-.38-1.9-.57-2.84.17 1.16.35 2.32.52 3.49.09.59.08 1.56.78 1.77a.78.78 0 0 0 1.01-.68c.45-3.85 1.06-6.51-.08-10.32-1.08-3.61-3.42-6.19-5.76-8.97-.78-.93-2.67.36-1.71 1.07l2.88 2.15-.56-.57c1.42 1.52 2.32 3.25 2.69 5.22.69 2.28.91 4.63.66 7.06l1.71-1.2c-.61-1.85-1.26-3.5-2.51-5.04-1.02-1.26-1.54-1.68-2.93-2.8-1.28-1.03-.94 2.07-.92 2.15.24 1.48.56 4.11 1.8 5.15h-.02z" class="cls-18" opacity=".11" style="isolation:isolate"/><path d="M270.1 80.95c2.32 1.48 3.47 3.61 3.46 6.39.07.56.75.61 1.18.54.64-.1.72-.4.78-1.02.39-4.13.75-5.45-.15-9.7-1.36-6.39-1.6-4.46-6.1-9.79-.48-.56-2.52-.08-1.68.52 1.33.93 2.66 1.87 3.99 2.8l-1.19-1.06c3.56 5.01 4.6 10.75 3.12 17.23l1.96-.48c-.2-1.52-.25-2.65-1.1-4.02s-1.75-2.13-3.05-3.15c-.93-.74-2.3.89-1.22 1.75z" class="cls-18" opacity=".11" style="isolation:isolate"/><path d="m270.28 84.93 3.03 4.47-.48-2.43c.15 1.06.3 2.12.46 3.18.08.56.13 1.69.98 1.72s.88-1.26.93-1.75c.42-3.76.9-5.83-.15-9.66-.53-1.38-1.09-2.75-1.69-4.1a75 75 0 0 1-4.2-4.89c-.66-.79-2.62.2-1.69.86 1.16.82 2.32 1.65 3.48 2.47l-.93-.86c2.81 4 3.89 8.4 3.24 13.18l1.73-1.08c-.57-1.57-1.16-2.99-2.27-4.28-.95-1.09-1.47-1.43-2.76-2.38-1.07-.79-1.1 1.37-1.07 1.68.14 1.22.39 3.03 1.4 3.84v.03z" class="cls-18" opacity=".11" style="isolation:isolate"/><path d="M273.33 89.73c1.57.9 2.56 2.25 2.96 4.06l-.84-5.42.96 7.28c.23 1.79 1.45 1.66 1.59-.06.18-2.1.35-4.19.53-6.29-.04-1.09-.19-2.17-.44-3.24-.22-1.29-.32-2.37-.84-3.55-.43-.96-.92-2.29-1.72-3.03-.98-.9-2.2-1.65-3.28-2.44-1.71-1.24-2.48 1.73-1.33 1.99l2.48.56-.55-.59c1.85 2.83 3.08 5.95 3.7 9.36-.28-1.64-.56-3.28-.83-4.92l.27 6.72 1.22-6.62c-.65-1.35-1.45-2.59-2.41-3.74a14 14 0 0 0-3.57-2.92c-1.78-1.23-.6 3.61-.61 3.54.43 2.08.92 4.14 1.48 6.19.18 1.14.6 2.17 1.24 3.1v.02z" class="cls-18" opacity=".11" style="isolation:isolate"/><path d="M276.66 81.54c2.17 1.27 3.29 3.29 3.37 6.07.12.91 1.82.88 1.91-.02.16-1.59.31-3.19.47-4.78.07-2.68-.38-5.25-1.35-7.72-1.51-4.75-.31-1.57-5.3-7.39-.2-.23-1.3-.45-1.57-.28-.24.15-.46.58-.14.8 1.3.95 2.6 1.89 3.9 2.84l-1.13-1.12c1.9 2.43 2.96 5.18 3.16 8.24.49 2.76.51 5.52.04 8.28l1.91-.02c-.24-1.7-.3-2.58-1.17-4.17-.81-1.49-1.82-2.35-3.13-3.4-.46-.37-1.28-.08-1.54.39s.15 1.94.57 2.28m-5.72 6.18 3.18 6.21c.19 1.42 1.45 1.34 1.59-.04.39-3.79 1.24-7.9-.37-11.59-.44-1.07-.97-2.09-1.6-3.06q-1.89-2.01-3.72-4.08c-1.05-1.17-2.63.99-1.61 1.54l3.04 1.64-.97-.81c1.96 2.59 3.16 5.51 3.61 8.78l-.25-2.32-.06 3.12 1.35-2.66c-.47-.9-.93-1.76-1.51-2.6-1.1-1.58-2.37-2.57-3.96-3.68s-.84 2.62-.82 2.7c.29 1.54.65 3.07 1.08 4.58.12.87.47 1.62 1.03 2.27z" class="cls-18" opacity=".11" style="isolation:isolate"/><path d="M274.6 79.36q3.375 2.04 3.63 6.39c.08.68 1.95.67 2.01-.01.38-4.25.75-5.41-.16-9.78-1.36-6.48-1.56-4.57-6.08-9.92-.46-.55-2.5-.15-1.68.44l3.98 2.88-1.16-1.09c3.62 5.08 4.65 10.91 3.09 17.48h2.01c-.22-1.94-.15-2.46-1-4.15-.8-1.57-1.59-2.16-2.92-3.24-.58-.47-2.57.33-1.71 1zm-5.95 3.32c1.82 1.18 2.99 2.87 3.49 5.08l-.35-1.52.35 2.9c.16 1.34 1.76 1.47 1.91.02.68-3.4.65-6.8-.08-10.19-.28-.84-.55-1.68-.84-2.52 0-.95-.29-1.75-.85-2.38a32.7 32.7 0 0 1-4.41-4.78c-.58-.68-2.57.06-1.69.68l3.63 2.52-.91-.88c1.82 2.32 2.87 4.94 3.16 7.86.49 2.59.53 5.19.1 7.78l1.91.02c-.26-1.34-.48-2.45-1.08-3.67-.83-1.72-1.92-2.73-3.41-3.94-.46-.38-1.32-.22-1.55.36s.13 2.24.62 2.65z" class="cls-18" opacity=".11" style="isolation:isolate"/></g><g fill="#feb086"><path d="M134.13 85.46c1.36 0 .21-1.74-.03-2.05-.7-.87-2.13-2.73-3.4-2.73-1.36 0-.21 1.74.03 2.05.7.87 2.13 2.73 3.4 2.73m1.12-3.46c2.09 0 .61-2.92-.68-2.92-2.09 0-.61 2.92.68 2.92" class="cls-18" opacity=".11" style="isolation:isolate"/><path d="M136.55 84.84c1.44 0 .09-1.86-.14-2.14-.75-.91-2.34-2.99-3.68-2.99-1.44 0-.09 1.86.14 2.14.75.91 2.34 2.99 3.68 2.99" class="cls-18" opacity=".11" style="isolation:isolate"/><path d="M139.54 88.39c2.06 0-1.14-3.15-1.21-3.22a91 91 0 0 0-4.27-4.27 6.74 6.74 0 0 0-2.56-1.87c-2.06 0 1.14 3.15 1.21 3.22a91 91 0 0 0 4.27 4.27c.71.83 1.57 1.46 2.56 1.87m.02-3.33c1.68 0-.31-2.28-.48-2.47q-1.35-1.485-2.85-2.82c-.49-.59-1.1-.96-1.82-1.12-1.68 0 .31 2.28.48 2.47q1.35 1.485 2.85 2.82c.49.59 1.1.96 1.82 1.12" class="cls-18" opacity=".11" style="isolation:isolate"/><path d="M131.76 80.69c.7 0 1.76-1.75.5-1.75-.7 0-1.76 1.75-.5 1.75m.26 3.93c1.04 0 .56-1.35.29-1.73-.56-.77-1.45-1.8-2.46-1.8s-.56 1.35-.29 1.73c.56.77 1.45 1.8 2.46 1.8" class="cls-18" opacity=".11" style="isolation:isolate"/><path d="M134.62 88.77c1.9 0-.74-2.77-.86-2.9-1.15-1.27-2.36-2.5-3.61-3.67a5.2 5.2 0 0 0-2.22-1.57c-1.9 0 .74 2.77.86 2.9 1.15 1.27 2.36 2.5 3.61 3.67.61.73 1.35 1.25 2.22 1.57m3.9-7.5c.63 0 1.27-.4 1.11-1.14-.13-.6-1.56-2.16-2.2-2.16s-1.27.4-1.11 1.14c.13.6 1.56 2.16 2.2 2.16" class="cls-18" opacity=".11" style="isolation:isolate"/><path d="M132.34 87.22c1.54 0-.04-2.03-.26-2.29-.76-.88-1.58-1.71-2.44-2.49-.43-.53-.97-.85-1.62-.95-1.54 0 .04 2.03.26 2.29.76.88 1.58 1.71 2.44 2.49.43.53.97.85 1.62.95m4.32-7.68c1.32 0 1.39-2.21.02-2.21s-1.39 2.21-.02 2.21" class="cls-18" opacity=".11" style="isolation:isolate"/><path d="M130.36 82.61c1.49 0 1.28-2.34-.08-2.34-1.49 0-1.28 2.34.08 2.34" class="cls-18" opacity=".11" style="isolation:isolate"/></g><g fill="#feb086"><path d="M135.98 83.14c1.36 0 .21-1.74-.03-2.05-.7-.87-2.13-2.73-3.4-2.73-1.36 0-.21 1.74.03 2.05.7.87 2.13 2.73 3.4 2.73m1.12-3.45c2.09 0 .61-2.92-.68-2.92-2.09 0-.61 2.92.68 2.92" class="cls-18" opacity=".11" style="isolation:isolate"/><path d="M138.4 82.53c1.44 0 .09-1.86-.14-2.14-.75-.91-2.34-2.99-3.68-2.99-1.44 0-.09 1.86.14 2.14.75.91 2.34 2.99 3.68 2.99" class="cls-18" opacity=".11" style="isolation:isolate"/><path d="M141.39 86.08c2.06 0-1.14-3.15-1.21-3.22a91 91 0 0 0-4.27-4.27 6.74 6.74 0 0 0-2.56-1.87c-2.06 0 1.14 3.15 1.21 3.22a91 91 0 0 0 4.27 4.27c.71.83 1.57 1.46 2.56 1.87m.02-3.34c1.68 0-.31-2.28-.48-2.47q-1.35-1.485-2.85-2.82c-.49-.59-1.1-.96-1.82-1.12-1.68 0 .31 2.28.48 2.47q1.35 1.485 2.85 2.82c.49.59 1.1.96 1.82 1.12" class="cls-18" opacity=".11" style="isolation:isolate"/><path d="M133.61 78.38c.7 0 1.76-1.75.5-1.75-.7 0-1.76 1.75-.5 1.75m.26 3.93c1.04 0 .56-1.35.29-1.73-.56-.77-1.45-1.8-2.46-1.8s-.56 1.35-.29 1.73c.56.77 1.45 1.8 2.46 1.8" class="cls-18" opacity=".11" style="isolation:isolate"/><path d="M136.47 86.45c1.9 0-.74-2.77-.86-2.9-1.15-1.27-2.36-2.5-3.61-3.67a5.2 5.2 0 0 0-2.22-1.57c-1.9 0 .74 2.77.86 2.9 1.15 1.27 2.36 2.5 3.61 3.67.61.73 1.35 1.25 2.22 1.57m3.9-7.49c.63 0 1.27-.4 1.11-1.14-.13-.6-1.56-2.16-2.2-2.16s-1.27.4-1.11 1.14c.13.6 1.56 2.16 2.2 2.16" class="cls-18" opacity=".11" style="isolation:isolate"/><path d="M134.19 84.91c1.54 0-.04-2.03-.26-2.29a27 27 0 0 0-2.45-2.49c-.43-.53-.97-.85-1.62-.95-1.54 0 .04 2.03.26 2.29.76.88 1.58 1.71 2.45 2.49.43.53.97.85 1.62.95m4.32-7.69c1.32 0 1.39-2.21.02-2.21s-1.39 2.21-.02 2.21" class="cls-18" opacity=".11" style="isolation:isolate"/><path d="M132.21 80.3c1.49 0 1.28-2.34-.08-2.34-1.49 0-1.28 2.34.08 2.34" class="cls-18" opacity=".11" style="isolation:isolate"/></g><path fill="#3a342a" d="M265.71 78.06c-.28 25.05-16.5 47.51-39.96 56.12-23.46 8.6-50.68 1.69-67.19-17.03a59.96 59.96 0 0 1-15.02-39.09c-.03-2.66-2.01-2.7-1.98 0 .29 26.3 15.85 50.78 40.79 60.22 24.95 9.44 54.6 1.48 71.44-19.75 9.14-11.53 13.73-25.83 13.9-40.47.03-2.67-1.95-2.69-1.98 0" class="cls-1"/><circle cx="204.8" cy="76.13" r="62.07" fill="url(#f)" class="cls-13"/><path fill="#3a342a" d="M182.32 99.37c1.53 2.7 5.26 4.03 7.99 5.05a50.8 50.8 0 0 0 11.79 2.83c3.24.37 6.42-.04 9.61-.62 3.81-.69 7.61-1.62 11.26-2.91 2.74-.97 6.64-2.24 7.85-5.18.74-1.78-2.16-2.56-2.89-.8.11-.28-.14.13-.06.05-.15.15-.28.3-.44.44-.34.3-.82.59-1.28.85-1.26.71-2.62 1.26-3.98 1.74-3.33 1.18-6.78 2.05-10.24 2.72-2.74.53-5.55 1.01-8.35.84-3.56-.22-7.12-1.1-10.51-2.18-1.78-.57-3.54-1.22-5.2-2.09-1.08-.56-2.44-1.34-2.96-2.25-.95-1.68-3.55-.17-2.59 1.51" class="cls-1"/><g fill="#feb086" class="cls-31" opacity=".72"><path d="m176.76 96.36 1.84-.64c-2.81-2.13-5.61-4.26-8.42-6.4-1.37.49-2.74.99-4.12 1.48 1.69 2.27 3.39 4.53 5.08 6.8l4.22-3.19c.41-.31-3.03-3.45-2.99-3.42-.35-.34-2.67-3.12-3.52-2.87l-3.76 1.1c1.23 2.23 2.47 4.45 3.7 6.68 3.03-1.4 6.05-2.8 9.08-4.2-1.81-2.14-3.61-4.28-5.42-6.42-3 3-6.01 6-9.01 9-.56.56.77 3.39.91 3.78-.02-.05 1.21 3.8 1.62 3.54 4.5-2.83 9-5.66 13.49-8.49-1.59-2.18-3.19-4.35-4.78-6.53l-9.25 7.24c-.61.48.44 3.44.53 3.83-.02-.06.84 3.88 1.27 3.65 3.97-2.1 7.95-4.19 11.92-6.29l-3.95-6.91-8.04 9.65c-.64.77-.04 3.12.05 3.9-.01-.12.45 4.03.8 3.82 3.78-2.31 7.57-4.62 11.35-6.94-1.1-2.39-2.2-4.77-3.29-7.16l-4.75 5.69c-.67.8-.21 3.05-.17 3.91 0-.12.24 4.06.58 3.87 3.8-2.08 7.59-4.17 11.39-6.25l-2.82-7.31c-1.3 1.5-2.61 2.99-3.91 4.49-.7.8-.37 3.01-.37 3.91 0 .18-.26 3.79.38 3.91l3.56.66c.4.07-.59-4.17-.56-4.05-.12-.5-.48-3.62-1.3-3.88l-1.71-.55v7.82c2.25-1.66 4.49-3.33 6.73-4.99.56-.42-.97-3.56-1.06-3.79.02.05-1.34-3.79-1.76-3.52-2.99 1.93-5.98 3.86-8.98 5.79.14 2.59.28 5.18.41 7.78 2.54-2.1 5.09-4.2 7.63-6.31.53-.44-1.2-3.52-1.31-3.74.02.04-1.58-3.71-1.99-3.42l-8.9 6.38.84 7.71 11.15-10.45c.66-.62-3.58-7.13-3.95-6.91-3.26 1.91-6.51 3.81-9.77 5.72l1.8 7.48c4.08-2.73 8.16-5.46 12.24-8.2.44-.3-4.19-6.94-4.78-6.53l-11.24 7.7c.84 2.44 1.69 4.88 2.53 7.32 3.97-3.3 7.94-6.6 11.9-9.9.44-.37-2.4-3.42-2.42-3.45-.12-.15-2.4-3.29-3-2.97-2.45 1.31-4.91 2.63-7.36 3.94-.5.27 1.5 3.48 1.52 3.52.13.23 1.5 3.31 2.18 3.16 2.19-.5 4.38-.99 6.57-1.49-2.17-2.1-4.34-4.19-6.51-6.29l-2.79 2.68c-.46.44 2.16 3.53 2.24 3.63.21.29 2.08 3.37 2.84 3.18l7.46-1.89c-.1-.39-.33-.69-.7-.91-1.07-.89-2.16-1.76-3.28-2.59-1.1-.85-2.23-1.67-3.37-2.46-.31-.3-.66-.44-1.06-.43l-1.5.27c.08.39.3.7.66.94 1.02.94 2.07 1.85 3.14 2.74 1.06.9 2.14 1.77 3.24 2.62.29.31.64.47 1.04.48z" class="cls-18" opacity=".11" style="isolation:isolate"/><path d="m177.94 100.59 1.88-.65-12.66-6.65-4.16 1.59 8.95 7 4.26-3.26c.28-.21-4.98-3.58-4.85-3.5-1.33-.85-2.67-1.66-4.04-2.45-.37-.3-.77-.44-1.22-.41l-3.9 1.27c2.41 2.2 4.83 4.4 7.24 6.6 3.07-1.42 6.14-2.84 9.21-4.27-2.87-2.19-5.74-4.38-8.6-6.57l-8.75 8.27c-.63.6 4.91 8.31 5.33 8.05 4.59-2.85 9.17-5.71 13.76-8.56-2.4-2.43-4.81-4.85-7.21-7.28-3.06 2.35-6.12 4.69-9.17 7.04-.55.42 1.58 4.19 1.66 4.35 0 0 1.84 4.29 2.34 4.02l12.2-6.35c-1.91-2.68-3.82-5.36-5.72-8.05-2.42 3.09-4.84 6.19-7.25 9.28-.64.82.42 3.9.57 4.62-.02-.12.95 4.68 1.3 4.47 3.9-2.33 7.79-4.66 11.69-6.99-1.26-2.95-2.53-5.91-3.79-8.86-1.35 1.96-2.7 3.92-4.05 5.89-.72 1.05-.29 3.52-.26 4.63 0-.14.19 4.77.49 4.61 3.91-2.09 7.81-4.17 11.72-6.26-.71-3.09-1.43-6.17-2.14-9.26l-3.54 5.25c-.33.49-1.81 8.74-1.03 8.96l3.73 1.04c.37.1-.14-5.16-.13-5.03-.02-.2-.15-4.84-.88-4.95l-1.49-.23c-.41 3.06-.82 6.12-1.24 9.17 2.24-1.65 4.48-3.3 6.71-4.96.66-.49-.62-4.36-.7-4.71.03.12-1.09-4.76-1.44-4.54-3.27 2.09-6.54 4.19-9.81 6.28.08 3.08.15 6.16.23 9.24 2.53-2.09 5.07-4.17 7.6-6.26.57-.47-1.45-4.36-1.55-4.58.03.08-1.84-4.56-2.24-4.28-3.26 2.25-6.51 4.5-9.77 6.76.62 3.03 1.25 6.06 1.87 9.09 3.7-3.44 7.41-6.88 11.11-10.33.48-.45-2.5-4.16-2.56-4.24-.05-.06-2.62-4.12-3.17-3.8L164 96.82c1.33 2.79 2.67 5.58 4 8.37l12.39-8.13c.4-.26-3.4-3.97-3.34-3.9-.11-.11-3.29-3.76-3.87-3.37-3.96 2.6-7.92 5.19-11.88 7.79 1.78 2.68 3.55 5.37 5.33 8.05 4.01-3.25 8.02-6.5 12.02-9.75.35-.28-4.17-3.66-4.07-3.59-.3-.23-3.76-3.4-4.53-2.99-2.62 1.41-5.24 2.82-7.85 4.24-.36.19 3.46 3.67 3.37 3.58.45.41 2.91 3.24 3.88 3.02 2.25-.5 4.51-1.01 6.76-1.51l-10.11-6.36-3.1 2.62c-.35.3 4.33 3.87 4.24 3.8 1.17.93 2.37 1.83 3.59 2.7.32.32.69.49 1.12.5 2.62-.65 5.25-1.29 7.87-1.94-.28-.44-.68-.76-1.19-.96-1.64-.93-3.29-1.83-4.97-2.7-1.66-.88-3.34-1.74-5.04-2.56-.45-.31-.94-.45-1.47-.43l-1.56.26c.26.45.64.78 1.15 1 1.59.98 3.21 1.93 4.84 2.85 1.62.94 3.26 1.84 4.92 2.71q.66.48 1.44.48z" class="cls-18" opacity=".11" style="isolation:isolate"/><path d="m178.02 94.35 1.6-.8c.41-.21-2.16-2.58-2.1-2.52-.24-.23-2-2.29-2.62-1.98l-4.06 2.04c.53 1.44 1.05 2.87 1.58 4.31l4.03-2.81c.37-.26-2.5-4.26-3.28-3.95-1.25.51-2.51 1.01-3.76 1.52l.58 3.78c2.91-1.29 5.82-2.57 8.73-3.86-.91-1.22-1.81-2.44-2.72-3.66l-9.96 9.75c-.43.42.44 3.93.65 3.8 4.5-2.79 9-5.58 13.51-8.38-.79-1.16-1.57-2.32-2.36-3.48-3.42 2.6-6.84 5.2-10.25 7.8-.43.33-.18 1.85-.16 2.31 0 .14.03 1.68.39 1.49 3.96-2.04 7.93-4.07 11.89-6.11l-1.98-3.54c-3.11 3.35-6.21 6.71-9.32 10.06-.45.49-.55 4.17.11 3.77 3.73-2.24 7.46-4.47 11.19-6.71l-1.76-3.55-5.58 5.82c-.46.48-.81 4.17-.14 3.81 3.7-1.99 7.4-3.99 11.1-5.98-.54-1.19-1.08-2.38-1.61-3.57l-4.53 4.47c-.29.29-1.19 3.74-.52 3.91 1.14.3 2.29.59 3.43.89.46.12-.03-2.29-.02-2.24-.08-.44-.15-1.94-.77-2.11l-1.93-.53-.52 3.91c2.16-1.58 4.32-3.16 6.48-4.73.61-.45-1.21-3.82-1.61-3.57-3.12 1.91-6.23 3.83-9.35 5.74l-.14 3.81c2.5-2.03 4.99-4.06 7.49-6.09.59-.48-1.38-3.81-1.76-3.55-3.18 2.16-6.36 4.32-9.53 6.48.04 1.26.07 2.52.11 3.77l11.19-10.29c.53-.48-1.49-3.82-1.98-3.54-3.32 1.92-6.65 3.83-9.97 5.75l.23 3.8c4.07-2.67 8.14-5.35 12.21-8.02.51-.33-1.85-3.83-2.36-3.48-3.88 2.64-7.75 5.28-11.63 7.92l.65 3.8c3.96-3.26 7.92-6.51 11.88-9.77.47-.39-2.13-3.99-2.72-3.66-2.19 1.24-4.39 2.49-6.58 3.73-.62.35.04 3.89.58 3.78l6.46-1.35c-1.09-1.32-2.19-2.63-3.28-3.95l-2.33 2.45c-.5.53.94 4.47 1.58 4.31 2.4-.61 4.8-1.23 7.2-1.84-1.58-1.5-3.15-3-4.73-4.5l-1.3.37c-.41.12 2 2.79 1.93 2.71.18.2 1.89 2.51 2.49 2.21z" class="cls-18" opacity=".11" style="isolation:isolate"/><path d="m176.34 102.23 1.88-.63c-4.4-1.55-8.79-3.1-13.19-4.65-1.61.59-3.23 1.18-4.84 1.76 3.4 1.67 6.81 3.34 10.21 5.01l4.01-3.21c-.25-.36-.6-.6-1.06-.71-1.44-.6-2.89-1.17-4.36-1.71q-2.19-.825-4.41-1.56c-.42-.22-.84-.27-1.27-.15l-4.53 1.72c3 1.37 5.99 2.74 8.99 4.11l8.94-4.14c-3.41-1.24-6.81-2.48-10.22-3.72-3.51 2.86-7.03 5.72-10.54 8.58-.31.25 4.17 2.93 4.06 2.86.38.23 3.69 2.68 4.44 2.22 4.56-2.83 9.13-5.66 13.69-8.5-3.24-1.25-6.48-2.51-9.72-3.76-3.8 2.58-7.6 5.16-11.39 7.74-.27.18 4.15 2.62 4.02 2.55.53.28 3.51 2.34 4.38 1.89 4.03-2.09 8.05-4.19 12.08-6.28l-9.5-3.54c-3.37 3-6.74 5.99-10.11 8.99-.33.29 3.93 2.86 3.83 2.8.37.23 3.49 2.61 4.23 2.16l11.56-6.97-9.2-3.94c-2.17 1.73-4.33 3.46-6.5 5.19-.33.27 3.8 2.93 3.71 2.87.38.25 3.36 2.66 4.12 2.24 3.84-2.12 7.67-4.24 11.51-6.36-3-1.43-6-2.85-9-4.28l-5.36 3.87c-.28.2 2.4 2.19 2.67 2.39.86.65 1.74 1.28 2.62 1.89q.885.705 1.92 1.17l3.13.65c.4.08.28 0 .21-.28l-.59-.6c-.76-.63-1.54-1.23-2.33-1.82-1.21-.92-2.43-1.82-3.67-2.69-.42-.29-1.19-.97-1.78-.92l-2.17.2c2.5 1.81 5 3.63 7.51 5.44 2.28-1.68 4.57-3.36 6.85-5.04.25-.18-4.46-2.54-4.34-2.48-1.18-.57-2.38-1.11-3.59-1.62-.35-.22-.7-.28-1.07-.18-3.45 1.84-6.89 3.68-10.34 5.52l7.83 5.11c2.62-2.12 5.25-4.24 7.87-6.36.24-.19-4.58-2.37-4.45-2.32a69 69 0 0 0-3.67-1.48c-.36-.21-.72-.25-1.08-.14-3.47 1.98-6.95 3.96-10.42 5.94l8.06 4.97c3.85-3.47 7.7-6.95 11.55-10.42.23-.21-4.75-2.17-4.62-2.12q-1.875-.72-3.78-1.32c-.37-.19-.73-.22-1.1-.09-3.66 1.79-7.32 3.59-10.98 5.38l8.4 4.44c4.24-2.81 8.48-5.61 12.72-8.42-.2-.34-.5-.57-.91-.67q-1.89-.825-3.81-1.56-1.92-.765-3.87-1.41c-.37-.2-.75-.24-1.13-.12-4.15 2.39-8.31 4.79-12.46 7.18l8.5 5.08c4.09-3.31 8.18-6.62 12.26-9.93.19-.15-5.11-2.26-4.98-2.22-1.34-.5-2.7-.97-4.06-1.4-.39-.2-.78-.24-1.17-.11l-7.71 3.75c.16.34.43.58.82.7 1.16.6 2.33 1.16 3.52 1.7.96.44 3.42 2.03 4.65 1.71l6.63-1.71-11.09-4.13-3.13 2.32c-.22.16 5.07 2.91 4.94 2.84 1.34.67 2.7 1.31 4.07 1.91.38.25.78.33 1.2.26l7.83-2.13a2.32 2.32 0 0 0-1.28-.77c-1.72-.67-3.45-1.31-5.19-1.91-1.73-.62-3.48-1.21-5.24-1.76-.48-.24-.98-.31-1.48-.21l-1.62.28c.31.4.73.67 1.25.8 1.68.72 3.37 1.4 5.08 2.05 1.7.67 3.41 1.3 5.14 1.9.47.25.96.33 1.46.25z" class="cls-18" opacity=".11" style="isolation:isolate"/><path d="m176.86 98.02 1.95-.58c-3.54-2.33-7.08-4.65-10.62-6.98-1.38.46-2.76.93-4.14 1.39l7.16 7.5 4.22-3.28c.36-.28-4.07-3.82-3.98-3.74a86 86 0 0 0-3.39-2.67c-.3-.32-.66-.48-1.07-.49-1.26.34-2.53.68-3.79 1.03l5.63 7.4c3.05-1.43 6.1-2.86 9.16-4.29-2.37-2.4-4.73-4.8-7.1-7.2-2.91 2.86-5.81 5.72-8.72 8.58-.55.54 1.49 4.12 1.62 4.39-.02-.04 1.86 4.35 2.3 4.07 4.53-2.84 9.06-5.68 13.6-8.52l-6.08-7.59c-3.03 2.36-6.07 4.72-9.1 7.07-.6.47 1 4.19 1.1 4.47-.02-.06 1.36 4.47 1.81 4.23l12.03-6.33c-1.65-2.71-3.29-5.43-4.94-8.14l-7.64 9.47c-.67.83.23 3.84.36 4.61-.02-.13.76 4.69 1.1 4.49 3.82-2.32 7.64-4.64 11.47-6.96l-3.83-8.58c-1.5 1.91-3 3.81-4.5 5.72-.72.91-.11 3.69-.04 4.62 0-.13.39 4.74.71 4.56 3.83-2.09 7.67-4.18 11.5-6.28l-3.03-8.82c-1.24 1.53-2.47 3.07-3.71 4.6-.77.95-.38 3.58-.38 4.61 0 .17-.3 4.48.37 4.61 1.21.24 2.42.48 3.64.72.36.07-.68-4.95-.65-4.82-.1-.46-.53-4.4-1.39-4.66l-1.58-.47c0 3.07 0 6.14-.01 9.22l6.75-5c.6-.45-1.08-4.29-1.16-4.53.03.09-1.48-4.54-1.87-4.29-3.05 1.97-6.1 3.95-9.15 5.92.23 3.06.45 6.12.68 9.18 2.55-2.1 5.1-4.2 7.65-6.31.56-.46-1.48-4.24-1.57-4.45.03.07-1.86-4.42-2.26-4.14l-9.1 6.46c.49 3.03.97 6.06 1.46 9.09 3.71-3.47 7.42-6.95 11.12-10.42.51-.48-2.06-4.12-2.15-4.27-.02-.03-2.27-4.17-2.79-3.87-3.33 1.92-6.67 3.85-10 5.77l2.91 8.7c4.09-2.73 8.18-5.46 12.27-8.18.3-.2-5.34-8.08-6.08-7.59l-11.43 7.65c1.31 2.82 2.61 5.64 3.92 8.46l11.9-9.83c.42-.34-3.31-3.9-3.28-3.87-.17-.17-3.15-3.69-3.82-3.34-2.56 1.37-5.12 2.73-7.69 4.1-.45.24 2.55 3.97 2.51 3.93.23.31 2.31 3.66 3.11 3.47 2.2-.51 4.41-1.01 6.61-1.52l-8.45-6.91-2.94 2.68c-.42.39 3.32 4.02 3.31 4.01.34.35 2.95 3.72 3.85 3.49l7.59-1.92c-.19-.43-.5-.76-.95-.98-1.36-.97-2.75-1.91-4.15-2.82-1.39-.93-2.81-1.82-4.24-2.69-.38-.32-.81-.48-1.28-.48l-1.54.25c.17.44.47.77.9 1.01 1.31 1.01 2.64 2 3.99 2.95 1.34.97 2.7 1.91 4.08 2.83.36.33.78.51 1.24.52v-.02z" class="cls-18" opacity=".11" style="isolation:isolate"/><path d="m176.68 107.26 1.92-.58c-3.66-.05-7.31-.09-10.97-.14l-4.2 2.65 7.28-.04c1.42-.93 2.85-1.85 4.27-2.78.98-.64-2.6-.16-2.1-.22-1.3.17-2.6.36-3.89.59-.69.07-1.35.23-1.99.48l-3.07 2.6c-1.09.93.67.4 1.08.23 3.73-1.59 7.46-3.19 11.19-4.78-1.57.43-3.14.86-4.72 1.29-3.25 3.49-6.49 6.99-9.74 10.48-.95 1.02.79.21 1.03.05 4.75-3.02 9.5-6.05 14.27-9.07l-2.41.7-7.79 6.25c-.77.61-1.25 1.82-1.65 2.68.08-.17-.74 1.63-.04 1.2 3.6-2.21 7.2-4.43 10.8-6.64l1.06-2.01-9.34 9.22c-.62.61-.78 2.1-.94 2.9 0-.04-.36 1.59.25 1.14 3.18-2.33 6.36-4.65 9.53-6.98l2.33-3.92-7.32 6.33c-.55.47-.43 2.39-.45 3.01 0 .16-.14 1.47.44 1.08 3.08-2.05 6.15-4.1 9.23-6.15.73-1.43 1.46-2.86 2.19-4.3l-6.72 5.15c-.34.26-.27 4.28.25 4.21l1.39-.19c.52-.07 2.55-3.19 2.24-3.27-1.23-.29-2.46-.58-3.7-.87.08 1.4.17 2.81.25 4.21 1.47-1.74 2.94-3.48 4.41-5.23.74-.87 1.44-2.02 1.89-3.06.04-.09.58-1.29 0-.96-3.81 2.12-7.61 4.24-11.42 6.36v4.09c1.96-2.47 3.92-4.93 5.89-7.4.54-.67 1.62-1.81 1.91-2.66.03-.1.33-.9-.13-.61-3.84 2.37-7.68 4.74-11.52 7.12l-.69 4.04c4.02-4.77 8.03-9.54 12.05-14.32-.08.09.53-.94-.03-.64-4.05 2.16-8.1 4.31-12.15 6.47l-1.69 3.88c4.64-4.06 9.28-8.12 13.92-12.17.49-.43.44-.41.16-.66s-2.53 1.33-2.57 1.36c-4.15 2.6-8.29 5.19-12.44 7.79l1.03.05c4.15-3.58 8.3-7.15 12.45-10.73.56-.48-.83-.22-.68-.24-1.36.23-2.79 1-4.04 1.53l-5.95 2.57-2.84 2.02 10.8-3.99c-2.66.28-5.32.57-7.98.85l-3.58 1.97c-.97.53 2.33.42 1.88.43 1.72-.04 3.74.05 5.4-.47 2.63-.83 5.26-1.65 7.89-2.48 1.34-.42-3.46-.54-2.72-.52-2.53-.05-5.46-.35-7.95.21l-1.66.38c-.39.11-.39.23 0 .35.87.17 1.76.25 2.65.22 1.7.05 3.41.08 5.11.08.89.05 1.78 0 2.66-.14z" class="cls-18" opacity=".11" style="isolation:isolate"/><path d="m175.74 104.14 1.93-.6c-4-.83-8-1.66-11.99-2.49l-5.08 2.21c3.07.84 6.13 1.67 9.2 2.51l4.03-3.02a1.34 1.34 0 0 0-.99-.47c-1.3-.28-2.6-.52-3.91-.73-1.12-.19-3.84-1.07-5.02-.46l-4.29 2.22c2.45.45 4.91.89 7.36 1.34 2.99-1.3 5.97-2.61 8.96-3.91-2.92-.28-5.84-.57-8.75-.85-3.74 3.24-7.48 6.49-11.22 9.73.17.26.43.4.78.41.72.15 1.44.27 2.17.37.9.14 1.81.27 2.72.37.63.12 1.27.15 1.91.08 4.6-2.79 9.21-5.59 13.82-8.38l-8.33-.24-11.4 9.22c-.79.64 2.07.37 1.82.38 1.14-.07 2.28-.16 3.42-.29.61-.02 1.19-.13 1.76-.33 4.06-2.06 8.13-4.13 12.19-6.19-2.59.22-5.18.43-7.77.65-3.57 3.68-7.15 7.36-10.72 11.05-.7.72 2.05.16 1.82.19 1.52-.24 3.65-.34 5.01-1.14l11.65-6.87-7.56 1.3-6.78 7.15c-.56.59 1.13.13 1.24.1 1.56-.45 3.31-.91 4.75-1.68 3.82-2.05 7.64-4.11 11.46-6.16l-6.8 1.65-5.58 5.79c-.17.21-.12.32.15.31l7.27-1.2c-.42.07 3.01-.46 1.94-.84l-3.14-1.11-.53.59c2.42-1.83 4.84-3.67 7.26-5.5.92-.69-2.55.23-2.01.08-1.77.5-3.74.97-5.35 1.88l-10.17 5.79 5.99-1.58c2.62-2.19 5.24-4.38 7.86-6.58.86-.72-2.44-.02-2.02-.1-1.69.32-4.02.5-5.54 1.4l-10.93 6.51 6.83-.95c3.89-3.58 7.77-7.16 11.66-10.75.78-.72-2.27-.25-2.04-.27-1.27.14-2.53.3-3.79.49-.67.05-1.32.2-1.94.43l-11.43 5.78c2.33-.08 4.67-.16 7-.23 4.24-2.91 8.48-5.83 12.73-8.74.89-.61-2.31-.56-2.06-.55-1.33-.04-2.65-.05-3.98-.03-.7-.04-1.39.01-2.07.16l-13.05 7.42 7.57 1.23 12.43-10.12c-.23-.26-.54-.39-.92-.37-.83-.11-1.67-.2-2.51-.26-1.05-.1-2.09-.18-3.14-.23a8.5 8.5 0 0 0-2.19.01c-2.61 1.19-5.21 2.39-7.82 3.58-.97.44 2.12.83 1.82.78 1.21.19 2.42.35 3.63.49.64.12 1.27.14 1.91.07 2.19-.59 4.37-1.19 6.56-1.78-3.21-.59-6.42-1.19-9.63-1.78l-3.31 2.17c.2.31.49.49.89.55.84.28 1.69.54 2.55.77q1.59.465 3.21.87c.74.24 1.5.38 2.27.43l7.82-2.23c1.32-.38-3.28-1.23-2.79-1.12-1.85-.41-3.71-.8-5.57-1.16-.97-.24-1.94-.38-2.93-.42l-1.69.33c-.44.09-.29.08-.08.34l.9.34c1.08.3 2.17.58 3.26.84 1.68.41 3.37.8 5.06 1.15.69.14 1.56.42 2.26.2z" class="cls-18" opacity=".11" style="isolation:isolate"/><path d="m178.45 96.77 1.89-.62c-2.78-2.32-5.56-4.65-8.34-6.97l-3.6 1.8 4.44 6.96 4.39-3.1c.43-.31-2.69-3.61-2.67-3.58-.19-.22-2.54-3.38-3.23-3.08l-3.34 1.4c.87 2.2 1.74 4.4 2.61 6.59 3.08-1.36 6.17-2.72 9.25-4.08l-4.37-6.65c-2.85 3.24-5.7 6.48-8.54 9.72-.59.67.06 2.81.16 3.48-.02-.1.54 3.6.91 3.37 4.51-2.83 9.02-5.67 13.53-8.5l-3.41-6.59c-2.93 2.7-5.86 5.41-8.79 8.11-.67.61-.36 2.65-.35 3.37 0-.12.04 3.56.4 3.37l11.94-6.3-2.28-6.76c-2.7 3.6-5.41 7.19-8.11 10.79-.69.92-.6 2.81-.74 3.91-.03.24-.16 2.71 0 2.61 3.79-2.32 7.58-4.65 11.36-6.97l-1.48-6.78-4.92 6.69c-.72.98-.79 2.68-1.02 3.84-.05.24-.35 2.69-.18 2.6 3.79-2.08 7.59-4.16 11.38-6.24-.31-2.26-.63-4.52-.94-6.77l-4.17 5.39c-.28.36-2.27 6.18-1.59 6.38l3.57 1.01c.44.12.14-3.74.15-3.65-.02-.25.06-3.47-.6-3.6l-1.31-.26-1.59 6.38 6.49-4.87c.62-.47-.03-2.96-.1-3.44.02.12-.51-3.57-.84-3.33-3.08 2.19-6.16 4.38-9.23 6.57l-1 6.31c2.47-2.07 4.93-4.14 7.4-6.22.59-.5-.27-3.02-.37-3.47.02.11-.78-3.57-1.11-3.31l-9.15 7.23-.54 6.37c3.64-3.47 7.28-6.93 10.92-10.4.55-.52-.65-3.11-.78-3.5.02.05-1.09-3.52-1.5-3.26l-9.71 6.32c.02 2.25.03 4.49.05 6.74 4.05-2.75 8.1-5.51 12.15-8.26.77-.52-3.18-6.76-3.41-6.59l-11.18 8.24c.36 2.28.71 4.57 1.07 6.85l11.84-9.92c.55-.46-3.81-6.95-4.37-6.65l-7.5 4.13c-.54.3.9 3.29.96 3.44.07.18 1.03 3.28 1.66 3.16 2.21-.44 4.42-.89 6.62-1.33l-5.9-6.67c-.98.94-1.96 1.87-2.94 2.81-.48.46 1.8 3.53 1.9 3.68.16.25 1.82 3.45 2.54 3.28 2.5-.6 5-1.19 7.49-1.79-.09-.4-.32-.72-.68-.96q-1.59-1.455-3.24-2.82c-1.09-.93-2.21-1.83-3.34-2.7-.3-.32-.65-.49-1.06-.5l-1.46.29c.07.4.27.73.63.98 1 1.01 2.02 1.99 3.07 2.95 1.04.97 2.1 1.91 3.18 2.83.28.33.62.51 1.03.55z" class="cls-18" opacity=".11" style="isolation:isolate"/><path d="m177.13 105.63 1.89-.61c-4.25-.62-8.5-1.23-12.76-1.85-1.59.86-3.17 1.72-4.76 2.58 3.24.49 6.48.99 9.71 1.48l4.17-2.94c-.29-.27-.65-.38-1.08-.36q-2.055-.21-4.11-.3c-1.13-.06-4.11-.67-5.23.1-1.3.9-2.61 1.79-3.91 2.69-.88.6 2.23.41 1.9.42 1.64-.05 3.89.13 5.45-.51 3.06-1.25 6.11-2.49 9.17-3.74-2.92.29-5.83.59-8.75.88-3.51 3.58-7.02 7.17-10.53 10.75-.72.73 2.12.08 1.85.13 1.55-.29 3.64-.48 5.02-1.31 4.66-2.8 9.31-5.61 13.98-8.41l-7.65 1.98c-3.27 3.41-6.53 6.83-9.8 10.24-.58.61-.41.87.35.48 3.82-1.97 7.64-3.95 11.46-5.92l-.77-.05-5.66 7.37c-.94 1.23-1.93 2.51-2.67 3.88-.03.06-.84 1.59-.18 1.16 3.52-2.27 7.04-4.55 10.55-6.82l3.99-5.2c-2.38 2.13-4.77 4.25-7.15 6.38-.31.45-.53.93-.67 1.46-.34.97-.66 1.94-.95 2.92.02-.08-.77 2.16.01 1.68 3.38-2.05 6.75-4.09 10.13-6.14 1.06-2.08 2.13-4.15 3.19-6.23l-6.53 5.09c-.69.54-1.38 6.55-.74 6.63l1.36.18c.7.09 1.77-2.48 1.94-2.79-.03.05 1.75-3.04 1.27-3.15l-3.83-.88-.54 6.48 4.28-5.78c1.02-1.38 1.85-2.99 2.64-4.51.07-.14.87-1.66.15-1.27-3.9 2.1-7.81 4.2-11.71 6.3-.54 2.02-1.07 4.05-1.61 6.07l9.2-12.05c-.13.16.74-1.17.04-.76l-11.79 6.99-2.85 5.04c4.8-5.3 9.61-10.59 14.42-15.9.6-.66-1.07.1-.77-.05-4.1 2.07-8.19 4.14-12.29 6.21l-1.74 2.13c4.97-3.72 9.93-7.44 14.91-11.17.94-.7-2.63.23-2.08.08-1.82.5-3.92.94-5.57 1.9-4.4 2.54-8.79 5.08-13.19 7.62 2.29-.39 4.58-.79 6.87-1.18 4.14-3.48 8.28-6.97 12.41-10.45.86-.72-2.53-.24-2.23-.27-1.99.19-4.42.2-6.31.95l-7.98 3.15 7.34-.09 6.7-1.88-10.13-.72-3.47 2.02c.24.29.57.44.97.45q1.35.285 2.7.48 1.695.285 3.39.51 1.185.225 2.37.18c2.7-.78 5.39-1.56 8.09-2.35.47-.06.49-.17.05-.35-1.03-.29-2.08-.49-3.14-.6-2.03-.29-4.06-.56-6.1-.8a19 19 0 0 0-3.19-.24l-1.7.35c-.47.05-.49.16-.05.35q1.515.465 3.09.66c2 .33 4 .64 6.01.93q1.56.3 3.15.3h.03z" class="cls-18" opacity=".11" style="isolation:isolate"/><path d="m176.09 100.09 1.92-.61c-4.03-1.97-8.07-3.94-12.1-5.9l-4.62 1.45c3.02 2.17 6.04 4.33 9.06 6.5 1.35-1.1 2.71-2.2 4.06-3.3.27-.22-5-3.25-4.87-3.18-1.33-.76-2.67-1.49-4.04-2.18-.37-.27-.77-.39-1.21-.34-1.43.4-2.86.81-4.3 1.21 2.61 2.05 5.22 4.09 7.83 6.14 3-1.43 5.99-2.86 8.99-4.29l-9.11-5.82c-3.21 2.71-6.42 5.43-9.63 8.14-.44.37 3.07 4.01 3.06 4.01.09.1 3.05 3.87 3.63 3.51 4.54-2.85 9.08-5.69 13.63-8.54l-8.37-6.24-10.27 6.81c-.45.3 2.81 4.1 2.79 4.07.1.12 2.76 3.92 3.38 3.6 4.02-2.12 8.03-4.24 12.05-6.35-2.56-2.25-5.13-4.5-7.69-6.75-2.84 2.85-5.69 5.69-8.53 8.54-.52.52 2.05 4.28 2.16 4.47 0 0 2.32 4.39 2.81 4.09 3.84-2.34 7.68-4.67 11.53-7.01l-6.78-7.53c-1.71 1.63-3.41 3.27-5.12 4.9-.56.54 1.63 4.38 1.75 4.63-.01-.02 1.95 4.57 2.43 4.31 3.85-2.12 7.7-4.25 11.56-6.37-2.02-2.69-4.03-5.38-6.05-8.07l-4.09 3.82c-.61.57 1.2 4.43 1.32 4.77.16.43 1.14 4.38 2.03 4.51l3.48.51c.08-.39 0-.77-.24-1.12-.58-1.27-1.19-2.52-1.83-3.76a72 72 0 0 0-1.97-3.68c-.15-.4-.4-.69-.77-.85l-2.02-.38 3.35 9.28 6.78-5.03c.38-.28-5.3-8.49-6.05-8.07-3.23 1.84-6.46 3.67-9.69 5.51 1.39 2.98 2.79 5.95 4.18 8.93 2.57-2.1 5.15-4.2 7.72-6.31.43-.35-3.13-4.03-3.11-4.01-.09-.1-3.08-3.87-3.67-3.51-3.24 1.99-6.47 3.98-9.71 5.97 1.65 2.85 3.31 5.71 4.96 8.56 3.75-3.45 7.51-6.9 11.26-10.35.39-.36-3.64-3.69-3.6-3.66-.24-.21-3.37-3.47-4.09-3.09l-10.52 5.44c2.05 2.56 4.11 5.11 6.16 7.67 4.16-2.75 8.32-5.49 12.48-8.24.32-.21-4.07-3.51-3.96-3.42-.26-.2-3.7-3.25-4.41-2.82-3.98 2.42-7.96 4.84-11.94 7.27 2.23 2.51 4.46 5.01 6.69 7.52 4.02-3.28 8.03-6.56 12.05-9.84.31-.25-4.47-3.3-4.35-3.23-1.2-.78-2.41-1.52-3.64-2.23-.34-.28-.71-.4-1.12-.36-2.57 1.32-5.14 2.65-7.71 3.97-.31.16 3.8 3.45 3.68 3.37 1.03.82 2.07 1.61 3.14 2.36.29.29.62.43 1 .41l6.58-1.65-10.11-5.7-3.01 2.5c-.33.28 4.41 3.63 4.31 3.56 1.19.87 2.4 1.7 3.63 2.5.33.3.7.45 1.12.44l7.67-2.04c-.27-.42-.65-.71-1.14-.89-1.57-.83-3.15-1.64-4.75-2.4-1.59-.79-3.2-1.54-4.82-2.26-.44-.28-.91-.4-1.4-.35l-1.59.26c.25.42.61.73 1.09.92 1.52.88 3.06 1.73 4.61 2.54 1.55.83 3.11 1.63 4.69 2.4.42.29.88.43 1.37.39v-.03z" class="cls-18" opacity=".11" style="isolation:isolate"/><path d="m178.07 103.04 1.93-.63c-4.59-1.56-9.19-3.13-13.79-4.69-1.5.66-2.99 1.32-4.49 1.97l10.16 4.81c1.4-1.05 2.79-2.1 4.19-3.16-.25-.36-.61-.59-1.07-.7a89 89 0 0 0-4.38-1.65c-1.47-.54-2.94-1.04-4.43-1.5-.42-.21-.84-.26-1.27-.14l-4.24 1.95c2.85 1.23 5.7 2.47 8.55 3.7 3.04-1.35 6.07-2.71 9.11-4.06-3.33-1.13-6.65-2.25-9.98-3.38-3.42 2.96-6.83 5.92-10.25 8.88-.32.27 3.84 2.61 3.74 2.55.41.23 3.37 2.35 4.11 1.89 4.6-2.83 9.2-5.67 13.82-8.5L170.51 97c-3.69 2.74-7.38 5.47-11.07 8.21-.29.22 3.72 2.21 3.6 2.16.58.28 3.09 1.91 3.92 1.48 4.06-2.09 8.11-4.17 12.17-6.26l-8.94-2.93c-3.3 3.15-6.59 6.31-9.89 9.46-.33.31 3.49 2.33 3.41 2.29.44.24 3.03 2.07 3.77 1.63 3.88-2.32 7.77-4.65 11.65-6.97-2.86-1.07-5.73-2.14-8.59-3.22-2.07 1.85-4.15 3.7-6.22 5.54-.34.3 3.32 2.38 3.24 2.34.44.26 2.87 2.1 3.62 1.69 3.87-2.12 7.74-4.24 11.6-6.36-2.78-1.19-5.55-2.38-8.33-3.57-1.68 1.38-3.37 2.75-5.05 4.13-.3.25 5.68 4.35 6.17 4.47l3.34.8c.37.09.26-.03.21-.28l-.54-.55c-.7-.57-1.41-1.12-2.14-1.65-1.11-.83-2.23-1.64-3.39-2.42-.36-.24-1.13-.91-1.65-.8l-2 .42 6.44 4.44 6.93-5c.25-.18-4.14-2.18-4.01-2.13-.59-.25-3.47-1.93-4.31-1.44-3.38 1.97-6.75 3.93-10.13 5.9l6.85 4.02 7.96-6.35c.24-.19-4.29-2.01-4.16-1.96-.63-.24-3.57-1.78-4.43-1.26l-10.23 6.27c2.39 1.31 4.78 2.61 7.17 3.92l11.65-10.45c.23-.2-4.48-1.86-4.35-1.82-.81-.27-3.59-1.62-4.59-1.1-3.58 1.85-7.17 3.7-10.75 5.54 2.51 1.21 5.01 2.42 7.52 3.64 4.27-2.82 8.54-5.64 12.81-8.47q-.27-.495-.87-.63c-1.2-.5-2.41-.97-3.64-1.41-.67-.24-3.86-1.88-4.76-1.34-4.13 2.48-8.25 4.96-12.38 7.44l7.84 4.44c4.13-3.31 8.25-6.63 12.38-9.94.18-.14-4.99-2.09-4.87-2.05-1.31-.46-2.63-.88-3.97-1.26-.39-.19-.77-.21-1.14-.07l-7.69 3.74q.225.495.78.66c1.1.55 2.22 1.06 3.35 1.54 1 .43 3.2 1.8 4.42 1.51l6.84-1.66c-3.72-1.33-7.43-2.66-11.15-3.99l-3.2 2.34c-.21.15 5.05 2.81 4.92 2.74q1.995.96 4.05 1.83c.38.24.78.32 1.19.23 2.7-.7 5.4-1.39 8.11-2.09-.35-.4-.8-.66-1.35-.77-1.79-.68-3.6-1.32-5.42-1.93-1.81-.63-3.64-1.22-5.47-1.78-.5-.24-1.02-.31-1.54-.21l-1.66.27c.34.41.78.67 1.31.81q2.64 1.08 5.31 2.07c1.78.67 3.57 1.32 5.37 1.92.49.25 1 .33 1.52.25z" class="cls-18" opacity=".11" style="isolation:isolate"/><path d="m178.57 94.69 2.07-.39-6.09-6.1c-1.21.74-2.41 1.47-3.62 2.21l2.38 5.7c1.43-.99 2.86-1.98 4.28-2.97.39-.27-3.25-5.85-3.99-5.5l-3.51 1.67c.31 1.72.63 3.44.94 5.16l9.03-3.96-2.98-5.19c-3.13 3.42-6.27 6.84-9.4 10.26-.49.54-.08 2.36-.03 3.02.01.16.17 2.13.47 1.94 4.5-2.84 8.99-5.68 13.49-8.52-.82-1.65-1.63-3.3-2.45-4.95-3.2 2.8-6.4 5.6-9.6 8.39-.55.48-.38 2.27-.42 2.92 0 .15-.09 2.1.22 1.94 3.96-2.1 7.92-4.2 11.88-6.29-.59-1.67-1.18-3.33-1.77-5-2.93 3.58-5.87 7.16-8.8 10.73-.64.78-.68 2.51-.8 3.45-.01.09-.34 1.68.31 1.28 3.72-2.29 7.43-4.58 11.15-6.87l-1.38-4.97c-1.77 2.17-3.54 4.34-5.3 6.51-.67.82-.82 2.42-1 3.41-.02.08-.43 1.67.24 1.3l11.13-6.15-1.09-4.96c-1.47 1.72-2.95 3.44-4.42 5.16-.25.3-1.87 4.59-1.19 4.78l3.46.96c.46.13.1-2.82.1-2.76-.04-.35 0-2.52-.65-2.68l-1.52-.38c-.4 1.59-.8 3.19-1.19 4.78l6.5-4.91c.54-.4-.09-2.14-.18-2.56.01.05-.52-2.67-.91-2.4l-9.27 6.39-.77 4.72c2.48-2.09 4.96-4.17 7.45-6.26.52-.43-.21-2.18-.32-2.58.01.05-.67-2.67-1.05-2.38l-9.29 7.11-.49 4.73c3.69-3.49 7.37-6.98 11.06-10.47.71-.67-1.56-5.13-1.77-5-3.3 2.14-6.6 4.29-9.9 6.43 0 1.58-.01 3.16-.02 4.75 4.02-2.73 8.04-5.46 12.07-8.19.72-.49-2.16-5.16-2.45-4.95-3.77 2.79-7.54 5.57-11.31 8.36l.27 5.1c3.98-3.34 7.96-6.68 11.94-10.03.59-.5-2.52-5.45-2.98-5.19-2.33 1.33-4.66 2.66-7 3.98-.7.4.44 5.26.94 5.16l6.56-1.34-3.99-5.5c-.89.92-1.78 1.85-2.67 2.77-.49.51.69 2.63.84 2.99.08.18.94 2.85 1.54 2.7 2.44-.6 4.89-1.21 7.33-1.81.31-.08-2.87-3.41-2.78-3.31-.6-.6-2.23-2.77-3.31-2.78l-1.74-.02c-.02.34.11.63.38.88.71.9 1.45 1.77 2.22 2.62.34.39 2.29 3.16 3.16 3v.06z" class="cls-18" opacity=".11" style="isolation:isolate"/></g><g fill="#feb086"><path d="M202.15 131.74h5.37c1.39 0 .11-1.8-.12-2.07-.76-.89-2.23-2.68-3.55-2.68l-5.13-.02c-1.36 0-.21 1.74.03 2.05.7.87 2.13 2.73 3.4 2.73z" class="cls-18" opacity=".11" style="isolation:isolate"/><path d="M203.28 128.28c1.76-.08 3.53-.17 5.29-.25.62-.03 1.15-.47 1.12-1.13-.02-.51-1.3-1.84-1.83-1.81-1.76.09-3.51.19-5.27.28-.62.03-1.15.47-1.12 1.13.02.51 1.28 1.81 1.8 1.79h.01z" class="cls-18" opacity=".11" style="isolation:isolate"/><path d="m204.58 131.12 5.37-.02c1.47 0-.01-1.92-.22-2.16-.81-.93-2.45-2.92-3.83-2.93l-5.14-.03c-1.44 0-.09 1.87.14 2.14.74.9 2.34 2.99 3.68 2.99z" class="cls-18" opacity=".11" style="isolation:isolate"/><path d="M207.58 134.67c1.84 0 3.67.02 5.51.03 2.09.01-1.28-3.18-1.29-3.2a82 82 0 0 0-4.38-4.18 6.8 6.8 0 0 0-2.61-1.82l-5.27-.18c-2.09-.07 1.21 3.22 1.21 3.22a91 91 0 0 0 4.27 4.27c.71.83 1.57 1.46 2.56 1.87z" class="cls-18" opacity=".11" style="isolation:isolate"/><path d="m207.6 131.34 5.46.03c1.71.01-.45-2.34-.57-2.48-.94-.97-1.93-1.9-2.97-2.77-.51-.58-1.14-.94-1.87-1.08l-5.2-.12c-1.73-.04.34 2.31.48 2.47q1.35 1.485 2.85 2.82c.49.59 1.1.96 1.82 1.12z" class="cls-18" opacity=".11" style="isolation:isolate"/><path d="m199.78 126.97 5.19-.36c.6-.04 1.78-1.73.58-1.67-1.76.09-3.51.19-5.27.28-.71.04-1.75 1.83-.5 1.75m.26 3.93 5.52-.03c1.06 0 .55-1.36.27-1.75-.56-.76-1.49-1.86-2.51-1.84l-5.46.1c-1.03.02-.57 1.34-.29 1.73.56.77 1.45 1.8 2.46 1.8z" class="cls-18" opacity=".11" style="isolation:isolate"/><path d="M202.65 135.05c1.83.01 3.65.02 5.48.04 1.94.01-.87-2.82-.95-2.89a67 67 0 0 0-3.72-3.61 5.1 5.1 0 0 0-2.27-1.52l-5.24-.15c-1.93-.06.79 2.82.86 2.9 1.15 1.27 2.36 2.5 3.61 3.67.61.73 1.35 1.25 2.22 1.57h.01zm3.91-7.5c1.84-.01 3.68-.02 5.51-.04.63 0 1.28-.39 1.11-1.14-.13-.59-1.6-2.21-2.25-2.2l-5.47.08c-.63 0-1.27.39-1.11 1.14.13.59 1.56 2.16 2.2 2.16z" class="cls-18" opacity=".11" style="isolation:isolate"/><path d="M200.36 133.51h5.38c1.57 0-.16-2.08-.34-2.3-.8-.87-1.65-1.68-2.55-2.45-.45-.52-1-.83-1.66-.92-1.71-.02-3.42-.05-5.14-.07-1.55-.02.05 2.04.26 2.29.76.88 1.58 1.71 2.45 2.49.43.53.97.85 1.62.95h-.02zm4.34-7.69 5.27-.27c1.28-.07 1.43-2.23.06-2.17-1.77.08-3.54.16-5.31.23-1.33.06-1.38 2.28-.02 2.21" class="cls-18" opacity=".11" style="isolation:isolate"/><path d="m198.39 128.89 5.16-.39c1.44-.11 1.31-2.39-.04-2.3-1.74.12-3.47.23-5.21.35-1.5.1-1.26 2.45.08 2.34z" class="cls-18" opacity=".11" style="isolation:isolate"/></g><path fill="#023b49" d="M212.08 20.07s-22.01 54.98-65.24 49.09c-.29 2.8 3.49-50.77 59.92-54.16 51.53-3.1 61.6 53.32 59.92 58.11 0 0-33.34-2.31-54.6-53.04" class="cls-4"/><path fill="#678c84" d="M141.87 78.62s71.92-17.71 76.51-63.42c0 0-22.68-11.67-54.46 11.93-24.89 18.5-22.05 51.49-22.05 51.49" class="cls-5"/><path fill="#023b49" d="M209.92 15.11c-21.74 2.13-40.23 15.2-54.45 31.11 10.8-18.72 32.24-33.35 54.45-31.11" class="cls-4"/><path fill="#023b49" d="M210.34 20.84c-14.36 3.28-25.82 12.54-36.04 22.74 6.78-12.89 20.96-23.78 36.04-22.74" class="cls-4"/><path fill="#8eb49d" d="M258.56 62.24c-5.01-13.85-15.62-24.09-26.97-32.99 13.62 5.15 26.16 17.89 26.97 32.99" class="cls-6"/><path fill="#023b49" d="M186.06 16.16c-18.42 6.64-31.58 19.66-38.56 37.87-2.26 5.8-3.98 11.85-5.02 18.12-.21-6.37.91-12.76 2.81-18.9 5.64-18.78 21.15-33.98 40.77-37.09" class="cls-4"/><g fill="#feb086" class="cls-31" opacity=".72"><path d="m248.22 95.79 1.84-.64c-2.81-2.13-5.61-4.26-8.42-6.4l-4.12 1.48c1.69 2.27 3.39 4.53 5.08 6.8l4.22-3.19c.41-.31-3.03-3.45-2.99-3.42-.35-.34-2.67-3.12-3.52-2.87l-3.76 1.1c1.23 2.23 2.47 4.45 3.7 6.68 3.03-1.4 6.05-2.8 9.08-4.2-1.81-2.14-3.61-4.28-5.42-6.42-3.01 3-6.01 6-9.02 9-.56.56.77 3.39.91 3.78-.02-.05 1.21 3.8 1.62 3.54 4.5-2.83 9-5.66 13.49-8.49-1.59-2.18-3.19-4.35-4.78-6.53l-9.25 7.24c-.61.48.44 3.44.53 3.83-.02-.06.84 3.88 1.27 3.65 3.97-2.1 7.95-4.19 11.92-6.29l-3.95-6.91-8.04 9.65c-.64.77-.04 3.12.05 3.9-.01-.12.45 4.03.8 3.82 3.78-2.31 7.56-4.62 11.35-6.94l-3.29-7.16-4.75 5.69c-.67.8-.22 3.05-.17 3.91 0-.12.24 4.06.58 3.87 3.8-2.08 7.59-4.17 11.39-6.25l-2.82-7.31c-1.3 1.5-2.6 2.99-3.91 4.49-.7.81-.37 3.01-.37 3.91 0 .18-.26 3.79.38 3.91l3.55.66c.4.07-.59-4.17-.56-4.05-.12-.5-.48-3.61-1.3-3.88l-1.71-.55c0 2.61 0 5.21.01 7.82 2.24-1.66 4.48-3.33 6.72-4.99.56-.42-.97-3.56-1.06-3.79.02.05-1.34-3.79-1.76-3.52-2.99 1.93-5.98 3.86-8.98 5.79l.41 7.78c2.54-2.1 5.09-4.2 7.63-6.31.53-.44-1.2-3.52-1.31-3.74.02.04-1.58-3.71-1.99-3.42l-8.9 6.38.84 7.71c3.72-3.48 7.43-6.97 11.15-10.45.66-.62-3.58-7.13-3.95-6.91l-9.77 5.72 1.8 7.48c4.08-2.73 8.16-5.46 12.24-8.2.44-.3-4.19-6.94-4.78-6.53l-11.24 7.7 2.53 7.32 11.91-9.9c.44-.37-2.4-3.42-2.42-3.45-.12-.15-2.4-3.29-3-2.97-2.45 1.31-4.91 2.63-7.36 3.94-.5.27 1.5 3.48 1.52 3.52.13.23 1.5 3.31 2.18 3.16l6.57-1.49c-2.17-2.1-4.34-4.19-6.51-6.29-.93.89-1.86 1.79-2.79 2.68-.46.44 2.16 3.53 2.24 3.63.21.29 2.08 3.37 2.84 3.18l7.45-1.89c-.1-.39-.33-.69-.7-.91-1.07-.89-2.16-1.76-3.28-2.59-1.1-.85-2.23-1.67-3.37-2.46-.31-.3-.66-.44-1.06-.43l-1.5.27c.08.39.3.7.66.94 1.02.94 2.07 1.85 3.14 2.74 1.06.9 2.14 1.77 3.24 2.62.29.31.64.47 1.04.48z" class="cls-18" opacity=".11" style="isolation:isolate"/><path d="m249.4 100.02 1.88-.66c-4.22-2.22-8.44-4.43-12.66-6.65-1.39.53-2.77 1.06-4.16 1.59l8.95 7 4.26-3.26c.28-.21-4.98-3.58-4.85-3.5-1.33-.85-2.67-1.66-4.04-2.45-.37-.3-.77-.44-1.22-.41-1.3.42-2.6.85-3.89 1.27 2.41 2.2 4.83 4.4 7.24 6.6 3.07-1.42 6.14-2.84 9.21-4.27-2.87-2.19-5.74-4.38-8.6-6.57-2.92 2.76-5.84 5.51-8.75 8.27-.63.6 4.91 8.31 5.33 8.05 4.59-2.85 9.17-5.71 13.76-8.56-2.4-2.43-4.81-4.85-7.21-7.28l-9.17 7.04c-.55.42 1.58 4.19 1.66 4.35 0 0 1.84 4.29 2.34 4.02 4.07-2.12 8.13-4.23 12.2-6.35-1.91-2.68-3.82-5.36-5.72-8.05-2.42 3.09-4.84 6.19-7.25 9.28-.64.82.42 3.9.57 4.62-.02-.12.95 4.68 1.3 4.47 3.9-2.33 7.79-4.66 11.69-6.99-1.26-2.95-2.53-5.91-3.79-8.86-1.35 1.96-2.7 3.92-4.05 5.89-.72 1.05-.29 3.52-.26 4.63 0-.14.19 4.77.49 4.61 3.91-2.09 7.81-4.17 11.72-6.26-.71-3.09-1.43-6.17-2.14-9.26-1.18 1.75-2.36 3.5-3.54 5.26-.33.49-1.81 8.74-1.03 8.96l3.73 1.04c.37.1-.14-5.16-.13-5.03-.02-.2-.15-4.84-.88-4.95l-1.49-.23c-.41 3.06-.82 6.12-1.24 9.17 2.24-1.65 4.47-3.3 6.71-4.96.66-.49-.62-4.36-.7-4.71.03.12-1.09-4.76-1.44-4.54-3.27 2.09-6.54 4.19-9.81 6.28l.23 9.24c2.53-2.09 5.07-4.17 7.6-6.26.57-.47-1.45-4.36-1.55-4.58.03.08-1.84-4.56-2.24-4.28-3.26 2.25-6.51 4.5-9.77 6.76.62 3.03 1.25 6.06 1.87 9.09 3.7-3.44 7.41-6.88 11.11-10.33.48-.45-2.49-4.16-2.55-4.24-.05-.06-2.62-4.12-3.17-3.8l-10.47 6.03c1.33 2.79 2.67 5.58 4 8.37l12.39-8.13c.4-.26-3.4-3.97-3.34-3.9-.11-.11-3.29-3.76-3.87-3.37-3.96 2.6-7.92 5.19-11.87 7.79 1.78 2.68 3.55 5.37 5.33 8.05l12.03-9.75c.35-.28-4.17-3.66-4.07-3.59-.3-.23-3.76-3.4-4.53-2.99-2.62 1.41-5.24 2.82-7.85 4.24-.36.19 3.46 3.67 3.37 3.58.45.41 2.91 3.24 3.88 3.02l6.76-1.51-10.11-6.36-3.1 2.62c-.35.3 4.33 3.87 4.24 3.8 1.17.93 2.37 1.83 3.59 2.7.32.32.69.49 1.12.5l7.87-1.94c-.28-.44-.68-.76-1.19-.96-1.64-.93-3.29-1.83-4.97-2.7-1.66-.88-3.34-1.74-5.04-2.56-.45-.31-.94-.45-1.47-.43l-1.56.26c.26.45.64.78 1.15 1 1.59.98 3.21 1.93 4.84 2.85 1.62.94 3.26 1.84 4.92 2.71q.66.48 1.44.48h-.04z" class="cls-18" opacity=".11" style="isolation:isolate"/><path d="m249.48 93.78 1.6-.8c.41-.21-2.16-2.58-2.1-2.52-.24-.23-2-2.29-2.62-1.98-1.35.68-2.7 1.36-4.06 2.04l1.58 4.31 4.03-2.81c.37-.26-2.5-4.26-3.28-3.95l-3.76 1.52.58 3.78c2.91-1.29 5.82-2.57 8.73-3.86-.91-1.22-1.81-2.44-2.72-3.66l-9.96 9.75c-.43.42.44 3.93.65 3.8 4.5-2.79 9-5.58 13.51-8.38l-2.36-3.48c-3.42 2.6-6.83 5.2-10.25 7.8-.43.33-.18 1.85-.16 2.31 0 .14.03 1.68.39 1.49l11.89-6.11-1.98-3.54c-3.11 3.35-6.21 6.71-9.32 10.06-.45.49-.55 4.17.11 3.77 3.73-2.24 7.46-4.47 11.19-6.71l-1.76-3.55-5.58 5.82c-.46.48-.81 4.17-.14 3.81 3.7-1.99 7.4-3.99 11.1-5.98l-1.61-3.57-4.53 4.47c-.29.29-1.19 3.74-.52 3.91 1.14.3 2.29.59 3.43.89.46.12-.03-2.29-.02-2.24-.08-.44-.15-1.94-.77-2.11l-1.93-.53-.52 3.91c2.16-1.58 4.32-3.16 6.48-4.73.61-.45-1.21-3.82-1.61-3.57-3.12 1.91-6.23 3.83-9.35 5.74-.05 1.27-.09 2.54-.14 3.81 2.5-2.03 4.99-4.06 7.49-6.09.59-.48-1.38-3.81-1.76-3.55-3.18 2.16-6.35 4.32-9.53 6.48l.11 3.77 11.19-10.29c.53-.48-1.49-3.82-1.98-3.54-3.32 1.92-6.65 3.83-9.97 5.75.08 1.27.15 2.53.23 3.8 4.07-2.67 8.14-5.35 12.21-8.02.51-.33-1.85-3.83-2.36-3.48-3.88 2.64-7.75 5.28-11.63 7.92l.65 3.8c3.96-3.26 7.92-6.51 11.88-9.77.47-.39-2.13-3.99-2.72-3.66-2.19 1.24-4.39 2.49-6.58 3.73-.62.35.04 3.89.58 3.78l6.46-1.35c-1.09-1.32-2.19-2.63-3.28-3.95l-2.33 2.45c-.5.53.94 4.47 1.58 4.31 2.4-.61 4.8-1.23 7.2-1.84l-4.73-4.5-1.29.37c-.41.12 2 2.79 1.93 2.71.18.2 1.89 2.51 2.49 2.21z" class="cls-18" opacity=".11" style="isolation:isolate"/><path d="m247.8 101.66 1.88-.63c-4.4-1.55-8.79-3.1-13.19-4.65l-4.84 1.76c3.4 1.67 6.81 3.34 10.21 5.01l4.02-3.21c-.25-.36-.6-.6-1.06-.71-1.44-.6-2.89-1.17-4.36-1.71q-2.19-.825-4.41-1.56c-.42-.22-.84-.27-1.27-.15-1.51.57-3.02 1.15-4.53 1.72 3 1.37 5.99 2.74 8.99 4.11l8.94-4.14c-3.41-1.24-6.81-2.48-10.22-3.72-3.52 2.86-7.03 5.72-10.55 8.58-.31.25 4.17 2.93 4.06 2.86.38.23 3.69 2.68 4.44 2.22 4.56-2.83 9.12-5.66 13.69-8.5-3.24-1.25-6.48-2.51-9.72-3.76-3.8 2.58-7.6 5.16-11.39 7.74-.27.18 4.15 2.62 4.02 2.55.53.28 3.51 2.34 4.38 1.89 4.03-2.09 8.05-4.19 12.08-6.28-3.17-1.18-6.33-2.36-9.5-3.54-3.37 3-6.74 5.99-10.11 8.99-.33.29 3.93 2.86 3.83 2.8.37.23 3.49 2.61 4.23 2.16 3.85-2.32 7.7-4.65 11.56-6.97-3.07-1.31-6.13-2.63-9.2-3.94l-6.5 5.19c-.33.27 3.8 2.93 3.71 2.87.38.25 3.36 2.66 4.12 2.24 3.84-2.12 7.67-4.24 11.51-6.36-3-1.43-6-2.85-9-4.28-1.79 1.29-3.58 2.58-5.36 3.87-.28.2 2.4 2.19 2.67 2.39.86.65 1.74 1.28 2.62 1.89q.885.705 1.92 1.17l3.13.65c.4.08.28 0 .21-.28l-.59-.6c-.76-.63-1.54-1.23-2.33-1.82-1.21-.92-2.43-1.82-3.67-2.69-.42-.29-1.19-.97-1.78-.92l-2.17.2c2.5 1.81 5 3.63 7.51 5.44 2.28-1.68 4.57-3.36 6.85-5.04.25-.18-4.46-2.54-4.34-2.48-1.18-.57-2.38-1.11-3.59-1.62-.35-.22-.7-.28-1.07-.18l-10.34 5.52c2.61 1.7 5.22 3.41 7.83 5.11 2.62-2.12 5.25-4.24 7.87-6.36.24-.19-4.58-2.37-4.45-2.32a69 69 0 0 0-3.67-1.48c-.36-.21-.72-.25-1.08-.14-3.47 1.98-6.94 3.96-10.42 5.94 2.69 1.66 5.37 3.31 8.06 4.97 3.85-3.47 7.7-6.95 11.54-10.42.23-.21-4.75-2.17-4.62-2.12q-1.875-.72-3.78-1.32c-.37-.19-.73-.22-1.1-.09-3.66 1.79-7.32 3.59-10.98 5.38l8.4 4.44c4.24-2.81 8.48-5.61 12.72-8.42-.2-.34-.5-.57-.91-.67q-1.89-.825-3.81-1.56-1.92-.765-3.87-1.41c-.37-.2-.75-.24-1.13-.12-4.15 2.39-8.31 4.79-12.46 7.18l8.5 5.08c4.09-3.31 8.18-6.62 12.26-9.93.19-.15-5.11-2.26-4.98-2.22-1.34-.5-2.7-.97-4.06-1.4-.39-.2-.78-.24-1.17-.11l-7.71 3.75c.16.34.43.58.82.7 1.16.6 2.33 1.16 3.52 1.7.96.44 3.42 2.03 4.65 1.71l6.63-1.71c-3.7-1.38-7.39-2.75-11.09-4.13l-3.13 2.32c-.22.16 5.07 2.91 4.94 2.84 1.34.67 2.7 1.31 4.07 1.91.38.25.78.33 1.2.26l7.83-2.13a2.32 2.32 0 0 0-1.28-.77c-1.72-.67-3.45-1.31-5.19-1.91-1.73-.62-3.48-1.21-5.24-1.76-.48-.24-.98-.31-1.48-.21l-1.62.28c.31.4.73.67 1.25.8 1.68.72 3.37 1.4 5.08 2.05 1.7.67 3.41 1.3 5.14 1.9.47.25.96.33 1.46.25z" class="cls-18" opacity=".11" style="isolation:isolate"/><path d="m248.32 97.45 1.95-.58c-3.54-2.33-7.08-4.65-10.62-6.98l-4.14 1.39c2.39 2.5 4.78 5 7.16 7.5l4.23-3.28c.36-.28-4.07-3.82-3.98-3.74a86 86 0 0 0-3.39-2.67c-.3-.32-.66-.48-1.07-.49-1.26.34-2.53.68-3.79 1.03l5.63 7.4 9.15-4.29-7.1-7.2c-2.91 2.86-5.82 5.72-8.72 8.58-.55.54 1.49 4.12 1.62 4.39-.02-.04 1.86 4.35 2.3 4.07 4.53-2.84 9.06-5.68 13.6-8.52-2.03-2.53-4.06-5.06-6.08-7.59-3.03 2.36-6.07 4.72-9.1 7.07-.6.47 1 4.19 1.1 4.47-.02-.06 1.36 4.47 1.81 4.23l12.03-6.33c-1.65-2.71-3.29-5.43-4.94-8.14l-7.64 9.47c-.67.83.23 3.84.36 4.61-.02-.13.76 4.69 1.1 4.49l11.46-6.96-3.83-8.58c-1.5 1.9-3 3.81-4.5 5.71-.72.91-.11 3.69-.04 4.62 0-.13.39 4.74.71 4.56 3.83-2.09 7.67-4.18 11.5-6.27l-3.03-8.82-3.7 4.6c-.77.95-.38 3.58-.38 4.61 0 .17-.3 4.48.37 4.61 1.21.24 2.42.48 3.64.72.36.07-.68-4.95-.65-4.82-.1-.46-.53-4.4-1.39-4.66l-1.58-.47c0 3.07 0 6.14-.01 9.22 2.25-1.67 4.5-3.33 6.75-5 .6-.45-1.08-4.29-1.16-4.53.03.09-1.48-4.54-1.87-4.29-3.05 1.97-6.1 3.95-9.15 5.92.23 3.06.45 6.12.68 9.18 2.55-2.1 5.1-4.2 7.65-6.31.56-.46-1.48-4.24-1.57-4.45.03.07-1.86-4.42-2.26-4.14-3.03 2.15-6.06 4.3-9.09 6.46.49 3.03.97 6.06 1.46 9.09 3.71-3.47 7.42-6.95 11.12-10.42.51-.48-2.06-4.12-2.15-4.27-.02-.03-2.27-4.17-2.79-3.87-3.33 1.92-6.67 3.85-10 5.77l2.91 8.7c4.09-2.73 8.18-5.46 12.27-8.18.3-.2-5.34-8.08-6.08-7.59l-11.43 7.65c1.31 2.82 2.61 5.64 3.92 8.46 3.97-3.28 7.94-6.55 11.9-9.83.42-.34-3.31-3.9-3.28-3.87-.16-.17-3.15-3.69-3.82-3.34-2.56 1.37-5.12 2.73-7.69 4.1-.45.24 2.55 3.97 2.51 3.93.23.31 2.31 3.66 3.11 3.47 2.2-.51 4.41-1.01 6.61-1.52-2.82-2.3-5.63-4.6-8.45-6.91-.98.89-1.96 1.79-2.94 2.68-.42.39 3.32 4.02 3.31 4.01.34.35 2.95 3.72 3.85 3.49l7.59-1.92c-.19-.43-.5-.76-.95-.98-1.36-.97-2.75-1.91-4.15-2.82-1.39-.93-2.81-1.82-4.24-2.69-.38-.32-.81-.48-1.28-.48l-1.54.25c.17.44.47.77.9 1.01 1.31 1.01 2.64 2 3.99 2.95 1.34.97 2.7 1.91 4.08 2.83.36.33.78.51 1.24.52z" class="cls-18" opacity=".11" style="isolation:isolate"/><path d="m248.14 106.69 1.91-.58c-3.66-.05-7.31-.09-10.97-.14-1.4.88-2.8 1.77-4.2 2.65 2.43-.01 4.86-.02 7.28-.04 1.42-.93 2.85-1.85 4.27-2.78.98-.64-2.6-.16-2.1-.22-1.3.17-2.6.36-3.89.59-.69.07-1.35.23-1.99.48l-3.06 2.6c-1.09.93.67.4 1.08.23 3.73-1.59 7.46-3.19 11.19-4.78-1.57.43-3.14.86-4.72 1.29-3.25 3.49-6.5 6.99-9.74 10.48-.95 1.02.79.21 1.03.05 4.75-3.02 9.5-6.05 14.27-9.07l-2.41.7c-2.6 2.08-5.19 4.17-7.79 6.25-.77.61-1.25 1.82-1.65 2.68.08-.17-.74 1.63-.04 1.2 3.6-2.21 7.2-4.43 10.8-6.64l1.06-2.01-9.34 9.22c-.62.61-.78 2.1-.94 2.9 0-.04-.36 1.59.25 1.14l9.53-6.98c.78-1.31 1.55-2.61 2.33-3.92l-7.32 6.33c-.55.47-.43 2.39-.45 3.01 0 .16-.14 1.46.44 1.08 3.08-2.05 6.15-4.1 9.23-6.15.73-1.43 1.46-2.86 2.19-4.3l-6.72 5.15c-.34.26-.27 4.28.25 4.21l1.38-.19c.52-.07 2.55-3.19 2.24-3.27l-3.7-.87.25 4.21c1.47-1.74 2.94-3.48 4.41-5.23.74-.87 1.44-2.02 1.89-3.06.04-.09.58-1.29 0-.95-3.81 2.12-7.61 4.24-11.42 6.36v4.09c1.96-2.47 3.92-4.93 5.89-7.4.54-.67 1.62-1.81 1.91-2.66.03-.1.33-.9-.13-.61-3.84 2.37-7.68 4.74-11.52 7.12l-.69 4.04c4.01-4.77 8.03-9.54 12.04-14.32-.08.09.53-.94-.03-.64-4.05 2.16-8.1 4.31-12.15 6.47l-1.69 3.88c4.64-4.06 9.28-8.12 13.92-12.17.49-.43.44-.41.16-.66s-2.53 1.33-2.57 1.36c-4.15 2.6-8.29 5.19-12.44 7.79l1.03.05c4.15-3.58 8.3-7.15 12.45-10.73.56-.48-.83-.22-.68-.24-1.36.23-2.79 1-4.04 1.53-1.98.86-3.97 1.71-5.95 2.57-.95.67-1.89 1.34-2.84 2.02l10.8-3.99c-2.66.28-5.32.57-7.98.85l-3.58 1.97c-.97.53 2.33.42 1.88.43 1.72-.04 3.74.05 5.4-.47 2.63-.83 5.26-1.65 7.88-2.48 1.34-.42-3.46-.54-2.72-.52-2.53-.05-5.46-.35-7.95.21l-1.66.38c-.39.11-.39.23 0 .35.87.17 1.76.25 2.65.22 1.7.05 3.41.08 5.11.08.89.05 1.78 0 2.66-.14l.03-.02z" class="cls-18" opacity=".11" style="isolation:isolate"/><path d="m247.21 103.57 1.93-.6c-4-.83-8-1.66-11.99-2.49-1.69.74-3.39 1.47-5.08 2.21 3.07.84 6.13 1.67 9.2 2.51l4.03-3.02a1.34 1.34 0 0 0-.99-.47c-1.3-.28-2.6-.52-3.91-.73-1.12-.19-3.84-1.07-5.02-.46l-4.29 2.22c2.45.45 4.91.89 7.36 1.34 2.99-1.3 5.97-2.61 8.96-3.91-2.92-.28-5.84-.57-8.75-.85-3.74 3.24-7.48 6.49-11.22 9.73.17.26.43.4.78.41.72.15 1.44.27 2.17.37.9.14 1.81.27 2.72.37.63.12 1.27.15 1.91.08 4.6-2.79 9.21-5.59 13.82-8.38l-8.33-.24c-3.8 3.07-7.6 6.15-11.4 9.22-.79.64 2.07.37 1.82.38 1.14-.07 2.28-.16 3.42-.29.61-.02 1.19-.13 1.76-.33 4.06-2.06 8.13-4.13 12.19-6.19-2.59.22-5.18.43-7.77.65l-10.72 11.05c-.7.72 2.05.16 1.82.19 1.52-.24 3.65-.34 5.01-1.14 3.88-2.29 7.77-4.58 11.65-6.87-2.52.43-5.04.87-7.56 1.3-2.26 2.38-4.52 4.77-6.78 7.15-.56.59 1.13.13 1.24.1 1.56-.45 3.31-.91 4.75-1.68 3.82-2.05 7.64-4.11 11.46-6.16l-6.8 1.65-5.58 5.79c-.17.21-.12.32.15.31l7.27-1.2c-.42.07 3.01-.46 1.94-.84l-3.14-1.11-.53.59c2.42-1.83 4.84-3.67 7.26-5.5.92-.69-2.55.23-2.01.08-1.77.5-3.74.97-5.35 1.88l-10.17 5.79c2-.53 3.99-1.05 5.99-1.58 2.62-2.19 5.24-4.38 7.86-6.58.86-.72-2.44-.02-2.02-.1-1.69.32-4.02.5-5.54 1.4-3.64 2.17-7.29 4.34-10.93 6.51l6.83-.95c3.89-3.58 7.77-7.16 11.66-10.75.78-.72-2.27-.25-2.04-.27-1.27.14-2.53.3-3.79.49-.67.05-1.32.2-1.94.43-3.81 1.93-7.62 3.85-11.43 5.78l7-.23c4.24-2.91 8.48-5.83 12.73-8.74.89-.61-2.31-.56-2.06-.55-1.33-.04-2.65-.05-3.98-.03-.7-.04-1.39.01-2.07.16-4.35 2.47-8.7 4.95-13.05 7.42l7.57 1.23L247.66 100c-.23-.26-.54-.39-.92-.37-.83-.11-1.67-.2-2.51-.26-1.04-.1-2.09-.18-3.14-.23a8.5 8.5 0 0 0-2.19.01c-2.61 1.19-5.21 2.39-7.82 3.58-.97.44 2.12.83 1.82.78 1.21.19 2.42.35 3.63.49.64.12 1.27.14 1.91.07 2.19-.59 4.37-1.19 6.56-1.78-3.21-.59-6.42-1.19-9.63-1.78-1.1.72-2.21 1.44-3.31 2.17.2.31.49.49.89.55.84.28 1.69.54 2.55.77q1.59.465 3.21.87c.74.24 1.5.38 2.27.43l7.82-2.23c1.32-.38-3.28-1.23-2.79-1.12-1.85-.41-3.71-.8-5.57-1.16-.97-.24-1.94-.38-2.93-.42l-1.68.33c-.44.09-.29.08-.08.34l.9.34c1.08.3 2.17.58 3.26.84 1.68.41 3.37.8 5.06 1.15.69.14 1.56.42 2.26.2h-.01z" class="cls-18" opacity=".11" style="isolation:isolate"/><path d="m249.91 96.2 1.89-.62-8.34-6.97-3.6 1.8 4.44 6.96c1.47-1.03 2.93-2.07 4.4-3.1.43-.31-2.69-3.61-2.67-3.58-.19-.22-2.54-3.38-3.23-3.08-1.11.47-2.23.93-3.34 1.4l2.61 6.59c3.08-1.36 6.17-2.72 9.25-4.08l-4.37-6.65-8.54 9.72c-.59.67.06 2.81.16 3.48-.02-.1.54 3.6.91 3.37 4.51-2.83 9.02-5.67 13.52-8.5-1.14-2.2-2.27-4.39-3.41-6.59-2.93 2.7-5.86 5.41-8.78 8.11-.67.61-.36 2.65-.35 3.37 0-.12.04 3.56.4 3.37l11.94-6.3c-.76-2.25-1.52-4.51-2.28-6.76-2.7 3.6-5.41 7.19-8.11 10.79-.69.92-.6 2.81-.74 3.91-.03.24-.16 2.71 0 2.61 3.79-2.32 7.57-4.65 11.36-6.97-.49-2.26-.99-4.52-1.48-6.78l-4.92 6.69c-.72.98-.79 2.68-1.02 3.84-.05.24-.35 2.69-.18 2.6 3.79-2.08 7.59-4.16 11.38-6.24l-.94-6.77c-1.39 1.8-2.78 3.6-4.17 5.39-.28.36-2.27 6.18-1.59 6.38l3.56 1.01c.44.12.14-3.74.15-3.65-.02-.25.06-3.47-.6-3.6l-1.31-.26-1.59 6.38c2.16-1.62 4.32-3.25 6.49-4.87.62-.47-.03-2.96-.1-3.44.02.12-.51-3.57-.85-3.33-3.08 2.19-6.16 4.38-9.23 6.57-.33 2.1-.66 4.2-1 6.31 2.47-2.07 4.93-4.14 7.4-6.22.59-.5-.27-3.02-.37-3.47.02.11-.78-3.57-1.11-3.31l-9.15 7.23-.54 6.37c3.64-3.47 7.28-6.93 10.92-10.4.55-.52-.65-3.11-.78-3.5.02.05-1.09-3.52-1.5-3.26l-9.71 6.32.05 6.74c4.05-2.75 8.1-5.51 12.15-8.26.77-.52-3.18-6.76-3.41-6.59L238.4 94.6l1.07 6.85c3.95-3.31 7.9-6.61 11.84-9.92.55-.46-3.81-6.95-4.37-6.65l-7.5 4.13c-.54.3.9 3.29.96 3.44.07.18 1.03 3.28 1.66 3.16l6.62-1.33c-1.97-2.22-3.93-4.45-5.9-6.67-.98.94-1.96 1.87-2.94 2.81-.48.46 1.8 3.53 1.9 3.68.16.25 1.82 3.45 2.54 3.28 2.5-.6 5-1.19 7.49-1.79-.09-.4-.32-.72-.68-.96q-1.59-1.455-3.24-2.82c-1.09-.93-2.21-1.83-3.34-2.7-.3-.32-.65-.49-1.06-.5l-1.46.29c.07.4.27.73.63.98 1 1.01 2.02 1.99 3.07 2.95 1.04.97 2.1 1.91 3.18 2.83.28.33.62.51 1.03.55z" class="cls-18" opacity=".11" style="isolation:isolate"/><path d="m248.59 105.06 1.89-.61c-4.25-.62-8.5-1.23-12.76-1.85-1.59.86-3.17 1.72-4.76 2.58 3.24.49 6.48.99 9.71 1.48l4.17-2.94c-.29-.27-.65-.38-1.08-.36q-2.055-.21-4.11-.3c-1.13-.06-4.11-.67-5.23.1l-3.91 2.69c-.88.6 2.23.41 1.9.42 1.64-.05 3.89.13 5.45-.51 3.06-1.25 6.11-2.49 9.17-3.74-2.92.29-5.83.59-8.75.88-3.51 3.58-7.02 7.17-10.53 10.75-.72.73 2.12.08 1.85.13 1.55-.29 3.64-.48 5.02-1.31 4.66-2.8 9.31-5.61 13.98-8.41l-7.65 1.98c-3.27 3.41-6.53 6.83-9.8 10.24-.58.61-.41.87.35.48 3.82-1.97 7.64-3.95 11.46-5.92l-.77-.05-5.66 7.37c-.94 1.23-1.93 2.51-2.67 3.88-.03.06-.84 1.59-.18 1.16 3.52-2.27 7.03-4.55 10.55-6.82 1.33-1.73 2.66-3.47 3.99-5.2-2.38 2.13-4.77 4.25-7.15 6.38-.31.45-.53.93-.67 1.46-.34.97-.66 1.94-.95 2.92.02-.08-.77 2.16.01 1.68 3.38-2.05 6.75-4.09 10.13-6.14 1.06-2.08 2.13-4.15 3.19-6.23l-6.53 5.09c-.69.54-1.38 6.55-.74 6.63l1.36.18c.7.09 1.77-2.48 1.94-2.79-.03.05 1.75-3.04 1.27-3.15-1.28-.29-2.56-.58-3.83-.88l-.54 6.48c1.43-1.93 2.85-3.86 4.28-5.78 1.02-1.38 1.85-2.99 2.64-4.51.07-.14.87-1.66.15-1.27-3.9 2.1-7.81 4.2-11.71 6.3l-1.61 6.07 9.2-12.05c-.13.16.74-1.17.04-.76l-11.79 6.99-2.85 5.04c4.8-5.3 9.61-10.59 14.42-15.9.6-.66-1.07.1-.77-.05-4.1 2.07-8.19 4.14-12.29 6.21l-1.74 2.13c4.97-3.72 9.93-7.44 14.91-11.17.94-.7-2.63.23-2.08.08-1.82.5-3.92.94-5.57 1.9-4.39 2.54-8.79 5.08-13.18 7.62 2.29-.39 4.58-.79 6.87-1.18 4.14-3.48 8.28-6.97 12.42-10.45.86-.72-2.53-.24-2.23-.27-1.99.19-4.42.2-6.31.95l-7.98 3.15 7.34-.09c2.23-.63 4.47-1.25 6.7-1.88l-10.13-.72-3.47 2.02c.24.29.57.44.97.45q1.35.285 2.7.48 1.695.285 3.39.51 1.185.225 2.37.18c2.69-.78 5.39-1.56 8.08-2.35.47-.06.49-.17.05-.35-1.03-.29-2.08-.49-3.14-.6-2.03-.29-4.06-.56-6.1-.8a19 19 0 0 0-3.19-.24l-1.7.35c-.47.05-.49.16-.05.35q1.515.465 3.09.66c2 .33 4 .64 6.01.93q1.56.3 3.15.3h.02z" class="cls-18" opacity=".11" style="isolation:isolate"/><path d="m247.56 99.52 1.92-.61c-4.03-1.97-8.07-3.94-12.1-5.9-1.54.48-3.08.97-4.62 1.45 3.02 2.17 6.04 4.33 9.06 6.5 1.35-1.1 2.71-2.2 4.06-3.3.27-.22-5-3.25-4.87-3.18-1.33-.76-2.67-1.49-4.04-2.18-.37-.27-.77-.39-1.21-.34l-4.3 1.21c2.61 2.05 5.22 4.09 7.83 6.14 3-1.43 5.99-2.86 8.99-4.29-3.04-1.94-6.07-3.88-9.11-5.82-3.21 2.71-6.42 5.43-9.63 8.14-.44.37 3.07 4.01 3.06 4.01.09.1 3.05 3.87 3.63 3.51 4.54-2.85 9.08-5.69 13.63-8.54l-8.37-6.24c-3.42 2.27-6.85 4.54-10.27 6.81-.45.3 2.81 4.1 2.79 4.07.1.12 2.76 3.92 3.38 3.6 4.02-2.12 8.03-4.24 12.05-6.35-2.56-2.25-5.13-4.5-7.69-6.75-2.84 2.85-5.69 5.69-8.53 8.54-.52.52 2.05 4.28 2.16 4.47 0 0 2.32 4.39 2.81 4.09 3.84-2.34 7.68-4.67 11.53-7.01l-6.78-7.53c-1.71 1.63-3.41 3.27-5.12 4.9-.56.54 1.63 4.38 1.75 4.63-.01-.02 1.95 4.57 2.43 4.31 3.85-2.12 7.7-4.25 11.56-6.37-2.01-2.69-4.03-5.38-6.04-8.07l-4.09 3.82c-.61.57 1.2 4.43 1.32 4.77.16.43 1.14 4.38 2.03 4.51l3.48.51c.08-.39 0-.77-.24-1.12-.58-1.27-1.19-2.52-1.83-3.76a72 72 0 0 0-1.97-3.68c-.15-.4-.4-.69-.77-.85l-2.02-.38c1.12 3.09 2.23 6.18 3.35 9.28 2.26-1.68 4.52-3.35 6.78-5.03.38-.28-5.3-8.49-6.04-8.07-3.23 1.84-6.46 3.67-9.69 5.51 1.39 2.98 2.79 5.95 4.18 8.93 2.57-2.1 5.15-4.2 7.72-6.31.43-.35-3.13-4.03-3.11-4.01-.09-.1-3.08-3.87-3.67-3.51-3.23 1.99-6.47 3.98-9.7 5.97 1.65 2.85 3.31 5.71 4.96 8.56 3.75-3.45 7.51-6.9 11.26-10.35.39-.36-3.64-3.69-3.6-3.66-.24-.21-3.37-3.47-4.09-3.09-3.51 1.81-7.01 3.62-10.52 5.44 2.05 2.56 4.11 5.11 6.16 7.67 4.16-2.75 8.32-5.49 12.48-8.24.32-.21-4.07-3.51-3.96-3.42-.26-.2-3.7-3.25-4.41-2.82-3.98 2.42-7.96 4.84-11.94 7.27 2.23 2.51 4.46 5.01 6.69 7.52 4.02-3.28 8.04-6.56 12.05-9.84.31-.25-4.47-3.3-4.35-3.23-1.2-.78-2.41-1.52-3.64-2.23-.34-.28-.71-.4-1.12-.36-2.57 1.32-5.14 2.65-7.71 3.97-.31.16 3.8 3.45 3.68 3.37 1.03.82 2.07 1.61 3.14 2.36.29.29.62.43 1 .41 2.19-.55 4.38-1.1 6.58-1.65l-10.11-5.7-3.01 2.5c-.33.28 4.41 3.63 4.31 3.56 1.19.87 2.4 1.7 3.63 2.5.33.3.7.45 1.12.44l7.67-2.04c-.27-.42-.65-.71-1.14-.89-1.57-.83-3.15-1.64-4.75-2.4-1.59-.79-3.2-1.54-4.82-2.26-.44-.28-.91-.4-1.4-.35l-1.59.26c.25.42.61.73 1.09.92 1.52.88 3.06 1.73 4.61 2.54 1.55.83 3.11 1.63 4.69 2.4.42.29.88.43 1.37.39z" class="cls-18" opacity=".11" style="isolation:isolate"/><path d="m249.53 102.47 1.93-.63c-4.59-1.56-9.19-3.13-13.79-4.69-1.49.66-2.99 1.32-4.48 1.97 3.39 1.6 6.77 3.21 10.16 4.81 1.4-1.05 2.79-2.1 4.19-3.16-.25-.36-.61-.59-1.07-.7a89 89 0 0 0-4.38-1.65c-1.47-.54-2.94-1.04-4.43-1.5-.42-.21-.84-.26-1.27-.14l-4.24 1.95c2.85 1.23 5.7 2.47 8.55 3.7 3.04-1.35 6.07-2.71 9.11-4.06-3.33-1.13-6.65-2.25-9.98-3.38-3.42 2.96-6.83 5.92-10.25 8.88-.32.27 3.84 2.61 3.74 2.55.41.23 3.37 2.35 4.11 1.89 4.6-2.83 9.2-5.67 13.82-8.5-3.09-1.13-6.18-2.25-9.27-3.38-3.69 2.74-7.38 5.47-11.07 8.21-.29.22 3.72 2.21 3.6 2.16.58.28 3.09 1.91 3.92 1.48 4.06-2.09 8.11-4.17 12.17-6.26-2.98-.98-5.96-1.95-8.94-2.93-3.3 3.15-6.59 6.31-9.89 9.46-.33.31 3.49 2.33 3.41 2.29.44.24 3.03 2.07 3.77 1.63 3.88-2.32 7.77-4.65 11.65-6.97l-8.59-3.22c-2.07 1.85-4.15 3.7-6.22 5.54-.34.3 3.32 2.38 3.24 2.34.44.26 2.87 2.1 3.62 1.69 3.87-2.12 7.74-4.24 11.6-6.36-2.78-1.19-5.55-2.38-8.33-3.57-1.68 1.38-3.36 2.75-5.05 4.13-.3.25 5.68 4.35 6.17 4.47 1.11.27 2.22.54 3.34.8.37.09.26-.03.21-.28l-.54-.55c-.7-.57-1.41-1.12-2.14-1.65-1.11-.83-2.23-1.64-3.39-2.42-.36-.24-1.13-.91-1.65-.8l-2 .42 6.44 4.44c2.31-1.67 4.62-3.33 6.93-5 .25-.18-4.14-2.18-4.01-2.13-.59-.25-3.47-1.93-4.31-1.44l-10.13 5.9c2.28 1.34 4.57 2.68 6.85 4.02l7.96-6.35c.24-.19-4.29-2.01-4.16-1.96-.63-.24-3.57-1.78-4.43-1.26l-10.23 6.27c2.39 1.31 4.78 2.61 7.17 3.92L250.6 102c.23-.2-4.48-1.86-4.35-1.82-.81-.27-3.59-1.62-4.59-1.1-3.58 1.85-7.17 3.7-10.75 5.54 2.51 1.21 5.01 2.42 7.52 3.64 4.27-2.82 8.54-5.64 12.81-8.47q-.27-.495-.87-.63c-1.2-.5-2.41-.97-3.64-1.41-.67-.24-3.86-1.88-4.76-1.34-4.13 2.48-8.25 4.96-12.38 7.44 2.61 1.48 5.23 2.96 7.84 4.44 4.13-3.31 8.25-6.63 12.38-9.94.18-.14-4.99-2.09-4.87-2.05-1.31-.46-2.63-.88-3.97-1.26-.39-.19-.77-.21-1.14-.07-2.56 1.25-5.12 2.5-7.69 3.74q.225.495.78.66c1.1.55 2.22 1.06 3.35 1.54 1 .43 3.2 1.8 4.42 1.51 2.28-.55 4.56-1.11 6.84-1.66-3.72-1.33-7.43-2.66-11.15-3.99-1.07.78-2.13 1.56-3.2 2.34-.21.15 5.05 2.81 4.92 2.74q1.995.96 4.05 1.83c.38.24.78.32 1.19.23 2.7-.7 5.4-1.39 8.11-2.09-.35-.4-.8-.66-1.35-.77-1.79-.68-3.6-1.32-5.42-1.93-1.81-.63-3.64-1.22-5.47-1.78-.5-.24-1.02-.31-1.54-.21l-1.66.27c.34.41.78.67 1.31.81q2.64 1.08 5.31 2.07c1.78.67 3.57 1.32 5.37 1.92.49.25 1 .33 1.52.25v.02z" class="cls-18" opacity=".11" style="isolation:isolate"/><path d="m250.03 94.12 2.07-.39c-2.03-2.03-4.06-4.06-6.09-6.1l-3.61 2.21c.79 1.9 1.58 3.8 2.38 5.7l4.29-2.97c.39-.27-3.25-5.85-3.99-5.5-1.17.56-2.34 1.12-3.51 1.67.31 1.72.63 3.44.94 5.16l9.03-3.96c-.99-1.73-1.99-3.46-2.98-5.19-3.13 3.42-6.27 6.84-9.4 10.26-.49.54-.08 2.37-.03 3.02.01.16.17 2.13.47 1.94 4.5-2.84 8.99-5.68 13.49-8.52-.82-1.65-1.63-3.3-2.45-4.95-3.2 2.8-6.4 5.6-9.6 8.39-.55.48-.38 2.27-.42 2.92 0 .15-.08 2.1.22 1.94 3.96-2.1 7.92-4.2 11.88-6.29l-1.77-5c-2.93 3.58-5.87 7.16-8.8 10.73-.64.78-.68 2.51-.8 3.45-.01.09-.34 1.68.31 1.28 3.72-2.29 7.43-4.58 11.15-6.87l-1.38-4.97c-1.77 2.17-3.54 4.34-5.3 6.51-.67.82-.82 2.42-1 3.41-.02.08-.44 1.67.24 1.3l11.13-6.15c-.36-1.65-.73-3.3-1.09-4.96l-4.42 5.16c-.25.3-1.87 4.59-1.19 4.78l3.46.96c.46.13.1-2.82.1-2.76-.04-.35 0-2.52-.65-2.68l-1.52-.38c-.4 1.59-.8 3.19-1.19 4.78l6.5-4.91c.54-.4-.09-2.14-.18-2.56.01.05-.52-2.67-.91-2.4l-9.27 6.39-.77 4.72 7.45-6.26c.52-.43-.21-2.18-.33-2.58.01.05-.67-2.67-1.05-2.38-3.1 2.37-6.19 4.74-9.29 7.11l-.48 4.73 11.06-10.47c.71-.67-1.56-5.13-1.77-5-3.3 2.14-6.6 4.29-9.9 6.43l-.02 4.75 12.06-8.19c.72-.49-2.16-5.16-2.45-4.95-3.77 2.79-7.54 5.57-11.31 8.36l.27 5.1 11.95-10.03c.59-.5-2.52-5.45-2.98-5.19-2.33 1.33-4.66 2.66-7 3.99-.7.4.44 5.26.94 5.16 2.19-.45 4.37-.89 6.56-1.34-1.33-1.83-2.66-3.67-3.99-5.5l-2.67 2.77c-.49.51.69 2.63.84 2.99.08.18.94 2.85 1.54 2.7 2.44-.6 4.89-1.21 7.33-1.81.31-.08-2.87-3.41-2.78-3.31-.6-.6-2.23-2.77-3.31-2.78l-1.74-.02c-.02.34.11.63.38.88.71.9 1.45 1.77 2.22 2.62.34.39 2.29 3.16 3.16 3z" class="cls-18" opacity=".11" style="isolation:isolate"/></g><path fill="#023b49" d="m150.33 107.19-1.42 31.17s5.19 9.44 8.97 0l.47-28.34-.94-5.19-4.72-2.83" class="cls-4"/></g><path fill="#88b1b7" d="M99.61 168.099c-1.979-1.093-9.916-5.231-17.023-2.913-1.254.407-3.326 1.108-4.789 3.135-.172.238-2.233 3.193-1.251 6.726.656 2.36 2.299 3.648 3.833 4.85 2.982 2.336 7.462.333 10.264 2.661 1.598 1.328-1.117.26.283.426.981.116.1.667 2.056-.143.42-.174 2.587-.28 3.402-.211.114.01-.354-2.834 1.487-.781.254.283.71 1.275 1.558 2.125.601.6 1.773.709 1.773.709 6.885-.217 9.409.5 11.861-.16 4.71-1.264 9.716-1.396 12.856-4.254 2.678-2.436 3.268-5.564 3.385-6.413.066-.476.09-2.72-1.514-4.453-2.228-2.405-2.982-1.844-3.741-2.138-.617-.238-1.4.521-4.366-.09-.688-.143-1.246-.09-1.495-.238-.33-.201-.481.482-.632.738-.476.805-1.156 1.474-1.685 2.247-1.37 1.995-6.155 4.662-10.883 6.53-.854.338-1.852 1.06-2.95.738-.76-.225-1.15-.78-2.23-2.4-2.58-3.868-2.67-4.186-2.614-4.588.24-1.69 3.22-1.855 4.283-3.193 5.736-7.224 5.824-5.533 9.298-10.076" class="cls-16"/><path fill="#202121" d="M99.602 168.117c-5.024-2.625-11.006-4.524-16.623-2.886-.791.22-1.564.505-2.292.87-3.355 1.564-5.008 5.823-3.85 9.276.577 1.765 1.961 3.088 3.4 4.194 2.13 1.83 5.033 1.299 7.644 1.714.826.133 1.654.381 2.371.844.214.14 1.609 1.122.773 1.225-.228-.026-.418-.079-.585-.232a.16.16 0 0 1-.037-.117c.05-.203.317-.135.455-.135.209.027.444.056.638.204.1.08.124.1.211.098.514-.064.945-.347 1.453-.474 1.06-.164 2.127-.193 3.196-.145.003 0 .048 0 .016.002-.093.07-.032.032-.048.032.032-.46-.06-.987.21-1.4.505-.584 1.497.691 1.722 1.11.542.83 1.095 1.835 2.093 2.134.378.13.796.22 1.195.188 2.895-.11 5.795.04 8.687.109.823 0 1.65-.027 2.447-.204 1.593-.423 3.225-.76 4.845-1.082 1.619-.334 3.238-.678 4.78-1.241 3.152-1.05 5.557-3.649 6.478-6.826.54-1.535.46-3.234-.315-4.673-.355-.722-.924-1.302-1.516-1.865-.596-.543-1.252-1.059-2.011-1.201-.294-.059-.643-.061-.945-.175a.6.6 0 0 0-.235-.037c-.381.021-.812.135-1.21.167-1.052.11-2.108-.045-3.132-.246-.455-.093-.9-.014-1.347-.228.01.005.021-.013.006.005-.098.098-.175.307-.239.458-.317.672-.849 1.23-1.296 1.804-.484.638-1.013 1.371-1.654 1.892-1.923 1.612-4.159 2.784-6.4 3.874a54 54 0 0 1-3.426 1.487c-.765.31-1.516.799-2.392.817-1.431.07-2.164-1.354-2.858-2.365l-1.36-2.08c-.484-.81-1.076-1.566-1.38-2.476-.146-1.794 2.293-2.175 3.45-2.908.669-.317 1.246-1.164 1.706-1.714 1.574-1.921 3.244-3.784 5.151-5.382.625-.54 1.23-1.1 1.792-1.71.566-.603 1.08-1.25 1.595-1.896l.032.023c-.99 1.329-2.085 2.585-3.334 3.675-2.18 1.898-4.048 4.133-5.837 6.395-.804 1.003-2.159 1.302-3.204 1.916-.436.249-.823.556-1.01 1.01l-.07.27c-.034.175.025.337.104.522.352.72.826 1.413 1.267 2.103l1.376 2.064c1.59 2.471 2.175 2.712 4.829 1.368 2.667-1.082 5.3-2.31 7.723-3.863.857-.553 1.693-1.154 2.424-1.86.441-.431.751-.934 1.153-1.429.437-.56.926-1.074 1.236-1.709.13-.341.389-.934.868-.646.299.117.812.088 1.164.162l.614.114c1.272.272 2.397.164 3.661-.024a1.1 1.1 0 0 1 .374.063c.28.1.568.096.88.16 1.286.282 2.22 1.282 3.072 2.216 1.397 1.64 1.773 4 1.027 6.012-2.585 7.953-9.665 7.44-16.399 9.23-1.64.334-3.318.154-4.971.107a91 91 0 0 0-4.959-.095c-.844-.019-1.67.142-2.479-.165-1.034-.312-1.614-1.325-2.17-2.18-.293-.473-.727-1.053-1.28-1.188-.484.016-.339 1.082-.378 1.426-.022.024.04.019-.074.101a17 17 0 0 0-1.987.037c-.622.048-1.218.071-1.784.35-.354.11-.738.372-1.122.245-.24-.188-.502-.262-.82-.259a1 1 0 0 0-.103.008c.005-.005.024-.005.037-.06 0-.067-.032-.056.024-.027.122.066.29.13.423.116h-.002c-.011.003-.011.016-.019.021-.725-.913-2.03-1.42-3.215-1.585-2.603-.37-5.63.164-7.81-1.722-1.492-1.138-2.934-2.508-3.527-4.345-1.212-3.627.558-8.038 4.048-9.66 6.123-2.965 13.536-.939 19.053 2.29z" class="cls-19"/><g fill="#3a342a"><path d="M111.948 131.517c-.482 1.019-1.59 1.297-2.635 1.286-.966-.008-2.024-.211-2.874-.68-.447-.248-.85.437-.4.685 1.011.559 2.266.805 3.409.789 1.264-.016 2.608-.458 3.185-1.68.217-.46-.466-.863-.685-.4" class="cls-1"/><path d="m111.816 132.602 1.336.257a.43.43 0 0 0 .307-.04.4.4 0 0 0 .182-.238c.045-.196-.058-.447-.278-.49l-1.336-.256a.43.43 0 0 0-.307.04.4.4 0 0 0-.182.238c-.045.195.058.447.278.49z" class="cls-1"/><path d="m111.088 133.174 1.201.484c.09.037.228.005.307-.04a.403.403 0 0 0 .143-.545.45.45 0 0 0-.238-.182l-1.201-.485c-.09-.037-.228-.005-.307.04a.403.403 0 0 0-.143.545.45.45 0 0 0 .238.183m-.96.246q.216.309.439.619a.3.3 0 0 0 .103.11.3.3 0 0 0 .135.072.395.395 0 0 0 .49-.278c.023-.103.02-.22-.04-.306l-.44-.62a.3.3 0 0 0-.103-.11.3.3 0 0 0-.135-.072.395.395 0 0 0-.49.278c-.023.103-.02.22.04.307z" class="cls-1"/></g><g fill="#3a342a"><path d="M92.432 131.856c.577 1.22 1.918 1.662 3.186 1.68 1.145.016 2.4-.23 3.408-.788.447-.246.047-.934-.4-.686-.85.469-1.908.672-2.873.68-1.045.01-2.154-.27-2.636-1.286-.217-.46-.902-.058-.685.4" class="cls-1"/><path d="m93.035 131.774-1.336.257c-.203.04-.338.296-.278.49.072.216.27.32.49.277l1.336-.257c.204-.04.339-.296.278-.49-.072-.216-.27-.32-.49-.277" class="cls-1"/><path d="m93.766 132.348-1.202.484c-.1.04-.18.088-.238.183a.4.4 0 0 0-.04.307.4.4 0 0 0 .183.238c.093.05.21.08.307.04l1.201-.485c.1-.04.18-.087.238-.182a.4.4 0 0 0 .04-.307.4.4 0 0 0-.182-.238c-.093-.05-.21-.08-.307-.04m.484.612q-.218.309-.44.618a.3.3 0 0 0-.047.149.3.3 0 0 0 .008.158.4.4 0 0 0 .183.238.4.4 0 0 0 .306.04l.096-.04a.4.4 0 0 0 .143-.142q.217-.31.439-.62a.3.3 0 0 0 .047-.148.3.3 0 0 0-.008-.158.4.4 0 0 0-.182-.239.4.4 0 0 0-.307-.04l-.095.04a.4.4 0 0 0-.143.143z" class="cls-1"/></g><path fill="url(#g)" d="M144.15 139.86c2.18 5.67 7.06 8.49 12.41 11.58 1.8 1.04 18.17 10.5 26.06 4.14 3.06-2.46 3.69-7.16 4.96-16.55 1.93-14.23 1.82-15.83.83-16.55-3.52-2.54-11.82 4.87-13.56 3.03-1.2-1.27 1.64-5.97 4.67-10.28 1.52-3.32 1.37-6.34-.13-7.48-.78-.59-1.77-.55-2.14-.53-2.19.09-3.51 1.81-5.61 3.74-2.43 2.24-5.89 4.73-6.43 4.27-.96-.83 7.94-10.71 5.59-13.85-.84-1.12-3.07-1.42-4.14-1.42 0 0-1.97-.19-4.02.5-4.63 1.55-7.75 7.88-8.15 8.64-8.51 16.34-12.76 24.51-10.36 30.75z" class="cls-11" transform="translate(47.768 111.361)scale(.26458)"/><path fill="#050505" d="M85.92 148.36c.649 1.686 2.377 2.525 3.874 3.33 1.768.84 4.779 2.148 6.427.55.37-.41.534-.98.672-1.535.251-1.127.389-2.291.564-3.442.121-.866.243-1.73.299-2.601 0-.265.053-.6-.109-.818-.452-.378-1.122-.071-1.606.125-.508.156-2.35 1.47-2.111.142.238-.833.825-1.637 1.262-2.296.418-.836.46-2.384-.879-1.887-.444.22-.775.66-1.156.985-.397.349-.799.68-1.267.955-.103.053-.196.108-.32.124-.037.005-.167.008-.215-.114-.026-.071-.013-.116 0-.18.447-1.029 1.323-1.886 1.567-2.995.15-.83-1.04-.783-1.617-.735-.497.055-.94.294-1.31.635-1.098 1.013-1.688 2.64-2.434 3.921-.812 1.701-2.265 3.91-1.635 5.837zm-.023.011c-.656-1.873.773-4.217 1.516-5.921.736-1.373 1.249-2.937 2.4-4.043.59-.585 1.45-.815 2.26-.722.399.045.95.156 1.097.61.117.43-.079.853-.246 1.223-.365.802-.95 1.466-1.323 2.25l-.005.026c0-.006 0 .005-.003-.016-.026-.05-.071-.048-.05-.048.54-.206.995-.632 1.447-1.003.408-.34.728-.772 1.228-1.008 1.574-.54 1.656 1.146 1.127 2.165-.484.714-1.04 1.426-1.299 2.254-.032.132-.05.28.016.373.06.095.214.09.347.06.553-.142 1.06-.467 1.592-.687.522-.204 1.196-.516 1.702-.098.11.127.124.291.137.434.021.442-.026.878-.066 1.315-.204 1.744-.36 3.477-.683 5.21-.127.568-.29 1.169-.703 1.64-1.757 1.744-4.808.368-6.655-.59-1.479-.863-3.201-1.733-3.841-3.432z" class="cls-10"/><path fill="url(#h)" d="M203.43 250.18c.3-3.64-3.17-4.83-8.98-12.08-6.74-8.42-8.25-14.52-11.67-14.2-1.77.17-1.59 1.91-5.01 3.76-3.45 1.86-5.51 1.39-9.39 2.5-3.78 1.08-6.24 2.79-9.39 5.01-2.16 1.52-11.7 8.25-10.21 12.53.42 1.21 1.66 2.03 2.71 2.29 3.82.97 7.82-4.59 8.34-4.17.35.28-1.08 2.97-7.72 12.3-1.71 1.98-2.48 4.41-1.67 6.26.84 1.92 3.19 2.77 4.17 3.13 2.25.82 3.05.17 3.96 1.04 1.43 1.36-.09 3.35 1.25 5.42 1.12 1.74 3.37 2.18 5.35 2.57.89.17 3.07.58 5.7-.07 4.3-1.07 4.65-3.7 9.18-5.63 3.52-1.5 3.85-.13 6.88-1.46 3.74-1.63 4.17-4.11 9.18-10.22 5.36-6.54 7.1-6.43 7.31-8.98z" class="cls-14" transform="translate(47.768 111.361)scale(.26458)"/><path fill="#050505" d="M101.579 177.555c.06-.614-.424-1.061-.818-1.463a27 27 0 0 1-1.212-1.268c-.986-1.082-1.743-2.35-2.566-3.548-.304-.436-.841-.852-1.238-.293-.381.465-.932.788-1.5.976-.844.249-1.739.249-2.546.608-.534.215-1.029.522-1.51.85-.958.65-1.927 1.341-2.641 2.26-.328.42-.635 1.095-.161 1.518.433.431 1.087.32 1.547-.008.381-.235.657-.564 1.022-.833.02-.011.04-.024.087-.027.217.037.03.336-.019.447-.568 1.035-1.256 1.98-1.918 2.95-.799.948-.635 1.919.603 2.292.318.14.614.08.95.193 1.05.664-.685 1.82 2.075 2.228.812.116 1.677-.056 2.286-.622.468-.431 1.037-.834 1.67-1.019.41-.15.864-.034 1.267-.164.613-.17 1.074-.6 1.442-1.122.502-.69 1.02-1.375 1.595-2.01q.425-.48.889-.927c.294-.29.683-.566.704-1.016zm.026 0c-.016.455-.407.746-.7 1.045a15 15 0 0 0-.874.934c-.553.65-1.045 1.344-1.524 2.053-.35.542-.85 1.043-1.492 1.238a2.1 2.1 0 0 1-.662.096c-.41-.003-.796.148-1.164.344-.569.28-.976.822-1.545 1.135-.595.317-1.294.396-1.953.304-.883-.117-2.018-.426-1.931-1.537.01-.31.045-.582-.217-.725-1.728-.164-2.95-1.25-1.609-2.863.64-.9 1.387-1.892 1.953-2.881.04-.082.1-.183.111-.265-.005-.01.016.034.04.026.01 0-.006 0-.016.008-.566.429-1.103 1.056-1.87 1.106-.612.04-1.255-.526-1.075-1.164.071-.296.23-.553.402-.79.715-.94 1.686-1.633 2.63-2.319.476-.341.971-.666 1.519-.902 1.296-.606 2.98-.347 3.937-1.582.508-.667 1.222-.238 1.585.323.815 1.214 1.503 2.508 2.46 3.62.37.449.773.875 1.183 1.29.394.41.881.876.812 1.498z" class="cls-10"/><path fill="#fd965a" d="M85.794 167.458c2.976 1.239 6.64-1.521 7.736-2.749.109-.121.344-.349.532-.725.542-1.08.159-2.426 1.701-7.868.363-1.284.879-2.969.294-3.358-.355-.238-1.318.236-2.024.17-1.87-.178-2.953-.543-4.81-1.427-2.725-1.296-2.842-2.926-3.879-2.611-.442.135-.569.566-1.072 1.542-1.24 2.41-1.74 2.257-2.455 3.76-.772 1.627-.9 3.059-.995 4.165-.15 1.74-.005 3.693.53 4.754a10 10 0 0 0 1.058 1.612s.119.142.246.283c.122.135 1.656 1.838 3.138 2.455z" class="cls-2"/><path fill="#020202" d="M85.802 167.44c2.201.86 4.564-.304 6.307-1.64.643-.524 1.318-1.085 1.75-1.787.386-.748.364-1.616.52-2.444q.128-.854.3-1.699c.235-1.124.531-2.236.854-3.336.233-.826.524-1.633.664-2.477.053-.391.138-.857-.108-1.188-.28-.27-.82-.021-1.175.024-.558.156-1.156.085-1.725-.003-1.143-.153-2.254-.505-3.307-.968-1.347-.524-2.596-1.336-3.551-2.432-.765-.844-1.22-.452-1.603.45-.495 1.03-1.056 2.072-1.816 2.958-1.497 1.741-1.833 4.088-1.95 6.31-.042 1.125.006 2.276.307 3.35.236.757.715 1.46 1.191 2.101-.008-.016-.058-.021-.048-.016l.011.01.021.022c.976 1.085 2.014 2.151 3.358 2.762zm-.016.037c-1.291-.585-2.448-1.596-3.355-2.651l-.013-.019-.008-.01c.002 0-.053-.014-.066-.037l-.072-.085c-.495-.627-.973-1.265-1.251-2.032-.844-2.715-.503-6.895 1.034-9.308.164-.249.355-.479.537-.699.746-.852 1.291-1.836 1.8-2.86.132-.254.248-.521.463-.775.579-.611 1.272-.273 1.714.262.926 1.093 2.088 1.9 3.4 2.463 1.03.484 2.106.873 3.238 1.03.561.087 1.117.169 1.68.02.382-.052.823-.259 1.204-.073.78.624-.187 3.01-.344 3.894a47 47 0 0 0-1.024 5.027c-.15 1.122-.206 2.45-1.135 3.252-1.936 1.89-5.072 3.635-7.8 2.603z" class="cls-7"/><path fill="#202121" d="M121.669 153.229c.394 1.828.137 3.71-.156 5.53-.082.611-.143 1.222-.215 1.836-.238 2.466-1.468 4.884-3.392 6.459l-.029-.03c1.94-2.368 3.21-5.233 3.509-8.281.063-1.836.182-3.672.243-5.506z" class="cls-19"/><g stroke="#101111" stroke-miterlimit="10" transform="translate(47.768 111.361)scale(.26458)"><ellipse cx="134.31" cy="73.52" fill="#b9c4c6" class="cls-23" rx="17.33" ry="20.59"/><path fill="#b9c4c6" d="M290.87 74.66c0 12.4-8.32 22.46-18.59 22.46s-18.59-10.05-18.59-22.46 8.32-22.46 18.59-22.46 18.59 10.05 18.59 22.46z" class="cls-23"/><path fill="#e7f6e1" d="M129.12 55.16c-3.51-1.75 2.69-22.68 22.05-36.89 3.71-2.72 21.84-15.43 47.86-15.66 50.85-.46 82.66 47.16 78.94 50.58-.79.73-3.16-.55-8.12.52-6.16 1.33-7.49 4.38-9.79 3.95-4.2-.77-.6-11.05-7.81-20.95-3.65-5.01-8.54-7.84-12.63-10.21-10.17-5.88-20.22-7.53-24.81-8.24-3.87-.6-36.88-5.71-54.44 8.42-14.73 11.85-13.68 33.27-17.46 32.95-1.65-.14-1.64-4.19-5.51-5.37-3.71-1.13-6.78 1.64-8.27.9z" class="cls-22"/></g><path fill="#fafff8" stroke="#101111" stroke-miterlimit="10" stroke-width=".265" d="M123.804 125.802c.963-.764-3.038-5.895-1.651-7.686.534-.69 1.214-.047 3.302-.772 2.617-.91 3.712-2.675 4.953-2.167.391.161.706.632.772.722.442.6.527 1.214.572 1.49.249 1.547.659 1.4 1.617 4.89.119.433.227.912.444 1.875.325 1.442.339 1.672.257 1.96-.289 1.03-1.418 1.503-1.651 1.599-.334.14-1.32.553-2.326.05-.667-.333-1.32-1.056-1.339-1.958-.016-.775.445-1.328.572-1.484.121-.148.428-.508.957-.701.53-.196 1.014-.125 1.255-.085.584.092.695.294.828.209.487-.32-.81-3.23-1.186-4.075-.076-.172-.172-.375-.307-.709-.375-.931-.306-1.024-.441-1.122-.447-.32-1.313.651-3.485 1.675-.683.323-1.153.543-1.852.77-1.135.368-1.36.26-1.553.521-.45.612.47 1.62 1.341 4.178.622 1.826.588 2.5.516 2.94-.071.434-.29 1.706-1.391 2.27-1.067.545-2.175.024-2.313-.045-.145-.072-.995-.506-1.35-1.503-.09-.254-.314-.881-.05-1.548.376-.95 1.419-1.228 1.651-1.288 1.048-.278 1.538.254 1.858 0zm8.538 11.526c.616-.46-1.947-3.546-1.058-4.625.34-.416.777-.03 2.116-.466 1.678-.548 2.382-1.609 3.175-1.304.252.095.453.38.498.434.283.36.338.73.365.896.159.932.42.842 1.037 2.943.077.259.145.55.286 1.127.209.868.217 1.005.166 1.18-.185.619-.91.902-1.058.963-.214.085-.847.33-1.49.029-.428-.201-.846-.635-.857-1.177-.01-.466.286-.8.368-.895.08-.09.275-.304.614-.423.341-.116.648-.074.804-.05.373.055.447.177.532.124.312-.193-.519-1.945-.762-2.453-.048-.103-.111-.227-.196-.426-.24-.56-.198-.616-.283-.674-.286-.194-.841.391-2.233 1.008-.44.193-.738.325-1.188.463-.728.222-.87.156-.995.312-.288.368.302.974.86 2.513.4 1.098.376 1.506.33 1.77-.044.262-.187 1.027-.893 1.366-.686.328-1.395.013-1.485-.027-.095-.042-.637-.304-.865-.905-.058-.153-.201-.531-.034-.93.24-.572.91-.74 1.058-.776.672-.167.984.153 1.19 0z" class="cls-21"/><path fill="url(#i)" stroke="#050505" stroke-linecap="round" stroke-linejoin="round" stroke-width=".265" d="M91.895 179.656c-.526.608-.897 1.13-1.143 1.505-.288.44-.516.847-.976 1.019-.23.087-.442.084-.582.069" class="cls-30"/><path fill="url(#j)" stroke="#050505" stroke-linecap="round" stroke-linejoin="round" stroke-width=".265" d="M93.522 181.7c-.526.61-.897 1.13-1.143 1.506-.288.44-.516.847-.976 1.019-.23.087-.442.085-.582.069" class="cls-29"/><path fill="#ffdeb0" d="M83.375 154.576a10.1 10.1 0 0 0-.838 5.448c.026.211.164.396.397.396.193 0 .423-.182.397-.396-.22-1.715.015-3.47.73-5.049.09-.196.055-.426-.143-.542-.17-.1-.455-.053-.543.143m22.26 10.506 2.246-2.444c.14-.154.162-.413 0-.561-.153-.14-.41-.164-.56 0l-2.247 2.444c-.14.154-.161.413 0 .561.153.14.41.164.56 0zm-2.154 2.26c.51 0 .51-.794 0-.794s-.51.794 0 .794m14.227-17.64a5.71 5.71 0 0 1 1.278 4.752c-.096.5.67.712.764.212a6.57 6.57 0 0 0-1.484-5.525c-.336-.386-.894.177-.56.561z" class="cls-9"/></g></svg>