<?xml version="1.0" encoding="UTF-8" standalone="no"?>
<!-- Created with Inkscape (http://www.inkscape.org/) -->

<svg
   width="17.478205mm"
   height="26.261879mm"
   viewBox="0 0 17.478205 26.261879"
   version="1.1"
   id="svg1"
   inkscape:version="1.3.2 (091e20e, 2023-11-25)"
   sodipodi:docname="music.svg"
   xmlns:inkscape="http://www.inkscape.org/namespaces/inkscape"
   xmlns:sodipodi="http://sodipodi.sourceforge.net/DTD/sodipodi-0.dtd"
   xmlns="http://www.w3.org/2000/svg"
   xmlns:svg="http://www.w3.org/2000/svg">
  <sodipodi:namedview
     id="namedview1"
     pagecolor="#ffffff"
     bordercolor="#000000"
     borderopacity="0.25"
     inkscape:showpageshadow="2"
     inkscape:pageopacity="0.0"
     inkscape:pagecheckerboard="0"
     inkscape:deskcolor="#d1d1d1"
     inkscape:document-units="mm"
     inkscape:zoom="0.2102413"
     inkscape:cx="30.916856"
     inkscape:cy="47.564393"
     inkscape:window-width="1312"
     inkscape:window-height="449"
     inkscape:window-x="0"
     inkscape:window-y="25"
     inkscape:window-maximized="0"
     inkscape:current-layer="layer1" />
  <defs
     id="defs1" />
  <g
     inkscape:label="Layer 1"
     inkscape:groupmode="layer"
     id="layer1"
     transform="translate(-96.308335,-135.46667)">
    <g
       class="cls-79"
       id="g235"
       style="isolation:isolate"
       transform="matrix(0.26458333,0,0,0.26458333,20.415107,14.336027)">
      <text
         class="cls-77"
         transform="rotate(-63.7,534.63574,0.72956479)"
         id="text234"
         style="font-size:14.8px;font-family:ChalkboardSE-Regular, 'Chalkboard SE';isolation:isolate;fill:#25729c"><tspan
           x="0"
           y="0"
           id="tspan234">I</tspan></text>
    </g>
    <g
       class="cls-79"
       id="g236"
       style="isolation:isolate"
       transform="matrix(0.26458333,0,0,0.26458333,20.415107,14.336027)">
      <text
         class="cls-77"
         transform="rotate(-82.7,418.55863,63.388444)"
         id="text235"
         style="font-size:14.8px;font-family:ChalkboardSE-Regular, 'Chalkboard SE';isolation:isolate;fill:#25729c"><tspan
           x="0"
           y="0"
           id="tspan235">C</tspan></text>
    </g>
    <path
       class="cls-4"
       d="m 101.11302,153.63915 c 0,0 -0.0529,-0.0265 -0.0529,-0.0529 -0.0794,0 -0.1323,0 -0.21167,0 h -0.18521 c -0.0529,-0.0529 -0.21167,0 -0.21167,-0.13229 0,-0.10583 0.15875,-0.0529 0.23813,-0.0794 0.0265,0 0.0794,0 0.10583,0 0,-0.0529 -0.0265,-0.0794 -0.0529,-0.13229 -0.18521,-0.3175 -0.34396,-0.635 -0.4498,-1.00542 -0.0529,-0.23813 -0.13229,-0.44979 -0.10583,-0.68792 0,-0.34396 0,-0.68791 0,-1.03187 0,-0.26459 0.0529,-0.50271 0.13229,-0.76729 0.0794,-0.3175 0.21167,-0.635 0.37042,-0.89959 0,-0.0265 0.0529,-0.0529 0.0794,-0.0794 0.0794,-0.0529 0.1323,-0.13229 0.15875,-0.21167 0,0 0,-0.0529 0,-0.0529 -0.0529,-0.0529 -0.13229,-0.0794 -0.23812,-0.0529 0,0 -0.0529,0 -0.0794,0 -0.0529,-0.0265 -0.10583,-0.0529 -0.13229,0 -0.0794,0.13229 -0.21166,0.23812 -0.34396,0.3175 -0.211662,0.21166 -0.317496,0.44979 -0.423329,0.71437 -0.132292,0.34396 -0.211667,0.71438 -0.238125,1.11125 0,0.21167 -0.05292,0.42334 -0.02646,0.60854 0,0.18521 0,0.39688 0.07938,0.58209 0,0 0,0.0265 0.02646,0.0529 0,0.0794 0.05292,0.23813 -0.05292,0.23813 -0.105833,0 -0.105833,-0.13229 -0.105833,-0.21167 0,-0.0265 0,-0.0529 -0.02646,-0.0794 v 0 c 0,-0.13229 0,-0.23813 -0.05292,-0.34396 -0.02646,-0.21167 -0.02646,-0.44979 0,-0.66146 0.07937,0 0.05292,0.0529 0.05292,0.0794 0,0.10583 0,0.1852 0,0.26458 0,-0.13229 0.05292,-0.29104 -0.05292,-0.44979 0,-0.0265 0,-0.0794 0,-0.10584 0.05292,-0.10583 0.05292,-0.21166 0.05292,-0.34395 0,0 0,-0.0265 0,-0.0529 0.02646,0 0.02646,-0.0529 0,-0.0794 0,0 0,0 0,-0.0264 0.05292,-0.0529 0.05292,-0.1323 0.05292,-0.18521 0,0 0,-0.0529 0,-0.0794 v 0 c 0,0 0,-0.0265 0,-0.0265 0,0 0,-0.0529 0,-0.0529 v 0 c 0,0 0.02646,0 0,-0.0529 0,0 0,0 0,-0.0265 0.05292,-0.0529 0.05292,-0.13229 0.07937,-0.18521 0,0 0,0 0,0 0.02646,0 0,-0.0529 0.02646,-0.0794 v 0 c 0.02646,0 0.02646,-0.0529 0.02646,-0.0794 0,-0.0265 0,-0.0529 0.02646,-0.0794 0.105834,-0.10583 0.132292,-0.21167 0.185209,-0.34396 0.02646,-0.0794 0.07937,-0.13229 0.132291,-0.18521 0.05292,0 0.05292,-0.0529 0.07937,-0.10583 0.105837,-0.13229 0.211667,-0.26458 0.343957,-0.34396 0.0265,-0.0265 0.0794,-0.0794 0.0794,-0.13229 0,-0.0529 0,-0.10583 0.0529,-0.13229 0.0794,0 0.0794,0.0529 0.10584,0.10583 0,0.0265 0,0.0529 0.0265,0.0794 0,0 0,0 0.0264,0.0264 0.10584,0.0529 0.21167,0.1323 0.3175,0.0265 0,0 0.0265,0 0.0529,-0.0265 0.0529,-0.0264 0.0265,-0.10583 0.0529,-0.13229 0,0 0,-0.0265 0,-0.0529 0,-0.0529 0,-0.0794 0,-0.1323 0.0529,-0.37041 0.13229,-0.74083 0.23812,-1.11125 0.29104,-1.03187 0.68792,-2.01083 1.27,-2.91041 0.60854,-0.9525 1.37584,-1.74625 2.40771,-2.24896 0.15875,-0.0794 0.3175,-0.13229 0.47625,-0.21167 1.05833,-0.3175 2.01083,-0.15875 2.8575,0.60854 0.23813,0.21167 0.44979,0.47625 0.58208,0.7673 0,0.0529 0,0.10583 0.0529,0.15875 0,0 0,0.0265 0,0.0265 0,0.0265 0.0265,0.0794 0.0529,0.10584 0,0 0,0.0265 0,0.0529 0,0.0529 0.0529,0.10584 0.0794,0.1323 0,0 0,0.0265 0,0.0529 0.15875,0.37042 0.23813,0.76729 0.3175,1.13771 0,0.10583 0.0265,0.18521 0.0265,0.26458 0,0.18521 0.0529,0.37042 0.0265,0.55563 0,0.10583 0.0529,0.15875 0.10583,0.21167 0.0529,0.37041 0.0265,0.76729 0,1.1377 0,0.1323 0,0.29105 -0.0529,0.42334 -0.0529,0.10583 -0.0529,0.21166 -0.0794,0.34396 0,0.15875 -0.0265,0.3175 -0.0265,0.5027 0,0.29105 -0.0529,0.58209 -0.13229,0.89959 -0.0529,0.29104 -0.0529,0.29104 0.21167,0.34396 0.10583,-0.0265 0.10583,-0.1323 0.10583,-0.21167 0.15875,-0.76729 0.26458,-1.56104 0.3175,-2.35479 0.0529,-0.79375 0,-1.5875 -0.15875,-2.38125 -0.13229,-0.66146 -0.34396,-1.29646 -0.71437,-1.85209 0,0 0,-0.0264 -0.0265,-0.0529 -0.0265,-0.0529 -0.0529,-0.0794 -0.0794,-0.13229 -0.0529,-0.0529 -0.10583,-0.1323 -0.13229,-0.18521 0,-0.0265 0,-0.0529 -0.0265,-0.0794 0,0 0,-0.0265 0,-0.0529 -0.21166,-0.26459 -0.44979,-0.47625 -0.76729,-0.60855 0,0 -0.0265,0 -0.0529,-0.0265 -0.26458,-0.21167 -0.58208,-0.29105 -0.89958,-0.37042 -0.76729,-0.15875 -1.50812,0 -2.19604,0.3175 0,0 -0.0265,0 -0.0265,0.0265 -0.0529,0 -0.10583,0.0265 -0.13229,0.0529 0,0 -0.0265,0 -0.0529,0 -0.26458,0.10584 -0.52916,0.23813 -0.71437,0.4498 0,0 -0.0265,0 -0.0529,0.0265 -0.10583,0.0529 -0.18521,0.1323 -0.26458,0.18521 -0.10584,0.0794 -0.18521,0.0529 -0.21167,-0.0529 v 0 c 0.0265,0 0.0529,-0.0265 0.0794,-0.0529 v 0 c 0.10583,0 0.13229,-0.10583 0.21166,-0.15875 v 0 c 0,0 0.0529,0 0.0529,-0.0529 v 0 c 0.0265,0 0.0529,-0.0265 0.0794,-0.0529 v 0 c 0,0 0.0529,0 0.0529,-0.0529 v 0 c 0.0529,0 0.10583,-0.0529 0.13229,-0.10583 0.0794,0 0.15875,-0.0794 0.21167,-0.1323 v 0 c 0,0 0.0529,0 0.0529,-0.0529 v 0 c 0.0264,0 0.0529,0 0.0794,-0.0265 v 0 c 0.0265,0 0.0529,-0.0265 0.0794,-0.0529 0,0 0,0 0.0264,0 0.10584,-0.0265 0.21167,-0.0794 0.29105,-0.13229 v 0 c 0.3175,-0.13229 0.635,-0.23812 0.9525,-0.3175 0.47625,-0.0794 0.9525,-0.0794 1.40229,0 0.0265,0 0.0794,0 0.13229,0 v 0 c 0.15875,0.0794 0.34396,0.0794 0.50271,0.13229 0.21166,0.0529 0.39687,0.10584 0.58208,0.15875 v 0 c 0.10583,0.0794 0.23813,0.10584 0.37042,0.13229 v 0 c 0.18521,0.0794 0.37041,0.18521 0.58208,0.29105 v 0 c 0.18521,0.13229 0.37042,0.26458 0.55563,0.37041 v 0 c 0,0.0265 0.0529,0 0.0529,0.0529 v 0 c 0.0529,0.0529 0.13229,0.13229 0.21167,0.15875 v 0 c 0,0 0,0.0265 0.0529,0.0265 0.87312,0.76729 1.40229,1.74625 1.66687,2.88396 0.29104,1.29645 0.18521,2.56645 -0.15875,3.83645 -0.0265,0.1323 -0.0265,0.21167 0.0529,0.3175 0.26458,0.37042 0.37041,0.7673 0.39687,1.21709 0.0794,0.92604 -0.0265,1.82562 -0.52916,2.64583 -0.0794,0.13229 -0.18521,0.26458 -0.3175,0.37042 -0.21167,0.18521 -0.42334,0.29104 -0.71438,0.26458 -0.10583,0 -0.15875,0.0265 -0.21167,0.13229 -0.26458,0.44979 -0.58208,0.82021 -1.05833,1.00542 -0.13229,0.0529 -0.26458,0.10583 -0.39687,0.10583 -0.55563,0 -1.0848,0.0529 -1.64042,-0.0265 -0.9525,-0.15875 -1.53458,-0.76729 -1.87854,-1.64041 -0.0529,-0.10584 -0.0794,-0.21167 -0.13229,-0.3175 -0.0794,0 -0.0529,0.0794 -0.0794,0.13229 -0.15875,0.34396 -0.3175,0.68792 -0.58208,0.97896 -0.3175,0.37041 -0.71438,0.58208 -1.19063,0.635 -0.55562,0.0794 -1.08479,0 -1.56104,-0.26459 -0.0265,-0.0264 -0.0529,-0.0529 -0.10583,-0.0529 v 0 c 0,0 0,0 0,0 -0.21167,-0.18521 -0.44979,-0.34396 -0.66146,-0.52917 v 0 c 0,-0.0529 -0.0529,-0.0794 -0.10583,-0.10583 v 0 z"
       id="path418"
       style="fill:#0b0e69;stroke-width:0px" />
    <path
       class="cls-2"
       d="m 100.61031,148.21519 c -0.0529,0 -0.0794,0 -0.0529,-0.0794 0,-0.0265 0.0265,-0.10584 -0.0265,-0.10584 -0.0529,0 -0.0529,0.0529 -0.0265,0.0794 0,0.0794 0,0.13229 -0.10583,0.13229 0.0794,-0.15875 0.0529,-0.3175 0.10583,-0.47625 0.13229,-0.0265 0.0529,0.0794 0.0794,0.10583 0.0529,-0.5027 0.1852,-1.03187 0.39687,-1.50812 -0.0794,0.0794 0,0.23812 -0.18521,0.23812 0.0265,-0.15875 0.0794,-0.3175 0.13229,-0.44979 0,0 0.0529,-0.0265 0.0265,-0.0794 0.15875,-0.60854 0.42334,-1.16417 0.71438,-1.71979 0.39687,-0.79375 0.89958,-1.50813 1.56104,-2.14313 0.0794,-0.0794 0.15875,-0.15875 0.26458,-0.23812 0.0529,0.13229 0.13229,0.0794 0.21167,0 0.0794,-0.0794 0.15875,-0.18521 0.29104,-0.15875 0,0.0794 -0.0529,0.13229 -0.10583,0.15875 -0.92604,0.74083 -1.5875,1.71979 -2.11667,2.77812 -0.50271,1.03188 -0.82021,2.11667 -1.03187,3.22792 0,0.0794 0,0.18521 -0.10584,0.23812 v 0 z"
       id="path419"
       style="fill:#141465;stroke-width:0px" />
    <path
       class="cls-2"
       d="m 100.90136,153.40103 c 0,0.0529 -0.0529,0.0794 -0.10584,0.0529 -0.10583,-0.0529 -0.18521,0.0265 -0.29104,0 0.0794,0.0265 0.13229,0.0529 0.15875,0.13229 -0.50271,-0.0265 -0.846666,-0.29104 -1.031874,-0.76729 0.05292,0 0.105833,0 0.132292,0.0529 -0.02646,-0.10583 -0.15875,-0.18521 -0.02646,-0.29104 0.07937,0 0.105834,0.0794 0.132292,0.13229 0.05292,0.10583 0.105833,0.18521 0.15875,0.29104 0,0 0.0265,0.0529 0.0529,0.0794 0,0 0,0 0.0265,0.0265 0.15875,0.15875 0.34395,0.21167 0.52916,0.21167 0.0794,0 0.15875,0 0.23813,0.0529 v 0 z"
       id="path420"
       style="fill:#141465;stroke-width:0px" />
    <path
       class="cls-2"
       d="m 107.33073,140.75394 c -0.10583,0.0529 -0.23812,0 -0.34396,0 -0.635,-0.13229 -1.21708,-0.0265 -1.82562,0.18521 -0.10584,0.0265 -0.21167,0.13229 -0.34396,0.10583 0.79375,-0.37041 1.61396,-0.5027 2.48708,-0.29104 v 0 z"
       id="path421"
       style="fill:#141465;stroke-width:0px" />
    <path
       class="cls-4"
       d="m 100.76906,146.57478 c 0.10584,0 0.10584,-0.10584 0.1323,-0.15875 0.0264,-0.0794 0.0264,-0.15875 0.10583,-0.23813 -0.15875,0.58208 -0.29104,1.16417 -0.42333,1.74625 -0.0529,-0.0529 0,-0.15875 -0.10584,-0.18521 0,0 0,0 0,-0.0265 0,0 0,-0.0265 0,-0.0529 0,-0.0265 0,-0.0265 0,-0.0529 v 0 c 0,0 0,-0.0265 0,-0.0265 v -0.0794 c 0.0529,-0.0794 0.0529,-0.15875 0.0794,-0.23813 0,0 0,0 0,-0.0265 0,-0.0265 0,-0.0794 0.0265,-0.10583 0,0 0,0 0,-0.0265 0,0 0.0264,0 0.0529,0 -0.0265,-0.13229 0.0529,-0.26458 0.0529,-0.39687 0,0 0,0 0,-0.0265 0,-0.0265 0,-0.0794 0.0265,-0.10583 v 0 c 0,0 0,0 0,0 z"
       id="path422"
       style="fill:#0b0e69;stroke-width:0px" />
    <path
       class="cls-2"
       d="m 99.340314,151.78707 c 0.05292,0 0.07937,0 0.07937,0.0529 0,0.0794 0,0.1323 0.07937,0.21167 0.05292,-0.10583 0,-0.18521 0.02646,-0.29104 0.02646,0 0.05292,0 0.05292,0.0529 0.02646,0.15875 0.132292,0.3175 0.105834,0.5027 -0.05292,0.0265 -0.105834,0.0265 -0.132292,-0.0264 0,0.0529 0.05292,0.0794 0.05292,0.13229 0,0.0529 0.02646,0.13229 -0.07937,0.13229 -0.105834,-0.26458 -0.185209,-0.50271 -0.185209,-0.76729 z"
       id="path423"
       style="fill:#141465;stroke-width:0px" />
    <path
       class="cls-2"
       d="m 108.44198,141.04498 c -0.29104,-0.0265 -0.58208,-0.13229 -0.87312,-0.1852 -0.0794,0 -0.21167,0.0529 -0.23813,-0.0794 0.37042,0.0529 0.74083,0.13229 1.11125,0.26458 z"
       id="path424"
       style="fill:#141465;stroke-width:0px" />
    <path
       class="cls-4"
       d="m 99.525523,152.58082 c 0.105833,-0.0794 0,-0.13229 0,-0.21167 0,-0.0529 -0.02646,-0.0794 -0.05292,-0.13229 0,-0.0265 0,-0.0529 0.02646,-0.0794 0.05292,0 0.05292,0 0.05292,0.0529 0,0.0529 -0.02646,0.15875 0.07937,0.13229 0,0 0.02646,0.0265 0.02646,0.0529 0,0.0529 0,0.10583 0.02646,0.13229 0,0 0,0 0,0.0265 -0.05292,0.0794 0,0.15875 0.02646,0.23812 0.02646,0.0529 0.05292,0.1323 0.105833,0.21167 -0.132291,-0.0529 -0.105833,-0.21167 -0.238125,-0.21167 0,0 0,0 0,-0.0265 0,-0.0794 0,-0.15875 -0.07937,-0.21167 0,0 0,0 0,0 v 0 z"
       id="path425"
       style="fill:#0b0e69;stroke-width:0px" />
    <path
       class="cls-2"
       d="m 101.21886,153.77144 c 0.13229,0 0.1852,0.10584 0.26458,0.18521 0.13229,0.13229 0.3175,0.15875 0.39687,0.34396 -0.26458,-0.13229 -0.47625,-0.3175 -0.66145,-0.52917 z"
       id="path426"
       style="fill:#141465;stroke-width:0px" />
    <path
       class="cls-2"
       d="m 109.97656,141.83873 c -0.13229,0.0265 -0.21166,-0.0794 -0.29104,-0.13229 -0.10583,-0.0794 -0.26458,-0.10583 -0.29104,-0.23812 0.21167,0.10583 0.39688,0.23812 0.55563,0.37041 v 0 z"
       id="path427"
       style="fill:#141465;stroke-width:0px" />
    <path
       class="cls-2"
       d="m 109.36802,141.46832 c -0.21166,-0.0529 -0.39687,-0.13229 -0.58208,-0.29104 0.21167,0.0529 0.39687,0.15875 0.58208,0.29104 z"
       id="path428"
       style="fill:#141465;stroke-width:0px" />
    <path
       class="cls-2"
       d="m 100.74261,146.70707 c 0.0264,0 0.0529,0 0.0529,0.0529 -0.0529,0.1323 -0.0794,0.26459 -0.0794,0.42334 -0.0265,-0.0265 -0.0529,-0.0529 -0.0529,-0.0794 0.0265,-0.13229 0.0529,-0.26458 0.10583,-0.39687 v 0 z"
       id="path429"
       style="fill:#141465;stroke-width:0px" />
    <path
       class="cls-2"
       d="m 99.816564,148.87665 c 0,0 0.05292,0 0.05292,0.0265 -0.05292,0.10583 -0.105833,0.23812 -0.185208,0.3175 -0.02646,0.0529 -0.02646,0 -0.05292,-0.0265 0.02646,-0.13229 0.105833,-0.23812 0.185208,-0.34396 v 0 z"
       id="path430"
       style="fill:#141465;stroke-width:0px" />
    <path
       class="cls-2"
       d="m 99.260939,150.67582 c 0.02646,0 0.07938,-0.0794 0.07938,0 0,0.21166 0,0.39687 0,0.60854 -0.05292,-0.15875 0.02646,-0.34396 -0.05292,-0.50271 v -0.10583 0 z"
       id="path431"
       style="fill:#141465;stroke-width:0px" />
    <path
       class="cls-2"
       d="m 99.287398,151.44311 c 0.105833,0 0.105833,0.0794 0.105833,0.15875 0,0.0529 -0.02646,0.13229 -0.02646,0.18521 -0.05292,-0.10584 -0.05292,-0.21167 -0.05292,-0.34396 z"
       id="path432"
       style="fill:#141465;stroke-width:0px" />
    <path
       class="cls-2"
       d="m 108.8124,141.17728 c -0.13229,0 -0.26459,0 -0.37042,-0.1323 0.13229,0 0.23813,0.0794 0.37042,0.1323 z"
       id="path433"
       style="fill:#141465;stroke-width:0px" />
    <path
       class="cls-2"
       d="m 99.340314,150.22603 c 0.05292,0.13229 0.07937,0.23812 -0.05292,0.34395 0,-0.10583 0,-0.23812 0.05292,-0.34395 z"
       id="path434"
       style="fill:#141465;stroke-width:0px" />
    <path
       class="cls-2"
       d="m 104.81719,141.04498 c -0.0529,0.1323 -0.15875,0.15875 -0.29104,0.1323 0.0794,-0.0529 0.18521,-0.10584 0.29104,-0.1323 z"
       id="path435"
       style="fill:#141465;stroke-width:0px" />
    <path
       class="cls-2"
       d="m 103.7324,141.70644 c -0.0265,0.10584 -0.0529,0.21167 -0.21167,0.18521 0.0529,-0.0794 0.13229,-0.13229 0.21167,-0.18521 z"
       id="path436"
       style="fill:#141465;stroke-width:0px" />
    <path
       class="cls-2"
       d="m 100.61031,147.26269 c 0,0.0794 0.0529,0.18521 -0.0529,0.23813 0,-0.0794 0.0265,-0.15875 0.0529,-0.23813 z"
       id="path437"
       style="fill:#141465;stroke-width:0px" />
    <path
       class="cls-2"
       d="m 99.551981,152.60728 c 0.105833,0.0529 0.15875,0.10583 0.07937,0.21166 -0.02646,-0.0529 -0.07937,-0.13229 -0.07937,-0.21166 z"
       id="path438"
       style="fill:#141465;stroke-width:0px" />
    <path
       class="cls-2"
       d="m 110.24115,142.0504 c -0.13229,0 -0.18521,-0.0529 -0.21167,-0.18521 0.0794,0.0529 0.15875,0.10584 0.21167,0.18521 z"
       id="path439"
       style="fill:#141465;stroke-width:0px" />
    <path
       class="cls-2"
       d="m 104.28802,141.33603 c -0.0529,0.0794 -0.0794,0.1852 -0.21166,0.13229 0.0529,-0.0529 0.13229,-0.10584 0.21166,-0.13229 z"
       id="path440"
       style="fill:#141465;stroke-width:0px" />
    <path
       class="cls-2"
       d="m 99.393231,149.88207 c 0,0.0794 0.132292,0.18521 -0.05292,0.18521 0,-0.0529 0,-0.1323 0.05292,-0.18521 z"
       id="path441"
       style="fill:#141465;stroke-width:0px" />
    <path
       class="cls-2"
       d="m 99.551981,149.43228 c 0.05292,0.0794 0.05292,0.15875 -0.07937,0.1852 0,-0.0794 0.02646,-0.13229 0.07937,-0.1852 z"
       id="path442"
       style="fill:#141465;stroke-width:0px" />
    <path
       class="cls-2"
       d="m 104.07636,141.46832 c 0,0.10583 -0.0794,0.10583 -0.1323,0.10583 0.0265,-0.0529 0.0794,-0.0794 0.1323,-0.10583 z"
       id="path443"
       style="fill:#141465;stroke-width:0px" />
    <path
       class="cls-2"
       d="m 101.11302,153.63915 c 0.0794,0 0.10584,0.0265 0.10584,0.10583 -0.0529,0 -0.0794,-0.0529 -0.10584,-0.10583 z"
       id="path444"
       style="fill:#141465;stroke-width:0px" />
    <path
       class="cls-2"
       d="m 100.84844,153.61269 c 0.0794,-0.0529 0.13229,-0.0529 0.21167,0 z"
       id="path445"
       style="fill:#141465;stroke-width:0px" />
    <path
       class="cls-2"
       d="m 100.02823,148.58561 c 0.0265,0.0794 0,0.10583 -0.07937,0.10583 0.02646,-0.0265 0.05291,-0.0794 0.07937,-0.10583 z"
       id="path446"
       style="fill:#141465;stroke-width:0px" />
    <path
       class="cls-2"
       d="m 101.88031,154.30061 c 0.0529,0 0.10584,0 0.10584,0.0529 -0.0529,0 -0.0794,0 -0.10584,-0.0529 z"
       id="path447"
       style="fill:#141465;stroke-width:0px" />
    <path
       class="cls-2"
       d="m 99.340314,150.12019 c 0.02646,0 0.07937,0 0.05292,0.0529 0,0.0529 -0.05292,0 -0.05292,0 0,0 0,-0.0529 0,-0.0794 v 0 z"
       id="path448"
       style="fill:#141465;stroke-width:0px" />
    <path
       class="cls-2"
       d="m 99.472606,149.6704 c 0.02646,0 0.05292,0.0265 0.05292,0.0794 0,0 -0.02646,0 -0.05292,-0.0265 0,0 0,-0.0265 0,-0.0529 z"
       id="path449"
       style="fill:#141465;stroke-width:0px" />
    <path
       class="cls-2"
       d="m 104.49969,141.20373 c 0,0.0529 -0.0265,0.0529 -0.0794,0.0529 0.0265,0 0.0529,-0.0265 0.0794,-0.0529 z"
       id="path450"
       style="fill:#141465;stroke-width:0px" />
    <path
       class="cls-2"
       d="m 99.578439,149.3529 c 0,0 0.02646,0.0529 0,0.0794 0,0.0265 -0.02646,0 -0.05292,0 0,-0.0265 0,-0.0529 0.02646,-0.0794 v 0 z"
       id="path451"
       style="fill:#141465;stroke-width:0px" />
    <path
       class="cls-2"
       d="m 103.89115,141.60061 c 0,0.0529 -0.0265,0.0794 -0.0794,0.0529 0,-0.0265 0.0529,-0.0529 0.0794,-0.0529 z"
       id="path452"
       style="fill:#141465;stroke-width:0px" />
    <path
       class="cls-2"
       d="m 103.52073,141.89165 c 0,0.0529 -0.0265,0.0794 -0.0794,0.0794 0,-0.0265 0.0264,-0.0529 0.0794,-0.0794 z"
       id="path453"
       style="fill:#141465;stroke-width:0px" />
    <path
       class="cls-2"
       d="m 100.63677,147.1304 c 0,0.0265 0,0.0794 -0.0265,0.10583 0,-0.0265 0,-0.0529 0.0265,-0.10583 z"
       id="path454"
       style="fill:#141465;stroke-width:0px" />
    <path
       class="cls-2"
       d="m 100.76906,146.57478 c 0,0.0264 0,0.0794 -0.0264,0.10583 0,-0.0265 0,-0.0529 0.0264,-0.10583 z"
       id="path455"
       style="fill:#141465;stroke-width:0px" />
    <path
       class="cls-4"
       d="m 100.95427,146.04561 c 0.0529,0.0529 0,0.0529 -0.0265,0.0794 0,0 0,-0.0529 0.0265,-0.0794 z"
       id="path456"
       style="fill:#0b0e69;stroke-width:0px" />
    <path
       class="cls-2"
       d="m 99.604898,149.27353 c 0,0.0265 0.02646,0.0794 -0.02646,0.0794 0,-0.0265 0,-0.0529 0.02646,-0.0794 z"
       id="path457"
       style="fill:#141465;stroke-width:0px" />
    <path
       class="cls-2"
       d="m 99.446148,149.69686 v 0.10583 0 c 0,-0.0265 0,-0.0794 0.02646,-0.10583 v 0 z"
       id="path458"
       style="fill:#141465;stroke-width:0px" />
    <path
       class="cls-2"
       d="m 103.81177,141.65353 c 0,0.0265 -0.0265,0.0529 -0.0529,0.0529 0,0 0.0529,-0.0265 0.0529,-0.0529 z"
       id="path459"
       style="fill:#141465;stroke-width:0px" />
    <path
       class="cls-2"
       d="m 104.42031,141.23019 c 0,0.0265 -0.0264,0.0529 -0.0794,0.0265 0,-0.0265 0.0529,-0.0265 0.0794,-0.0265 z"
       id="path460"
       style="fill:#141465;stroke-width:0px" />
    <path
       class="cls-2"
       d="m 104.3674,141.28311 c 0,0.0265 -0.0265,0.0529 -0.0529,0.0529 0,0 0.0529,-0.0265 0.0529,-0.0529 z"
       id="path461"
       style="fill:#141465;stroke-width:0px" />
    <path
       class="cls-2"
       d="m 110.02948,141.89165 c -0.0265,0 -0.0529,0 -0.0529,-0.0529 0,0 0.0529,0.0265 0.0529,0.0529 z"
       id="path462"
       style="fill:#141465;stroke-width:0px" />
    <path
       class="cls-2"
       d="m 103.94406,141.54769 c 0,0.0265 -0.0264,0.0529 -0.0529,0.0529 0,0 0.0529,-0.0265 0.0529,-0.0529 z"
       id="path463"
       style="fill:#141465;stroke-width:0px" />
    <path
       class="cls-2"
       d="m 100.53094,147.65957 c 0,0 0,0.0265 0,0.0529 0,0 0,-0.0265 0,-0.0529 z"
       id="path464"
       style="fill:#141465;stroke-width:0px" />
    <path
       class="cls-2"
       d="m 110.26761,142.10332 c 0,0 -0.0265,0 -0.0529,-0.0265 0,0 0.0265,0 0.0529,0.0265 z"
       id="path465"
       style="fill:#141465;stroke-width:0px" />
    <path
       class="cls-2"
       d="m 100.5574,147.60665 h -0.0265 z"
       id="path466"
       style="fill:#141465;stroke-width:0px" />
    <path
       class="cls-31"
       d="m 107.67469,147.79186 c -0.84667,0.0529 -1.37583,0.55562 -1.79917,1.24354 -0.0794,0.15875 -0.15875,0.29104 -0.26458,0.47625 -0.0794,-0.34396 -0.15875,-0.635 -0.29104,-0.92604 -0.10584,-0.26458 -0.26459,-0.52917 -0.44979,-0.76729 -0.37042,-0.42334 -0.84667,-0.58209 -1.4023,-0.60854 -0.21166,0 -0.21166,0 -0.15875,-0.21167 0.3175,-1.34938 0.7673,-2.64583 1.64042,-3.75708 0.42333,-0.52917 0.9525,-0.97896 1.64042,-1.19063 0.47625,-0.13229 0.92604,-0.10583 1.37583,0.0529 0.10583,0.0265 0.15875,0.10583 0.23813,0.18521 0.52916,0.55562 0.79375,1.21708 0.9525,1.95791 0.21166,0.97896 0.21166,1.95792 0.13229,2.93688 0,0.23812 -0.0529,0.44979 -0.0794,0.66146 0,0.10583 -0.0529,0.13229 -0.13229,0.0794 -0.15875,-0.0529 -0.3175,-0.10583 -0.47625,-0.13229 -0.0265,0 -0.0794,0.0265 -0.10583,0 0,0 -0.0529,0 -0.0794,0 -0.26458,0.0529 -0.50271,0.0265 -0.76729,0 v 0 z"
       id="path467"
       style="fill:#ffdca8;stroke-width:0px" />
    <path
       class="cls-48"
       d="m 105.39927,150.14665 c -0.0529,0.29104 -0.13229,0.58208 -0.15875,0.87313 -0.0529,0.44979 -0.0529,0.87312 0.0265,1.32291 0,0.10584 0,0.18521 -0.0529,0.26459 -0.0529,0.1852 -0.13229,0.34395 -0.21166,0.5027 0,0 0,0.0265 0,0.0529 0,0 0,0.0529 -0.0265,0.0794 -0.0794,0.0529 -0.10583,0.13229 -0.15875,0.21166 -0.21167,0.29104 -0.50271,0.47625 -0.84667,0.52917 -0.26458,0.0529 -0.50271,-0.0529 -0.68791,-0.18521 -0.37042,-0.26458 -0.58209,-0.60854 -0.71438,-1.03187 -0.44979,-1.32292 -0.42333,-2.64584 0.0529,-3.96875 0.13229,-0.39688 0.37041,-0.71438 0.635,-1.03188 0,0 0,0 0.0265,0 0.52916,-0.34396 1.08479,-0.10583 1.42875,0.26458 0.34395,0.37042 0.52916,0.82021 0.66145,1.29646 0.0529,0.21167 0.1323,0.39688 0.10584,0.635 v 0 c -0.0265,0.0529 -0.0265,0.10584 -0.0529,0.18521 v 0 z"
       id="path468"
       style="fill:#afb6c1;stroke-width:0px" />
    <path
       class="cls-3"
       d="m 100.61031,148.21519 c 0.26459,-1.5875 0.74084,-3.12208 1.61396,-4.49791 0.47625,-0.74084 1.03188,-1.37584 1.71979,-1.93146 v 0 c 0.21167,-0.23813 0.47625,-0.37042 0.7673,-0.47625 v 0 c 0,0 0,0 0,0 0.0264,-0.0529 0.10583,-0.0529 0.13229,-0.0794 v 0 c 0,0 0,0 0,0 0.23812,-0.15875 0.52916,-0.23812 0.79375,-0.3175 0.60854,-0.13229 1.24354,-0.15875 1.85208,0.0529 0.18521,0.0794 0.39688,0.13229 0.55563,0.29104 v 0 c 0,0 0,0 0,0 0.34395,0.13229 0.58208,0.39688 0.79375,0.66146 v 0 c 0.0529,0 0.0264,0.0529 0.0529,0.0529 0.0529,0.0794 0.10584,0.13229 0.13229,0.21166 0.0265,0.0265 0.0265,0.0794 0.0794,0.10584 v 0 c 0.42333,0.71437 0.68792,1.48166 0.79375,2.32833 0.0794,0.60854 0.13229,1.24354 0.0794,1.85208 -0.0529,0.84667 -0.15875,1.66688 -0.3175,2.48709 0,0.0794 0,0.1852 -0.10583,0.23812 q -0.3175,-0.0529 -0.26458,-0.39687 c 0.0529,-0.29105 0.13229,-0.58209 0.13229,-0.87313 0.0529,-0.29104 0.0794,-0.58208 0.0794,-0.87312 0.0529,-0.15875 0.0529,-0.3175 0.0529,-0.47625 0,-0.37042 0.0529,-0.74084 0,-1.13771 -0.0794,-0.13229 -0.0529,-0.3175 -0.0529,-0.44979 -0.0529,-0.60855 -0.1852,-1.16417 -0.39687,-1.7198 v 0 c -0.0265,-0.0529 -0.0529,-0.10583 -0.0794,-0.15875 v 0 c -0.0265,-0.0265 -0.0529,-0.10583 -0.0794,-0.13229 v 0 c -0.0529,-0.0265 -0.0529,-0.10583 -0.0794,-0.13229 -0.55562,-1.05833 -1.64041,-1.71979 -2.93687,-1.48167 -0.15875,0.0265 -0.29104,0.0529 -0.44979,0.10584 -0.55563,0.15875 -1.03188,0.42333 -1.48167,0.79375 -1.05833,0.82021 -1.74625,1.905 -2.24896,3.12208 -0.37041,0.84667 -0.60854,1.74625 -0.76729,2.64583 -0.0265,0.21167 -0.0794,0.23813 -0.23812,0.23813 -0.0529,0 -0.10584,0 -0.15875,-0.0529 0,0 0,0 0,-0.0265 v 0 z"
       id="path469"
       style="fill:#f5f5f5;stroke-width:0px" />
    <path
       class="cls-42"
       d="m 109.39448,154.48582 c -0.21167,0.18521 -0.47625,0.18521 -0.74083,0.15875 -0.50271,-0.0794 -0.82021,-0.42334 -1.08479,-0.84667 -0.29105,-0.47625 -0.47625,-1.00542 -0.52917,-1.56104 -0.13229,-1.03188 0,-2.03729 0.47625,-2.96333 0.21167,-0.39688 0.47625,-0.71438 0.87312,-0.92605 0.21167,-0.10583 0.42334,-0.1852 0.66146,-0.1852 0.23813,0 0.15875,0.0264 0.13229,0.15875 -0.0264,0.15875 -0.0529,0.29104 -0.0794,0.44979 0,0.0529 -0.0265,0.10583 -0.0794,0.13229 -0.44979,0.39687 -0.60854,0.92604 -0.74083,1.45521 -0.15875,0.74083 -0.15875,1.45521 0.0794,2.19604 0,0.21167 -0.0529,0.29104 -0.26459,0.3175 -0.18521,0 -0.34396,-0.0529 -0.44979,-0.21167 -0.18521,-0.21166 -0.26458,-0.47625 -0.34396,-0.74083 -0.10583,-0.39688 -0.15875,-0.76729 -0.13229,-1.16417 -0.0265,0.60854 -0.0529,1.21709 0.0794,1.82563 0.10583,0.44979 0.26458,0.87312 0.55562,1.24354 0.15875,0.21167 0.37042,0.37042 0.58208,0.52917 0.23813,0.15875 0.52917,0.13229 0.79375,0.13229 0.0794,0 0.15875,-0.0265 0.21167,0.0265 v 0 z"
       id="path470"
       style="fill:#8aa8bd;stroke-width:0px" />
    <path
       class="cls-42"
       d="m 111.37886,143.9554 c 0.29104,0.60854 0.42333,1.24354 0.5027,1.87854 0.10584,0.9525 0,1.905 -0.26458,2.8575 0,0.0529 0.0265,0.18521 -0.10583,0.10584 -0.0529,-0.0529 -0.0265,-0.1323 0,-0.18521 0.0794,-0.44979 0.15875,-0.92604 0.21166,-1.37584 0.0529,-0.42333 0.0265,-0.84666 0,-1.27 0,-0.15875 0,-0.34395 0,-0.5027 0,0.37041 0,0.74083 -0.13229,1.11125 -0.0794,0.21166 -0.15875,0.39687 -0.29104,0.58208 -0.21167,0.29104 -0.52917,0.34396 -0.87312,0.3175 -0.0529,0 -0.10584,-0.0265 -0.15875,-0.0794 0,-0.37041 0.0529,-0.74083 0.0529,-1.11125 0,-0.74083 -0.0529,-1.4552 -0.18521,-2.16958 0.10584,-0.13229 0.26459,-0.13229 0.42334,-0.15875 0.21166,-0.0265 0.42333,-0.0265 0.60854,-0.0529 0.0794,0 0.15875,0 0.23812,0.0529 v 0 z"
       id="path471"
       style="fill:#8aa8bd;stroke-width:0px" />
    <path
       class="cls-42"
       d="m 101.95969,149.61748 c -0.0794,0.47625 -0.15875,0.9525 -0.18521,1.42875 0,0.635 0.0529,1.27 0.23813,1.87855 -0.0794,0.0529 -0.15875,0 -0.23813,-0.0265 -0.52917,-0.3175 -0.9525,-0.76729 -1.21708,-1.32292 0.0794,0.44979 0.21166,0.89958 0.44979,1.29646 0.37042,0.635 0.89958,1.08479 1.61396,1.32292 0.0794,0 0.13229,0.0529 0.21166,0.0794 0.0529,0.0529 0.1323,0.0794 0.21167,0.13229 -0.34396,0 -0.66146,-0.0794 -0.9525,-0.21166 -0.71437,-0.37042 -1.16417,-0.97896 -1.42875,-1.7198 -0.37042,-0.97895 -0.3175,-1.95791 0,-2.93687 0,0 0,-0.0265 0.0265,-0.0529 0.0794,-0.0794 0.18521,-0.0794 0.29104,-0.0794 0.26458,0 0.55563,0 0.82021,0.10583 0.0529,0 0.13229,0.0265 0.13229,0.10583 v 0 z"
       id="path472"
       style="fill:#8aa8bd;stroke-width:0px" />
    <path
       class="cls-28"
       d="m 111.80219,149.48519 c 0.26458,0.58209 0.29104,1.19063 0.21167,1.82563 -0.0265,0.0529 -0.0265,0.13229 -0.0265,0.21166 0,0 0,0.0529 0,0.0529 -0.0794,0.23813 -0.13229,0.47625 -0.23813,0.71438 -0.13229,0.29104 -0.3175,0.55562 -0.60854,0.71437 -0.23812,0.13229 -0.44979,0.10583 -0.635,-0.0794 -0.29104,-0.23813 -0.42333,-0.55563 -0.50271,-0.92605 -0.0265,-0.15875 -0.0529,-0.3175 -0.0529,-0.5027 0,-0.23813 0,-0.4498 0.0265,-0.68792 0.0794,-0.0794 0.0265,-0.21167 0.0794,-0.3175 0.0529,-0.3175 0.18521,-0.58208 0.3175,-0.87313 0,-0.0529 0.0529,-0.0794 0.0794,-0.13229 0.15875,-0.21166 0.39688,-0.18521 0.50271,0.0529 0.0794,0.15875 0.0794,0.34396 0.0529,0.50271 0,0.0529 0,0.0794 0,0.13229 0,0 0,0.0265 0,0.0529 0,0 0,0.0529 -0.0265,0.0794 -0.26458,0.42333 -0.3175,0.89958 -0.21167,1.37583 0,0.1323 0.0794,0.23813 0.1323,0.34396 0.15875,0.21167 0.42333,0.23813 0.58208,0 0.10583,-0.13229 0.15875,-0.26458 0.21167,-0.42333 0.10583,-0.34396 0.13229,-0.68792 0.0264,-1.03188 -0.0529,-0.21166 -0.1852,-0.34395 -0.29104,-0.5027 -0.0529,-0.21167 -0.0265,-0.42334 0.0529,-0.60855 0.0529,-0.10583 0.10583,-0.21166 0.26458,-0.13229 v 0 c 0,0 0,0 0.0265,0.0265 v 0 c 0,0 0,0.0265 0.0265,0.0529 v 0 z"
       id="path473"
       style="fill:#5f93aa;stroke-width:0px" />
    <path
       class="cls-28"
       d="m 109.39448,154.48582 c -0.13229,0 -0.26458,0.0265 -0.39687,0.0265 -0.52917,0.0264 -0.89959,-0.26459 -1.19063,-0.635 -0.42333,-0.52917 -0.60854,-1.16417 -0.68792,-1.82563 -0.0529,-0.50271 -0.0265,-0.97896 0.0529,-1.53458 0.0265,0.44979 0.0529,0.87312 0.15875,1.27 0.0794,0.34396 0.18521,0.68791 0.44979,0.92604 0.21167,0.18521 0.50271,0.10583 0.55563,-0.15875 0.10583,0.21167 0.21166,0.42333 0.34396,0.60854 0.23812,0.29104 0.52916,0.44979 0.89958,0.44979 0.18521,0 0.37042,0 0.55562,0 0.18521,0 0.1323,0 0.0529,0.10584 -0.18521,0.23812 -0.3175,0.52916 -0.60854,0.66145 -0.0529,0 -0.0529,0.0265 -0.0794,0.0794 v 0 c -0.0264,0.0265 -0.10583,0 -0.13229,0.0265 v 0 0 z"
       id="path474"
       style="fill:#5f93aa;stroke-width:0px" />
    <path
       class="cls-42"
       d="m 101.8274,146.20436 c 0.23812,-0.76729 0.58208,-1.48167 1.03187,-2.16958 0.0529,0 0.10584,0 0.15875,0 0.26459,0.0794 0.52917,0.1852 0.76729,0.29104 0.0529,0 0.1323,0.0265 0.15875,0.13229 -0.13229,0.29104 -0.23812,0.58208 -0.34395,0.87312 -0.1323,0.37042 -0.23813,0.74084 -0.37042,1.11125 -0.0529,0.0794 -0.13229,0.10584 -0.21167,0.1323 -0.39687,0.10583 -0.76729,0.0264 -1.08479,-0.18521 -0.0529,-0.0265 -0.0794,-0.0529 -0.10583,-0.10584 0,0 0,-0.0529 0,-0.0794 0,0 0,-0.0265 0,-0.0265 v 0 z"
       id="path475"
       style="fill:#8aa8bd;stroke-width:0px" />
    <path
       class="cls-48"
       d="m 106.9074,150.25248 c -0.0529,0.3175 -0.13229,0.635 -0.13229,0.9525 0,0.21167 0,0.4498 0,0.66146 0,0.23813 0.0529,0.47625 0.0794,0.71438 -0.0265,0.0529 -0.0794,0.0529 -0.10583,0.0794 -0.37042,0.10584 -0.71438,0.0794 -1.05834,-0.0265 -0.0529,0 -0.0794,-0.0794 -0.13229,-0.10583 -0.0794,-0.3175 -0.10583,-0.635 -0.10583,-0.9525 0,-0.13229 -0.0265,-0.26458 0,-0.37042 0.0529,-0.3175 0.0794,-0.60854 0.18521,-0.92604 0.0529,-0.0529 0.13229,-0.0529 0.21166,-0.0794 h 0.87313 c 0.0794,0 0.15875,0 0.21167,0.0794 v 0 z"
       id="path476"
       style="fill:#afb6c1;stroke-width:0px" />
    <path
       class="cls-36"
       d="m 110.24115,147.36853 c 0.15875,0.0265 0.3175,0.0529 0.50271,0.0265 0.34395,-0.0529 0.5027,-0.29104 0.635,-0.58208 0.15875,-0.3175 0.26458,-0.68792 0.26458,-1.05833 0,-0.15875 0.0794,-0.3175 0,-0.50271 0.21167,1.19062 0.10583,2.35479 -0.15875,3.51896 -0.52917,-0.18521 -1.00542,-0.0794 -1.50813,0.18521 0.0794,-0.55563 0.15875,-1.0848 0.23813,-1.61396 v 0 z"
       id="path477"
       style="fill:#0170ce;stroke-width:0px" />
    <path
       class="cls-11"
       d="m 105.53156,152.50144 c 0.29105,0.0794 0.58209,0.15875 0.87313,0.13229 0.15875,0 0.29104,-0.0794 0.44979,-0.0794 0.10583,0.37042 0.18521,0.74083 0.37042,1.08479 0.21166,0.39688 0.44979,0.71438 0.82021,0.97896 -1.29646,0.13229 -2.27542,-0.76729 -2.51355,-2.11667 z"
       id="path478"
       style="fill:#8289aa;stroke-width:0px" />
    <path
       class="cls-11"
       d="m 103.22969,147.79186 c 0,0.10583 -0.0794,0.15875 -0.13229,0.21167 -0.44979,0.58208 -0.635,1.24354 -0.76729,1.93145 -0.0794,0.4498 -0.0794,0.89959 -0.0529,1.34938 0.0265,0.68792 0.18521,1.32292 0.52917,1.93146 0.15875,0.29104 0.37041,0.52916 0.68791,0.66146 0.42334,0.1852 0.79375,0 1.13771,-0.26459 0.13229,-0.10583 0.18521,-0.29104 0.34396,-0.37041 -0.18521,0.42333 -0.44979,0.76729 -0.84667,1.00541 -0.37041,0.21167 -0.71437,0.18521 -1.05833,-0.0794 -0.39688,-0.26459 -0.60854,-0.66146 -0.74083,-1.11125 -0.50271,-1.48167 -0.42334,-2.93688 0.21166,-4.36563 0.15875,-0.34396 0.37042,-0.66146 0.68792,-0.89958 z"
       id="path479"
       style="fill:#8289aa;stroke-width:0px" />
    <path
       class="cls-20"
       d="m 108.54781,152.39561 c -0.10583,-0.21167 -0.1852,-0.42333 -0.1852,-0.66146 -0.0529,-0.26458 -0.0529,-0.50271 0,-0.76729 0,-0.0265 0,-0.0794 0,-0.10583 0,-0.0529 -0.0265,-0.10584 0.0529,-0.1323 0.34396,0.0529 0.71438,0 1.05834,0.0794 0.10583,0 0.1852,0.0529 0.1852,0.18521 0,0 0,0 0,0.0265 0,0 0,0.0265 0,0.0529 -0.0529,0.52917 0,1.05834 0.1323,1.56104 0,0.0794 -0.0794,0.10584 -0.1323,0.10584 -0.37041,0 -0.68791,-0.0794 -1.03187,-0.21167 -0.0529,0 -0.0794,-0.0794 -0.10583,-0.10583 v 0 z"
       id="path480"
       style="fill:#fac866;stroke-width:0px" />
    <path
       class="cls-20"
       d="m 99.551981,151.83998 c 0,0 0,0 -0.02646,-0.0529 v 0 c -0.05292,-0.0529 -0.05292,-0.13229 -0.05292,-0.21167 -0.05292,-0.60854 -0.05292,-1.21708 0.132292,-1.79917 0,-0.0529 0.02646,-0.10583 0.07937,-0.15875 0.211666,-0.0529 0.582087,0 0.714377,0.1323 -0.0529,0.23812 -0.13229,0.47625 -0.13229,0.71437 0,0.37042 0,0.74083 0,1.11125 0,0.23813 0.0794,0.44979 0.13229,0.68792 -0.0529,0.0529 -0.13229,0.0529 -0.18521,0 -0.264584,-0.10584 -0.502709,-0.21167 -0.635001,-0.47625 v 0 z"
       id="path481"
       style="fill:#fac866;stroke-width:0px" />
    <path
       class="cls-23"
       d="m 106.9074,150.25248 h -1.29646 c 0.10583,-0.5027 0.3175,-0.9525 0.60854,-1.34937 0.0794,-0.0529 0.18521,-0.0794 0.29104,-0.0529 0.23813,0 0.50271,0 0.74084,0 0.0794,0 0.1852,0 0.21166,0.10584 -0.26458,0.42333 -0.42333,0.84666 -0.55562,1.32291 v 0 z"
       id="path482"
       style="fill:#dce0e4;stroke-width:0px" />
    <path
       class="cls-28"
       d="m 102.83281,154.27415 c -0.42333,0 -0.76729,-0.23812 -1.05833,-0.44979 -0.52917,-0.39688 -0.87312,-0.92604 -1.05833,-1.5875 -0.0794,-0.26458 -0.15875,-0.52917 -0.15875,-0.82021 0.13229,0.18521 0.23812,0.39688 0.37041,0.58208 0.23813,0.3175 0.52917,0.60855 0.89959,0.82021 0.0794,0.0529 0.15875,0.0794 0.23812,0.0794 0.15875,0.50271 0.39688,0.97896 0.79375,1.34937 v 0 z"
       id="path483"
       style="fill:#5f93aa;stroke-width:0px" />
    <path
       class="cls-28"
       d="m 103.91761,144.48457 c -0.3175,-0.13229 -0.635,-0.23813 -0.92605,-0.37042 -0.0529,0 -0.10583,-0.0265 -0.15875,-0.0794 0.23813,-0.39688 0.52917,-0.7673 0.87313,-1.11125 0.0265,-0.0265 0.0529,-0.0529 0.10583,-0.0794 0.3175,0.0794 0.635,0.15875 0.89959,0.37042 -0.29105,0.39687 -0.52917,0.84666 -0.79375,1.27 z"
       id="path484"
       style="fill:#5f93aa;stroke-width:0px" />
    <path
       class="cls-28"
       d="m 101.95969,149.61748 c -0.34396,-0.10583 -0.71438,-0.15875 -1.08479,-0.13229 -0.0529,0 -0.13229,0 -0.18521,0 0,-0.15875 0.13229,-0.26458 0.15875,-0.39687 0,0 0,0 0,-0.0265 v 0 c 0,-0.0529 0.0265,-0.0794 0.0529,-0.10583 v 0 c 0,-0.0265 0,-0.0529 0.0264,-0.0529 v 0 c 0.0265,-0.0265 0,-0.10583 0.0794,-0.13229 v 0 c -0.0265,-0.0265 0,-0.0265 0.0265,-0.0529 v 0 c 0,0 0,-0.0265 0.0265,-0.0529 0,0 0,0 0.0265,-0.0265 0,-0.0529 0.0265,-0.0794 0.0794,-0.10584 v 0 c 0,0 0,0 0,0 0,-0.0265 0,-0.10583 0.0794,-0.10583 v 0 c 0,-0.0265 0,-0.0265 0.0529,-0.0529 0,0 0,0 0,0 0,0 0,-0.0265 0.0529,-0.0529 l 0.10583,-0.0794 c 0.3175,-0.15875 0.635,-0.10583 0.9525,-0.0794 0.0265,0 0.0529,0 0.0794,0.0529 -0.26459,0.44979 -0.42334,0.92604 -0.58209,1.40229 v 0 z"
       id="path485"
       style="fill:#5f93aa;stroke-width:0px" />
    <path
       class="cls-28"
       d="m 111.37886,143.9554 c -0.42334,0 -0.84667,0 -1.27,0.13229 -0.1323,-0.52916 -0.29105,-1.03187 -0.55563,-1.50812 0.0529,-0.0529 0.10583,-0.0529 0.18521,-0.0529 0.3175,0.0529 0.635,0.0794 0.89958,0.26458 0.3175,0.34396 0.55563,0.74084 0.74084,1.16417 z"
       id="path486"
       style="fill:#5f93aa;stroke-width:0px" />
    <path
       class="cls-28"
       d="m 101.80094,146.31019 c 0.29104,0.15875 0.58208,0.29104 0.92604,0.29104 0.15875,0 0.3175,-0.0794 0.50271,-0.10583 -0.0529,0.21167 -0.0794,0.39688 -0.13229,0.60854 0,0.0794 -0.0529,0.10584 -0.13229,0.13229 -0.58209,0.10584 -1.05834,0.37042 -1.50813,0.74084 0,0 -0.0265,0 -0.0794,0.0529 0.10583,-0.60854 0.23812,-1.16416 0.44979,-1.71979 z"
       id="path487"
       style="fill:#5f93aa;stroke-width:0px" />
    <path
       class="cls-32"
       d="m 100.79552,148.24165 c 0.13229,0 0.15875,-0.0794 0.18521,-0.18521 0.21167,-1.21708 0.55563,-2.38125 1.13771,-3.4925 0.39687,-0.79375 0.89958,-1.48166 1.56104,-2.09021 0.47625,-0.44979 1.03188,-0.79375 1.66688,-1.00541 0.0529,0 0.13229,-0.0529 0.1852,0 -0.84666,0.3175 -1.56104,0.82021 -2.14312,1.48166 -0.74083,0.82021 -1.24354,1.77271 -1.64042,2.80459 -0.26458,0.68791 -0.47625,1.42875 -0.58208,2.16958 0,0.0265 0.0265,0.0794 0,0.10583 v 0 c 0,0.0794 0,0.18521 -0.0529,0.23813 -0.0265,0 -0.0529,0 -0.0794,0 -0.0794,0 -0.15875,0.0529 -0.21167,-0.0529 v 0 z"
       id="path488"
       style="fill:#bab9d9;stroke-width:0px" />
    <path
       class="cls-20"
       d="m 109.71198,150.99332 c -0.0265,-0.0794 -0.0529,-0.10584 -0.15875,-0.10584 -0.29104,-0.0529 -0.60854,-0.0794 -0.92604,-0.0529 -0.0794,0 -0.15875,0 -0.21167,-0.0794 0,-0.18521 0.0265,-0.37041 0.10584,-0.52916 0.0264,-0.0794 0.0529,-0.15875 0.10583,-0.26459 0,0 0.0265,0 0,-0.0529 v 0 c 0.0529,-0.0265 0.10583,-0.0529 0.15875,-0.0265 0.3175,0.0794 0.635,0.0265 0.9525,0.0794 0.0529,0 0.10583,0 0.15875,0.0529 -0.0794,0.3175 -0.15875,0.66146 -0.21167,1.00542 v 0 z"
       id="path489"
       style="fill:#fac866;stroke-width:0px" />
    <path
       class="cls-42"
       d="m 104.71136,143.21457 c -0.29105,-0.10584 -0.60855,-0.21167 -0.89959,-0.37042 0.3175,-0.34396 0.66146,-0.635 1.08479,-0.84667 0.26459,-0.0529 0.50271,0.0794 0.71438,0.21167 0.0265,0 0.0529,0.0529 0.0265,0.0794 -0.34396,0.26458 -0.635,0.58208 -0.92604,0.89958 z"
       id="path490"
       style="fill:#8aa8bd;stroke-width:0px" />
    <path
       class="cls-28"
       d="m 111.72281,149.37936 c -0.15875,0 -0.21166,0.13229 -0.23812,0.23812 -0.0529,0.15875 -0.0529,0.3175 -0.0265,0.50271 -0.15875,0 -0.3175,0.10584 -0.50271,0.13229 0,-0.1852 0.0265,-0.39687 -0.0265,-0.58208 -0.0265,-0.10583 -0.0794,-0.21167 -0.21166,-0.26458 -0.13229,-0.0265 -0.21167,0.0794 -0.26459,0.15875 -0.15875,0.23812 -0.29104,0.52916 -0.37041,0.79375 0,0.0529 0,0.10583 -0.0529,0.13229 0,0 0,0 0,0 0.10583,-0.42333 0.26458,-0.84667 0.52917,-1.19063 0.0529,-0.0794 0.10583,-0.13229 0.18521,-0.1852 0.37041,-0.34396 0.84666,-0.21167 1.03187,0.26458 v 0 z"
       id="path491"
       style="fill:#5f93aa;stroke-width:0px" />
    <path
       class="cls-32"
       d="m 109.55323,149.19415 c 0.0794,-0.44979 0.15875,-0.89958 0.23813,-1.32292 0.0529,-0.37041 0.0794,-0.74083 0.13229,-1.11125 0.0529,-0.52916 0.0529,-1.03187 0,-1.56104 -0.0794,-0.92604 -0.26459,-1.85208 -0.71438,-2.67229 -0.0265,-0.0794 -0.10583,-0.13229 -0.0794,-0.23812 0.29104,0.39687 0.47625,0.8202 0.635,1.29645 0.29104,0.92605 0.37041,1.85209 0.34396,2.80459 -0.0265,0.89958 -0.15875,1.79916 -0.34396,2.69875 0,0.0794 0,0.21166 -0.15875,0.13229 v 0 z"
       id="path492"
       style="fill:#bab9d9;stroke-width:0px" />
    <path
       class="cls-48"
       d="m 107.46302,148.92957 c -0.0529,-0.0529 -0.10583,-0.0265 -0.18521,-0.0265 -0.34395,0 -0.68791,0 -1.05833,0 0.10583,-0.15875 0.23813,-0.3175 0.39688,-0.44979 0,0 0.0264,0 0.0529,-0.0265 v 0 c 0,0 0.0529,0 0.0794,-0.0265 v 0 c 0.39687,-0.26458 0.82021,-0.3175 1.27,-0.29104 0.0794,0 0.18521,0 0.18521,0.13229 -0.29105,0.21167 -0.52917,0.44979 -0.74084,0.74083 v 0 z"
       id="path493"
       style="fill:#afb6c1;stroke-width:0px" />
    <path
       class="cls-20"
       d="m 109.92365,149.9879 c -0.29104,0 -0.58209,0 -0.87313,0 -0.13229,0 -0.26458,-0.0265 -0.39687,-0.0529 0.0529,-0.21166 0.15875,-0.39687 0.26458,-0.55562 0.0265,-0.0529 0.0794,-0.0794 0.13229,-0.0529 0.21167,0.0529 0.42334,0.10584 0.635,0.15875 0.0794,0 0.15875,0 0.21167,-0.0794 0.13229,-0.18521 0.34396,-0.29104 0.58208,-0.37042 -0.26458,0.29104 -0.39687,0.635 -0.55562,0.97896 v 0 z"
       id="path494"
       style="fill:#fac866;stroke-width:0px" />
    <path
       class="cls-28"
       d="m 105.6374,142.31498 c -0.21167,-0.15875 -0.47625,-0.23812 -0.74084,-0.29104 0.79375,-0.50271 1.93146,-0.66146 2.61938,-0.23812 -0.3175,0 -0.635,0 -0.92604,0.0794 -0.34396,0.0794 -0.635,0.26459 -0.92604,0.44979 v 0 z"
       id="path495"
       style="fill:#5f93aa;stroke-width:0px" />
    <path
       class="cls-42"
       d="m 110.63802,142.79123 c -0.21166,-0.0529 -0.44979,-0.10583 -0.66146,-0.15875 -0.13229,-0.0264 -0.29104,-0.0529 -0.42333,-0.0529 -0.26458,-0.47625 -0.58208,-0.87313 -0.97896,-1.21709 0,0 -0.0529,-0.0265 -0.0265,-0.0794 v 0 c 0.66146,0.23812 1.27,0.60854 1.77271,1.11125 0.13229,0.13229 0.26459,0.23812 0.34396,0.39687 v 0 z"
       id="path496"
       style="fill:#8aa8bd;stroke-width:0px" />
    <path
       class="cls-20"
       d="m 99.551981,151.83998 c 0.211667,0.21167 0.423333,0.37042 0.714379,0.4498 0.0264,0 0.0794,0 0.10583,0 0.10583,0.34395 0.26458,0.66145 0.42333,0.97895 -0.10583,0.0794 -0.26458,0.10584 -0.42333,0 -0.10583,-0.0529 -0.18521,-0.10583 -0.29104,-0.1852 v 0 c 0,-0.0265 -0.0265,-0.0529 -0.0794,-0.0794 -0.132289,-0.13229 -0.158747,-0.3175 -0.264581,-0.47625 v 0 c -0.05292,-0.0529 -0.07937,-0.10583 -0.05292,-0.18521 0,0 0,-0.0529 0,-0.0529 0,-0.18521 -0.105834,-0.34396 -0.105834,-0.52917 v 0 z"
       id="path497"
       style="fill:#fac866;stroke-width:0px" />
    <path
       class="cls-20"
       d="m 108.54781,152.39561 c 0.34396,0.15875 0.71438,0.26458 1.0848,0.26458 0.0529,0 0.13229,0 0.1852,-0.0529 0.0794,0.23812 0.18521,0.42333 0.29105,0.635 0,0.0529 -0.0529,0.0794 -0.0794,0.0794 -0.23812,0 -0.50271,0.0265 -0.74083,0 -0.21167,-0.0529 -0.3175,-0.18521 -0.44979,-0.34396 -0.1323,-0.18521 -0.26459,-0.37041 -0.29105,-0.60854 v 0 z"
       id="path498"
       style="fill:#fac866;stroke-width:0px" />
    <path
       class="cls-28"
       d="m 109.89719,151.52248 c 0.0794,0.15875 0.0529,0.34396 0.10583,0.50271 0.0794,0.29104 0.18521,0.55563 0.39688,0.76729 0.3175,0.34396 0.58208,0.26459 0.89958,0 0.26458,-0.23812 0.42333,-0.58208 0.52917,-0.92604 0.0265,-0.10583 0,-0.21166 0.13229,-0.26458 -0.10583,0.66146 -0.29104,1.24354 -0.82021,1.69333 -0.23812,0.21167 -0.55562,0.15875 -0.76729,-0.0794 -0.29104,-0.34396 -0.39688,-0.76729 -0.44979,-1.21709 0,-0.15875 -0.0794,-0.3175 0,-0.47625 v 0 z"
       id="path499"
       style="fill:#5f93aa;stroke-width:0px" />
    <path
       class="cls-42"
       d="m 102.56823,148.21519 c -0.34396,-0.0265 -0.68792,0 -1.03187,0 0.5027,-0.52916 1.11125,-0.79375 1.82562,-0.79375 -0.34396,0.18521 -0.55562,0.47625 -0.79375,0.79375 z"
       id="path500"
       style="fill:#8aa8bd;stroke-width:0px" />
    <path
       class="cls-20"
       d="m 100.37219,149.77623 c -0.21167,-0.0794 -0.449792,-0.0794 -0.687917,-0.13229 -0.05292,-0.0529 0,-0.10583 0,-0.15875 0.105833,-0.21166 0.211666,-0.42333 0.343957,-0.635 0.0265,-0.0529 0.0794,-0.0794 0.13229,-0.0794 0.21167,0 0.39688,0.0265 0.58209,0.10583 -0.15875,0.29104 -0.29105,0.58208 -0.39688,0.89958 v 0 z"
       id="path501"
       style="fill:#fac866;stroke-width:0px" />
    <path
       class="cls-23"
       d="m 105.45219,149.9879 c -0.10583,-0.47625 -0.21167,-0.92604 -0.44979,-1.37583 -0.15875,-0.3175 -0.39688,-0.58209 -0.68792,-0.79375 -0.26458,-0.15875 -0.52917,-0.21167 -0.82021,-0.10584 -0.0794,0 -0.15875,0.0529 -0.23812,0.0529 0.42333,-0.37042 0.92604,-0.34396 1.32291,0.0265 0.4498,0.39687 0.635,0.92604 0.79375,1.50812 0.0529,0.15875 0.0794,0.34396 0.10584,0.50271 0,0.0529 0.0265,0.10584 0,0.15875 v 0 z"
       id="path502"
       style="fill:#dce0e4;stroke-width:0px" />
    <path
       class="cls-2"
       d="m 100.13406,148.77082 c -0.211662,0.26458 -0.370412,0.52916 -0.449787,0.84666 -0.211667,0.52917 -0.264584,1.0848 -0.211667,1.61396 0,0.18521 0.02646,0.34396 0.05292,0.52917 0,0 -0.05292,0.0794 -0.07938,0 -0.05292,-0.39688 -0.105834,-0.76729 -0.02646,-1.19063 0.05292,-0.26458 0.07937,-0.55562 0.132292,-0.8202 0.07937,-0.37042 0.264583,-0.66146 0.476252,-0.97896 0.0265,-0.0529 0.0529,-0.0794 0.13229,-0.0794 0,0 0,0.0265 0,0.0529 v 0 z"
       id="path503"
       style="fill:#141465;stroke-width:0px" />
    <path
       class="cls-2"
       d="m 108.04511,141.25665 c -1.03188,-0.55562 -2.09021,-0.52917 -3.14855,-0.0529 0,0 -0.0264,0 -0.0529,0 0,-0.0794 0.0529,-0.0794 0.10583,-0.10583 0.44979,-0.21167 0.92604,-0.3175 1.40229,-0.34396 0.55563,0 1.08479,0.10584 1.56104,0.34396 0.0529,0.0265 0.1323,0.0529 0.10584,0.13229 v 0 z"
       id="path504"
       style="fill:#141465;stroke-width:0px" />
    <path
       class="cls-20"
       d="m 100.13406,148.77082 c 0,0 0,-0.0265 0,-0.0529 0.10584,-0.10583 0.21167,-0.21167 0.3175,-0.29104 0.0529,-0.0529 0.10584,-0.0529 0.15875,0 0,0 0.0529,0 0.0794,0 0.10583,-0.0529 0.18521,0 0.26458,0.0529 0,0 0,0.0529 0,0.0529 0,0.10584 -0.10583,0.18521 -0.15875,0.23813 0,0 -0.0265,0.0265 -0.0529,0.0529 -0.21167,0.0529 -0.39688,-0.0794 -0.60855,-0.0794 v 0 z"
       id="path505"
       style="fill:#fac866;stroke-width:0px" />
    <path
       class="cls-23"
       d="m 108.20386,148.18873 c 0,-0.10583 -0.10584,-0.0529 -0.15875,-0.0529 -0.42334,0 -0.84667,0 -1.21709,0.23812 0,0 -0.0265,0 -0.0529,0 0.1852,-0.18521 0.42333,-0.26458 0.66145,-0.3175 0.37042,-0.0794 0.74084,-0.10583 1.13771,0 -0.15875,0.0794 -0.26458,0.13229 -0.37041,0.18521 v 0 z"
       id="path506"
       style="fill:#dce0e4;stroke-width:0px" />
    <path
       class="cls-2"
       d="m 109.1299,143.29394 c 0.21166,0.42334 0.29104,0.87313 0.37041,1.32292 0.0529,0.29104 0.0794,0.58208 0.0794,0.87312 -0.0794,0.0265 -0.0794,0 -0.0794,-0.0794 0,-0.68792 -0.10583,-1.32292 -0.37041,-1.95792 0,-0.0529 -0.0265,-0.10583 0,-0.15875 z"
       id="path507"
       style="fill:#141465;stroke-width:0px" />
    <path
       class="cls-20"
       d="m 109.28865,153.32165 c 0.26458,-0.0529 0.55562,0 0.82021,-0.0529 0.0264,0.0265 0.0794,0.0529 0.10583,0.1323 -0.3175,-0.0265 -0.635,0.0529 -0.92604,-0.0529 v 0 z"
       id="path508"
       style="fill:#fac866;stroke-width:0px" />
    <path
       class="cls-2"
       d="m 108.83886,141.94457 c -0.23813,-0.26459 -0.50271,-0.47625 -0.79375,-0.66146 0.21166,0 0.3175,0.13229 0.44979,0.23812 0.13229,0.0794 0.23812,0.23813 0.34396,0.37042 0,0 0,0.0529 0,0.0794 v 0 z"
       id="path509"
       style="fill:#141465;stroke-width:0px" />
    <path
       class="cls-20"
       d="m 100.08115,153.10998 c 0.10583,0 0.15875,0.0529 0.23812,0.10584 0.15875,0.0794 0.3175,0.0794 0.50271,0.0529 0.0265,0.0529 0.0529,0.0794 0.10583,0.1323 -0.3175,0 -0.60854,0 -0.8202,-0.26459 v 0 z"
       id="path510"
       style="fill:#fac866;stroke-width:0px" />
    <path
       class="cls-2"
       d="m 104.73781,141.30957 c -0.26458,0.15875 -0.5027,0.3175 -0.76729,0.47625 0,-0.13229 0.10584,-0.15875 0.15875,-0.18521 0.18521,-0.10583 0.34396,-0.29104 0.60854,-0.29104 z"
       id="path511"
       style="fill:#141465;stroke-width:0px" />
    <path
       class="cls-2"
       d="m 108.38906,150.96686 c 0,0.26458 0,0.50271 0,0.76729 0,0 -0.0529,0 -0.0529,0 -0.0529,-0.23812 -0.0265,-0.47625 0,-0.68792 0,0 0.0529,-0.0265 0.0529,-0.0529 v 0 z"
       id="path512"
       style="fill:#141465;stroke-width:0px" />
    <path
       class="cls-2"
       d="m 107.67469,147.79186 c 0.26458,-0.0265 0.50271,-0.0265 0.76729,0 -0.26458,0.10583 -0.50271,0.0794 -0.76729,0 z"
       id="path513"
       style="fill:#141465;stroke-width:0px" />
    <path
       class="cls-2"
       d="m 109.52677,147.07748 c 0.0265,0.29105 -0.0265,0.58209 -0.0794,0.87313 0,-0.29104 0,-0.58208 0.0794,-0.87313 z"
       id="path514"
       style="fill:#141465;stroke-width:0px" />
    <path
       class="cls-2"
       d="m 100.2399,151.60186 c -0.0529,-0.37042 -0.0529,-0.74083 0,-1.11125 z"
       id="path515"
       style="fill:#141465;stroke-width:0px" />
    <path
       class="cls-2"
       d="m 107.96573,154.80332 h 0.74083 z"
       id="path516"
       style="fill:#141465;stroke-width:0px" />
    <path
       class="cls-2"
       d="m 108.54781,150.19957 c -0.0264,0.18521 -0.0529,0.37041 -0.10583,0.52916 0,0.0265 0,0.0794 -0.0265,0.10584 0,-0.23813 0,-0.44979 0.13229,-0.66146 z"
       id="path517"
       style="fill:#141465;stroke-width:0px" />
    <path
       class="cls-2"
       d="m 100.79552,148.24165 c 0.0529,0.0529 0.15875,0 0.21167,0.0529 -0.13229,0.0794 -0.29104,0.0529 -0.37042,-0.0529 0.0529,0 0.10584,0 0.15875,0 z"
       id="path518"
       style="fill:#141465;stroke-width:0px" />
    <path
       class="cls-2"
       d="m 106.80156,151.86644 c -0.0264,-0.21166 -0.0264,-0.44979 0,-0.66146 0.0265,0.21167 0.0265,0.4498 0,0.66146 z"
       id="path519"
       style="fill:#141465;stroke-width:0px" />
    <path
       class="cls-2"
       d="m 100.82198,148.79728 c 0,-0.10584 0.10583,-0.15875 0.15875,-0.23813 0.0265,0.13229 -0.0265,0.21167 -0.15875,0.23813 z"
       id="path520"
       style="fill:#141465;stroke-width:0px" />
    <path
       class="cls-11"
       d="m 110.00302,150.51707 c 0,0 0,0 0,0 -0.0265,0.10583 0.0265,0.21166 -0.0794,0.29104 0,-0.10583 0,-0.21167 0.0529,-0.3175 z"
       id="path521"
       style="fill:#8289aa;stroke-width:0px" />
    <path
       class="cls-2"
       d="m 100.98073,148.47978 c -0.10583,0 -0.18521,-0.0265 -0.29104,-0.0529 0.10583,-0.0794 0.21167,-0.0529 0.29104,0.0529 z"
       id="path522"
       style="fill:#141465;stroke-width:0px" />
    <path
       class="cls-2"
       d="m 105.45219,151.17853 c 0,0.13229 0,0.26458 0,0.37041 -0.0529,-0.13229 0,-0.26458 0,-0.39687 0,0 0,0 0,0 0.0265,0 0,0 0.0265,0.0265 v 0 z"
       id="path523"
       style="fill:#141465;stroke-width:0px" />
    <path
       class="cls-2"
       d="m 100.63677,148.42686 c -0.0529,0 -0.10583,0 -0.15875,0 0,-0.10583 0.0794,-0.0794 0.13229,-0.0794 0.0529,0 0.0265,0.0529 0,0.0794 v 0 z"
       id="path524"
       style="fill:#141465;stroke-width:0px" />
    <path
       class="cls-36"
       d="m 111.9874,151.52248 c -0.0794,-0.0794 0,-0.13229 0.0265,-0.21166 0,0.0794 0,0.13229 -0.0265,0.21166 z"
       id="path525"
       style="fill:#0170ce;stroke-width:0px" />
    <path
       class="cls-2"
       d="m 101.08656,148.26811 c 0,-0.0794 0,-0.15875 0.0529,-0.23813 0,0.0794 0.0529,0.18521 -0.0529,0.23813 z"
       id="path526"
       style="fill:#141465;stroke-width:0px" />
    <path
       class="cls-23"
       d="m 105.39927,150.14665 c -0.0529,-0.0794 0,-0.13229 0.0529,-0.18521 0,0.0529 0,0.13229 -0.0529,0.18521 z"
       id="path527"
       style="fill:#dce0e4;stroke-width:0px" />
    <path
       class="cls-2"
       d="m 101.24531,148.53269 c -0.0264,0.0265 -0.0529,0.0529 -0.0794,0.10584 -0.0529,-0.10584 0,-0.0794 0.0794,-0.10584 z"
       id="path528"
       style="fill:#141465;stroke-width:0px" />
    <path
       class="cls-2"
       d="m 104.87011,141.23019 c -0.0265,0.0265 -0.0794,0.0529 -0.1323,0.0794 0,-0.10584 0.0794,-0.0794 0.1323,-0.0794 z"
       id="path529"
       style="fill:#141465;stroke-width:0px" />
    <path
       class="cls-2"
       d="m 109.05052,143.13519 c 0.0265,0.0529 0.0529,0.10584 0.0529,0.15875 -0.0529,-0.0265 -0.0794,-0.0794 -0.0529,-0.15875 z"
       id="path530"
       style="fill:#141465;stroke-width:0px" />
    <path
       class="cls-2"
       d="m 100.95427,148.92957 c 0,0.0265 -0.0529,0.0794 -0.0529,0.10583 0,-0.0529 0,-0.10583 0.0529,-0.10583 z"
       id="path531"
       style="fill:#141465;stroke-width:0px" />
    <path
       class="cls-2"
       d="m 101.08656,148.74436 c -0.0265,0.0529 -0.0529,0.0794 -0.0794,0.13229 0,-0.0529 0,-0.13229 0.0794,-0.13229 z"
       id="path532"
       style="fill:#141465;stroke-width:0px" />
    <path
       class="cls-32"
       d="m 109.10344,142.31498 c -0.0529,0 -0.0794,-0.0529 -0.0794,-0.10583 0.0529,0 0.0794,0.0529 0.0794,0.10583 z"
       id="path533"
       style="fill:#bab9d9;stroke-width:0px" />
    <path
       class="cls-2"
       d="m 101.32469,148.42686 c -0.0265,0.0265 -0.0529,0.0529 -0.0794,0.10583 0,-0.0529 0,-0.10583 0.0794,-0.10583 z"
       id="path534"
       style="fill:#141465;stroke-width:0px" />
    <path
       class="cls-2"
       d="m 108.91823,142.84415 c 0.0265,0.0265 0.0529,0.0794 0.0794,0.13229 -0.0529,-0.0265 -0.0794,-0.0794 -0.0794,-0.13229 z"
       id="path535"
       style="fill:#141465;stroke-width:0px" />
    <path
       class="cls-2"
       d="m 108.97115,143.0029 c 0.0265,0.0265 0.0529,0.0794 0.0794,0.13229 -0.0529,-0.0265 -0.0794,-0.0794 -0.0794,-0.13229 z"
       id="path536"
       style="fill:#141465;stroke-width:0px" />
    <path
       class="cls-18"
       d="m 109.39448,154.48582 c 0.0265,-0.0529 0.0794,-0.0265 0.13229,-0.0265 -0.0529,0.0265 -0.0794,0.0794 -0.13229,0.0265 z"
       id="path537"
       style="fill:#0393ef;stroke-width:0px" />
    <path
       class="cls-2"
       d="m 108.52136,147.81832 c 0.0264,0 0.0794,0 0.10583,0 -0.0265,0.0265 -0.0794,0.0265 -0.10583,0 z"
       id="path538"
       style="fill:#141465;stroke-width:0px" />
    <path
       class="cls-2"
       d="m 99.446148,149.80269 v 0.0529 c 0.02646,0 0,0 0,0 z"
       id="path539"
       style="fill:#141465;stroke-width:0px" />
    <path
       class="cls-18"
       d="m 109.52677,154.45936 c 0,-0.0529 0.0265,-0.0794 0.0794,-0.0794 0,0.0265 -0.0529,0.0529 -0.0794,0.0794 z"
       id="path540"
       style="fill:#0393ef;stroke-width:0px" />
    <path
       class="cls-2"
       d="m 101.13948,148.02998 c 0,-0.0264 0,-0.0794 0,-0.10583 0.0529,0.0529 0.0265,0.0794 0,0.10583 z"
       id="path541"
       style="fill:#141465;stroke-width:0px" />
    <path
       class="cls-37"
       d="m 111.80219,149.48519 c 0,0 0,-0.0529 -0.0265,-0.0529 0,0 0,0.0529 0.0265,0.0529 z"
       id="path542"
       style="fill:#97d1f6;stroke-width:0px" />
    <path
       class="cls-18"
       d="m 108.52136,141.28311 h -0.0265 v 0 z"
       id="path543"
       style="fill:#0393ef;stroke-width:0px" />
    <path
       class="cls-23"
       d="m 106.77511,148.37394 c 0,0.0265 -0.0529,0.0265 -0.0794,0.0265 0,-0.0265 0.0265,-0.0529 0.0794,-0.0265 z"
       id="path544"
       style="fill:#dce0e4;stroke-width:0px" />
    <path
       class="cls-2"
       d="m 108.89177,141.99748 c 0,0 -0.0265,-0.0264 -0.0529,-0.0529 0.0529,0 0.0529,0 0.0529,0.0529 z"
       id="path545"
       style="fill:#141465;stroke-width:0px" />
    <path
       class="cls-2"
       d="m 101.11302,148.69144 c 0,0 0,0.0265 -0.0265,0.0529 0,0 0,-0.0265 0.0265,-0.0529 z"
       id="path546"
       style="fill:#141465;stroke-width:0px" />
    <path
       class="cls-11"
       d="m 105.0024,153.1629 c 0,0 0,-0.0265 0,-0.0529 0,0 0,0.0265 0,0.0529 z"
       id="path547"
       style="fill:#8289aa;stroke-width:0px" />
    <path
       class="cls-23"
       d="m 106.69573,148.4004 c 0,0 -0.0265,0 -0.0529,0.0265 0,0 0.0265,0 0.0529,-0.0265 z"
       id="path548"
       style="fill:#dce0e4;stroke-width:0px" />
    <path
       class="cls-2"
       d="m 101.35115,148.37394 c 0,0 -0.0265,0.0265 -0.0529,0.0529 0,0 0.0265,-0.0265 0.0529,-0.0529 z"
       id="path549"
       style="fill:#141465;stroke-width:0px" />
    <path
       class="cls-2"
       d="m 101.40406,148.32103 c 0,0 -0.0264,0.0264 -0.0529,0.0529 0,0 0.0265,-0.0265 0.0529,-0.0529 z"
       id="path550"
       style="fill:#141465;stroke-width:0px" />
    <path
       class="cls-2"
       d="m 100.98073,148.87665 c 0,0 0,0.0265 -0.0265,0.0529 0,0 0,-0.0265 0.0265,-0.0529 z"
       id="path551"
       style="fill:#141465;stroke-width:0px" />
    <path
       class="cls-2"
       d="m 100.8749,149.0354 c 0,0 0,0 0,0.0265 v 0 c 0,0 0,0 0,0 v 0 z"
       id="path552"
       style="fill:#141465;stroke-width:0px" />
    <path
       class="cls-37"
       d="m 111.77573,149.43228 c 0,0 0,-0.0265 -0.0265,-0.0265 0.0265,0 0.0265,0 0.0265,0.0265 z"
       id="path553"
       style="fill:#97d1f6;stroke-width:0px" />
    <path
       class="cls-36"
       d="m 101.8274,146.20436 c 0,0 0,0 0,0.0265 z"
       id="path554"
       style="fill:#0170ce;stroke-width:0px" />
    <path
       class="cls-33"
       d="m 108.65365,149.90853 c 0,0 0,0 0,0.0529 0,0 0,-0.0265 0,-0.0529 z"
       id="path555"
       style="fill:#f8e756;stroke-width:0px" />
    <path
       class="cls-30"
       d="m 109.68552,151.07269 c 0,0 0,0 0,-0.0265 0,0 0,0 0,0 0,0 0,0.0265 0,0.0529 z"
       id="path556"
       style="fill:#fbf5b9;stroke-width:0px" />
    <path
       class="cls-2"
       d="m 101.13948,148.66498 c 0,0 0,0.0265 -0.0265,0.0529 0,0 0,-0.0265 0.0265,-0.0529 z"
       id="path557"
       style="fill:#141465;stroke-width:0px" />
    <path
       class="cls-4"
       d="M 99.895939,153.10998 Z"
       id="path558"
       style="fill:#0b0e69;stroke-width:0px" />
    <path
       class="cls-33"
       d="m 100.00177,153.05707 c 0.0529,0 0.0794,0 0.0794,0.0794 -0.0529,0 -0.0529,-0.0265 -0.0794,-0.0794 z"
       id="path559"
       style="fill:#f8e756;stroke-width:0px" />
    <path
       class="cls-2"
       d="m 100.5574,147.60665 c 0,0 0,0 0,0 0,0 0,0 0,0 0,0 0,0 0,-0.0265 v 0 z"
       id="path560"
       style="fill:#141465;stroke-width:0px" />
    <path
       class="cls-2"
       d="m 99.684273,152.42207 c 0,0.0529 0.02646,0.10583 0.05292,0.18521 -0.132291,0 -0.15875,-0.0794 -0.05292,-0.18521 z"
       id="path561"
       style="fill:#141465;stroke-width:0px" />
    <path
       class="cls-11"
       d="m 104.79073,150.01436 c 0.0529,0.37042 0.0794,0.71437 0.0794,1.08479 0,0.26458 -0.0794,0.52917 -0.10584,0.79375 -0.10583,0.21167 -0.21166,0.44979 -0.37041,0.635 -0.18521,0.21167 -0.4498,0.26458 -0.66146,0.10583 -0.21167,-0.15875 -0.18521,-0.26458 0.0265,-0.37041 0.1852,-0.0794 0.3175,-0.23813 0.39687,-0.39688 0.26458,-0.55562 0.26458,-1.08479 0,-1.64041 -0.0794,-0.21167 -0.23812,-0.34396 -0.42333,-0.4498 -0.15875,-0.0794 -0.18521,-0.15875 -0.0529,-0.29104 0.23813,-0.29104 0.52917,-0.29104 0.76729,0 0.13229,0.15875 0.21167,0.37042 0.29104,0.55563 v 0 z"
       id="path562"
       style="fill:#8289aa;stroke-width:0px" />
    <path
       class="cls-2"
       d="m 104.79073,150.01436 c -0.0794,0 -0.0794,-0.0529 -0.10583,-0.10583 -0.0794,-0.15875 -0.15875,-0.34396 -0.29104,-0.47625 -0.23813,-0.23813 -0.635,-0.1323 -0.71438,0.1852 0,0.0529 0,0.0529 0.0529,0.0794 0.3175,0.0794 0.47625,0.34396 0.58208,0.60854 0.18521,0.47625 0.18521,0.9525 0,1.40229 -0.10583,0.3175 -0.3175,0.58209 -0.68792,0.66146 0.21167,0.37042 0.47625,0.39688 0.74084,0.10583 0.13229,-0.13229 0.21166,-0.3175 0.29104,-0.47625 0,-0.0529 0,-0.13229 0.10583,-0.10583 -0.0265,0.26458 -0.13229,0.47625 -0.29104,0.68792 -0.26458,0.34396 -0.68792,0.34396 -0.9525,0 -0.26458,-0.34396 -0.34396,-0.76729 -0.37042,-1.19063 0,-0.18521 0,-0.34396 0,-0.52916 0.0265,-0.39688 0.10584,-0.82021 0.29105,-1.19063 0.0794,-0.13229 0.15875,-0.26458 0.29104,-0.39687 0.23812,-0.21167 0.52916,-0.18521 0.74083,0.0265 0.18521,0.18521 0.26458,0.42334 0.3175,0.68792 v 0 z"
       id="path563"
       style="fill:#141465;stroke-width:0px" />
    <path
       class="cls-4"
       d="m 103.15031,150.86103 c 0.0529,0.1852 0.0529,0.34395 0,0.52916 0,-0.18521 0,-0.34396 0,-0.52916 z"
       id="path564"
       style="fill:#0b0e69;stroke-width:0px" />
    <path
       class="cls-4"
       d="m 110.95552,150.25248 c 0.13229,-0.13229 0.29104,-0.21166 0.50271,-0.13229 0.21167,0.13229 0.29104,0.3175 0.34396,0.55563 0.0794,0.47625 0.0529,0.92604 -0.21167,1.34937 -0.10583,0.15875 -0.21166,0.26459 -0.42333,0.26459 -0.21167,0 -0.3175,-0.1323 -0.37042,-0.3175 -0.21166,-0.55563 -0.15875,-1.0848 0.10584,-1.5875 0,-0.0265 0.0265,-0.0794 0.0529,-0.10584 0,0 0,0 0.0265,0 v 0 z"
       id="path565"
       style="fill:#0b0e69;stroke-width:0px" />
    <path
       class="cls-37"
       d="m 110.95552,150.25248 c 0,0 0,0 -0.0265,0 z"
       id="path566"
       style="fill:#97d1f6;stroke-width:0px" />
    <path
       class="cls-48"
       d="m 104.26156,151.28436 c -0.0529,0.13229 -0.0529,0.29104 -0.13229,0.42333 -0.0529,0.0794 -0.13229,0.13229 -0.21166,0.15875 -0.21167,0.0794 -0.34396,0 -0.42334,-0.18521 -0.15875,-0.34395 -0.13229,-0.71437 -0.10583,-1.08479 0,-0.23812 0.0794,-0.44979 0.15875,-0.66146 0.0265,-0.10583 0.10583,-0.13229 0.21167,-0.0794 0.15875,0.0529 0.26458,0.18521 0.37041,0.34396 0.10584,0.18521 0.13229,0.39687 0.21167,0.60854 0.0265,0.15875 0.0265,0.34396 0,0.50271 v 0 z"
       id="path567"
       style="fill:#afb6c1;stroke-width:0px" />
    <path
       class="cls-11"
       d="m 103.33552,150.59644 c 0.0265,0.34396 0.0265,0.68792 0.15875,1.00542 0.10584,0.26458 0.18521,0.3175 0.44979,0.18521 0.0529,0 0.10584,-0.0529 0.18521,-0.0794 -0.0794,0.23813 -0.21166,0.42334 -0.44979,0.50271 -0.10583,0.0265 -0.15875,0 -0.18521,-0.10583 -0.15875,-0.50271 -0.21166,-1.00542 -0.10583,-1.53459 v 0 z"
       id="path568"
       style="fill:#8289aa;stroke-width:0px" />
    <path
       class="cls-4"
       d="m 104.26156,151.28436 c 0,-0.15875 0,-0.34396 0,-0.50271 0.0794,0.18521 0.0265,0.37042 0,0.52917 0,0 0,0 0,0 z"
       id="path569"
       style="fill:#0b0e69;stroke-width:0px" />
    <path
       class="cls-20"
       d="m 110.87615,151.01978 c 0.0794,-0.18521 0.10583,-0.42334 0.23812,-0.58209 0.13229,-0.18521 0.26459,-0.15875 0.37042,0 0.0529,0.10584 0.0794,0.23813 0.13229,0.37042 0,0.13229 0,0.26458 0,0.39687 0,0.0529 -0.0265,0.1323 -0.0529,0.21167 0,0.0265 0,0.0529 0,0.10583 -0.0264,0.0794 -0.0794,0.18521 -0.13229,0.26459 -0.13229,0.18521 -0.26458,0.21166 -0.44979,0.0794 -0.0265,-0.0529 -0.0529,-0.0794 -0.0529,-0.13229 v 0 c -0.0794,-0.21167 -0.0529,-0.44979 -0.0265,-0.68792 v 0 z"
       id="path570"
       style="fill:#fac866;stroke-width:0px" />
    <path
       class="cls-58"
       d="m 110.95552,151.83998 c 0.26459,0.0794 0.34396,0.0529 0.50271,-0.1852 0,-0.0529 0,-0.10584 0.0794,-0.1323 0,0.15875 -0.0794,0.29105 -0.15875,0.42334 -0.1323,0.18521 -0.21167,0.18521 -0.37042,0.0265 -0.0265,0 0,-0.0529 -0.0265,-0.0529 v 0 c 0,0 0,-0.0529 0,-0.0794 v 0 z"
       id="path571"
       style="fill:#bbae58;stroke-width:0px" />
    <path
       class="cls-2"
       d="m 110.87615,151.01978 c 0,0.23812 0,0.47625 0.0529,0.68791 -0.13229,-0.21166 -0.10583,-0.44979 -0.0529,-0.68791 z"
       id="path572"
       style="fill:#141465;stroke-width:0px" />
    <path
       class="cls-2"
       d="m 111.59052,151.23144 c 0.0265,-0.13229 0,-0.26458 0,-0.42333 0.0529,0.18521 0.0529,0.34396 0,0.52917 -0.0265,-0.0265 0,-0.0794 0,-0.10584 z"
       id="path573"
       style="fill:#141465;stroke-width:0px" />
    <path
       class="cls-2"
       d="m 110.95552,151.83998 v 0.0794 c -0.0529,-0.0529 -0.0794,-0.10583 -0.0529,-0.18521 0,0.0265 0.0265,0.0794 0.0529,0.10583 z"
       id="path574"
       style="fill:#141465;stroke-width:0px" />
    <path
       class="cls-58"
       d="m 111.59052,151.23144 c 0,0.0265 0,0.0794 0,0.10584 0,0 0,0.0529 -0.0265,0.0794 0,-0.0529 0,-0.13229 0.0265,-0.18521 z"
       id="path575"
       style="fill:#bbae58;stroke-width:0px" />
    <path
       class="cls-2"
       d="m 110.95552,151.8929 c 0,0 0.0265,0.0529 0.0265,0.0529 -0.0265,0 -0.0265,-0.0265 -0.0265,-0.0529 z"
       id="path576"
       style="fill:#141465;stroke-width:0px" />
    <path
       class="cls-23"
       d="m 103.67948,150.33186 c 0,-0.0794 0,-0.18521 0.0794,-0.21167 0.10583,0 0.15875,0.0529 0.1852,0.13229 0.0529,0.1323 0.0794,0.23813 0.0794,0.37042 0,0.0529 -0.0265,0.10583 -0.10583,0.13229 -0.0529,0 -0.10584,0 -0.1323,-0.0794 -0.0794,-0.10584 -0.13229,-0.23813 -0.13229,-0.37042 v 0 z"
       id="path577"
       style="fill:#dce0e4;stroke-width:0px" />
    <path
       class="cls-52"
       d="m 100.74261,159.01019 c -0.0265,-0.68791 -0.0529,-1.34937 -0.10584,-2.06375 -0.34396,0.13229 -0.661456,0.29104 -1.005414,0.42334 -0.343958,0.13229 -0.687917,0.29104 -1.031875,0.42333 -0.105833,0.0529 -0.15875,0.10583 -0.132292,0.21167 0.05292,0.79375 0.07937,1.5875 0.132292,2.38125 0.02646,0.55562 -0.291042,0.87312 -0.846667,0.84666 -0.396875,0 -0.740833,-0.23812 -0.740833,-0.52916 0,-0.29105 0.291042,-0.55563 0.714375,-0.60855 0.238125,0 0.449792,0 0.635,0.1323 0,-0.50271 0,-0.97896 0,-1.48167 0,-0.52917 -0.05292,-1.08479 -0.07937,-1.61396 0,-0.21167 0.07937,-0.34396 0.264583,-0.44979 0.635,-0.26458 1.27,-0.52917 1.905001,-0.79375 0.29105,-0.13229 0.34396,-0.0794 0.37042,0.21167 0.0529,1.08479 0.10583,2.14312 0.15875,3.22791 0,0.0529 0,0.10584 0,0.15875 -0.0794,0.26459 -0.37042,0.44979 -0.76729,0.47625 -0.396881,0 -0.687922,-0.13229 -0.793756,-0.39687 -0.07937,-0.21167 0,-0.42334 0.238125,-0.55563 0.370421,-0.23812 0.740841,-0.21166 1.137701,0 v 0 z"
       id="path578"
       style="fill:#3a6f7f;stroke-width:0px" />
    <path
       class="cls-52"
       d="m 103.30906,160.57123 c 0.0529,-0.1852 0.0794,-0.3175 0.10584,-0.44979 0.0794,-0.55562 -0.23813,-1.03187 -0.76729,-1.16416 -0.15875,-0.0529 -0.23813,0 -0.29105,0.15875 -0.21166,0.68791 -0.42333,1.37583 -0.635,2.06375 -0.13229,0.44979 -0.37041,0.60854 -0.87312,0.52916 -0.26458,-0.0529 -0.47625,-0.15875 -0.60854,-0.34396 -0.23813,-0.29104 -0.10584,-0.66145 0.23812,-0.76729 0.44979,-0.13229 0.79375,0.0265 1.11125,0.37042 0.21167,-0.68792 0.42334,-1.34938 0.635,-2.01083 0.0529,-0.18521 0.13229,-0.39688 0.18521,-0.58209 0.0529,-0.13229 0.10583,-0.18521 0.26458,-0.13229 0.74084,0.21167 1.19063,0.74083 1.11125,1.42875 -0.0264,0.37042 -0.1852,0.66146 -0.5027,0.9525 v 0 z"
       id="path579"
       style="fill:#3a6f7f;stroke-width:0px" />
    <path
       class="cls-52"
       d="m 97.011981,158.58686 c -0.238125,-0.47625 -0.423333,-0.92604 -0.661458,-1.34938 -0.07937,-0.1852 -0.05292,-0.26458 0.132291,-0.3175 0.608542,-0.23812 1.084792,0.10584 1.11125,0.7673 -0.105833,0 -0.07937,-0.10584 -0.132291,-0.15875 -0.132292,-0.18521 -0.291042,-0.29105 -0.502709,-0.29105 -0.343958,0 -0.423333,0.1323 -0.264583,0.42334 0.15875,0.34396 0.3175,0.68791 0.47625,1.00541 0.105833,0.21167 0.02646,0.37042 -0.105833,0.50271 -0.185209,0.15875 -0.449792,0.18521 -0.608542,0.0794 -0.132292,-0.0794 -0.15875,-0.29104 -0.02646,-0.42334 0.132291,-0.1852 0.343958,-0.26458 0.608541,-0.23812 v 0 z"
       id="path580"
       style="fill:#3a6f7f;stroke-width:0px" />
    <path
       class="cls-52"
       d="m 113.12511,142.84415 c -0.23813,-0.47625 -0.42334,-0.92604 -0.66146,-1.34937 -0.0794,-0.18521 -0.0529,-0.26459 0.13229,-0.3175 0.60854,-0.23813 1.08479,0.10583 1.11125,0.76729 -0.10583,0 -0.0794,-0.10584 -0.13229,-0.15875 -0.13229,-0.18521 -0.29104,-0.29104 -0.50271,-0.29104 -0.34396,0 -0.42333,0.13229 -0.26458,0.42333 0.15875,0.34396 0.3175,0.68792 0.47625,1.00542 0.10583,0.21166 0.0264,0.37041 -0.10584,0.5027 -0.18521,0.15875 -0.44979,0.18521 -0.60854,0.0794 -0.13229,-0.10583 -0.15875,-0.29104 -0.0265,-0.42333 0.13229,-0.18521 0.34396,-0.26459 0.60854,-0.23813 v 0 z"
       id="path581"
       style="fill:#3a6f7f;stroke-width:0px" />
    <path
       class="cls-52"
       d="m 113.54844,138.63728 c -0.0265,-0.68792 -0.0529,-1.34938 -0.10583,-2.06375 -0.34396,0.13229 -0.66146,0.29104 -1.00542,0.42333 -0.34396,0.13229 -0.68792,0.29104 -1.03188,0.42333 -0.10583,0.0529 -0.15875,0.10584 -0.13229,0.21167 0.0529,0.79375 0.0794,1.5875 0.13229,2.38125 0.0265,0.55562 -0.29104,0.87312 -0.84666,0.84667 -0.39688,0 -0.74084,-0.23813 -0.74084,-0.52917 0,-0.29104 0.29105,-0.55563 0.71438,-0.60854 0.23812,0 0.44979,0 0.635,0.13229 0,-0.50271 0,-0.97896 0,-1.48167 0,-0.52916 -0.0529,-1.08479 -0.0794,-1.61396 0,-0.21166 0.0794,-0.34395 0.26459,-0.42333 0.635,-0.26458 1.27,-0.52917 1.905,-0.79375 0.29104,-0.13229 0.34396,-0.10583 0.37041,0.21167 0.0529,1.08479 0.10584,2.14312 0.15875,3.22791 0,0.0529 0,0.10584 0,0.15875 -0.0794,0.26459 -0.37041,0.4498 -0.76729,0.47625 -0.39687,0 -0.68791,-0.13229 -0.79375,-0.39687 -0.0794,-0.21167 0,-0.42333 0.23813,-0.55563 0.37041,-0.23812 0.74083,-0.21166 1.13771,0 v 0 z"
       id="path582"
       style="fill:#3a6f7f;stroke-width:0px" />
  </g>
</svg>
