<?xml version="1.0" encoding="UTF-8" standalone="no"?>
<!-- Created with Inkscape (http://www.inkscape.org/) -->

<svg
   width="18.25625mm"
   height="18.01815mm"
   viewBox="0 0 18.25625 18.01815"
   version="1.1"
   id="svg1"
   inkscape:version="1.3.2 (091e20e, 2023-11-25)"
   sodipodi:docname="sleep.svg"
   xmlns:inkscape="http://www.inkscape.org/namespaces/inkscape"
   xmlns:sodipodi="http://sodipodi.sourceforge.net/DTD/sodipodi-0.dtd"
   xmlns="http://www.w3.org/2000/svg"
   xmlns:svg="http://www.w3.org/2000/svg">
  <sodipodi:namedview
     id="namedview1"
     pagecolor="#ffffff"
     bordercolor="#000000"
     borderopacity="0.25"
     inkscape:showpageshadow="2"
     inkscape:pageopacity="0.0"
     inkscape:pagecheckerboard="0"
     inkscape:deskcolor="#d1d1d1"
     inkscape:document-units="mm"
     inkscape:zoom="0.2102413"
     inkscape:cx="35.673295"
     inkscape:cy="33.295075"
     inkscape:window-width="1312"
     inkscape:window-height="449"
     inkscape:window-x="0"
     inkscape:window-y="25"
     inkscape:window-maximized="0"
     inkscape:current-layer="layer1" />
  <defs
     id="defs1" />
  <g
     inkscape:label="Layer 1"
     inkscape:groupmode="layer"
     id="layer1"
     transform="translate(-96.04375,-139.43537)">
    <path
       class="cls-24"
       d="m 103.08167,139.43541 h -0.55563 c -1.71979,0.26459 -3.254374,1.05834 -4.868332,1.5875 -0.264583,0.10584 -0.555625,0.21167 -0.846667,0.29104 -0.423333,0.15875 -0.714375,0.39688 -0.767291,0.87313 v 10.34521 c 0.05292,0.0794 0.105833,0.21166 0.211666,0.21166 0.529167,0.0529 1.084792,0.1323 1.5875,-0.15875 0.238125,-0.13229 0.3175,-0.34395 0.3175,-0.60854 0,-0.37041 0,-0.74083 0,-1.13771 0,-0.39687 0.105834,-0.47625 0.47625,-0.3175 1.322917,0.58209 2.672294,1.13771 3.995204,1.74625 1.19063,0.52917 2.38125,1.0848 3.57188,1.5875 0.47625,0.18521 0.66146,0.47625 0.635,0.97896 -0.0265,0.635 0,1.29646 0,1.93146 0,0.55563 0.0529,0.58208 0.60854,0.635 0.0529,0 0.10583,0 0.15875,0.0529 h 0.55563 c 0.66145,-0.15875 0.66145,-0.15875 0.66145,-0.84667 0,-0.68792 0,-1.40229 0,-2.09021 0,-0.29104 0.10584,-0.52916 0.39688,-0.635 1.05833,-0.39687 2.09021,-0.84666 3.14854,-1.24354 0.44979,-0.15875 0.50271,-0.10583 0.52917,0.37042 0,0.23812 0,0.44979 0,0.68791 0,0.47625 0.13229,0.68792 0.44979,0.7673 0.42333,0.10583 0.68792,0 0.9525,-0.39688 v -7.75229 c -0.18521,-0.82021 -0.635,-1.08479 -1.45521,-0.79375 -0.50271,0.15875 -1.00542,0.34396 -1.48167,0.52917 -0.26458,0.10583 -0.5027,0.10583 -0.74083,-0.0794 -0.74083,-0.47625 -1.56104,-0.74083 -2.43417,-0.82021 -0.1852,0 -0.34395,-0.10583 -0.52916,-0.18521 -0.92604,-0.55562 -1.905,-0.92604 -3.01625,-0.76729 -0.39688,0.0529 -0.79375,-0.42333 -0.82021,-0.92604 0,-0.55562 0,-1.13771 0,-1.69333 0,-0.37042 0,-0.71438 0,-1.08479 0,-0.71438 -0.0794,-0.82021 -0.74083,-1.05834 z"
       id="path359"
       style="fill:#8eb49d;stroke-width:0px" />
    <path
       class="cls-53"
       d="m 107.315,152.69104 v 3.99521 c 0,0.42333 0.0529,0.47625 0.635,0.47625 0.34396,0 0.47625,-0.1323 0.47625,-0.47625 0,-0.87313 0,-1.7198 0,-2.59292 0,-0.3175 0.0794,-0.47625 0.39687,-0.60854 1.45521,-0.58209 2.88396,-1.16417 4.33917,-1.74625 0.10583,-0.0529 0.21167,-0.0794 0.29104,-0.10584 0.0794,0 0.15875,-0.0529 0.21167,0.0265 0.0529,0.0794 0,0.18521 -0.0794,0.23813 -0.23812,0.0794 -0.21166,0.26458 -0.21166,0.47625 0,0.42333 0,0.87312 0,1.29646 0,0.23812 0.0794,0.39687 0.3175,0.39687 0.26458,0 0.3175,-0.15875 0.3175,-0.39687 0,-1.03188 0,-2.0373 0,-3.06917 0,-1.03188 0,-2.59292 0,-3.88938 0,-0.79375 -0.42334,-1.05833 -1.16417,-0.76729 -1.5875,0.60854 -3.20146,1.19063 -4.81542,1.77271 -0.66145,0.23813 -0.74083,0.37042 -0.74083,1.05833 v 3.88938 0 z"
       id="path360"
       style="fill:#e5dccc;stroke-width:0px" />
    <path
       class="cls-53"
       d="m 103.34625,143.21895 c 0,-1.00541 0,-1.905 0,-2.8575 0,-0.5027 -0.34396,-0.71437 -0.82021,-0.58208 -0.39687,0.10583 -0.79375,0.26458 -1.19062,0.39688 -1.428754,0.5027 -2.857504,1.00541 -4.286254,1.53458 -0.608541,0.21167 -0.714375,0.34396 -0.687916,0.97896 0.05292,3.06916 -0.05292,6.13833 -0.05292,9.2075 0,0.37041 0.132292,0.47625 0.47625,0.42333 0.132292,0 0.291042,0 0.449792,-0.0265 0.291041,0 0.449791,-0.18521 0.449791,-0.47625 0,-0.50271 0,-1.03187 0,-1.53458 0,-0.23813 -0.07937,-0.42333 -0.343958,-0.47625 -0.264583,-0.0529 -0.3175,-0.23813 -0.3175,-0.47625 0,-0.66146 0,-1.34938 0,-2.01083 0,-0.15875 -0.05292,-0.34396 0.15875,-0.4498 0.185208,-0.10583 0,-0.23812 -0.05292,-0.34395 -0.291041,-0.47625 -0.396875,-0.97896 -0.370416,-1.53459 0,-0.39687 0.185208,-0.66146 0.529166,-0.82021 1.296459,-0.5027 2.619375,-1.00541 3.915825,-1.50812 0.42334,-0.15875 0.84667,-0.10583 1.24355,0.10583 0.26458,0.13229 0.52916,0.29104 0.84666,0.47625 v 0 z"
       id="path361"
       style="fill:#e5dccc;stroke-width:0px" />
    <path
       class="cls-22"
       d="m 107.28854,145.38854 c -0.87312,-0.60854 -1.77271,-0.74084 -2.72521,-0.58209 -1.79916,0.29105 -3.4925,0.84667 -5.132914,1.5875 -0.529166,0.23813 -0.714375,0.68792 -0.79375,1.19063 -0.07937,0.66146 -0.07937,1.34937 -0.05292,2.01083 0,0.23813 0.07937,0.42334 0.3175,0.52917 0.582083,0.23812 1.164174,0.47625 1.772714,0.74083 0.13229,-0.58208 0,-1.13771 0.0529,-1.71979 0,-0.23812 0.0529,-0.47625 0,-0.71437 -0.10583,-0.74084 0.3175,-1.11125 0.92605,-1.37584 1.79916,-0.79375 3.65125,-1.32291 5.66208,-1.64041 v 0 z"
       id="path362"
       style="fill:#f4f4f4;stroke-width:0px" />
    <path
       class="cls-22"
       d="m 97.049166,145.38854 c 0.05292,0.60854 0.370417,1.29646 1.058334,1.77271 0.185208,0.13229 0.3175,0.15875 0.396875,-0.1323 0.15875,-0.5027 0.555625,-0.76729 1.005416,-0.97895 1.296459,-0.58209 2.619379,-1.03188 3.995209,-1.34938 0.34396,-0.0794 0.34396,-0.18521 0.18521,-0.44979 -0.21167,-0.3175 -0.44979,-0.58208 -0.74084,-0.84667 -0.55562,-0.52916 -1.16416,-0.635 -1.905,-0.37041 -1.111246,0.44979 -2.275412,0.8202 -3.386662,1.24354 -0.555625,0.21166 -0.608542,0.29104 -0.608542,1.08479 z"
       id="path363"
       style="fill:#f4f4f4;stroke-width:0px" />
    <path
       class="cls-53"
       d="m 101.01792,150.46854 c -0.10584,0.42333 0.0794,0.58208 0.42333,0.74083 1.66687,0.74083 3.33375,1.50813 5.02708,2.2225 0.15875,0.0794 0.37042,0.29104 0.52917,0.10583 0.13229,-0.1852 0.10583,-0.47625 0,-0.68791 -0.0794,-0.21167 -0.26458,-0.3175 -0.44979,-0.39688 -1.74625,-0.76729 -3.4925,-1.56104 -5.23875,-2.32833 -0.58209,-0.26458 -0.15875,0.29104 -0.29104,0.34396 z"
       id="path364"
       style="fill:#e5dccc;stroke-width:0px" />
    <path
       class="cls-22"
       d="m 106.20375,149.70125 c -1.37583,-0.55563 -2.75167,-1.0848 -4.04813,-1.74625 -0.21166,-0.10584 -0.42333,-0.18521 -0.60854,-0.3175 -0.23812,-0.18521 -0.34396,0 -0.42333,0.15875 -0.13229,0.26458 0.13229,0.21166 0.23812,0.23812 1.37584,0.55563 2.75167,1.13771 4.18042,1.56104 0.21167,0.0529 0.44979,0.18521 0.68792,0.10584 z"
       id="path365"
       style="fill:#f4f4f4;stroke-width:0px" />
    <path
       class="cls-22"
       d="m 97.260833,147.69041 c 0,0.47625 0.47625,0.89959 1.005417,0.87313 0.02646,0 0.07937,0 0.105833,0 0.132292,-0.13229 0,-0.97896 -0.211667,-1.05834 -0.105833,-0.0529 -0.211666,-0.10583 -0.3175,-0.15875 -0.370416,-0.15875 -0.555625,-0.0529 -0.555625,0.34396 v 0 z"
       id="path366"
       style="fill:#f4f4f4;stroke-width:0px" />
    <path
       class="cls-53"
       d="m 97.260833,149.06625 c -0.07937,0.29104 0.07937,0.44979 0.396875,0.5027 0.05292,0 0.105833,0.0529 0.15875,0.0529 0.185208,0 0.396875,0.34396 0.555625,0.0794 0.185208,-0.34396 0,-0.74084 -0.370417,-0.89959 -0.105833,-0.0529 -0.211666,-0.0794 -0.291041,-0.10583 -0.291042,-0.10583 -0.449792,0 -0.449792,0.34396 v 0 z"
       id="path367"
       style="fill:#e5dccc;stroke-width:0px" />
  </g>
</svg>
